<?xml version="1.0" encoding="UTF-8"?>
<svg width="402px" height="78px" viewBox="0 0 402 78" version="1.1" xmlns="http://www.w3.org/2000/svg" xmlns:xlink="http://www.w3.org/1999/xlink">
    <!-- Generator: Sketch 52.2 (67145) - http://www.bohemiancoding.com/sketch -->
    <title>logo/mainaap</title>
    <desc>Created with Sketch.</desc>
    <g id="Page-1" stroke="none" stroke-width="1" fill="none" fill-rule="evenodd">
        <g id="logo/american-poets" transform="translate(-1.000000, -3.000000)">
            <path d="M282.715731,80.7925011 L282.715731,51.5237615 L289.685911,51.5237615 L289.685911,55.4860083 C290.264807,54.0866363 291.156606,52.9781617 292.361334,52.1605511 C293.566063,51.3429406 295.060217,50.9341414 296.843841,50.9341414 C298.877798,50.9341414 300.661395,51.4412096 302.194686,52.4553612 C303.727977,53.4695127 304.885751,54.8256253 305.668042,56.5237396 C306.450333,58.2218538 306.841473,60.1243422 306.841473,62.2312617 C306.841473,64.3539045 306.450333,66.2642544 305.668042,67.9623687 C304.885751,69.6604829 303.727977,71.0165955 302.194686,72.030747 C300.661395,73.0448986 298.877798,73.5519668 296.843841,73.5519668 C295.060217,73.5519668 293.566063,73.1431676 292.361334,72.3255571 C291.156606,71.5079465 290.264807,70.3994719 289.685911,69.0001 L289.685911,80.7925011 L282.715731,80.7925011 Z M289.5451,62.679373 C289.5451,64.3617639 290.02229,65.7218073 290.976685,66.7595437 C291.931081,67.7972802 293.151437,68.3161407 294.63779,68.3161407 C296.24931,68.3161407 297.50878,67.7501111 298.416238,66.6180349 C299.323696,65.4859588 299.777418,64.0237156 299.777418,62.2312617 C299.777418,60.4388078 299.323696,58.9765647 298.416238,57.8444885 C297.50878,56.7124123 296.24931,56.1463827 294.63779,56.1463827 C293.151437,56.1463827 291.931081,56.6652432 290.976685,57.7029797 C290.02229,58.7407162 289.5451,60.108621 289.5451,61.8067353 L289.5451,62.679373 Z M310.353492,62.2312617 C310.353492,58.9450962 311.487797,56.2407326 313.756442,54.1180897 C316.025087,51.9954469 318.880407,50.9341414 322.322489,50.9341414 C325.748925,50.9341414 328.592511,51.9915162 330.853333,54.1062973 C333.114154,56.2210785 334.244548,58.9293729 334.244548,62.2312617 C334.244548,65.5488738 333.118066,68.2650297 330.865067,70.3798109 C328.612068,72.4945921 325.76457,73.5519668 322.322489,73.5519668 C318.880407,73.5519668 316.025087,72.4945921 313.756442,70.3798109 C311.487797,68.2650297 310.353492,65.5488738 310.353492,62.2312617 Z M318.755258,57.7029797 C317.894738,58.8350558 317.464484,60.3444681 317.464484,62.2312617 C317.464484,64.1180553 317.894738,65.6313983 318.755258,66.7713361 C319.615779,67.9112739 320.804844,68.4812343 322.322489,68.4812343 C323.840134,68.4812343 325.029199,67.9112739 325.889719,66.7713361 C326.75024,65.6313983 327.180493,64.1180553 327.180493,62.2312617 C327.180493,60.3444681 326.75024,58.8350558 325.889719,57.7029797 C325.029199,56.5709035 323.840134,56.0048739 322.322489,56.0048739 C320.804844,56.0048739 319.615779,56.5709035 318.755258,57.7029797 Z M337.803504,62.5850337 C337.803504,59.2202518 338.906519,56.437273 341.11258,54.2360137 C343.318641,52.0347545 346.087911,50.9341414 349.420472,50.9341414 C351.172804,50.9341414 352.745186,51.2171562 354.137665,51.7831943 C355.530143,52.3492324 356.664448,53.1275231 357.540615,54.1180897 C358.416781,55.1086564 359.08563,56.2407156 359.547182,57.5143013 C360.008734,58.7878869 360.239506,60.1557918 360.239506,61.6180569 L360.239506,63.3397474 L344.67981,63.3397474 C344.711102,64.8649056 345.192204,66.1030953 346.123131,67.0543538 C347.054057,68.0056122 348.301793,68.4812343 349.866376,68.4812343 C352.228895,68.4812343 353.863859,67.5299901 354.771317,65.6274732 L360.145632,67.2548246 C359.441569,69.3302976 358.178188,70.8986712 356.355449,71.9599926 C354.532711,73.021314 352.268011,73.5519668 349.561283,73.5519668 C346.08791,73.5519668 343.25997,72.5417612 341.077377,70.5213197 C338.894784,68.5008782 337.803504,65.855476 337.803504,62.5850337 Z M344.820622,60.0614599 L353.856041,60.0614599 C353.809104,58.8507673 353.394495,57.8327002 352.612204,57.007228 C351.829913,56.1817558 350.766013,55.7690259 349.420472,55.7690259 C348.121868,55.7690259 347.081436,56.1699635 346.299145,56.9718508 C345.516854,57.7737381 345.024018,58.8035975 344.820622,60.0614599 Z" id="poe" fill="#020000" fill-rule="evenodd"></path>
            <path d="M359.334207,56.3350611 L359.334207,51.5237615 L363.323873,51.5237615 L363.323873,46.2407658 L370.059367,44.8964321 L370.059367,51.5237615 L377.921355,51.5237615 L377.921355,56.3350611 L370.059367,56.3350611 L370.059367,64.7548355 C370.059367,65.7454022 370.313608,66.5236929 370.822097,67.089731 C371.330586,67.6557691 372.030727,67.9387839 372.922539,67.9387839 C373.908226,67.9387839 374.67486,67.7107997 375.222463,67.2548246 C375.770067,66.7988495 376.388068,65.9969742 377.076485,64.8491748 L380.432497,68.9057607 C379.525039,70.2422396 378.339886,71.3507142 376.877001,72.2312179 C375.414117,73.1117215 373.697013,73.5519668 371.725639,73.5519668 C369.237953,73.5519668 367.21576,72.8562221 365.659,71.4647118 C364.102241,70.0732015 363.323873,68.0095519 363.323873,65.2737012 L363.323873,56.3350611 L359.334207,56.3350611 Z" id="t" fill="#020000" fill-rule="evenodd"></path>
            <path d="M380.716937,68.8114215 L385.105569,65.7218124 C385.747048,66.7123791 386.73272,67.4906698 388.062615,68.0567079 C389.392511,68.6227459 390.7615,68.9057607 392.169624,68.9057607 C394.563435,68.9057607 395.760323,68.3240081 395.760323,67.1604854 C395.760323,66.6416171 395.55693,66.2524718 395.150139,65.9930377 C394.743347,65.7336035 394.133169,65.5252732 393.319586,65.3680404 L388.83708,64.5189875 C384.096395,63.5441442 381.726088,61.3036104 381.726088,57.7973189 C381.726088,55.8161856 382.582684,54.1770582 384.295902,52.8798876 C386.00912,51.582717 388.242528,50.9341414 390.996193,50.9341414 C395.517837,50.9341414 398.952044,52.3492154 401.298918,55.1794058 L397.450064,58.1275061 C395.85419,56.4293919 393.702921,55.5803475 390.996193,55.5803475 C390.198256,55.5803475 389.521584,55.7218549 388.966157,56.0048739 C388.41073,56.287893 388.133021,56.7045536 388.133021,57.2548684 C388.133021,58.0567557 388.735376,58.5756162 389.940105,58.8114654 L395.666449,60.0614599 C400.000342,61.0363033 402.167257,63.1274682 402.167257,66.3350173 C402.167257,68.5362765 401.263724,70.289396 399.456631,71.5944282 C397.649538,72.8994605 395.22056,73.5519668 392.169624,73.5519668 C389.838396,73.5519668 387.604988,73.1392369 385.469333,72.3137647 C383.333678,71.4882925 381.749561,70.3208564 380.716937,68.8114215 Z" id="s" fill="#020000" fill-rule="evenodd"></path>
            <path d="M38.4203414,67.2548246 C38.4203414,66.3271511 38.6119999,65.5016912 38.9953226,64.7784204 C39.3786454,64.0551495 39.9379752,63.4458815 40.673329,62.9505982 C41.4086828,62.4553149 42.1909624,62.0465157 43.0201911,61.7241885 C43.8494199,61.4018612 44.8429149,61.0913311 46.000706,60.7925888 L52.8300747,59.0473134 L52.8300747,58.3161845 C52.8300747,56.6809634 51.8365797,55.8633651 49.8495598,55.8633651 C48.5666021,55.8633651 47.5183475,56.1542414 46.7047646,56.7360028 C45.8911817,57.3177641 45.4139912,58.0567472 45.2731787,58.9529742 L39.1713373,57.3492076 C39.9849202,55.3680743 41.3226182,53.8036314 43.1844715,52.655832 C45.0463247,51.5080325 47.3775177,50.9341414 50.1781205,50.9341414 C56.3112841,50.9341414 59.3778199,53.5127207 59.3778199,58.6699566 L59.3778199,67.3019942 C59.3778199,67.7894159 59.5108075,68.1628382 59.7767865,68.4222723 C60.0427655,68.6817064 60.4026141,68.8114215 60.8563431,68.8114215 C61.7481551,68.8114215 62.5460802,68.4890991 63.2501424,67.8444446 L63.7429834,71.9953698 C62.1158176,73.0016598 60.4652077,73.5047972 58.7911044,73.5047972 C57.2734593,73.5047972 55.9787867,73.095998 54.9070476,72.2783875 C53.8353086,71.4607769 53.189928,70.4309175 52.9708864,69.1887784 C52.376345,70.4780873 51.4141412,71.4843622 50.084246,72.2076331 C48.7543509,72.9309039 47.1897918,73.292534 45.3905218,73.292534 C43.3252729,73.292534 41.6472833,72.7579505 40.3565026,71.6887674 C39.065722,70.6195844 38.4203414,69.1416182 38.4203414,67.2548246 Z M45.2262415,66.5472805 C45.2262415,67.2391048 45.457014,67.7894114 45.9185658,68.1982167 C46.3801177,68.607022 47.0020299,68.8114215 47.7843212,68.8114215 C49.1298622,68.8114215 50.3071929,68.3829686 51.3163486,67.5260498 C52.3255044,66.669131 52.8300747,65.5331411 52.8300747,64.1180459 L52.8300747,62.3256009 L48.3710367,63.5991802 C47.3697039,63.9136458 46.5952471,64.2909989 46.0476432,64.7312507 C45.5000393,65.1715026 45.2262415,65.7768398 45.2262415,66.5472805 Z" id="a" fill="#FFFFFF" fill-rule="evenodd"></path>
            <path d="M66.6211751,72.9623467 L66.6211751,51.5237615 L73.5913555,51.5237615 L73.5913555,55.3916691 C74.0763761,54.1180834 75.0229344,53.0567779 76.4310587,52.2077208 C77.839183,51.3586636 79.3411597,50.9341414 80.9370339,50.9341414 C82.7519496,50.9341414 84.2656606,51.3586636 85.478212,52.2077208 C86.6907635,53.0567779 87.531714,54.2124216 88.0010888,55.6746867 C88.5330469,54.3224846 89.5226305,53.1943562 90.9698693,52.2902676 C92.4171082,51.386179 94.1029206,50.9341414 96.0273572,50.9341414 C97.388544,50.9341414 98.5815203,51.1621256 99.6063219,51.6181007 C100.631123,52.0740758 101.444694,52.7069284 102.047058,53.5166773 C102.649423,54.3264262 103.095322,55.234432 103.38477,56.2407219 C103.674218,57.2470119 103.818939,58.347625 103.818939,59.5425943 L103.818939,72.9623467 L96.8956961,72.9623467 L96.8956961,61.122776 C96.8956961,59.5818946 96.5632273,58.3987355 95.8982797,57.5732633 C95.2333322,56.7477911 94.2906853,56.3350611 93.0703109,56.3350611 C91.7404157,56.3350611 90.6765156,56.8775062 89.8785785,57.9624125 C89.0806414,59.0473188 88.6816788,60.4545313 88.6816788,62.1840921 L88.6816788,72.9623467 L81.7584356,72.9623467 L81.7584356,61.122776 C81.7584356,59.5818946 81.4298782,58.3987355 80.7727535,57.5732633 C80.1156289,56.7477911 79.1768934,56.3350611 77.956519,56.3350611 C76.6266239,56.3350611 75.5666351,56.8775062 74.7765209,57.9624125 C73.9864067,59.0473188 73.5913555,60.4545313 73.5913555,62.1840921 L73.5913555,72.9623467 L66.6211751,72.9623467 Z" id="m" fill="#FFFFFF" fill-rule="evenodd"></path>
            <path d="M107.965188,62.5850337 C107.965188,59.2202518 109.068202,56.437273 111.274263,54.2360137 C113.480324,52.0347545 116.249594,50.9341414 119.582155,50.9341414 C121.334487,50.9341414 122.906869,51.2171562 124.299348,51.7831943 C125.691826,52.3492324 126.826132,53.1275231 127.702298,54.1180897 C128.578464,55.1086564 129.247313,56.2407156 129.708865,57.5143013 C130.170417,58.7878869 130.401189,60.1557918 130.401189,61.6180569 L130.401189,63.3397474 L114.841493,63.3397474 C114.872785,64.8649056 115.353887,66.1030953 116.284814,67.0543538 C117.21574,68.0056122 118.463476,68.4812343 120.028059,68.4812343 C122.390578,68.4812343 124.025543,67.5299901 124.933,65.6274732 L130.307315,67.2548246 C129.603253,69.3302976 128.339871,70.8986712 126.517132,71.9599926 C124.694394,73.021314 122.429694,73.5519668 119.722967,73.5519668 C116.249593,73.5519668 113.421653,72.5417612 111.23906,70.5213197 C109.056467,68.5008782 107.965188,65.855476 107.965188,62.5850337 Z M114.982305,60.0614599 L124.017724,60.0614599 C123.970787,58.8507673 123.556179,57.8327002 122.773887,57.007228 C121.991596,56.1817558 120.927696,55.7690259 119.582155,55.7690259 C118.283551,55.7690259 117.24312,56.1699635 116.460828,56.9718508 C115.678537,57.7737381 115.185701,58.8035975 114.982305,60.0614599 Z" id="e" fill="#FFFFFF" fill-rule="evenodd"></path>
            <path d="M134.823616,72.9623467 L134.823616,51.5237615 L141.746859,51.5237615 L141.746859,56.0520435 C142.388338,54.621225 143.307517,53.4105506 144.504422,52.419984 C145.701328,51.4294173 147.136811,50.9341414 148.810914,50.9341414 C150.923101,50.9341414 152.558065,51.6259554 153.715856,53.009604 C154.873647,54.3932527 155.452534,56.2328489 155.452534,58.5284478 C155.452534,58.7171271 155.436888,58.8429115 155.405597,58.9058046 L149.72619,61.1699456 C149.788774,60.9498197 149.820065,60.5646051 149.820065,60.0142903 C149.820065,58.9765538 149.550178,58.1550247 149.010397,57.5496785 C148.470616,56.9443322 147.66878,56.6416636 146.604864,56.6416636 C145.055927,56.6416636 143.859039,57.3059622 143.014165,58.6345794 C142.16929,59.9631965 141.746859,61.649493 141.746859,63.6935194 L141.746859,72.9623467 L134.823616,72.9623467 Z" id="r" fill="#FFFFFF" fill-rule="evenodd"></path>
            <path d="M158.476607,48.4341524 L158.476607,42.5379518 L165.869222,42.5379518 L165.869222,48.4341524 L158.476607,48.4341524 Z M158.711293,72.9623467 L158.711293,51.5237615 L165.681473,51.5237615 L165.681473,72.9623467 L158.711293,72.9623467 Z" id="i" fill="#FFFFFF" fill-rule="evenodd"></path>
            <path d="M169.921596,62.2312617 C169.921596,58.8507565 171.008964,56.1228083 173.183734,54.0473353 C175.358504,51.9718624 178.17471,50.9341414 181.632438,50.9341414 C184.370457,50.9341414 186.631245,51.5630632 188.414869,52.8209256 C190.198493,54.078788 191.403204,55.7690153 192.029037,57.8916581 L186.114944,59.6369335 C185.426528,57.3413346 184.03407,56.1935523 181.93753,56.1935523 C180.466822,56.1935523 179.281669,56.7163436 178.382034,57.7619417 C177.482399,58.8075398 177.032588,60.2972983 177.032588,62.2312617 C177.032588,64.1495019 177.482399,65.6353296 178.382034,66.6887893 C179.281669,67.7422491 180.451177,68.2689711 181.890593,68.2689711 C183.064029,68.2689711 184.014499,67.9269949 184.74203,67.2430322 C185.469561,66.5590695 185.974131,65.596033 186.255756,64.3538939 L192.263723,65.9104909 C191.731765,68.1903665 190.546611,70.0338934 188.708227,71.441127 C186.869842,72.8483606 184.51127,73.5519668 181.632438,73.5519668 C178.17471,73.5519668 175.358504,72.5181766 173.183734,70.4505653 C171.008964,68.382954 169.921596,65.6432135 169.921596,62.2312617 Z" id="c" fill="#FFFFFF" fill-rule="evenodd"></path>
            <path d="M194.915865,67.2548246 C194.915865,66.3271511 195.107523,65.5016912 195.490846,64.7784204 C195.874169,64.0551495 196.433499,63.4458815 197.168853,62.9505982 C197.904206,62.4553149 198.686486,62.0465157 199.515715,61.7241885 C200.344943,61.4018612 201.338438,61.0913311 202.496229,60.7925888 L209.325598,59.0473134 L209.325598,58.3161845 C209.325598,56.6809634 208.332103,55.8633651 206.345083,55.8633651 C205.062126,55.8633651 204.013871,56.1542414 203.200288,56.7360028 C202.386705,57.3177641 201.909515,58.0567472 201.768702,58.9529742 L195.666861,57.3492076 C196.480444,55.3680743 197.818142,53.8036314 199.679995,52.655832 C201.541848,51.5080325 203.873041,50.9341414 206.673644,50.9341414 C212.806808,50.9341414 215.873343,53.5127207 215.873343,58.6699566 L215.873343,67.3019942 C215.873343,67.7894159 216.006331,68.1628382 216.27231,68.4222723 C216.538289,68.6817064 216.898138,68.8114215 217.351867,68.8114215 C218.243679,68.8114215 219.041604,68.4890991 219.745666,67.8444446 L220.238507,71.9953698 C218.611341,73.0016598 216.960731,73.5047972 215.286628,73.5047972 C213.768983,73.5047972 212.47431,73.095998 211.402571,72.2783875 C210.330832,71.4607769 209.685451,70.4309175 209.46641,69.1887784 C208.871869,70.4780873 207.909665,71.4843622 206.57977,72.2076331 C205.249874,72.9309039 203.685315,73.292534 201.886045,73.292534 C199.820796,73.292534 198.142807,72.7579505 196.852026,71.6887674 C195.561246,70.6195844 194.915865,69.1416182 194.915865,67.2548246 Z M201.721765,66.5472805 C201.721765,67.2391048 201.952537,67.7894114 202.414089,68.1982167 C202.875641,68.607022 203.497553,68.8114215 204.279845,68.8114215 C205.625386,68.8114215 206.802716,68.3829686 207.811872,67.5260498 C208.821028,66.669131 209.325598,65.5331411 209.325598,64.1180459 L209.325598,62.3256009 L204.86656,63.5991802 C203.865227,63.9136458 203.090771,64.2909989 202.543167,64.7312507 C201.995563,65.1715026 201.721765,65.7768398 201.721765,66.5472805 Z" id="a" fill="#FFFFFF" fill-rule="evenodd"></path>
            <path d="M223.116699,72.9623467 L223.116699,51.5237615 L230.086879,51.5237615 L230.086879,55.3916691 C230.587545,54.1023601 231.534104,53.0371238 232.926582,52.1959284 C234.319061,51.3547329 235.836683,50.9341414 237.479495,50.9341414 C238.887619,50.9341414 240.127532,51.1621256 241.199271,51.6181007 C242.27101,52.0740758 243.127606,52.7069284 243.769085,53.5166773 C244.410564,54.3264262 244.887754,55.2383628 245.200671,56.2525143 C245.513587,57.2666659 245.670043,58.3633482 245.670043,59.5425943 L245.670043,72.9623467 L238.699863,72.9623467 L238.699863,61.122776 C238.699863,59.5661713 238.359571,58.3790814 237.678978,57.5614709 C236.998384,56.7438603 236.008801,56.3350611 234.710197,56.3350611 C233.302073,56.3350611 232.179502,56.8775062 231.34245,57.9624125 C230.505399,59.0473188 230.086879,60.4545313 230.086879,62.1840921 L230.086879,72.9623467 L223.116699,72.9623467 Z" id="n" fill="#FFFFFF" fill-rule="evenodd"></path>
            <path d="M1.59584227,28.5781003 C1.59584227,27.6504407 1.78749788,26.8249932 2.17081485,26.1017332 C2.55413183,25.3784732 3.1134533,24.7692144 3.84879607,24.2739385 C4.58413883,23.7786626 5.36640663,23.3698696 6.19562294,23.0475472 C7.02483924,22.7252248 8.01831935,22.4146993 9.17609306,22.1159615 L16.0053592,20.3707123 L16.0053592,19.6395944 C16.0053592,18.0043978 15.0118791,17.1868118 13.0248891,17.1868118 C11.7419507,17.1868118 10.6937118,17.4776837 9.88014112,18.0594364 C9.0665704,18.641189 8.58938705,19.380161 8.44857673,20.2763745 L2.34682687,18.672632 C3.16039759,16.6915284 4.49807552,15.127109 6.35990082,13.9793268 C8.22172611,12.8315446 10.5528842,12.2576621 13.3534449,12.2576621 C19.4865164,12.2576621 22.5530062,14.8362026 22.5530062,19.9933611 L22.5530062,28.6252692 C22.5530062,29.1126835 22.6859917,29.4861002 22.9519668,29.7455305 C23.2179418,30.0049607 23.577785,30.1346739 24.0315071,30.1346739 C24.9233058,30.1346739 25.721219,29.8123563 26.4252705,29.1677115 L26.9181042,33.3185744 C25.2909628,34.3248492 23.6403777,34.8279791 21.9662995,34.8279791 C20.4486772,34.8279791 19.154024,34.419186 18.082301,33.6015877 C17.0105781,32.7839895 16.3652071,31.7541455 16.1461689,30.512025 C15.5516364,31.8013146 14.589447,32.8075744 13.2595718,33.5308344 C11.9296966,34.2540944 10.365161,34.615719 8.56591807,34.615719 C6.5007001,34.615719 4.82273567,34.0811435 3.53197444,33.0119765 C2.24121321,31.9428095 1.59584227,30.4648656 1.59584227,28.5781003 Z M8.40164019,27.8705668 C8.40164019,28.5623808 8.63240919,29.1126791 9.09395412,29.5214782 C9.55549904,29.9302773 10.1774019,30.1346739 10.9596815,30.1346739 C12.3052023,30.1346739 13.4825153,29.7062273 14.4916559,28.8493214 C15.5007965,27.9924155 16.0053592,26.8564426 16.0053592,25.4413687 L16.0053592,23.6489506 L11.5463882,24.9225108 C10.5450704,25.2369717 9.77062527,25.6143191 9.2230296,26.0545643 C8.67543392,26.4948095 8.40164019,27.1001377 8.40164019,27.8705668 Z" id="a" fill="#FFFFFF" fill-rule="evenodd"></path>
            <path d="M27.0681134,23.5546128 C27.0681134,20.1741583 28.1554656,17.4462511 30.3302027,15.3708093 C32.5049398,13.2953674 35.3211039,12.2576621 38.7787794,12.2576621 C41.5167578,12.2576621 43.7775118,12.8865744 45.5611091,14.1444179 C47.3447064,15.4022615 48.5493988,17.0924634 49.1752225,19.2150743 L43.2612188,20.9603235 C42.5728128,18.664759 41.1803761,17.516994 39.0838669,17.516994 C37.6131814,17.516994 36.4280457,18.0397774 35.5284242,19.0853599 C34.6288028,20.1309423 34.1789988,21.6206784 34.1789988,23.5546128 C34.1789988,25.4728242 34.6288028,26.9586296 35.5284242,28.0120735 C36.4280457,29.0655175 37.5975361,29.5922315 39.0369304,29.5922315 C40.2103497,29.5922315 41.1608051,29.2502605 41.888325,28.566308 C42.615845,27.8823556 43.1204077,26.9193336 43.4020284,25.6772131 L49.4099052,27.2337867 C48.8779551,29.5136281 47.6928194,31.3571274 45.8544625,32.7643398 C44.0161055,34.1715523 41.6575681,34.8751479 38.7787794,34.8751479 C35.3211039,34.8751479 32.5049398,33.8413733 30.3302027,31.773793 C28.1554656,29.7062127 27.0681134,26.9665134 27.0681134,23.5546128 Z" id="c" fill="#FFFFFF" fill-rule="evenodd"></path>
            <path d="M51.004621,28.5781003 C51.004621,27.6504407 51.1962766,26.8249932 51.5795935,26.1017332 C51.9629105,25.3784732 52.522232,24.7692144 53.2575748,24.2739385 C53.9929175,23.7786626 54.7751853,23.3698696 55.6044016,23.0475472 C56.4336179,22.7252248 57.427098,22.4146993 58.5848717,22.1159615 L65.4141379,20.3707123 L65.4141379,19.6395944 C65.4141379,18.0043978 64.4206578,17.1868118 62.4336678,17.1868118 C61.1507294,17.1868118 60.1024905,17.4776837 59.2889198,18.0594364 C58.4753491,18.641189 57.9981657,19.380161 57.8573554,20.2763745 L51.7556056,18.672632 C52.5691763,16.6915284 53.9068542,15.127109 55.7686795,13.9793268 C57.6305048,12.8315446 59.9616628,12.2576621 62.7622236,12.2576621 C68.8952951,12.2576621 71.9617849,14.8362026 71.9617849,19.9933611 L71.9617849,28.6252692 C71.9617849,29.1126835 72.0947704,29.4861002 72.3607455,29.7455305 C72.6267205,30.0049607 72.9865637,30.1346739 73.4402858,30.1346739 C74.3320845,30.1346739 75.1299977,29.8123563 75.8340492,29.1677115 L76.3268829,33.3185744 C74.6997414,34.3248492 73.0491564,34.8279791 71.3750782,34.8279791 C69.8574559,34.8279791 68.5628027,34.419186 67.4910797,33.6015877 C66.4193568,32.7839895 65.7739858,31.7541455 65.5549475,30.512025 C64.9604151,31.8013146 63.9982257,32.8075744 62.6683505,33.5308344 C61.3384753,34.2540944 59.7739397,34.615719 57.9746968,34.615719 C55.9094788,34.615719 54.2315144,34.0811435 52.9407531,33.0119765 C51.6499919,31.9428095 51.004621,30.4648656 51.004621,28.5781003 Z M57.8104189,27.8705668 C57.8104189,28.5623808 58.0411879,29.1126791 58.5027328,29.5214782 C58.9642777,29.9302773 59.5861806,30.1346739 60.3684602,30.1346739 C61.713981,30.1346739 62.891294,29.7062273 63.9004346,28.8493214 C64.9095752,27.9924155 65.4141379,26.8564426 65.4141379,25.4413687 L65.4141379,23.6489506 L60.9551669,24.9225108 C59.9538491,25.2369717 59.179404,25.6143191 58.6318083,26.0545643 C58.0842126,26.4948095 57.8104189,27.1001377 57.8104189,27.8705668 Z" id="a" fill="#FFFFFF" fill-rule="evenodd"></path>
            <path d="M77.0513953,23.5546128 C77.0513953,21.4477249 77.4425292,19.5452651 78.2248087,17.8471763 C79.0070882,16.1490876 80.1648446,14.7929953 81.6981125,13.778859 C83.2313804,12.7647227 85.0149509,12.2576621 87.0488777,12.2576621 C88.8011839,12.2576621 90.27967,12.6664551 91.4843805,13.4840534 C92.689091,14.3016517 93.5965216,15.4101097 94.2066997,16.8094606 L94.2066997,3.86159851 L101.176775,3.86159851 L101.176775,34.2855367 L94.2066997,34.2855367 L94.2066997,30.3233494 C93.5965216,31.7227004 92.689091,32.8311583 91.4843805,33.6487566 C90.27967,34.4663549 88.8011839,34.8751479 87.0488777,34.8751479 C85.0149509,34.8751479 83.2313804,34.3680874 81.6981125,33.353951 C80.1648446,32.3398147 79.0070882,30.9837225 78.2248087,29.2856337 C77.4425292,27.587545 77.0513953,25.6772237 77.0513953,23.5546128 Z M85.4530355,19.1914899 C84.5299456,20.323549 84.0684076,21.7779088 84.0684076,23.5546128 C84.0684076,25.3313168 84.5299456,26.7896072 85.4530355,27.9295279 C86.3761253,29.0694486 87.6433991,29.6394004 89.254895,29.6394004 C90.7255805,29.6394004 91.9420069,29.1205478 92.9042108,28.0828269 C93.8664146,27.0451059 94.3475093,25.685083 94.3475093,24.0027173 L94.3475093,23.1300927 C94.3475093,21.447727 93.8664146,20.0837734 92.9042108,19.038191 C91.9420069,17.9926085 90.7255805,17.4698251 89.254895,17.4698251 C87.6433991,17.4698251 86.3761253,18.0437076 85.4530355,19.1914899 Z" id="d" fill="#FFFFFF" fill-rule="evenodd"></path>
            <path d="M104.687628,23.9083795 C104.687628,20.5436481 105.790626,17.760711 107.996654,15.5594848 C110.202683,13.3582587 112.971911,12.2576621 116.304421,12.2576621 C118.056728,12.2576621 119.629086,12.5406726 121.021543,13.1067022 C122.414001,13.6727318 123.548289,14.4510108 124.424442,15.4415626 C125.300596,16.4321144 125.969435,17.5641566 126.430979,18.8377231 C126.892524,20.1112897 127.123293,21.479174 127.123293,22.9414171 L127.123293,24.6630819 L111.563831,24.6630819 C111.595122,26.1882171 112.076217,27.4263883 113.00713,28.3776325 C113.938042,29.3288766 115.18576,29.8044916 116.750319,29.8044916 C119.112803,29.8044916 120.747742,28.8532617 121.655187,26.9507733 L127.02942,28.5781003 C126.325369,30.6535421 125.062006,32.2218922 123.239295,33.2831977 C121.416584,34.3445032 119.151918,34.8751479 116.445231,34.8751479 C112.97191,34.8751479 110.144012,33.8649575 107.961452,31.8445464 C105.778892,29.8241352 104.687628,27.1787727 104.687628,23.9083795 Z M111.704641,21.3848436 L120.739924,21.3848436 C120.692987,20.1741692 120.278386,19.1561173 119.496106,18.3306575 C118.713826,17.5051977 117.649942,17.092474 116.304421,17.092474 C115.005837,17.092474 113.965421,17.4934056 113.183142,18.2952808 C112.400862,19.0971561 111.908034,20.127 111.704641,21.3848436 Z" id="e" fill="#FFFFFF" fill-rule="evenodd"></path>
            <path d="M131.257276,34.2855367 L131.257276,12.8472733 L138.227352,12.8472733 L138.227352,16.7151228 C138.712365,15.4415562 139.658909,14.3802667 141.067012,13.5312223 C142.475115,12.6821779 143.977069,12.2576621 145.57292,12.2576621 C147.387808,12.2576621 148.901496,12.6821779 150.11403,13.5312223 C151.326563,14.3802667 152.167501,15.5358931 152.636869,16.9981362 C153.168819,15.6459544 154.158387,14.5178429 155.605605,13.6137679 C157.052822,12.7096928 158.738609,12.2576621 160.663016,12.2576621 C162.024183,12.2576621 163.217141,12.4856428 164.241927,12.9416111 C165.266714,13.3975794 166.080272,14.0304224 166.682627,14.8401592 C167.284983,15.6498959 167.730875,16.5578881 168.020319,17.5641629 C168.309762,18.5704378 168.454482,19.6710343 168.454482,20.8659857 L168.454482,34.2855367 L161.531342,34.2855367 L161.531342,22.4461437 C161.531342,20.9052854 161.198879,19.7221441 160.533941,18.8966843 C159.869003,18.0712244 158.926371,17.6585007 157.706015,17.6585007 C156.376139,17.6585007 155.312255,18.2009376 154.51433,19.2858277 C153.716405,20.3707177 153.317448,21.777909 153.317448,23.5074439 L153.317448,34.2855367 L146.394309,34.2855367 L146.394309,22.4461437 C146.394309,20.9052854 146.065757,19.7221441 145.408642,18.8966843 C144.751527,18.0712244 143.812806,17.6585007 142.59245,17.6585007 C141.262574,17.6585007 140.202602,18.2009376 139.412499,19.2858277 C138.622397,20.3707177 138.227352,21.777909 138.227352,23.5074439 L138.227352,34.2855367 L131.257276,34.2855367 Z" id="m" fill="#FFFFFF" fill-rule="evenodd"></path>
            <path d="M170.618068,36.7854883 L175.476,34.3327056 C175.476,36.3609783 176.180041,37.3750995 177.588144,37.3750995 C178.558171,37.3750995 179.348261,36.6675731 179.958439,35.2524991 L180.286995,34.5213812 L170.970092,12.8472733 L178.59728,12.8472733 L183.830704,26.7620978 L184.041918,26.7620978 L189.228405,12.8472733 L195.752584,12.8472733 L187.350944,33.3185744 C186.850285,34.5135257 186.377013,35.5473004 185.931114,36.4199293 C185.485214,37.2925583 184.961095,38.1415899 184.35874,38.9670497 C183.756384,39.7925095 183.134482,40.4646596 182.493012,40.98352 C181.851543,41.5023805 181.108389,41.9151042 180.263527,42.2217036 C179.418665,42.5283029 178.495589,42.6816003 177.494271,42.6816003 C175.554218,42.6816003 173.977948,42.1352327 172.765415,41.0424812 C171.552882,39.9497296 170.837107,38.5307462 170.618068,36.7854883 Z" id="y" fill="#FFFFFF" fill-rule="evenodd"></path>
            <text id="-" font-family=".SFNSDisplay, .SF NS Display" font-size="33.311" font-weight="normal"></text>
            <path d="M199.537596,23.5546128 C199.537596,20.2684966 200.671884,17.5641736 202.940495,15.4415626 C205.209105,13.3189516 208.064383,12.2576621 211.506413,12.2576621 C214.932797,12.2576621 217.776341,13.3150209 220.037129,15.4297704 C222.297916,17.5445198 223.428293,20.2527735 223.428293,23.5546128 C223.428293,26.8721751 222.301828,29.5882902 220.048863,31.7030397 C217.795898,33.8177891 214.948443,34.8751479 211.506413,34.8751479 C208.064383,34.8751479 205.209105,33.8177891 202.940495,31.7030397 C200.671884,29.5882902 199.537596,26.8721751 199.537596,23.5546128 Z M207.939236,19.0263987 C207.078729,20.1584579 206.648481,21.6678475 206.648481,23.5546128 C206.648481,25.4413781 207.078729,26.9546984 207.939236,28.0946191 C208.799744,29.2345398 209.988791,29.8044916 211.506413,29.8044916 C213.024035,29.8044916 214.213082,29.2345398 215.07359,28.0946191 C215.934097,26.9546984 216.364345,25.4413781 216.364345,23.5546128 C216.364345,21.6678475 215.934097,20.1584579 215.07359,19.0263987 C214.213082,17.8943396 213.024035,17.3283185 211.506413,17.3283185 C209.988791,17.3283185 208.799744,17.8943396 207.939236,19.0263987 Z" id="o" fill="#FFFFFF" fill-rule="evenodd"></path>
            <path d="M217.621695,17.6585007 L217.621695,12.8472733 L221.235809,12.8472733 L221.235809,11.9274798 C221.235809,9.30173144 222.127594,7.20273654 223.911191,5.63043213 C225.694789,4.05812772 228.002479,3.2719873 230.834331,3.2719873 C232.915194,3.2719873 234.667474,3.67291892 236.091223,4.47479417 C237.514972,5.27666941 238.555388,6.33009757 239.212503,7.63511023 L235.45758,10.6775041 C234.847402,9.02658442 233.564482,8.20113699 231.608783,8.20113699 C230.513592,8.20113699 229.653098,8.53131596 229.027274,9.19168381 C228.40145,9.85205167 228.088543,10.8268658 228.088543,12.1161554 L228.088543,12.8472733 L233.627055,12.8472733 L233.627055,17.6585007 L228.088543,17.6585007 L228.088543,34.2855367 L221.235809,34.2855367 L221.235809,17.6585007 L217.621695,17.6585007 Z" id="f" fill="#FFFFFF" fill-rule="evenodd"></path>
        </g>
    </g>
</svg>