<?xml version="1.0" encoding="UTF-8"?>
<svg width="278px" height="55px" viewBox="0 0 278 55" version="1.1" xmlns="http://www.w3.org/2000/svg" xmlns:xlink="http://www.w3.org/1999/xlink">
    <!-- Generator: Sketch 52.2 (67145) - http://www.bohemiancoding.com/sketch -->
    <title>Group</title>
    <desc>Created with Sketch.</desc>
    <g id="Page-1" stroke="none" stroke-width="1" fill="none" fill-rule="evenodd">
        <g id="Group" transform="translate(0.000000, -12.000000)">
            <path d="M194.835566,66.0737685 L194.835566,45.8884309 L199.666384,45.8884309 L199.666384,48.6210148 C200.067599,47.6559308 200.685677,46.8914655 201.520638,46.3275961 C202.355598,45.7637268 203.391151,45.4817963 204.627326,45.4817963 C206.036999,45.4817963 207.273156,45.8314985 208.335832,46.5309134 C209.398509,47.2303283 210.200927,48.1655783 210.743109,49.3366916 C211.285291,50.5078049 211.556378,51.8198658 211.556378,53.2729138 C211.556378,54.7368054 211.285291,56.054288 210.743109,57.2254013 C210.200927,58.3965146 209.398509,59.3317646 208.335832,60.0311795 C207.273156,60.7305944 206.036999,61.0802966 204.627326,61.0802966 C203.391151,61.0802966 202.355598,60.7983661 201.520638,60.2344968 C200.685677,59.6706274 200.067599,58.9061622 199.666384,57.9410781 L199.666384,66.0737685 L194.835566,66.0737685 Z M199.568792,53.581956 C199.568792,54.7422256 199.899518,55.6801866 200.56098,56.3958669 C201.222443,57.1115472 202.068234,57.469382 203.09838,57.469382 C204.215275,57.469382 205.088175,57.0790168 205.717106,56.2982746 C206.346037,55.5175324 206.660498,54.5090889 206.660498,53.2729138 C206.660498,52.0367386 206.346037,51.0282951 205.717106,50.2475529 C205.088175,49.4668107 204.215275,49.0764455 203.09838,49.0764455 C202.068234,49.0764455 201.222443,49.4342803 200.56098,50.1499606 C199.899518,50.865641 199.568792,51.8090236 199.568792,52.9801369 L199.568792,53.581956 Z M213.99045,53.2729138 C213.99045,51.0065927 214.776603,49.1415144 216.348931,47.6776228 C217.921259,46.2137312 219.900194,45.4817963 222.285795,45.4817963 C224.660552,45.4817963 226.631354,46.2110203 228.198261,47.6694901 C229.765167,49.1279598 230.548608,50.9957491 230.548608,53.2729138 C230.548608,55.5609221 229.767878,57.4341331 228.206393,58.8926029 C226.644909,60.3510726 224.671396,61.0802966 222.285795,61.0802966 C219.900194,61.0802966 217.921259,60.3510726 216.348931,58.8926029 C214.776603,57.4341331 213.99045,55.5609221 213.99045,53.2729138 Z M219.813457,50.1499606 C219.217056,50.9307028 218.918861,51.9716768 218.918861,53.2729138 C218.918861,54.5741507 219.217056,55.6178356 219.813457,56.4039996 C220.409857,57.1901636 221.233961,57.5832397 222.285795,57.5832397 C223.337628,57.5832397 224.161732,57.1901636 224.758133,56.4039996 C225.354533,55.6178356 225.652728,54.5741507 225.652728,53.2729138 C225.652728,51.9716768 225.354533,50.9307028 224.758133,50.1499606 C224.161732,49.3692185 223.337628,48.9788532 222.285795,48.9788532 C221.233961,48.9788532 220.409857,49.3692185 219.813457,50.1499606 Z M233.015211,53.5168945 C233.015211,51.1963552 233.779677,49.2770595 235.30863,47.7589497 C236.837584,46.2408399 238.756879,45.4817963 241.066575,45.4817963 C242.281063,45.4817963 243.370832,45.676979 244.335916,46.06735 C245.301001,46.4577211 246.087153,46.9944733 246.694397,47.6776228 C247.301641,48.3607722 247.765199,49.1415026 248.085087,50.0198376 C248.404974,50.8981726 248.564915,51.8415552 248.564915,52.8500139 L248.564915,54.0373867 L237.780968,54.0373867 C237.802655,55.0892199 238.136092,55.9431438 238.781289,56.5991842 C239.426486,57.2552245 240.291253,57.5832397 241.375617,57.5832397 C243.013007,57.5832397 244.146151,56.9272092 244.775082,55.6151286 L248.499854,56.7374399 C248.01189,58.1688006 247.136279,59.2504376 245.872995,59.9823834 C244.609711,60.7143292 243.040117,61.0802966 241.164167,61.0802966 C238.756879,61.0802966 236.79692,60.3836031 235.284232,58.9901951 C233.771544,57.5967872 233.015211,55.7723719 233.015211,53.5168945 Z M237.87856,51.7764987 L244.140732,51.7764987 C244.108201,50.9415383 243.820849,50.2394231 243.278667,49.6701319 C242.736485,49.1008407 241.999128,48.8161994 241.066575,48.8161994 C240.166553,48.8161994 239.445461,49.0927081 238.903279,49.6457338 C238.361097,50.1987596 238.019528,50.9090074 237.87856,51.7764987 Z" id="poe" fill="#020000"></path>
            <path d="M247.937481,49.2065686 L247.937481,45.8884309 L250.702595,45.8884309 L250.702595,42.2449855 L255.37076,41.3178588 L255.37076,45.8884309 L260.819662,45.8884309 L260.819662,49.2065686 L255.37076,49.2065686 L255.37076,55.0133095 C255.37076,55.6964589 255.546966,56.2332111 255.899384,56.6235822 C256.251803,57.0139533 256.737049,57.2091359 257.355136,57.2091359 C258.038285,57.2091359 258.569616,57.0519055 258.949143,56.7374399 C259.328671,56.4229743 259.756988,55.8699569 260.234108,55.078371 L262.560058,57.8760166 C261.931127,58.7977261 261.109733,59.5621913 260.095853,60.1694353 C259.081972,60.7766792 257.8919,61.0802966 256.525602,61.0802966 C254.801463,61.0802966 253.399943,60.6004726 252.321001,59.6408104 C251.242058,58.6811481 250.702595,57.2579415 250.702595,55.3711479 L250.702595,49.2065686 L247.937481,49.2065686 Z" id="t" fill="#020000"></path>
            <path d="M262.757194,57.810955 L265.798821,55.6801901 C266.24341,56.3633395 266.926549,56.9000917 267.848259,57.2904628 C268.769968,57.6808339 269.718772,57.8760166 270.6947,57.8760166 C272.353777,57.8760166 273.183303,57.4748078 273.183303,56.6723784 C273.183303,56.3145382 273.042338,56.0461621 272.760404,55.867242 C272.478469,55.6883219 272.055573,55.5446458 271.491704,55.4362094 L268.385016,54.8506557 C265.099393,54.1783499 263.456606,52.6331542 263.456606,50.2150222 C263.456606,48.8487233 264.050286,47.7182907 265.237665,46.8236903 C266.425044,45.9290898 267.97295,45.4817963 269.881431,45.4817963 C273.015244,45.4817963 275.395387,46.4577094 277.021933,48.4095649 L274.354411,50.4427375 C273.248359,49.2716242 271.757381,48.6860764 269.881431,48.6860764 C269.328405,48.6860764 268.859425,48.7836677 268.474476,48.9788532 C268.089526,49.1740388 267.897055,49.461391 267.897055,49.8409184 C267.897055,50.3939441 268.314529,50.7517789 269.149489,50.9144335 L273.118242,51.7764987 C276.121931,52.4488045 277.623752,53.8909872 277.623752,56.10309 C277.623752,57.6211998 276.997542,58.8302477 275.745101,59.73027 C274.49266,60.6302922 272.80921,61.0802966 270.6947,61.0802966 C269.078998,61.0802966 267.531091,60.7956553 266.050934,60.2263641 C264.570777,59.6570729 263.472875,58.8519446 262.757194,57.810955 Z" id="s" fill="#020000"></path>
            <path d="M25.5219301,56.7374399 C25.5219301,56.097665 25.6547627,55.5283824 25.9204319,55.0295749 C26.1861011,54.5307674 26.5737555,54.1105826 27.0834067,53.7690079 C27.5930578,53.4274332 28.1352318,53.1455027 28.7099447,52.9232081 C29.2846577,52.7009134 29.9732187,52.4867547 30.7756481,52.2807255 L35.5088739,51.0770874 L35.5088739,50.5728605 C35.5088739,49.4451218 34.820313,48.8812609 33.4431706,48.8812609 C32.553992,48.8812609 31.8274789,49.0818653 31.2636095,49.48308 C30.6997402,49.8842948 30.3690141,50.3939383 30.2714213,51.0120258 L26.0424223,49.9059799 C26.6062916,48.5396811 27.5334091,47.460755 28.8238024,46.6691691 C30.1141957,45.8775833 31.7298741,45.4817963 33.6708859,45.4817963 C37.9215934,45.4817963 40.0469152,47.2601269 40.0469152,50.8168413 L40.0469152,56.7699707 C40.0469152,57.1061235 40.1390848,57.3636562 40.3234267,57.5425762 C40.5077686,57.7214963 40.7571686,57.810955 41.0716342,57.810955 C41.6897218,57.810955 42.2427392,57.5886637 42.7307031,57.1440744 L43.072276,60.0067814 C41.9445373,60.7007745 40.8005503,61.0477658 39.6402807,61.0477658 C38.5884475,61.0477658 37.6911496,60.7658354 36.9483602,60.201966 C36.2055707,59.6380967 35.7582772,58.9278488 35.6064662,58.0712011 C35.1944079,58.9603797 34.5275339,59.6543624 33.6058244,60.1531699 C32.6841149,60.6519774 31.599767,60.9013774 30.3527482,60.9013774 C28.9213875,60.9013774 27.7584244,60.5326991 26.863824,59.7953315 C25.9692236,59.0579639 25.5219301,58.0386769 25.5219301,56.7374399 Z M30.2388906,56.2494785 C30.2388906,56.7265987 30.3988319,57.1061204 30.7187193,57.3880551 C31.0386067,57.6699898 31.469635,57.810955 32.0118171,57.810955 C32.9443702,57.810955 33.760342,57.5154702 34.4597569,56.9244918 C35.1591718,56.3335133 35.5088739,55.550072 35.5088739,54.5741442 L35.5088739,53.3379753 L32.4184516,54.2163059 C31.7244585,54.4331787 31.1877063,54.6934222 30.8081789,54.9970441 C30.4286514,55.3006661 30.2388906,55.71814 30.2388906,56.2494785 Z" id="a" fill="#FFFFFF"></path>
            <path d="M45.0670624,60.6736621 L45.0670624,45.8884309 L49.8978805,45.8884309 L49.8978805,48.5559533 C50.2340334,47.6776184 50.8900638,46.9456835 51.8659916,46.3601269 C52.8419193,45.7745703 53.8828933,45.4817963 54.9889447,45.4817963 C56.2468071,45.4817963 57.2959137,45.7745703 58.1362959,46.3601269 C58.9766781,46.9456835 59.5595151,47.7426792 59.8848243,48.7511379 C60.2535081,47.8185847 60.9393582,47.0405651 61.942395,46.4170557 C62.9454318,45.7935464 64.1138167,45.4817963 65.4475846,45.4817963 C66.3909814,45.4817963 67.2177966,45.6390268 67.9280552,45.9534924 C68.6383137,46.267958 69.2021746,46.704408 69.6196548,47.2628555 C70.037135,47.8213031 70.3461741,48.447514 70.5467815,49.141507 C70.7473888,49.8355001 70.847691,50.5945436 70.847691,51.4186604 L70.847691,60.6736621 L66.0494037,60.6736621 L66.0494037,52.5084409 C66.0494037,51.445764 65.8189797,50.6297922 65.358125,50.060501 C64.8972702,49.4912099 64.2439506,49.2065686 63.3981466,49.2065686 C62.4764371,49.2065686 61.7390805,49.5806686 61.1860548,50.3288798 C60.6330291,51.0770911 60.3565204,52.0475824 60.3565204,53.240383 L60.3565204,60.6736621 L55.558233,60.6736621 L55.558233,52.5084409 C55.558233,51.445764 55.33052,50.6297922 54.875087,50.060501 C54.4196541,49.4912099 53.7690453,49.2065686 52.9232413,49.2065686 C52.0015318,49.2065686 51.2668861,49.5806686 50.7192822,50.3288798 C50.1716783,51.0770911 49.8978805,52.0475824 49.8978805,53.240383 L49.8978805,60.6736621 L45.0670624,60.6736621 Z" id="m" fill="#FFFFFF"></path>
            <path d="M73.7213284,53.5168945 C73.7213284,51.1963552 74.4857936,49.2770595 76.0147471,47.7589497 C77.5437005,46.2408399 79.4629963,45.4817963 81.7726919,45.4817963 C82.9871798,45.4817963 84.0769494,45.676979 85.0420335,46.06735 C86.0071176,46.4577211 86.7932698,46.9944733 87.4005137,47.6776228 C88.0077576,48.3607722 88.4713163,49.1415026 88.7912038,50.0198376 C89.1110912,50.8981726 89.2710325,51.8415552 89.2710325,52.8500139 L89.2710325,54.0373867 L78.487085,54.0373867 C78.5087723,55.0892199 78.8422092,55.9431438 79.4874059,56.5991842 C80.1326026,57.2552245 80.99737,57.5832397 82.0817341,57.5832397 C83.719124,57.5832397 84.8522675,56.9272092 85.4811987,55.6151286 L89.205971,56.7374399 C88.7180071,58.1688006 87.8423962,59.2504376 86.579112,59.9823834 C85.3158277,60.7143292 83.7462342,61.0802966 81.8702842,61.0802966 C79.4629958,61.0802966 77.503037,60.3836031 75.990349,58.9901951 C74.477661,57.5967872 73.7213284,55.7723719 73.7213284,53.5168945 Z M78.5846773,51.7764987 L84.8468489,51.7764987 C84.814318,50.9415383 84.5269658,50.2394231 83.9847837,49.6701319 C83.4426016,49.1008407 82.7052451,48.8161994 81.7726919,48.8161994 C80.8726697,48.8161994 80.1515783,49.0927081 79.6093963,49.6457338 C79.0672142,50.1987596 78.7256446,50.9090074 78.5846773,51.7764987 Z" id="e" fill="#FFFFFF"></path>
            <path d="M92.3360809,60.6736621 L92.3360809,45.8884309 L97.1343682,45.8884309 L97.1343682,49.011384 C97.5789575,48.0246126 98.2160119,47.1896647 99.0455505,46.5065153 C99.875089,45.8233659 100.869978,45.4817963 102.030248,45.4817963 C103.494139,45.4817963 104.627283,45.9589094 105.429712,46.9131499 C106.232142,47.8673903 106.633351,49.1360773 106.633351,50.719249 C106.633351,50.8493727 106.622507,50.9361205 106.60082,50.9794951 L102.664598,52.5409716 C102.707972,52.3891607 102.729659,52.1234954 102.729659,51.743968 C102.729659,51.0282876 102.542609,50.4617159 102.168504,50.0442357 C101.794398,49.6267555 101.23867,49.4180185 100.501302,49.4180185 C99.4277815,49.4180185 98.5982554,49.8761555 98.0126988,50.7924432 C97.4271421,51.7087309 97.1343682,52.871694 97.1343682,54.2813674 L97.1343682,60.6736621 L92.3360809,60.6736621 Z" id="r" fill="#FFFFFF"></path>
            <path d="M108.729243,43.757666 L108.729243,39.6913208 L113.852838,39.6913208 L113.852838,43.757666 L108.729243,43.757666 Z M108.891896,60.6736621 L108.891896,45.8884309 L113.722714,45.8884309 L113.722714,60.6736621 L108.891896,60.6736621 Z" id="i" fill="#FFFFFF"></path>
            <path d="M116.661413,53.2729138 C116.661413,50.9415309 117.415035,49.0601873 118.922301,47.6288266 C120.429567,46.1974659 122.381394,45.4817963 124.777838,45.4817963 C126.675476,45.4817963 128.242358,45.9155355 129.478533,46.7830268 C130.714709,47.6505181 131.549656,48.8161921 131.983402,50.2800837 L127.884526,51.4837219 C127.407406,49.9005502 126.442336,49.1089763 124.989288,49.1089763 C123.969986,49.1089763 123.148593,49.4695219 122.525083,50.1906241 C121.901574,50.9117263 121.589824,51.9391459 121.589824,53.2729138 C121.589824,54.595838 121.901574,55.6205468 122.525083,56.3470708 C123.148593,57.0735947 123.959143,57.4368513 124.956758,57.4368513 C125.770031,57.4368513 126.428772,57.2010056 126.933001,56.7293072 C127.437231,56.2576088 127.786933,55.5934457 127.982118,54.736798 L132.146056,55.8103132 C131.777372,57.3826412 130.955979,58.6540391 129.681851,59.624545 C128.407723,60.5950509 126.773068,61.0802966 124.777838,61.0802966 C122.381394,61.0802966 120.429567,60.3673379 118.922301,58.941399 C117.415035,57.5154601 116.661413,55.625984 116.661413,53.2729138 Z" id="c" fill="#FFFFFF"></path>
            <path d="M133.984174,56.7374399 C133.984174,56.097665 134.117007,55.5283824 134.382676,55.0295749 C134.648345,54.5307674 135.036,54.1105826 135.545651,53.7690079 C136.055302,53.4274332 136.597476,53.1455027 137.172189,52.9232081 C137.746902,52.7009134 138.435463,52.4867547 139.237892,52.2807255 L143.971118,51.0770874 L143.971118,50.5728605 C143.971118,49.4451218 143.282557,48.8812609 141.905415,48.8812609 C141.016236,48.8812609 140.289723,49.0818653 139.725854,49.48308 C139.161984,49.8842948 138.831258,50.3939383 138.733665,51.0120258 L134.504666,49.9059799 C135.068536,48.5396811 135.995653,47.460755 137.286046,46.6691691 C138.57644,45.8775833 140.192118,45.4817963 142.13313,45.4817963 C146.383837,45.4817963 148.509159,47.2601269 148.509159,50.8168413 L148.509159,56.7699707 C148.509159,57.1061235 148.601329,57.3636562 148.785671,57.5425762 C148.970013,57.7214963 149.219413,57.810955 149.533878,57.810955 C150.151966,57.810955 150.704983,57.5886637 151.192947,57.1440744 L151.53452,60.0067814 C150.406781,60.7007745 149.262794,61.0477658 148.102525,61.0477658 C147.050691,61.0477658 146.153394,60.7658354 145.410604,60.201966 C144.667815,59.6380967 144.220521,58.9278488 144.06871,58.0712011 C143.656652,58.9603797 142.989778,59.6543624 142.068068,60.1531699 C141.146359,60.6519774 140.062011,60.9013774 138.814992,60.9013774 C137.383632,60.9013774 136.220668,60.5326991 135.326068,59.7953315 C134.431468,59.0579639 133.984174,58.0386769 133.984174,56.7374399 Z M138.701135,56.2494785 C138.701135,56.7265987 138.861076,57.1061204 139.180963,57.3880551 C139.500851,57.6699898 139.931879,57.810955 140.474061,57.810955 C141.406614,57.810955 142.222586,57.5154702 142.922001,56.9244918 C143.621416,56.3335133 143.971118,55.550072 143.971118,54.5741442 L143.971118,53.3379753 L140.880696,54.2163059 C140.186703,54.4331787 139.64995,54.6934222 139.270423,54.9970441 C138.890895,55.3006661 138.701135,55.71814 138.701135,56.2494785 Z" id="a" fill="#FFFFFF"></path>
            <path d="M153.529306,60.6736621 L153.529306,45.8884309 L158.360124,45.8884309 L158.360124,48.5559533 C158.707121,47.6667747 159.363151,46.932129 160.328236,46.3519942 C161.29332,45.7718594 162.345137,45.4817963 163.483719,45.4817963 C164.459647,45.4817963 165.318993,45.6390268 166.061782,45.9534924 C166.804572,46.267958 167.398252,46.704408 167.842842,47.2628555 C168.287431,47.8213031 168.618157,48.4502248 168.83503,49.1496397 C169.051903,49.8490546 169.160337,50.6053872 169.160337,51.4186604 L169.160337,60.6736621 L164.329519,60.6736621 L164.329519,52.5084409 C164.329519,51.4349204 164.093674,50.6162377 163.621975,50.0523684 C163.150277,49.488499 162.464427,49.2065686 161.564405,49.2065686 C160.588477,49.2065686 159.810457,49.5806686 159.230322,50.3288798 C158.650188,51.0770911 158.360124,52.0475824 158.360124,53.240383 L158.360124,60.6736621 L153.529306,60.6736621 Z" id="n" fill="#FFFFFF"></path>
            <path d="M-2.48689958e-14,30.0638369 C-2.48689958e-14,29.4240717 0.132830622,28.8547976 0.39849585,28.3559976 C0.664161078,27.8571975 1.05180963,27.437019 1.56145312,27.0954495 C2.07109662,26.7538799 2.61326243,26.4719537 3.1879668,26.2496624 C3.76267117,26.027371 4.45122174,25.8132155 5.25363916,25.6071895 L9.98679395,24.4035693 L9.98679395,23.8993501 C9.98679395,22.7716283 9.29824338,22.2077759 7.92112158,22.2077759 C7.03195633,22.2077759 6.30545415,22.4083772 5.74159326,22.8095859 C5.17773237,23.2107946 4.84701123,23.7204305 4.74941992,24.3385088 L0.520484375,23.2324795 C1.08434527,21.8662012 2.01144879,20.7872912 3.30182275,19.9957173 C4.59219672,19.2041433 6.20785081,18.8083623 8.1488335,18.8083623 C12.3994771,18.8083623 14.5247671,20.5866661 14.5247671,24.1433271 L14.5247671,30.0963672 C14.5247671,30.432515 14.6169353,30.6900438 14.8012744,30.8689612 C14.9856136,31.0478786 15.2350098,31.1373359 15.5494707,31.1373359 C16.167549,31.1373359 16.7205581,30.915048 17.2085146,30.4704653 L17.5500825,33.3331294 C16.4223607,34.027112 15.2783909,34.3740981 14.1181387,34.3740981 C13.0663212,34.3740981 12.1690368,34.0921719 11.4262585,33.528311 C10.6834803,32.9644501 10.2361935,32.2542129 10.0843848,31.3975781 C9.67233258,32.2867434 9.00546864,32.9807156 8.08377295,33.4795156 C7.16207726,33.9783156 6.07774566,34.2277119 4.83074561,34.2277119 C3.39940642,34.2277119 2.23646077,33.8590392 1.34187378,33.1216826 C0.447286787,32.3843261 -2.48689958e-14,31.3650544 -2.48689958e-14,30.0638369 Z M4.71688965,29.5758828 C4.71688965,30.0529959 4.87682856,30.4325119 5.19671118,30.7144424 C5.5165938,30.9963728 5.94761562,31.1373359 6.48978955,31.1373359 C7.42232872,31.1373359 8.23828825,30.8418556 8.93769263,30.250886 C9.637097,29.6599164 9.98679395,28.8764868 9.98679395,27.9005737 L9.98679395,26.6644233 L6.89641797,27.5427407 C6.20243533,27.7596103 5.66569119,28.0198499 5.28616943,28.3234673 C4.90664768,28.6270847 4.71688965,29.0445524 4.71688965,29.5758828 Z" id="a" fill="#FFFFFF"></path>
            <path d="M17.6540493,26.5993628 C17.6540493,24.2680149 18.4076597,22.3866995 19.9149033,20.9553604 C21.4221468,19.5240212 23.3739437,18.8083623 25.7703525,18.8083623 C27.6679613,18.8083623 29.2348204,19.2420949 30.470977,20.1095732 C31.7071336,20.9770515 32.5420689,22.142708 32.9758081,23.6065776 L28.8769936,24.8101978 C28.3998805,23.2270499 27.4348254,22.4354878 25.9817993,22.4354878 C24.9625123,22.4354878 24.1411311,22.7960281 23.5176311,23.5171194 C22.894131,24.2382107 22.5823857,25.2656149 22.5823857,26.5993628 C22.5823857,27.9222672 22.894131,28.9469606 23.5176311,29.6734736 C24.1411311,30.3999867 24.951669,30.7632378 25.949269,30.7632378 C26.7625299,30.7632378 27.4212614,30.5273957 27.9254831,30.0557043 C28.4297049,29.584013 28.7794018,28.9198599 28.9745844,28.0632251 L33.1384594,29.1367241 C32.7697812,30.7090285 31.9484,31.9804073 30.6742912,32.9508987 C29.4001825,33.92139 27.7655526,34.4066284 25.7703525,34.4066284 C23.3739437,34.4066284 21.4221468,33.6936804 19.9149033,32.2677629 C18.4076597,30.8418455 17.6540493,28.9523977 17.6540493,26.5993628 Z" id="c" fill="#FFFFFF"></path>
            <path d="M34.243708,30.0638369 C34.243708,29.4240717 34.3765386,28.8547976 34.6422038,28.3559976 C34.9078691,27.8571975 35.2955176,27.437019 35.8051611,27.0954495 C36.3148046,26.7538799 36.8569704,26.4719537 37.4316748,26.2496624 C38.0063792,26.027371 38.6949297,25.8132155 39.4973472,25.6071895 L44.2305019,24.4035693 L44.2305019,23.8993501 C44.2305019,22.7716283 43.5419514,22.2077759 42.1648296,22.2077759 C41.2756643,22.2077759 40.5491622,22.4083772 39.9853013,22.8095859 C39.4214404,23.2107946 39.0907192,23.7204305 38.9931279,24.3385088 L34.7641924,23.2324795 C35.3280533,21.8662012 36.2551568,20.7872912 37.5455308,19.9957173 C38.8359047,19.2041433 40.4515588,18.8083623 42.3925415,18.8083623 C46.6431851,18.8083623 48.7684751,20.5866661 48.7684751,24.1433271 L48.7684751,30.0963672 C48.7684751,30.432515 48.8606433,30.6900438 49.0449824,30.8689612 C49.2293216,31.0478786 49.4787178,31.1373359 49.7931787,31.1373359 C50.411257,31.1373359 50.9642661,30.915048 51.4522226,30.4704653 L51.7937905,33.3331294 C50.6660687,34.027112 49.5220989,34.3740981 48.3618467,34.3740981 C47.3100292,34.3740981 46.4127448,34.0921719 45.6699665,33.528311 C44.9271883,32.9644501 44.4799015,32.2542129 44.3280928,31.3975781 C43.9160406,32.2867434 43.2491766,32.9807156 42.3274809,33.4795156 C41.4057853,33.9783156 40.3214537,34.2277119 39.0744536,34.2277119 C37.6431144,34.2277119 36.4801688,33.8590392 35.5855818,33.1216826 C34.6909948,32.3843261 34.243708,31.3650544 34.243708,30.0638369 Z M38.9605976,29.5758828 C38.9605976,30.0529959 39.1205366,30.4325119 39.4404192,30.7144424 C39.7603018,30.9963728 40.1913236,31.1373359 40.7334976,31.1373359 C41.6660367,31.1373359 42.4819963,30.8418556 43.1814006,30.250886 C43.880805,29.6599164 44.2305019,28.8764868 44.2305019,27.9005737 L44.2305019,26.6644233 L41.140126,27.5427407 C40.4461433,27.7596103 39.9093992,28.0198499 39.5298774,28.3234673 C39.1503557,28.6270847 38.9605976,29.0445524 38.9605976,29.5758828 Z" id="a" fill="#FFFFFF"></path>
            <path d="M52.2959278,26.5993628 C52.2959278,25.1463366 52.5670107,23.8342954 53.1091847,22.6631997 C53.6513586,21.492104 54.453764,20.556868 55.5164249,19.8574636 C56.5790858,19.1580592 57.8152238,18.8083623 59.2248761,18.8083623 C60.4393457,18.8083623 61.464039,19.0902885 62.2989869,19.6541494 C63.1339348,20.2180103 63.7628471,20.9824641 64.1857428,21.9475337 L64.1857428,13.0179736 L69.0164884,13.0179736 L69.0164884,34 L64.1857428,34 L64.1857428,31.267457 C63.7628471,32.2325266 63.1339348,32.9969804 62.2989869,33.5608413 C61.464039,34.1247022 60.4393457,34.4066284 59.2248761,34.4066284 C57.8152238,34.4066284 56.5790858,34.0569315 55.5164249,33.3575271 C54.453764,32.6581227 53.6513586,31.7228867 53.1091847,30.551791 C52.5670107,29.3806953 52.2959278,28.0632324 52.2959278,26.5993628 Z M58.1188468,23.5903125 C57.4790815,24.371043 57.1592037,25.3740497 57.1592037,26.5993628 C57.1592037,27.8246759 57.4790815,28.8303934 58.1188468,29.6165457 C58.758612,30.4026979 59.6369206,30.7957681 60.7537989,30.7957681 C61.7730859,30.7957681 62.6161537,30.4379386 63.2830277,29.722269 C63.9499016,29.0065994 64.2833336,28.0686526 64.2833336,26.9084004 L64.2833336,26.3065903 C64.2833336,25.1463381 63.9499016,24.2056804 63.2830277,23.4845891 C62.6161537,22.7634978 61.7730859,22.4029575 60.7537989,22.4029575 C59.6369206,22.4029575 58.758612,22.7987386 58.1188468,23.5903125 Z" id="d" fill="#FFFFFF"></path>
            <path d="M71.4497528,26.8433398 C71.4497528,24.5228354 72.2142066,22.6035685 73.7431371,21.0854814 C75.2720676,19.5673944 77.1913345,18.8083623 79.5009955,18.8083623 C80.7154651,18.8083623 81.8052184,19.003542 82.770288,19.3939072 C83.7353576,19.7842725 84.521498,20.3210166 85.1287328,21.0041558 C85.7359676,21.6872949 86.1995194,22.4680137 86.519402,23.3463354 C86.8392846,24.2246572 86.9992235,25.1680257 86.9992235,26.1764692 L86.9992235,27.3638242 L76.2154379,27.3638242 C76.2371248,28.4156417 76.5705568,29.2695528 77.2157438,29.9255833 C77.8609308,30.5816137 78.7256852,30.909624 79.8100331,30.909624 C81.4473984,30.909624 82.5805249,30.2536034 83.2094467,28.9415425 L86.934163,30.0638369 C86.4462064,31.4951761 85.5706087,32.5767969 84.3073434,33.3087317 C83.0440781,34.0406665 81.4745081,34.4066284 79.5985863,34.4066284 C77.191334,34.4066284 75.2314047,33.7099454 73.7187394,32.3165583 C72.2060741,30.9231713 71.4497528,29.0987834 71.4497528,26.8433398 Z M76.3130287,25.1029702 L82.5751063,25.1029702 C82.5425759,24.2680224 82.255228,23.5659176 81.7130541,22.996635 C81.1708802,22.4273524 80.4335347,22.1427153 79.5009955,22.1427153 C78.6009868,22.1427153 77.8799062,22.4192199 77.3377323,22.9722373 C76.7955584,23.5252547 76.4539939,24.2354919 76.3130287,25.1029702 Z" id="e" fill="#FFFFFF"></path>
            <path d="M89.8643599,34 L89.8643599,19.2149907 L94.6951055,19.2149907 L94.6951055,21.8824731 C95.0312533,21.0041514 95.687274,20.2722275 96.663187,19.6866797 C97.6391001,19.1011318 98.6800585,18.8083623 99.7860933,18.8083623 C101.043937,18.8083623 102.093028,19.1011318 102.933397,19.6866797 C103.773767,20.2722275 104.356595,21.0692113 104.681899,22.0776548 C105.050578,21.1451156 105.736417,20.3671077 106.739439,19.7436077 C107.742461,19.1201076 108.910828,18.8083623 110.244576,18.8083623 C111.187959,18.8083623 112.014762,18.9655904 112.72501,19.2800513 C113.435257,19.5945122 113.99911,20.0309556 114.416584,20.5893948 C114.834058,21.1478339 115.143092,21.7740354 115.343697,22.4680181 C115.544301,23.1620007 115.644602,23.9210328 115.644602,24.7451372 L115.644602,34 L110.846386,34 L110.846386,25.8349014 C110.846386,24.7722405 110.615966,23.9562809 110.155118,23.3869983 C109.69427,22.8177157 109.04096,22.5330786 108.195169,22.5330786 C107.273473,22.5330786 106.536128,22.907173 105.98311,23.655373 C105.430093,24.4035731 105.153588,25.3740499 105.153588,26.5668325 L105.153588,34 L100.355373,34 L100.355373,25.8349014 C100.355373,24.7722405 100.127663,23.9562809 99.6722373,23.3869983 C99.2168112,22.8177157 98.5662123,22.5330786 97.7204209,22.5330786 C96.7987252,22.5330786 96.0640906,22.907173 95.5164949,23.655373 C94.9688992,24.4035731 94.6951055,25.3740499 94.6951055,26.5668325 L94.6951055,34 L89.8643599,34 Z" id="m" fill="#FFFFFF"></path>
            <path d="M117.144117,35.7241045 L120.511,34.0325303 C120.511,35.431339 120.99895,36.1307329 121.974863,36.1307329 C122.647158,36.1307329 123.194746,35.6427837 123.617641,34.6668706 L123.845353,34.1626514 L117.388094,19.2149907 L122.674264,19.2149907 L126.301389,28.8114214 L126.447775,28.8114214 L130.04237,19.2149907 L134.564078,19.2149907 L128.74116,33.3331294 C128.394168,34.1572338 128.066158,34.8701818 127.757119,35.4719949 C127.44808,36.0738079 127.084829,36.659347 126.667355,37.2286296 C126.249881,37.7979123 125.818859,38.261464 125.374276,38.6192988 C124.929694,38.9771336 124.414636,39.2617707 123.829088,39.4732185 C123.24354,39.6846663 122.603785,39.7903887 121.909802,39.7903887 C120.565211,39.7903887 119.472747,39.4135834 118.632377,38.6599617 C117.792007,37.9063399 117.295926,36.9277306 117.144117,35.7241045 Z" id="y" fill="#FFFFFF"></path>
            <text id="-" font-family=".SFNSDisplay, .SF NS Display" font-size="33.311" font-weight="normal"></text>
            <path d="M140.836566,26.5993628 C140.836566,24.3330757 141.622706,22.4680254 143.195011,21.0041558 C144.767315,19.5402861 146.74622,18.8083623 149.131786,18.8083623 C151.506507,18.8083623 153.47728,19.5375753 155.044163,20.9960232 C156.611045,22.4544711 157.394475,24.3222323 157.394475,26.5993628 C157.394475,28.8873368 156.613756,30.7605196 155.052295,32.2189675 C153.490834,33.6774154 151.517351,34.4066284 149.131786,34.4066284 C146.74622,34.4066284 144.767315,33.6774154 143.195011,32.2189675 C141.622706,30.7605196 140.836566,28.8873368 140.836566,26.5993628 Z M146.659485,23.4764565 C146.063093,24.257187 145.764902,25.2981453 145.764902,26.5993628 C145.764902,27.9005802 146.063093,28.9442494 146.659485,29.7304016 C147.255876,30.5165538 148.079968,30.909624 149.131786,30.909624 C150.183603,30.909624 151.007695,30.5165538 151.604086,29.7304016 C152.200478,28.9442494 152.498669,27.9005802 152.498669,26.5993628 C152.498669,25.2981453 152.200478,24.257187 151.604086,23.4764565 C151.007695,22.6957261 150.183603,22.3053667 149.131786,22.3053667 C148.079968,22.3053667 147.255876,22.6957261 146.659485,23.4764565 Z" id="o" fill="#FFFFFF"></path>
            <path d="M158.920665,22.5330786 L158.920665,19.2149907 L161.425496,19.2149907 L161.425496,18.5806504 C161.425496,16.7697894 162.043565,15.3222068 163.279722,14.2378589 C164.515879,13.153511 166.115268,12.6113452 168.077937,12.6113452 C169.52012,12.6113452 170.734571,12.8878498 171.721328,13.4408672 C172.708084,13.9938846 173.429165,14.7203868 173.884591,15.6203955 L171.282169,17.7185981 C170.859274,16.5800329 169.970122,16.0107588 168.614687,16.0107588 C167.855643,16.0107588 167.259261,16.2384684 166.825522,16.6938945 C166.391783,17.1493206 166.174916,17.8216062 166.174916,18.7107715 L166.174916,19.2149907 L170.013489,19.2149907 L170.013489,22.5330786 L166.174916,22.5330786 L166.174916,34 L161.425496,34 L161.425496,22.5330786 L158.920665,22.5330786 Z" id="f" fill="#FFFFFF"></path>
        </g>
    </g>
</svg>