<?xml version="1.0" encoding="UTF-8" standalone="no"?>
<svg
   xmlns:dc="http://purl.org/dc/elements/1.1/"
   xmlns:cc="http://creativecommons.org/ns#"
   xmlns:rdf="http://www.w3.org/1999/02/22-rdf-syntax-ns#"
   xmlns:svg="http://www.w3.org/2000/svg"
   xmlns="http://www.w3.org/2000/svg"
   xmlns:sodipodi="http://sodipodi.sourceforge.net/DTD/sodipodi-0.dtd"
   xmlns:inkscape="http://www.inkscape.org/namespaces/inkscape"
   width="278"
   height="50"
   viewBox="0 0 278 50"
   version="1.1"
   id="svg22"
   sodipodi:docname="main.svg"
   inkscape:version="0.92.3 (2405546, 2018-03-11)">
  <metadata
     id="metadata28">
    <rdf:RDF>
      <cc:Work
         rdf:about="">
        <dc:format>image/svg+xml</dc:format>
        <dc:type
           rdf:resource="http://purl.org/dc/dcmitype/StillImage" />
      </cc:Work>
    </rdf:RDF>
  </metadata>
  <defs
     id="defs26" />
  <sodipodi:namedview
     pagecolor="#ffffff"
     bordercolor="#666666"
     borderopacity="1"
     objecttolerance="10"
     gridtolerance="10"
     guidetolerance="10"
     inkscape:pageopacity="0"
     inkscape:pageshadow="2"
     inkscape:window-width="1280"
     inkscape:window-height="1372"
     id="namedview24"
     showgrid="false"
     inkscape:zoom="0.67708333"
     inkscape:cx="-97.307692"
     inkscape:cy="-93.153846"
     inkscape:window-x="1280"
     inkscape:window-y="32"
     inkscape:window-maximized="0"
     inkscape:current-layer="Home-Merge" />
  <!-- Generator: Sketch 52.2 (67145) - http://www.bohemiancoding.com/sketch -->
  <title
     id="title2">logo/main</title>
  <desc
     id="desc4">Created with Sketch.</desc>
  <g
     style="fill:none;fill-rule:evenodd;stroke:none;stroke-width:1"
     transform="translate(-121,-457)"
     id="Home-Merge">
    <g
       id="logo/poets/inverse"
       transform="translate(120,452)">
      <g
         id="Group-17"
         transform="translate(1,5)">
        <path
           d="m 9.3414474,23.964161 c 0,2.146173 0.6532894,3.880827 1.9578946,5.202117 1.304605,1.324981 2.974342,1.985626 5.007237,1.985626 2.204605,0 3.929605,-0.721543 5.169079,-2.164627 1.241447,-1.444931 1.863158,-3.308761 1.863158,-5.595183 0,-2.284577 -0.621711,-4.150253 -1.863158,-5.593337 -1.239474,-1.443085 -2.964474,-2.164627 -5.169079,-2.164627 -2.032895,0 -3.702632,0.660645 -5.007237,1.985625 -1.3046052,1.32129 -1.9578946,3.067017 -1.9578946,5.231644 z M 0,47 V 9.7510684 H 9.5348684 V 14.792638 C 10.326316,13.011849 11.546053,11.601981 13.194079,10.561189 14.842105,9.5203963 16.884868,9 19.326316,9 c 2.780921,0 5.220394,0.6458819 7.318421,1.937646 2.098026,1.293609 3.680921,3.020882 4.752631,5.183663 C 32.467105,18.284091 33,20.708916 33,23.392094 c 0,2.699786 -0.532895,5.128302 -1.602632,7.287393 -1.07171,2.159091 -2.654605,3.882673 -4.752631,5.172591 -2.098027,1.288074 -4.5375,1.933955 -7.318421,1.933955 -2.441448,0 -4.484211,-0.518551 -6.132237,-1.555652 -1.648026,-1.035257 -2.867763,-2.439588 -3.6592106,-4.21115 V 47 Z"
           id="Fill-1"
           inkscape:connector-curvature="0"
           style="fill:#ffffff" />
        <path
           d="m 46.555287,17.977499 c -1.193036,1.502019 -1.787558,3.50407 -1.787558,6.006154 0,2.502083 0.594522,4.509904 1.787558,6.02154 1.193035,1.513558 2.840941,2.269376 4.94571,2.269376 2.10078,0 3.750681,-0.755818 4.943716,-2.269376 1.193036,-1.511636 1.789553,-3.519457 1.789553,-6.02154 0,-2.502084 -0.596517,-4.504135 -1.789553,-6.006154 -1.193035,-1.500097 -2.842936,-2.252068 -4.943716,-2.252068 -2.104769,0 -3.752675,0.751971 -4.94571,2.252068 M 35,23.983653 c 0,-4.357972 1.562118,-7.94474 4.690345,-10.760305 C 42.818572,10.407783 46.754791,9 51.500997,9 56.241219,9 60.177438,10.403936 63.305665,13.207962 66.435887,16.013911 68,19.604526 68,23.983653 68,28.383935 66.443867,31.988012 63.32761,34.792038 60.213349,37.596064 56.269149,39 51.500997,39 46.732846,39 42.788646,37.596064 39.67239,34.792038 36.556133,31.988012 35,28.383935 35,23.983653"
           id="Fill-3"
           inkscape:connector-curvature="0"
           style="fill:#ffffff" />
        <path
           d="m 81.508007,21.106545 h 12.083735 c -0.0656,-1.615488 -0.619332,-2.973267 -1.665059,-4.073338 -1.045726,-1.10007 -2.467682,-1.652029 -4.267798,-1.652029 -1.736446,0 -3.127533,0.53465 -4.173259,1.603949 -1.047656,1.071223 -1.705576,2.442464 -1.977619,4.121418 M 72,24.452914 C 72,19.991089 73.47405,16.298545 76.424079,13.379127 79.376037,10.459709 83.076597,9 87.533475,9 c 2.344202,0 4.447231,0.375024 6.309087,1.126995 1.859927,0.750048 3.378353,1.782807 4.549489,3.096353 1.171136,1.313545 2.064439,2.815565 2.683769,4.504134 C 101.6913,19.417975 102,21.231553 102,23.170139 v 2.284762 H 81.318927 c 0.04245,2.023207 0.686861,3.66562 1.931314,4.925316 1.244453,1.263542 2.913371,1.894352 5.004824,1.894352 3.160331,0 5.346324,-1.263543 6.557978,-3.786781 L 102,30.647541 c -0.93961,2.7521 -2.629751,4.833003 -5.066564,6.240785 C 94.494694,38.296109 91.46749,39 87.847965,39 83.200077,39 79.395331,37.659529 76.437584,34.978588 73.477908,32.299571 72,28.791653 72,24.452914"
           id="Fill-5"
           inkscape:connector-curvature="0"
           style="fill:#ffffff" />
        <path
           d="M 103,15.168851 V 8.7890503 h 5.34022 V 1.7843445 L 118.25132,0 v 8.7890503 h 10.84456 v 6.3798007 h -10.84456 v 11.369428 c 0,1.338258 0.35902,2.388099 1.08322,3.153367 0.72215,0.763346 1.71921,1.14598 2.98708,1.14598 1.40121,0 2.49059,-0.307646 3.27019,-0.922937 0.77959,-0.615291 1.65561,-1.697819 2.63625,-3.249507 L 133,32.072054 c -1.29043,1.70551 -2.97682,3.12068 -5.0571,4.243586 C 125.86467,37.438547 123.42125,38 120.61882,38 c -3.6046,0 -6.55269,-0.922937 -8.84429,-2.766888 -2.28954,-1.845873 -3.43431,-4.581996 -3.43431,-8.210292 V 15.168851 Z"
           id="Fill-7"
           inkscape:connector-curvature="0"
           style="fill:#ffffff" />
        <path
           d="m 138.91637,28.499327 c 0.89465,1.280851 2.27164,2.288608 4.12707,3.021347 1.85737,0.730817 3.77115,1.096224 5.73549,1.096224 3.2188,0 4.82723,-0.736585 4.82723,-2.209756 0,-0.657735 -0.33841,-1.150074 -1.01135,-1.478942 -0.67293,-0.328867 -1.68039,-0.592345 -3.02625,-0.792358 l -6.01945,-1.178922 c -6.39287,-1.263542 -9.59028,-4.165651 -9.59028,-8.70825 0,-2.669402 1.22334,-4.877236 3.67196,-6.625425 C 140.07942,9.8750561 143.26904,9 147.20357,9 c 6.37341,0 11.21426,1.944355 14.52447,5.831143 l -5.64603,3.844477 c -2.19579,-2.196294 -5.15397,-3.292518 -8.87844,-3.292518 -1.07359,0 -1.98185,0.196166 -2.72869,0.588499 -0.7449,0.392333 -1.12026,0.969293 -1.12026,1.732803 0,1.113533 0.37731,1.83281 1.12804,2.159754 l 7.88071,1.727034 c 6.01361,1.319315 9.55916,3.884864 10.63663,7.700493 0,2.961729 -1.28558,5.319572 -3.85673,7.075454 C 156.57407,38.123021 153.11993,39 148.77893,39 145.52318,39 142.42885,38.432656 139.49206,37.301814 136.55527,36.169049 134.39254,34.567023 133,32.495737 Z"
           id="Fill-10"
           inkscape:connector-curvature="0"
           style="fill:#ffffff" />
        <polygon
           id="Fill-12"
           points="176,28 165,28 165,39 176,39 "
           style="fill:#231f20" />
        <path
           d="m 190.55529,17.977499 c -1.19304,1.502019 -1.78756,3.50407 -1.78756,6.006154 0,2.502083 0.59452,4.509904 1.78756,6.02154 1.19303,1.513558 2.84094,2.269376 4.94571,2.269376 2.10078,0 3.75068,-0.755818 4.94371,-2.269376 1.19304,-1.511636 1.78956,-3.519457 1.78956,-6.02154 0,-2.502084 -0.59652,-4.504135 -1.78956,-6.006154 -1.19303,-1.500097 -2.84293,-2.252068 -4.94371,-2.252068 -2.10477,0 -3.75268,0.751971 -4.94571,2.252068 M 179,23.983653 c 0,-4.357972 1.56212,-7.94474 4.69034,-10.760305 C 186.81857,10.407783 190.75479,9 195.501,9 c 4.74022,0 8.67644,1.403936 11.80466,4.207962 3.13023,2.805949 4.69434,6.396564 4.69434,10.775691 0,4.400282 -1.55613,8.004359 -4.67239,10.808385 C 204.21335,37.596064 200.26915,39 195.501,39 190.73285,39 186.78865,37.596064 183.67239,34.792038 180.55613,31.988012 179,28.383935 179,23.983653"
           id="Fill-14"
           inkscape:connector-curvature="0"
           style="fill:#231f20" />
        <path
           d="M 215,39 V 9.8037125 h 9.45071 v 6.3941545 c 0.86662,-2.012243 2.10885,-3.714455 3.72668,-5.108609 C 229.79522,9.6970774 231.73779,9 234.00119,9 c 2.86201,0 5.07846,0.9636651 6.64542,2.889021 1.57089,1.92733 2.35339,4.486571 2.35339,7.681674 0,0.254739 -0.0196,0.422591 -0.0626,0.507504 l -7.69985,3.046998 c 0.0861,-0.294233 0.12715,-0.813586 0.12715,-1.556082 0,-1.396129 -0.36386,-2.501974 -1.09355,-3.315561 -0.72968,-0.81556 -1.81541,-1.222353 -3.25326,-1.222353 -2.09516,0 -3.71104,0.892575 -4.85349,2.681674 -1.14246,1.7891 -1.71369,4.060032 -1.71369,6.810822 V 39 Z"
           id="Fill-15"
           inkscape:connector-curvature="0"
           style="fill:#231f20" />
        <path
           d="m 254.56445,18.689007 c 0,1.396454 0.38906,2.506206 1.16334,3.331206 0.77812,0.825 1.80923,1.236525 3.09331,1.236525 1.30326,0 2.33819,-0.411525 3.10481,-1.236525 0.7647,-0.825 1.14801,-1.934752 1.14801,-3.331206 0,-1.375 -0.38331,-2.463298 -1.14801,-3.266844 -0.76662,-0.803546 -1.80155,-1.205319 -3.10481,-1.205319 -1.28408,0 -2.31519,0.407624 -3.09331,1.220922 -0.77428,0.813298 -1.16334,1.899645 -1.16334,3.251241 m -3.71044,23.189716 c 0,2.30532 2.63334,3.457979 7.90385,3.457979 2.74641,0 4.99069,-0.317908 6.729,-0.951773 1.73639,-0.633865 2.60842,-1.532979 2.60842,-2.69734 0,-1.501773 -1.18443,-2.25071 -3.54945,-2.25071 h -10.80166 c -0.85862,0 -1.55432,0.210639 -2.08904,0.633866 -0.5328,0.423227 -0.80112,1.025886 -0.80112,1.807978 M 243,42.736879 c 0,-1.341844 0.52322,-2.490602 1.57349,-3.446276 1.05026,-0.957624 2.39568,-1.509575 4.03816,-1.659752 -1.28983,-0.429078 -2.31327,-1.15461 -3.07222,-2.174645 -0.75704,-1.021986 -1.13843,-2.166844 -1.13843,-3.434575 0,-1.347695 0.46188,-2.527659 1.38949,-3.543794 0.92186,-1.016135 2.20595,-1.806029 3.84843,-2.36578 -1.37033,-0.825 -2.43785,-1.876241 -3.19488,-3.155674 -0.75896,-1.279433 -1.13843,-2.701241 -1.13843,-4.267376 0,-2.939184 1.24,-5.275709 3.72385,-7.009574 2.48385,-1.7338656 5.72665,-2.6017734 9.7284,-2.6017734 3.58203,0 6.61017,0.7606383 9.08827,2.2838654 0.77428,-1.6500002 2.00662,-3.013298 3.69894,-4.0918441 C 272.85407,6.4232269 274.32981,6 275.97229,6 c 0.45614,0 0.92378,0.033156 1.401,0.095567 L 278,13.233865 c -0.64588,-0.148227 -1.28984,-0.22234 -1.9338,-0.22234 l -1.80922,0.181383 c -1.24575,0.243794 -2.31711,0.647518 -3.21022,1.21312 0.85862,1.248227 1.28601,2.675887 1.28601,4.282979 0,2.919681 -1.26109,5.240603 -3.78327,6.962766 -2.52601,1.726064 -5.78797,2.58617 -9.79164,2.58617 -1.97596,0 -3.82735,-0.232092 -5.55224,-0.698227 -1.23618,0.557802 -1.85139,1.248227 -1.85139,2.073227 0,1.26188 0.98511,1.891844 2.95724,1.891844 h 12.87537 c 3.22363,0 5.72281,0.731383 7.49945,2.192199 1.77856,1.460815 2.66592,3.438475 2.66592,5.929078 0,1.714362 -0.5213,3.251241 -1.56199,4.616489 -1.0426,1.363298 -2.44935,2.453546 -4.22024,3.266844 -1.77281,0.815248 -3.76027,1.433511 -5.96046,1.856738 C 263.4074,49.789362 261.08071,50 258.63328,50 c -2.19636,0 -4.20107,-0.126773 -6.01221,-0.380319 -1.81114,-0.253546 -3.4517,-0.651419 -4.92936,-1.189717 -1.47383,-0.538297 -2.62567,-1.296985 -3.45362,-2.268262 C 243.41397,45.188475 243,44.045567 243,42.736879"
           id="Fill-16"
           inkscape:connector-curvature="0"
           style="fill:#231f20" />
      </g>
    </g>
  </g>
</svg>
