<svg xmlns="http://www.w3.org/2000/svg" width="278" height="50">
  <g fill="none" fill-rule="evenodd">
    <path id="Poets" d="M9.341 23.964c0 2.146.654 3.881 1.958 5.202 1.305 1.325 2.975 1.986 5.008 1.986 2.204 0 3.93-.722 5.169-2.165 1.241-1.445 1.863-3.308 1.863-5.595 0-2.284-.622-4.15-1.863-5.593-1.24-1.443-2.965-2.165-5.17-2.165-2.032 0-3.702.66-5.007 1.986-1.304 1.321-1.958 3.067-1.958 5.231zM0 47V9.751h9.535v5.042a9.428 9.428 0 0 1 3.66-4.232C14.841 9.521 16.884 9 19.325 9c2.781 0 5.22.646 7.319 1.938 2.098 1.293 3.68 3.02 4.752 5.183C32.467 18.284 33 20.71 33 23.392c0 2.7-.533 5.128-1.603 7.287-1.071 2.16-2.654 3.883-4.752 5.173-2.098 1.288-4.538 1.934-7.319 1.934-2.441 0-4.484-.519-6.132-1.556a9.397 9.397 0 0 1-3.66-4.21V47zM46.555 17.977c-1.193 1.503-1.787 3.505-1.787 6.007s.594 4.51 1.787 6.021c1.193 1.514 2.841 2.27 4.946 2.27 2.1 0 3.75-.756 4.944-2.27 1.193-1.511 1.79-3.52 1.79-6.021 0-2.502-.597-4.504-1.79-6.007-1.193-1.5-2.843-2.252-4.944-2.252-2.105 0-3.753.752-4.946 2.252M35 23.984c0-4.358 1.562-7.945 4.69-10.76C42.82 10.407 46.755 9 51.501 9c4.74 0 8.676 1.404 11.805 4.208C66.436 16.014 68 19.605 68 23.984c0 4.4-1.556 8.004-4.672 10.808C60.213 37.596 56.269 39 51.5 39s-8.712-1.404-11.829-4.208C36.556 31.988 35 28.384 35 23.984M81.508 21.107h12.084c-.066-1.616-.62-2.974-1.665-4.074-1.046-1.1-2.468-1.652-4.268-1.652-1.737 0-3.128.535-4.173 1.604-1.048 1.071-1.706 2.443-1.978 4.122M72 24.453c0-4.462 1.474-8.154 4.424-11.074C79.376 10.46 83.077 9 87.534 9c2.344 0 4.447.375 6.309 1.127 1.86.75 3.378 1.783 4.55 3.096a13.883 13.883 0 0 1 2.683 4.504c.615 1.691.924 3.505.924 5.443v2.285H81.319c.042 2.023.687 3.666 1.931 4.925 1.245 1.264 2.914 1.895 5.005 1.895 3.16 0 5.346-1.264 6.558-3.787l7.187 2.16c-.94 2.752-2.63 4.833-5.067 6.24C94.495 38.296 91.467 39 87.848 39c-4.648 0-8.453-1.34-11.41-4.021C73.478 32.299 72 28.792 72 24.453M103 15.169v-6.38h5.34V1.784L118.251 0v8.79h10.845v6.379H118.25v11.37c0 1.338.36 2.387 1.084 3.153.722.763 1.719 1.146 2.987 1.146 1.4 0 2.49-.308 3.27-.923.78-.616 1.655-1.698 2.636-3.25L133 32.072c-1.29 1.706-2.977 3.12-5.057 4.244-2.078 1.123-4.522 1.684-7.324 1.684-3.605 0-6.553-.923-8.844-2.767-2.29-1.846-3.435-4.582-3.435-8.21V15.169zM138.916 28.5c.895 1.28 2.272 2.288 4.127 3.02a15.541 15.541 0 0 0 5.736 1.097c3.219 0 4.827-.737 4.827-2.21 0-.658-.338-1.15-1.011-1.479-.673-.329-1.68-.592-3.026-.792l-6.02-1.18c-6.393-1.263-9.59-4.165-9.59-8.707 0-2.67 1.223-4.878 3.672-6.626C140.079 9.875 143.269 9 147.204 9c6.373 0 11.214 1.944 14.524 5.831l-5.646 3.845c-2.196-2.197-5.154-3.293-8.878-3.293-1.074 0-1.982.196-2.73.589-.744.392-1.12.969-1.12 1.732 0 1.114.378 1.833 1.129 2.16l7.88 1.727c6.014 1.32 9.56 3.885 10.637 7.7 0 2.962-1.286 5.32-3.857 7.076C156.574 38.123 153.12 39 148.78 39c-3.256 0-6.35-.567-9.287-1.698-2.937-1.133-5.1-2.735-6.492-4.806z" fill="#fff"/>
    <path fill="#231f20" d="M176 28h-11v11h11zM190.555 17.977c-1.193 1.503-1.787 3.505-1.787 6.007s.594 4.51 1.787 6.021c1.193 1.514 2.841 2.27 4.946 2.27 2.1 0 3.75-.756 4.944-2.27 1.193-1.511 1.79-3.52 1.79-6.021 0-2.502-.597-4.504-1.79-6.007-1.193-1.5-2.843-2.252-4.944-2.252-2.105 0-3.753.752-4.946 2.252M179 23.984c0-4.358 1.562-7.945 4.69-10.76C186.82 10.407 190.755 9 195.501 9c4.74 0 8.676 1.404 11.805 4.208 3.13 2.806 4.694 6.397 4.694 10.776 0 4.4-1.556 8.004-4.672 10.808C204.213 37.596 200.269 39 195.5 39s-8.712-1.404-11.829-4.208C180.556 31.988 179 28.384 179 23.984M215 39V9.804h9.45v6.394c.867-2.012 2.11-3.715 3.727-5.109C229.795 9.697 231.737 9 234.001 9c2.862 0 5.079.964 6.646 2.889 1.57 1.927 2.353 4.487 2.353 7.682 0 .254-.02.422-.063.507l-7.7 3.047c.087-.294.128-.813.128-1.556 0-1.396-.364-2.502-1.094-3.315-.73-.816-1.815-1.223-3.253-1.223-2.095 0-3.711.893-4.854 2.682-1.142 1.789-1.713 4.06-1.713 6.81V39zM254.564 18.689c0 1.396.39 2.506 1.164 3.331.778.825 1.809 1.237 3.093 1.237 1.303 0 2.338-.412 3.105-1.237.765-.825 1.148-1.935 1.148-3.331 0-1.375-.383-2.463-1.148-3.267-.767-.803-1.802-1.205-3.105-1.205-1.284 0-2.315.407-3.093 1.22-.774.814-1.164 1.9-1.164 3.252m-3.71 23.19c0 2.305 2.633 3.458 7.904 3.458 2.746 0 4.99-.318 6.729-.952 1.736-.634 2.608-1.533 2.608-2.697 0-1.502-1.184-2.251-3.55-2.251h-10.8c-.86 0-1.555.21-2.09.634-.533.423-.801 1.026-.801 1.808m-7.854.858c0-1.342.523-2.49 1.573-3.446 1.05-.958 2.396-1.51 4.039-1.66-1.29-.43-2.314-1.155-3.073-2.175a5.632 5.632 0 0 1-1.138-3.434c0-1.348.462-2.528 1.39-3.544.921-1.016 2.205-1.806 3.848-2.366-1.37-.825-2.438-1.876-3.195-3.156-.759-1.279-1.138-2.7-1.138-4.267 0-2.94 1.24-5.276 3.723-7.01 2.484-1.733 5.727-2.601 9.729-2.601 3.582 0 6.61.76 9.088 2.284.774-1.65 2.007-3.014 3.7-4.092 1.308-.847 2.784-1.27 4.426-1.27.456 0 .924.033 1.401.096l.627 7.138a8.617 8.617 0 0 0-1.934-.222l-1.809.18c-1.246.245-2.317.648-3.21 1.214.858 1.248 1.286 2.676 1.286 4.283 0 2.92-1.261 5.24-3.784 6.963-2.526 1.726-5.787 2.586-9.791 2.586-1.976 0-3.827-.232-5.552-.698-1.237.558-1.852 1.248-1.852 2.073 0 1.262.985 1.892 2.957 1.892h12.876c3.223 0 5.723.731 7.5 2.192 1.778 1.46 2.665 3.438 2.665 5.93a7.419 7.419 0 0 1-1.562 4.616c-1.042 1.363-2.45 2.453-4.22 3.266-1.773.816-3.76 1.434-5.96 1.857-2.203.423-4.53.634-6.977.634-2.196 0-4.2-.127-6.012-.38-1.811-.254-3.452-.652-4.93-1.19-1.473-.538-2.625-1.297-3.453-2.268-.824-.974-1.238-2.116-1.238-3.425"/>
  </g>
</svg>
