<svg id="Layer_1" data-name="Layer 1" xmlns="http://www.w3.org/2000/svg" viewBox="0 0 400 400"><defs><style>.cls-1{fill:#c1ba63;}</style></defs><path class="cls-1" d="M254.5,188.23a200.72,200.72,0,0,0-27.36,85.28,3,3,0,0,1-2.86,2.09H175.14a3,3,0,0,1-2.86-2.09,251.39,251.39,0,0,0-27.36-85.28,6,6,0,0,1,1.37-5.91c18.74-19.44,35.12-45.88,46-76.57a2,2,0,0,1,3.88.68v75.92a4.06,4.06,0,0,1-2.16,3.54,11.8,11.8,0,0,0-6.12,10.35c0,9.28,10.71,16.06,20.45,8.65,5.76-7.57,2.95-15.74-3-19a4.08,4.08,0,0,1-2.17-3.55V106.43a2,2,0,0,1,3.88-.68c10.9,30.69,27.28,57.13,46,76.57A6,6,0,0,1,254.5,188.23ZM163,320h73.5a3,3,0,0,0,2.92-3.66L232,283.82a3,3,0,0,0-2.92-2.33H170.35a3,3,0,0,0-2.92,2.33L160,316.38A3,3,0,0,0,163,320Zm118.19-27.59a34.3,34.3,0,0,1,11.4-5.75.91.91,0,0,0,.13-1.69c-22.3-10.69-34.27,4.71-34.27,4.71C261.13,295.18,275.69,297,281.15,292.45Zm-15.54-24.38a50.77,50.77,0,0,1-.45-11.22.93.93,0,0,0-1.4-.86c-18,12.13-9.48,28.11-9.48,28.11C260.05,284.47,266.59,276.08,265.61,268.07Zm34.34-2a31.78,31.78,0,0,1,8.52-8.13.84.84,0,0,0-.34-1.53c-22.54-3.45-29,13.35-29,13.35C283,273.83,296.35,271.53,300,266.05ZM279.7,248.7a45.93,45.93,0,0,1-3.4-9.78.86.86,0,0,0-1.47-.38c-12.64,15.52-.83,27.34-.83,27.34C279.19,264.67,282.71,255.5,279.7,248.7ZM300,266.05a31.78,31.78,0,0,1,8.52-8.13.84.84,0,0,0-.34-1.53c-22.54-3.45-29,13.35-29,13.35C283,273.83,296.35,271.53,300,266.05ZM279.7,248.7a45.93,45.93,0,0,1-3.4-9.78.86.86,0,0,0-1.47-.38c-12.64,15.52-.83,27.34-.83,27.34C279.19,264.67,282.71,255.5,279.7,248.7Zm32.69-10.84a31.72,31.72,0,0,1,6.12-10.07.84.84,0,0,0-.73-1.38c-22.66,2.52-24.52,20.41-24.52,20.41C298.06,249.76,310.34,244.08,312.39,237.86Zm-24.06-11.5a46.71,46.71,0,0,1-5.82-8.56.86.86,0,0,0-1.52,0c-8.17,18.27,6.3,26.62,6.3,26.62C292,241.91,293,232.15,288.33,226.36Zm25.95-16.78a28,28,0,0,1,2.68-9.9.73.73,0,0,0-.94-1c-18.34,7.59-15.57,23-15.57,23C305.18,223,314.07,215.28,314.28,209.58Zm-22.9-3.79a41,41,0,0,1-6.94-5.75.75.75,0,0,0-1.27.38c-2.41,17.25,11.71,20.74,11.71,20.74C298.2,217.91,296.69,209.5,291.38,205.79Zm20.43-22.17a27.77,27.77,0,0,1,.77-10.22.73.73,0,0,0-1.11-.79c-16.59,10.89-11,25.52-11,25.52C305.38,198.51,312.67,189.26,311.81,183.62Zm-23.21.57a40.8,40.8,0,0,1-7.9-4.35.75.75,0,0,0-1.17.61c.87,17.4,15.39,18.18,15.39,18.18C297.57,194.82,294.51,186.84,288.6,184.19Zm14.66-23.77a25.14,25.14,0,0,1-1.33-9.18.66.66,0,0,0-1.13-.48c-12.5,12.88-4.67,24.68-4.67,24.68C300.52,174.82,305.13,165.22,303.26,160.42Zm-20.37,5.06a36.22,36.22,0,0,1-7.83-2.28.68.68,0,0,0-.91.77c4.19,15.19,17.16,13,17.16,13C292.9,173.1,288.63,166.66,282.89,165.48Zm9.31-22.28a23.28,23.28,0,0,1-2.49-8.22.61.61,0,0,0-1.1-.28c-9.66,13.52-.85,23.24-.85,23.24C291.69,156.77,294.58,147.34,292.2,143.2Zm-17.94,7.46a33.76,33.76,0,0,1-7.49-1,.63.63,0,0,0-.73.83C272,163.8,283.55,160,283.55,160,284.47,156.24,279.67,150.93,274.26,150.66Zm4.32-20.77a19.66,19.66,0,0,1-3.67-6.3.52.52,0,0,0-1,0C268.61,136.65,277.8,143,277.8,143,280.82,141.21,281.36,132.85,278.58,129.89Zm-13.37,9.7a28.76,28.76,0,0,1-6.38.63.53.53,0,0,0-.44.83c7.53,9.85,16.35,4.45,16.35,4.45C274.76,142.19,269.74,138.75,265.21,139.59Zm2.08-17.39a15.88,15.88,0,0,1-3.47-4.78.42.42,0,0,0-.78.07c-3.22,11,4.69,15.28,4.69,15.28C270,131.12,269.77,124.35,267.29,122.2Zm-10,8.89a23.35,23.35,0,0,1-5.09,1,.43.43,0,0,0-.28.7c6.86,7.31,13.52,2.24,13.52,2.24C265.21,132.41,260.9,130.05,257.32,131.09Zm-2.56-12.15a17,17,0,0,1-5.62-2.71.44.44,0,0,0-.69.45c2.48,11.81,12,11.88,12,11.88C261.76,125.88,258.14,119.7,254.76,118.94ZM141.59,289.72s-12-15.4-34.27-4.71a.91.91,0,0,0,.13,1.69,34.3,34.3,0,0,1,11.4,5.75C124.31,297,138.87,295.18,141.59,289.72Zm4.13-5.62s8.52-16-9.48-28.11a.93.93,0,0,0-1.4.86,50.77,50.77,0,0,1-.45,11.22C133.41,276.08,140,284.47,145.72,284.1Zm-24.86-14.36s-6.45-16.8-29-13.35a.84.84,0,0,0-.34,1.53,31.78,31.78,0,0,1,8.52,8.13C103.65,271.53,117,273.83,120.86,269.74Zm5.14-3.86s11.81-11.82-.83-27.34a.86.86,0,0,0-1.47.38,45.93,45.93,0,0,1-3.4,9.78C117.29,255.5,120.81,264.67,126,265.88Zm-5.14,3.86s-6.45-16.8-29-13.35a.84.84,0,0,0-.34,1.53,31.78,31.78,0,0,1,8.52,8.13C103.65,271.53,117,273.83,120.86,269.74Zm5.14-3.86s11.81-11.82-.83-27.34a.86.86,0,0,0-1.47.38,45.93,45.93,0,0,1-3.4,9.78C117.29,255.5,120.81,264.67,126,265.88Zm-19.26-19.06s-1.86-17.89-24.52-20.41a.84.84,0,0,0-.73,1.38,31.72,31.72,0,0,1,6.12,10.07C89.66,244.08,101.94,249.76,106.74,246.82Zm6-2.39s14.47-8.35,6.3-26.62a.86.86,0,0,0-1.52,0,46.71,46.71,0,0,1-5.82,8.56C107,232.15,108,241.91,112.71,244.43ZM99.55,221.71s2.77-15.42-15.57-23a.73.73,0,0,0-.94,1,28,28,0,0,1,2.68,9.9C85.93,215.28,94.82,223,99.55,221.71Zm5.57-.55s14.12-3.49,11.71-20.74a.75.75,0,0,0-1.27-.38,41,41,0,0,1-6.94,5.75C103.31,209.5,101.8,217.91,105.12,221.16Zm-5.62-23s5.62-14.63-11-25.52a.73.73,0,0,0-1.11.79,27.77,27.77,0,0,1,.77,10.22C87.33,189.26,94.62,198.51,99.5,198.13Zm5.58.5s14.52-.78,15.39-18.18a.75.75,0,0,0-1.17-.61,40.8,40.8,0,0,1-7.9,4.35C105.49,186.84,102.43,194.82,105.08,198.63Zm-1.21-23.19s7.83-11.8-4.67-24.68a.66.66,0,0,0-1.13.48,25.14,25.14,0,0,1-1.33,9.18C94.87,165.22,99.48,174.82,103.87,175.44Zm4.82,1.54s13,2.18,17.16-13a.68.68,0,0,0-.91-.77,36.22,36.22,0,0,1-7.83,2.28C111.37,166.66,107.1,173.1,108.69,177Zm3.55-19s8.81-9.72-.85-23.24a.61.61,0,0,0-1.1.28,23.28,23.28,0,0,1-2.49,8.22C105.42,147.34,108.31,156.77,112.24,157.94Zm4.21,2.08S128,163.8,134,150.48a.63.63,0,0,0-.73-.83,33.76,33.76,0,0,1-7.49,1C120.33,150.93,115.53,156.24,116.45,160ZM122.2,143s9.19-6.3,3.86-19.38a.52.52,0,0,0-1,0,19.66,19.66,0,0,1-3.67,6.3C118.64,132.85,119.18,141.21,122.2,143Zm3.06,2.55s8.82,5.4,16.35-4.45a.53.53,0,0,0-.44-.83,28.76,28.76,0,0,1-6.38-.63C130.26,138.75,125.24,142.19,125.26,145.5Zm7-12.73s7.91-4.32,4.69-15.28a.42.42,0,0,0-.78-.07,15.88,15.88,0,0,1-3.47,4.78C130.23,124.35,130,131.12,132.27,132.77Zm2.26,2.3s6.66,5.07,13.52-2.24a.43.43,0,0,0-.28-.7,23.35,23.35,0,0,1-5.09-1C139.1,130.05,134.79,132.41,134.53,135.07Zm5-6.51s9.53-.07,12-11.88a.44.44,0,0,0-.69-.45,17,17,0,0,1-5.62,2.71C141.86,119.7,138.24,125.88,139.54,128.56Z"/></svg>