<?xml version="1.0" standalone="no"?>
<!DOCTYPE svg PUBLIC "-//W3C//DTD SVG 1.1//EN" "http://www.w3.org/Graphics/SVG/1.1/DTD/svg11.dtd" >
<svg xmlns="http://www.w3.org/2000/svg">
<metadata></metadata>
<defs>
<font id="electra_lhregular" horiz-adv-x="1024" >
<font-face units-per-em="2048" ascent="1638" descent="-410" />
<missing-glyph horiz-adv-x="512" />
<glyph horiz-adv-x="2048" />
<glyph horiz-adv-x="2048" />
<glyph unicode="&#xd;" horiz-adv-x="2048" />
<glyph unicode=" "  horiz-adv-x="512" />
<glyph unicode="&#x09;" horiz-adv-x="512" />
<glyph unicode="&#xa0;" horiz-adv-x="512" />
<glyph unicode="!" horiz-adv-x="569" d="M186 74q0 41 29 69.5t70 28.5t69.5 -28.5t28.5 -69.5q0 -40 -28.5 -69.5t-69.5 -29.5t-70 29.5t-29 69.5zM197 1290l168 33l-60 -1028h-47z" />
<glyph unicode="&#x22;" horiz-adv-x="757" d="M162 1382q0 88 65 88q33 0 50.5 -23.5t17.5 -64.5q0 -44 -6 -88l-47 -436h-29l-47 436q-4 29 -4 88zM465 1382q0 88 65 88q33 0 50.5 -23.5t17.5 -64.5q0 -44 -6 -88l-47 -436h-29l-47 436q-4 29 -4 88z" />
<glyph unicode="#" d="M29 465l10 49h207l73 406h-206l10 49h207l86 465h90l-86 -465h278l86 465h90l-86 -465h207l-10 -49h-207l-73 -406h206l-10 -49h-207l-86 -465h-90l86 465h-278l-86 -465h-90l86 465h-207zM336 514h278l74 406h-278z" />
<glyph unicode="$" d="M94 160l56 65q92 -105 166 -141t165 -39v629q-40 16 -64 26.5t-67.5 33t-71 43.5t-62 54.5t-54 69.5t-33.5 85.5t-14 105.5q0 45 10.5 89.5t37 91t67 82.5t105.5 61t146 30v158h47v-158q127 -10 201.5 -44t140.5 -95l-63 -58q-108 141 -279 152v-596q70 -25 121.5 -48.5 t107 -59.5t90 -77t57 -100t22.5 -129q0 -73 -25 -139.5t-73 -121.5t-125.5 -90t-174.5 -40v-283h-47v283q-115 7 -205 39.5t-182 120.5zM229 1128q0 -43 11 -81t26 -65t40.5 -52.5t44.5 -40.5t49 -31t43.5 -22t37.5 -15v580q-116 -14 -184 -84.5t-68 -188.5zM528 45 q138 32 206.5 102t68.5 199q0 50 -13.5 93t-38.5 74t-50.5 54t-62 41t-58.5 27.5t-52 19.5v-610z" />
<glyph unicode="%" horiz-adv-x="1593" d="M125 1008q0 84 41.5 164t105.5 136t142 90t151 34q121 0 176 -113q74 -8 99 -8q212 0 385 159h69l-923 -1495h-92l843 1364l-4 4q-55 -36 -116 -56.5t-158 -20.5q-38 0 -88 6q6 -101 -32.5 -196.5t-101 -160.5t-135.5 -104t-137 -39q-90 0 -157.5 63t-67.5 173zM231 944 q0 -56 35.5 -91.5t87.5 -35.5q76 0 160 62.5t140.5 159.5t56.5 188q0 30 -6 57q-68 22 -121 94q-67 -10 -134 -63t-113.5 -120.5t-76 -136.5t-29.5 -114zM836 246q0 88 42 169t106.5 136t140.5 88t145 33q99 0 147.5 -58t48.5 -147q0 -103 -59.5 -208.5t-156.5 -175 t-195 -69.5q-85 0 -152 62t-67 170zM942 180q0 -54 36.5 -87.5t90.5 -33.5q71 0 153.5 61.5t140.5 158.5t58 188q0 80 -38.5 115.5t-86.5 35.5q-72 0 -156.5 -76t-141 -179.5t-56.5 -182.5z" />
<glyph unicode="&#x26;" horiz-adv-x="1593" d="M109 389q0 67 16 127.5t38.5 103.5t61 83.5t68 64.5t75 50t67.5 36.5t59 26.5q-45 83 -69 148.5t-24 131.5q0 132 88 210.5t213 78.5q117 0 181.5 -66.5t64.5 -156.5q0 -52 -23 -98.5t-53.5 -77t-77.5 -59.5t-77 -42.5t-70 -29.5q11 -18 76.5 -113.5t75.5 -112.5 q56 -85 99 -161t61.5 -113.5t60.5 -128.5q113 126 195.5 282.5t82.5 206.5q0 24 -26.5 34t-120.5 17v54h397v-54q-77 -6 -108 -12.5t-43 -16.5t-25 -36q-168 -348 -328 -520q61 -109 110.5 -155t115.5 -46q46 0 98 31l37 -33q-28 -22 -49 -36t-67.5 -29t-98.5 -15 q-58 0 -105 19t-77.5 52t-44 53t-27.5 48q-97 -80 -195 -126t-215 -46q-185 0 -301 124.5t-116 301.5zM264 483q0 -66 23 -138t65.5 -137.5t114 -108t158.5 -42.5q140 0 282 127q-35 72 -95.5 180t-88.5 154q-10 17 -101.5 157.5t-109.5 170.5q-114 -60 -181 -155t-67 -208z M537 1214q0 -62 22 -120t68 -142q108 57 165.5 139.5t57.5 161.5q0 72 -44 112t-104 40q-26 0 -52 -9.5t-53 -29.5t-43.5 -59.5t-16.5 -92.5z" />
<glyph unicode="'" horiz-adv-x="454" d="M162 1382q0 88 65 88q33 0 50.5 -23.5t17.5 -64.5q0 -44 -6 -88l-47 -436h-29l-47 436q-4 29 -4 88z" />
<glyph unicode="(" horiz-adv-x="681" d="M145 514q0 268 92 502t285 459h51q-166 -198 -245.5 -432.5t-79.5 -528.5t79.5 -527.5t245.5 -432.5h-51q-193 225 -285 458.5t-92 501.5z" />
<glyph unicode=")" horiz-adv-x="681" d="M109 -446q166 199 245.5 432.5t79.5 527.5t-79.5 528.5t-245.5 432.5h51q193 -225 285 -459t92 -502t-92 -501.5t-285 -458.5h-51z" />
<glyph unicode="*" d="M207 981q0 23 31 39l102 59q37 21 37 49q0 29 -37 50l-102 59q-31 15 -31 39q0 16 11.5 29.5t29.5 13.5q19 0 86 -42t84 -42q26 0 39.5 17.5t13.5 47.5v119q0 51 41 51t41 -51v-119q0 -30 13.5 -47.5t39.5 -17.5q17 0 84 42t86 42q18 0 29.5 -13.5t11.5 -29.5 q0 -24 -31 -39l-102 -59q-37 -21 -37 -50q0 -28 37 -49l102 -59q31 -16 31 -39q0 -16 -11.5 -29.5t-29.5 -13.5q-19 0 -86 42t-84 42q-26 0 -39.5 -18t-13.5 -48v-118q0 -52 -41 -52t-41 52v118q0 30 -13.5 48t-39.5 18q-17 0 -84 -42t-86 -42q-18 0 -29.5 13.5t-11.5 29.5z M367 1049q0 -6 5.5 -11.5t12.5 -5.5q3 0 20.5 3t20.5 3q24 0 38.5 -11.5t18.5 -26t11 -26t18 -11.5t18 11.5t11 26t18.5 26t38.5 11.5q3 0 20.5 -3t20.5 -3q18 0 18 17q0 7 -18 28t-18 47t18 47.5t18 28.5q0 17 -18 17q-3 0 -20.5 -3.5t-20.5 -3.5q-24 0 -38.5 12t-18.5 26 t-11 26t-18 12t-18 -12t-11 -26t-18.5 -26t-38.5 -12q-3 0 -20.5 3.5t-20.5 3.5q-7 0 -12.5 -5.5t-5.5 -11.5q0 -7 18 -28.5t18 -47.5t-18 -47t-18 -28z" />
<glyph unicode="+" horiz-adv-x="1228" d="M109 461v88h460v461h88v-461h461v-88h-461v-461h-88v461h-460z" />
<glyph unicode="," horiz-adv-x="512" d="M113 -348q72 79 122 160t50 120q0 80 -164 91l57 139q104 -12 169 -51t65 -91q0 -65 -94.5 -190t-180.5 -209z" />
<glyph unicode="-" horiz-adv-x="530" d="M20 371v123h490v-123h-490z" />
<glyph unicode="." horiz-adv-x="512" d="M158 74q0 41 28.5 69.5t69.5 28.5t69.5 -28.5t28.5 -69.5q0 -40 -28.5 -69.5t-69.5 -29.5t-69.5 29.5t-28.5 69.5z" />
<glyph unicode="/" horiz-adv-x="569" d="M57 -37l469 1507h105l-469 -1507h-105z" />
<glyph unicode="0" d="M98 723q0 188 34 335t92.5 235t131.5 132.5t156 44.5q87 0 161 -46.5t131 -137t89.5 -235t32.5 -328.5q0 -189 -34 -335.5t-92 -234.5t-131 -133t-157 -45q-67 0 -127.5 28t-113 87.5t-91 146t-60.5 211t-22 275.5zM246 723q0 -86 2 -153t9 -143t18.5 -132.5t31.5 -110.5 t47.5 -88t67.5 -55t90 -21q56 0 99 24.5t71.5 72.5t48 108.5t29.5 144t14 166t4 187.5q0 80 -2 143t-8.5 139t-17.5 133t-31 113.5t-47.5 92.5t-68 58.5t-91.5 22.5t-91.5 -22t-68 -58t-47.5 -92.5t-31 -113t-17.5 -133t-8.5 -139.5t-2 -144z" />
<glyph unicode="1" d="M272 -4v51l179 14q0 32 3 205t3 201l2 889l-168 4v74l315 28l-4 -1401l170 -14v-51q-193 4 -252 4q-13 0 -119 -2t-129 -2z" />
<glyph unicode="2" d="M115 -4v31q27 44 110 161t160 232t157.5 246t129.5 250t49 198q0 107 -74 160t-184 53q-132 0 -248 -59l-41 -23v-4q-8 0 -10.5 2.5t-1.5 9.5l26 156q151 61 289 61q159 0 263 -81.5t104 -219.5q0 -81 -41 -185t-115 -220t-144 -214.5t-161.5 -220.5t-134.5 -186h581 l15 111h53l-16 -254h-408q-92 0 -358 -4z" />
<glyph unicode="3" d="M199 1260l14 161q42 15 65 22.5t75 17t104 9.5q158 0 246 -74.5t88 -185.5q0 -99 -70.5 -190.5t-222.5 -198.5q37 -11 59.5 -18.5t65 -25t70.5 -34.5t62.5 -45t55 -59t35 -74.5t14.5 -93.5q0 -45 -14 -91.5t-49 -103t-108 -114t-177 -103.5q-60 -27 -128.5 -50.5 t-107.5 -34.5t-45 -11q-8 0 -12 10t-4 19q0 6 6 9t29 9q63 16 125 41t126.5 63.5t113 84t79.5 107.5t31 130q0 50 -20.5 91.5t-56.5 69.5t-76 49t-88 33.5t-83.5 19t-70.5 10.5q-37 3 -46.5 6.5t-9.5 15.5q0 8 7 13t49 28q33 18 47.5 26t57.5 35t68.5 47t62.5 54t57.5 65 t36.5 71.5t16 80.5q0 70 -48.5 121t-150.5 51q-18 0 -36.5 -1.5t-33.5 -3t-33.5 -5.5t-31 -6.5t-30.5 -8t-26.5 -7.5t-26.5 -8.5t-22 -8t-21 -8.5z" />
<glyph unicode="4" d="M23 590v39l692 866h33l-5 -795l236 5v-115h-236l-2 -590h-147l6 590h-577zM137 694l465 4l6 588l-4 4z" />
<glyph unicode="5" d="M201 -16q0 9 38 26q6 3 9 4q127 56 219.5 123t141.5 133t71 124t22 112q0 121 -103.5 182t-338.5 88l-2 656h406q60 0 118 6l9 78h53l-8 -222l-525 -6l-4 -366q59 -8 101 -15.5t102 -22t102 -32t88 -46.5t74.5 -64t47 -85t18.5 -110q0 -82 -33 -158t-85 -132.5 t-117 -106.5t-129 -83.5t-120.5 -57.5t-92.5 -35t-44 -11q-18 0 -18 21z" />
<glyph unicode="6" d="M90 561q0 79 13 162t42.5 172.5t73.5 171.5t110 156t146.5 129.5t189 89.5t232.5 37l4 -29q-525 -121 -639 -653q162 90 297 90q54 0 106.5 -13.5t105 -46.5t92 -82.5t64.5 -127.5t25 -175q0 -96 -25.5 -175.5t-67 -132.5t-96 -89.5t-111.5 -53t-115 -16.5 q-61 0 -120 16.5t-119.5 59t-105.5 106.5t-73.5 168.5t-28.5 235.5zM238 569q0 -158 32 -280t102 -197.5t169 -75.5q72 0 126 40t82.5 105.5t42 135.5t13.5 143q0 57 -8 108.5t-29 103.5t-54 89t-87 60.5t-123 23.5q-142 0 -250 -86q-16 -90 -16 -170z" />
<glyph unicode="7" d="M115 1153l6 281h825q-14 -41 -135.5 -350t-165.5 -433l-244 -688h-92l264 660q203 510 265 671l-660 -8l-12 -133h-51z" />
<glyph unicode="8" d="M135 369q0 61 15 112.5t38 87.5t62.5 70.5t74.5 57t89 51.5q-40 25 -63.5 40.5t-64.5 52.5t-64.5 73t-42.5 92t-19 118q0 148 101 247t259 99q71 0 129 -21.5t95.5 -55.5t63.5 -78t37 -86.5t11 -83.5q0 -57 -20 -108t-44.5 -83.5t-65.5 -65t-64 -46.5t-58 -33 q36 -20 57 -32.5t59 -39t62 -49t54.5 -58t47.5 -71.5t29.5 -84t12.5 -100q0 -167 -115 -283.5t-285 -116.5q-174 0 -282.5 114.5t-108.5 279.5zM221 373q0 -154 83 -253.5t204 -99.5q109 0 196 90t87 226q0 62 -19 115t-47 90t-75.5 72.5t-87.5 57.5t-101 50 q-30 -17 -45.5 -26t-45.5 -30t-46.5 -38t-39 -45t-34 -57t-20.5 -68.5t-9 -83.5zM287 1165q0 -42 10 -80t23.5 -65.5t38.5 -54.5t44.5 -44t51.5 -36.5t50 -29t50 -24.5q48 26 81 50.5t69 62t54.5 88t18.5 111.5q0 119 -69 200.5t-177 81.5q-101 0 -173 -71t-72 -189z" />
<glyph unicode="9" d="M70 999q0 201 125.5 336t310.5 135q57 0 113.5 -14.5t117 -53t106 -97t74.5 -155.5t29 -220q0 -225 -85 -429.5t-245 -353.5q-49 -46 -110.5 -91.5t-100.5 -69t-45 -23.5q-18 0 -18 14q0 4 8 13.5t18.5 19.5t12.5 13q79 74 142 152.5t98.5 134.5t66.5 124.5t41 98 t25 79.5q-67 -30 -109 -41q-84 -26 -162 -26q-175 0 -294 129t-119 325zM217 1020q0 -92 21.5 -165t55.5 -118t80 -74.5t91.5 -41t93.5 -11.5q122 0 211 64q29 114 29 254q0 87 -11 159.5t-29 123t-44 89.5t-53 62t-58 37.5t-58 20t-54 5.5q-91 0 -155 -59.5t-92 -148.5 t-28 -197z" />
<glyph unicode=":" horiz-adv-x="512" d="M160 74q0 41 28.5 69.5t69.5 28.5t69.5 -28.5t28.5 -69.5q0 -40 -28.5 -69.5t-69.5 -29.5t-69.5 29.5t-28.5 69.5zM160 702q0 41 28.5 70t69.5 29t69.5 -29t28.5 -70q0 -40 -28.5 -69t-69.5 -29t-69.5 29t-28.5 69z" />
<glyph unicode=";" horiz-adv-x="512" d="M115 -348q71 80 120.5 160.5t49.5 119.5q0 81 -164 91l57 139q104 -12 170 -51t66 -91q0 -65 -95.5 -191t-181.5 -208zM168 702q0 41 28.5 70t69.5 29t70 -29t29 -70q0 -40 -29 -69t-70 -29t-69.5 29t-28.5 69z" />
<glyph unicode="&#x3c;" horiz-adv-x="1228" d="M29 487v35l1171 496v-94l-1014 -420l1014 -418v-94z" />
<glyph unicode="=" horiz-adv-x="1228" d="M109 264v88h1009v-88h-1009zM109 657v88h1009v-88h-1009z" />
<glyph unicode="&#x3e;" horiz-adv-x="1228" d="M29 -8v94l1013 418l-1013 420v94l1171 -496v-35z" />
<glyph unicode="?" horiz-adv-x="796" d="M109 1110l18 162q43 22 118 36.5t130 14.5q147 0 238.5 -73t91.5 -191t-97.5 -223t-294.5 -228l-8 -305h-43l-14 328q56 40 82 59.5t69.5 53.5t64 54t48 50t39.5 54t21.5 53t9.5 59q0 80 -61 121t-150 41q-127 0 -262 -66zM186 74q0 41 29 69.5t70 28.5t69.5 -28.5 t28.5 -69.5q0 -40 -28.5 -69.5t-69.5 -29.5t-70 29.5t-29 69.5z" />
<glyph unicode="@" horiz-adv-x="1638" d="M59 676q0 157 64.5 302t175 253.5t268.5 173.5t336 65q153 0 281.5 -47.5t214 -129t133 -190.5t47.5 -233q0 -142 -60.5 -275t-154.5 -212.5t-190 -79.5q-15 0 -31 2t-43.5 13t-48 29t-36 55t-16.5 87h-4q-40 -94 -103.5 -140t-141.5 -46q-116 0 -194.5 83.5t-78.5 211.5 q0 97 40.5 189.5t103 157t138.5 103.5t146 39q29 0 56.5 -6.5t56 -22.5t50 -47t30.5 -75h4l37 129h116q-109 -366 -137 -475q-18 -73 -18 -111q0 -56 33 -88.5t75 -32.5q51 0 108.5 43t105.5 112t80 164t32 189q0 116 -44.5 217.5t-123.5 175t-194.5 116t-251.5 42.5 q-162 0 -306 -63t-243 -166.5t-156 -238t-57 -275.5q0 -136 52 -258.5t143 -212.5t222.5 -142.5t282.5 -52.5q290 0 549 189l23 -39q-274 -195 -584 -195q-158 0 -301 51t-251 141.5t-171.5 226t-63.5 294.5zM604 559q0 -108 46 -159.5t114 -51.5q28 0 53 7.5t46 24.5 t37.5 34t32.5 48t27 53t24.5 62.5l21 63t20.5 66.5q37 124 37 182q0 72 -41 112.5t-100 40.5q-79 0 -154.5 -79.5t-119.5 -191.5t-44 -212z" />
<glyph unicode="A" horiz-adv-x="1251" d="M-29 -4v61q56 4 79.5 10.5t35 18.5t25.5 43q80 190 159 403l346 938h31l311 -825q194 -501 226 -559q5 -13 22.5 -19.5t67.5 -9.5v-61q-20 0 -85.5 2t-119.5 2q-32 0 -113 -1.5t-147 -2.5v53l98 8q40 3 52 8t12 17q0 13 -17 53l-149 408q-10 28 -21 34.5t-43 6.5h-368 q-32 0 -45 -39l-140 -400q-20 -62 -20 -71q0 -16 39 -19l100 -6v-53q-24 0 -87.5 2t-98.5 2q-40 0 -87.5 -2t-62.5 -2zM367 643q0 -10 36 -10h340q23 0 23 12q0 10 -10 33l-170 461q-10 28 -17 28q-9 0 -20 -32l-170 -449q-1 -5 -6.5 -21t-5.5 -22z" />
<glyph unicode="B" horiz-adv-x="1290" d="M88 -4v53l170 8q4 116 4 242v86v637q0 243 -4 354l-158 4v54q187 0 246 2q238 14 324 14q87 0 158 -17.5t127.5 -55t88 -104t31.5 -157.5q0 -61 -17 -114t-39.5 -86t-57.5 -63.5t-56 -43.5t-51 -29q63 -16 116.5 -44.5t99.5 -72t72.5 -109t26.5 -146.5q0 -85 -30 -158.5 t-88.5 -131t-154.5 -90t-220 -32.5q-28 0 -174 2t-170 2q-92 0 -244 -4zM442 186q0 -94 32 -119.5t134 -25.5q81 0 149.5 19.5t122 58.5t83.5 103.5t30 148.5q0 71 -22 127.5t-54.5 92t-83.5 61.5t-95.5 39t-104.5 20t-95.5 8t-83.5 2h-12v-535zM442 766h113q70 0 132 18.5 t113 54.5q50 35 80 97q31 64 31 144q1 160 -103 240q-104 82 -278 81q-54 0 -70 -16t-16 -87z" />
<glyph unicode="C" horiz-adv-x="1554" d="M86 721q0 170 59.5 313t160 237.5t231.5 146.5t274 52q92 0 186 -23t152.5 -50.5t105 -50.5t56.5 -23q8 0 14.5 6.5t8.5 11.5t7 17h60v-393h-41q-25 86 -63 157t-79 117.5t-89 82t-89.5 54.5t-85 30.5t-72 15t-53.5 3.5q-77 0 -154.5 -26t-150 -81.5t-128 -133 t-89 -189.5t-33.5 -243q0 -139 34.5 -259t93 -204.5t135.5 -145t163 -89.5t174 -29q205 0 327 120.5t173 327.5h41l-22 -338q-276 -172 -580 -172q-152 0 -285.5 54t-231 151t-154 240t-56.5 313z" />
<glyph unicode="D" horiz-adv-x="1630" d="M109 -4v53l151 8q6 167 6 402q0 782 -6 917l-151 4v54q50 0 336 8t346 8q161 0 297.5 -47.5t238.5 -137.5t159.5 -228t57.5 -310q0 -150 -42.5 -271.5t-118 -206.5t-181.5 -142.5t-230.5 -84t-266.5 -26.5q-29 0 -182.5 2t-178.5 2q-79 0 -235 -4zM446 408 q0 -308 13 -330q8 -17 100.5 -27t194.5 -10q143 0 259 53t190 144.5t113.5 212t39.5 258.5q0 173 -58.5 307t-162.5 217t-241 125.5t-300 42.5q-94 0 -131 -15q-12 -7 -14 -51q-3 -99 -3 -927z" />
<glyph unicode="E" horiz-adv-x="1366" d="M94 1384v54q132 -4 326 -4q502 0 754 4v-316h-70q-1 50 -3.5 84.5t-9 64.5t-14 48.5t-23.5 33t-32 21.5t-45.5 12t-58 6t-74.5 1h-410v-619q303 0 346 31q10 7 17.5 26.5t12.5 40.5t8.5 51t4.5 48t3 43l1 24h68q-12 -183 -12 -327q0 -148 6 -242h-68q-12 175 -18 211 t-23 39q-58 10 -346 10q0 -547 6 -598t30 -68.5t83 -17.5h539l98 328h61l-24 -373h-641q-259 0 -477 -4v53l143 8q2 53 2 160v768q0 280 -4 391z" />
<glyph unicode="F" horiz-adv-x="1251" d="M109 1384v54q132 -4 389 -4q377 0 692 4l10 -340h-72q-4 59 -9 98.5t-12 73t-19 53t-26.5 34t-39 21t-50.5 9t-67 2.5h-469v-631q274 0 352 41q17 8 28 95.5t11 133.5h68q-10 -95 -10 -332q0 -150 6 -241h-68q-13 246 -35 250q-68 8 -141 8h-211q0 -529 4 -656l162 -8 v-53q-34 0 -124 2t-142 2q-60 0 -133.5 -2t-89.5 -2v53l143 8v1147q0 54 -4 172z" />
<glyph unicode="G" horiz-adv-x="1630" d="M86 721q0 168 60 311t160 237.5t229.5 147.5t269.5 53q92 0 189 -24t159.5 -53.5t112.5 -53.5t59 -24q11 0 16 7.5t13 35.5h43l-2 -393h-41q-58 200 -195 328t-334 128q-109 0 -208.5 -47.5t-176 -133.5t-121.5 -215.5t-45 -283.5q0 -157 50.5 -294.5t134.5 -232 t195.5 -148.5t232.5 -54q57 0 110 13t85.5 26.5t73 42.5t52 39.5t41.5 38.5q6 93 6 141q0 30 -6 123l-188 8v56q210 -6 246 -6q32 0 254 6v-56h-35q-59 0 -71.5 -15.5t-12.5 -88.5v-184q-210 -107 -346 -150t-283 -43q-214 0 -380.5 99t-256.5 271t-90 388z" />
<glyph unicode="H" horiz-adv-x="1593" d="M109 -4v53l143 8q4 111 4 402q0 780 -4 917l-143 8v54q66 -4 243 -4q176 0 246 4v-54l-158 -8q-4 -129 -4 -614h721q0 485 -4 614l-158 8v54q66 -4 244 -4q176 0 246 4v-54l-144 -8q-4 -113 -4 -403v-298.5v-224v-144.5t0.5 -110.5l1 -69t2.5 -69.5l144 -8v-53 q-132 4 -246 4q-104 0 -244 -4v53l158 8q4 127 4 656h-721q0 -529 4 -656l158 -8v-53q-136 4 -246 4q-103 0 -243 -4z" />
<glyph unicode="I" horiz-adv-x="681" d="M96 -4v53l152 8q2 56 2 402q0 849 -2 917l-152 8v54q136 -4 246 -4q104 0 244 4v-54l-150 -8q-6 -166 -6 -401q0 -783 6 -918l150 -8v-53q-132 4 -244 4q-106 0 -246 -4z" />
<glyph unicode="J" horiz-adv-x="681" d="M12 -406q66 43 109 90t76.5 121.5t49 183t15.5 261.5q0 219 -6 656.5t-6 469.5l-148 8v54q16 0 111.5 -2t126.5 -2q36 0 135.5 2t116.5 2v-54l-154 -8v-86q0 -146 2 -478q2 -464 2 -493q0 -259 -42.5 -398.5t-141.5 -235.5q-48 -47 -98.5 -75t-78.5 -35t-69 -13v32z" />
<glyph unicode="K" horiz-adv-x="1366" d="M106 -4v53l144 8q4 111 4 402q0 782 -4 917l-144 8v54q132 -4 244 -4q106 0 246 4v-54l-158 -8q-4 -127 -4 -651l340 313q64 58 192 180.5t128 135.5q0 9 -12 13.5t-52 8t-117 4.5v54q315 0 430 4v-62q-83 -11 -159.5 -63.5t-227.5 -186.5l-344 -299l291 -335 q17 -18 92 -99.5t143 -155.5t89 -96q52 -52 81 -68.5t66 -23.5v-49h-274q-327 379 -623 707l-43 -39q0 -484 4 -611l178 -8v-53q-15 0 -98 2t-156 2q-74 0 -158 -2t-98 -2z" />
<glyph unicode="L" horiz-adv-x="1251" d="M74 -4v53l174 8q2 56 2 402q0 849 -2 917l-158 8v54q16 0 99 -2t159 -2q74 0 157 2t97 2v-54l-166 -8q-6 -166 -6 -401q0 -807 4 -842q5 -34 18.5 -51.5t45.5 -20.5q36 -5 168.5 -8.5t179.5 -3.5q33 0 198 6l115 338h64l-41 -397q-289 4 -805 4q-103 0 -196 -2t-107 -2z " />
<glyph unicode="M" horiz-adv-x="1933" d="M86 -4v53l166 8q6 384 6 848q0 189 -8 471l-164 8v54q136 -4 184 -4q38 0 97.5 2t78.5 2l533 -1229l498 1225q165 0 360 4v-54l-164 -8q0 -137 6 -522q1 -60 4.5 -399t4.5 -398l157 -8v-53q-38 0 -126.5 2t-131.5 2q-42 0 -125.5 -2t-120.5 -2v53l158 8q4 402 4 570 q0 58 -5 356t-5 346h-4l-549 -1354h-33l-598 1323l-4 -4l12 -1237l183 -8v-53q-22 0 -89 2t-108 2q-28 0 -96 -1.5t-121 -2.5z" />
<glyph unicode="N" horiz-adv-x="1593" d="M82 1384v54q160 -4 317 -4q93 -126 448.5 -583t440.5 -556v407q0 527 -2 674l-176 8v54q55 -1 83 -1.5t32.5 -0.5t23.5 -0.5t62 -1.5h22q33 0 91 2q82 2 87 2v-54l-155 -8q-1 -43 -4.5 -218t-7 -329.5t-3.5 -179.5l-4 -674h-30q-387 507 -525 678q-376 467 -465 586 l-4 -4l2 -651q0 -131 9 -527l172 -8v-53q-102 4 -205 4t-205 -4v53l164 8q2 201 10 598l2 602q0 36 -46.5 75.5t-133.5 51.5z" />
<glyph unicode="O" horiz-adv-x="1630" d="M88 700q0 120 30 232.5t91 210t147.5 170.5t207.5 115t263 42q171 0 309 -58t226 -158t135 -231.5t47 -281.5q0 -120 -31 -234t-93 -212.5t-148.5 -172.5t-204.5 -116.5t-254 -42.5q-138 0 -257 41.5t-204 113t-145 165.5t-89.5 200t-29.5 217zM276 705q0 -155 46 -287.5 t122.5 -221t177 -138.5t209.5 -50q119 0 219.5 60t166.5 160.5t102.5 231t36.5 273.5q0 131 -29.5 244.5t-80.5 194.5t-118.5 139t-143.5 86t-155 28q-67 0 -137.5 -20.5t-146.5 -73t-134.5 -131t-96.5 -207t-38 -288.5z" />
<glyph unicode="P" horiz-adv-x="1175" d="M94 -4v53l154 8q6 167 6 402q0 715 -6 917l-154 8v54q22 0 96.5 -2t112.5 -2q33 0 205 8t199 8q105 0 187.5 -33.5t130.5 -88.5t72.5 -118t24.5 -129q0 -130 -67.5 -220.5t-184 -133.5t-272.5 -43h-168q0 -500 6 -627l166 -8v-53q-15 0 -98 2t-156 2t-156 -2t-98 -2z M430 733q106 -4 129 -4q175 0 283 84.5t108 255.5q0 61 -14.5 110t-39 83t-61.5 59.5t-76 40.5t-89.5 24t-96 12t-100.5 3q-24 0 -31.5 -15t-7.5 -77z" />
<glyph unicode="Q" horiz-adv-x="1630" d="M88 719q0 107 27.5 212.5t87 203t144.5 172t209 119t271 44.5q171 0 309 -57t226 -156t135 -228.5t47 -278.5q0 -228 -101.5 -407.5t-277.5 -281.5q-72 -42 -141.5 -71.5t-166.5 -55.5t-167.5 -41t-222.5 -45v-4q501 -96 620.5 -116.5t208.5 -20.5q122 0 234 62l18 -25 q-126 -113 -194.5 -153t-141.5 -40q-107 0 -286.5 34.5t-387.5 83.5t-288 63q-84 -47 -94 -47q-12 0 -19 7.5t-14 44.5t-12 109q-1 28 17.5 41t49.5 13q36 0 115.5 -15.5t81.5 -15.5t95 19.5t188 39.5t100 21q16 4 16 16q0 9 -7.5 12t-29.5 5q-141 13 -254.5 66.5 t-185.5 128.5t-120.5 170t-68.5 187.5t-20 184.5zM276 711q0 -153 46 -284.5t123 -220t177.5 -138.5t208.5 -50q157 0 279 102.5t184 265t62 353.5q0 130 -29.5 242t-80 192.5t-118 138t-143.5 85.5t-156 28q-68 0 -138.5 -20.5t-146 -72.5t-134 -130t-96.5 -205.5 t-38 -285.5z" />
<glyph unicode="R" horiz-adv-x="1327" d="M96 -4v53l152 8q2 56 2 402q0 849 -2 917l-152 8v54q35 0 104.5 -2t104.5 -2q60 0 182 8t183 8q117 0 207.5 -37t147 -120t56.5 -203q0 -71 -25 -133t-66 -104t-76.5 -67.5t-73.5 -44.5q-13 -8 -13 -12q0 -7 112.5 -182.5t178.5 -270.5q93 -133 134.5 -176.5t86.5 -62.5 v-37q-109 -4 -136 -4h-7q-85 0 -138.5 58.5t-219.5 326.5q-33 55 -111.5 177.5t-89.5 131.5q-14 12 -76 12q-44 4 -92 4q-19 0 -39 -1q0 -521 6 -648l150 -8v-53q-132 4 -244 4q-106 0 -246 -4zM430 750l123 4q172 0 211 24q58 34 101.5 118.5t43.5 190.5q0 159 -99 236.5 t-263 77.5q-68 0 -109 -23q-8 -27 -8 -628z" />
<glyph unicode="S" horiz-adv-x="1138" d="M147 1102q0 70 27.5 136t77.5 118t127.5 83t169.5 31q64 0 135 -16.5t120 -32.5t60 -16q27 0 37 29h57v-349h-36q-110 340 -369 340q-83 0 -144 -40t-87.5 -94.5t-26.5 -112.5q0 -74 40 -135.5t103.5 -105t140 -85t153.5 -86.5t140.5 -96.5t103.5 -127.5t40 -169 q0 -167 -123.5 -288.5t-300.5 -121.5q-71 0 -155 18.5t-139.5 37t-57.5 18.5q-10 0 -14 -5.5t-15 -31.5h-57v377h41q22 -75 54 -137.5t78 -116.5t111.5 -84.5t143.5 -30.5q119 0 200.5 79t81.5 204q0 65 -24.5 119.5t-66 94t-95.5 74.5t-113 66.5t-118.5 63t-113.5 70 t-95.5 82.5t-66 106t-24.5 135z" />
<glyph unicode="T" horiz-adv-x="1366" d="M18 1081l25 357q92 0 321.5 -2t309.5 -2q38 0 318.5 2t355.5 2l-19 -346h-59q-12 249 -25 274q-6 11 -15 15.5t-47 8t-114 3.5h-299q-4 -113 -4 -402q0 -799 4 -934l148 -8v-53q-132 4 -242 4q-92 0 -240 -4v53l148 8q2 111 2 398q0 869 -2 938h-222q-75 0 -118.5 -6.5 t-55.5 -12.5t-24 -18q-22 -20 -35.5 -69t-46.5 -206h-64z" />
<glyph unicode="U" horiz-adv-x="1554" d="M104 1384v54q47 -1 102.5 -2t87.5 -1.5t56 -0.5q66 0 238 4v-54l-158 -8l-16 -733v-34q0 -281 96 -433q102 -160 315 -160q412 0 412 582v8l-6 770l-152 8v54q39 -1 83 -2t69 -1.5t41 -0.5q18 0 190 4v-54l-129 -8l-14 -790q-2 -98 -17.5 -183.5t-53.5 -168t-95.5 -141 t-149.5 -94.5t-210 -36q-120 0 -215 32t-159 89t-105.5 138.5t-59.5 177.5q-16 86 -16 187v23l6 766z" />
<glyph unicode="V" horiz-adv-x="1402" d="M-14 1382v56q149 -4 463 -4v-56q-65 0 -99 -2t-44.5 -5.5t-10.5 -10.5q0 -14 53 -143q80 -195 233.5 -557.5t186.5 -442.5l238 571q26 57 123.5 303.5t97.5 264.5q0 8 -3.5 11.5t-20 6t-46 3.5t-84.5 1v56q194 0 344 4v-64q-65 -5 -80 -10t-24 -25q-31 -59 -147.5 -323 t-159.5 -369l-291 -684h-31q-110 263 -319 744.5t-289 668.5z" />
<glyph unicode="W" horiz-adv-x="1972" d="M-2 1384v54q166 -4 211 -4q16 0 112.5 2t120.5 2v-54q-51 -1 -79.5 -2t-45 -3.5t-21.5 -6.5t-5 -10t24 -78l144 -426l209 -604h4l284 840l-102 282l-100 8v54q118 -4 229 -4q51 0 131.5 2t106.5 2v-54q-168 -4 -168 -24q0 -11 12 -43l352 -1063h4l207 565 q26 71 106.5 302t80.5 243q0 5 -3 7.5t-20 4.5t-46.5 2.5l-88.5 1.5v54q252 0 340 4v-62q-40 -1 -61 -4.5t-27 -7.5t-11 -12q-16 -34 -67 -163t-108 -278t-68 -178l-293 -770h-33l-340 1041h-4l-364 -1041h-35q-338 986 -500 1413z" />
<glyph unicode="X" horiz-adv-x="1290" d="M-8 -4v61q57 3 90 17.5t74 62.5q64 74 235 320l168 235l-291 416q-138 206 -194 246q-23 18 -82 22v62q180 -4 495 -4v-54q-59 0 -90 -0.5t-48 -3.5t-20 -6.5t-3 -11.5q0 -22 157 -250l183 -264l202 280q4 6 47.5 67.5t79 113.5t35.5 57q0 7 -3.5 10t-20 6t-50 2.5 t-92.5 -0.5v54q218 0 422 4v-62q-67 -2 -89.5 -4t-46 -9.5t-40.5 -23.5q-75 -70 -283 -360l-133 -180l224 -332q90 -133 170 -239.5t110 -135.5q12 -12 29.5 -19t28 -8.5t49.5 -7.5v-61q-17 0 -100 2t-154 2q-69 0 -149 -2t-99 -2v53q65 2 99.5 5.5t44 7t9.5 10.5 q0 18 -38 73l-330 500l-148 -215q-33 -46 -76 -110t-93 -146t-50 -100q0 -8 11 -12t57 -6.5t139 -2.5v-53q-304 0 -436 -4z" />
<glyph unicode="Y" horiz-adv-x="1175" d="M-51 1384v54q200 -4 223 -4q11 0 137.5 2t155.5 2v-54q-59 -2 -92 -3.5t-49.5 -4t-20.5 -5t-4 -7.5q0 -8 41 -77t94.5 -155t61.5 -100l155 -241l154 225q12 17 93 132.5t97 137.5q41 61 41 72q0 18 -32 18q-54 4 -152 4v54q275 0 377 4v-62q-50 -2 -74 -13t-53 -46 q-60 -70 -232 -301l-194 -273v-516q0 -52 4 -170l180 -8v-53q-38 0 -131 2t-143 2q-89 0 -277 -4v53l183 8q4 127 4 641l-224 349q-51 82 -121.5 187t-91.5 124q-16 14 -36 18.5t-74 7.5z" />
<glyph unicode="Z" horiz-adv-x="1327" d="M41 0v31q329 440 470.5 639.5t502.5 722.5l-555 -4q-70 -1 -114 -4.5t-80.5 -17t-56 -32t-34.5 -55.5t-21 -81.5t-10 -115.5h-71l10 355q160 -4 682 -4q18 0 232 2q153 2 217 2h38v-29q-44 -59 -526 -741q-113 -160 -202 -286t-125.5 -177.5t-65 -91.5t-49.5 -70l313 2 q69 0 153 2t196 10.5t149 22.5q26 11 54.5 101.5t47.5 203.5h66l-11 -389q-294 4 -721 4h-489z" />
<glyph unicode="[" horiz-adv-x="681" d="M219 -451v1921h303q27 0 27 -20q0 -17 -18 -34t-52 -17q-26 0 -75.5 20.5t-77.5 20.5q-15 0 -23 -4v-1852q8 -4 23 -4q28 0 77.5 20.5t75.5 20.5q34 0 52 -17t18 -34q0 -21 -27 -21h-303z" />
<glyph unicode="\" horiz-adv-x="569" d="M-61 1470h104l469 -1507h-104z" />
<glyph unicode="]" horiz-adv-x="681" d="M133 -430q0 17 18 34t52 17q26 0 75.5 -20.5t77.5 -20.5q15 0 23 4v1852q-8 4 -23 4q-28 0 -77.5 -20.5t-75.5 -20.5q-34 0 -52 17t-18 34q0 20 27 20h303v-1921h-303q-27 0 -27 21z" />
<glyph unicode="^" horiz-adv-x="1228" d="M291 758l307 712h33l307 -712h-45l-279 489l-278 -489h-45z" />
<glyph unicode="_" d="M0 -154h1024v-102h-1024v102z" />
<glyph unicode="`" horiz-adv-x="569" d="M-16 1286q0 29 20 46.5t45 17.5q24 0 41.5 -11.5t42.5 -38.5l299 -299h-49l-350 216q-49 27 -49 69z" />
<glyph unicode="a" horiz-adv-x="909" d="M66 158q0 72 40 126t112.5 86t162 48.5t199.5 19.5l2 262v6q0 80 -26 104q-28 26 -120 26q-76 0 -124.5 -13t-51.5 -28q-9 -68 -22 -146q-3 -14 -31.5 -34.5t-46.5 -20.5q-45 0 -45 82q0 56 23.5 84.5t74.5 56.5q59 31 147.5 55.5t167.5 24.5q106 0 151.5 -47.5 t45.5 -144.5l-2 -631h106v-54q-151 -45 -192 -45q-28 0 -44 19t-18 49q-5 41 -10 43q-8 -4 -52.5 -28.5t-65.5 -34t-59.5 -26t-72 -23.5t-65.5 -7q-78 0 -131 53.5t-53 137.5zM205 174q0 -121 121 -121q53 0 121.5 22t95.5 36q24 9 29 17.5t6 41.5v195v9q0 19 -4 25 q-4 7 -19 7q-12 0 -44 -4t-86.5 -19.5t-102 -39t-82.5 -68t-35 -101.5z" />
<glyph unicode="b" horiz-adv-x="1062" d="M53 1421v68q94 6 141.5 13t137.5 26q-4 -129 -4 -549v-148q139 58 250 58q183 0 290 -127t107 -320q0 -88 -29 -168.5t-87 -148.5t-156.5 -109t-225.5 -41q-81 0 -270 21q-14 2 -20.5 8.5t-6.5 24.5v1290q0 17 -1 50t-1 50zM328 109q0 -58 21.5 -77.5t80.5 -19.5 q170 0 283.5 118t113.5 306q0 98 -31 176t-82 124.5t-112.5 70.5t-128.5 24q-42 0 -82.5 -13t-54.5 -36q-6 -12 -7 -30t-1 -90v-553z" />
<glyph unicode="c" horiz-adv-x="948" d="M86 414q0 47 9.5 98.5t29 106.5t53 104t77 88.5t106.5 62.5t137 23q81 0 149 -25.5t110 -65.5t65.5 -86.5t23.5 -90.5q0 -22 -9.5 -28.5t-43.5 -6.5q-50 0 -68.5 16t-30.5 68q-23 98 -38 125q-35 47 -109 49q-57 0 -112.5 -26t-100.5 -74.5t-73 -125.5t-28 -171 q0 -95 29 -173t76 -126t104 -73.5t115 -25.5q41 0 78 12t61.5 27t50 41t36.5 40t28 38l29 -18q-50 -109 -143 -169.5t-214 -60.5q-172 0 -284.5 130t-112.5 317z" />
<glyph unicode="d" horiz-adv-x="1062" d="M78 434q0 206 124.5 330.5t307.5 124.5q45 0 94 -8.5t80 -16.5t33 -8q16 0 16 29v534l-160 2v68q140 8 310 39q0 -53 -1 -158.5t-1 -157.5v-1159l106 2v-53q-204 -35 -229 -35q-12 0 -17.5 4.5t-7 10.5t-2.5 24q-3 25 -12 25q-4 0 -44 -14t-97.5 -28t-104.5 -14 q-167 0 -281 128.5t-114 330.5zM233 446q0 -81 20 -151.5t61 -128.5t111.5 -91.5t162.5 -33.5q82 0 113.5 19t31.5 75v645q0 64 -153 64q-64 0 -122 -20.5t-110 -64t-83.5 -124.5t-31.5 -189z" />
<glyph unicode="e" horiz-adv-x="948" d="M90 418q0 72 18 141t54.5 130.5t87.5 107.5t120.5 73t149.5 27q77 0 138.5 -25t97 -61.5t59.5 -81.5t32.5 -80.5t8.5 -62.5q0 -25 -7.5 -34t-33.5 -9h-549q-22 0 -29.5 -14t-7.5 -68q0 -71 22.5 -140.5t64 -126.5t108.5 -92.5t147 -35.5q53 0 96 14t74.5 41t47.5 46 t38 50l31 -18q-17 -32 -29 -51.5t-44.5 -58t-66 -61.5t-88.5 -42t-118 -19q-178 0 -300 126.5t-122 324.5zM254 598q0 -10 22 -10h396q27 0 36 5t9 19q0 18 -3.5 42.5t-15.5 61t-31.5 65.5t-55.5 50t-83 21q-62 0 -117 -32.5t-87.5 -76.5t-51 -84t-18.5 -61z" />
<glyph unicode="f" horiz-adv-x="569" d="M53 0v49l140 2v733l-140 -2v66l140 6q0 220 14.5 329.5t73.5 200.5q84 136 219 136q42 0 250 -25l-15 -111q-36 4 -107 14.5t-128 16.5t-103 6q-30 0 -41 -17.5t-14 -62.5q-7 -120 -7 -272q0 -97 3 -207l235 10v-73l-211 -8q-14 -2 -18 -9.5t-4 -33.5v-697l160 -2v-49 h-447z" />
<glyph unicode="g" horiz-adv-x="948" d="M57 -283q0 124 109 242q-103 49 -103 147q0 143 236 193v2q-29 16 -46.5 26.5t-47 36.5t-46.5 53t-30.5 71t-13.5 96q0 140 94.5 226.5t228.5 86.5q65 0 135 -27.5t95 -27.5q17 0 67 4l187 22v-69q0 -20 -13.5 -29.5t-58.5 -15.5q-52 -6 -64 -10t-12 -13q0 -1 2 -47 t2 -55q0 -88 -21 -150t-64.5 -101.5t-100.5 -61.5t-139 -35l-88.5 -15t-68.5 -14t-56 -17t-35.5 -21t-24.5 -29t-6 -38q0 -19 3 -30.5t16.5 -22.5t33.5 -17t63 -13t95 -11.5t139 -11.5q224 -18 311 -66t87 -168q0 -109 -74 -195.5t-192 -131.5t-253 -45q-80 0 -143.5 20 t-100.5 50t-61 69.5t-32.5 74.5t-8.5 68zM102 -303q0 -85 76 -141t201 -56q108 0 206.5 35.5t160 98t61.5 135.5q0 93 -101.5 121t-390.5 28q-45 0 -57 -1.5t-25 -10.5q-14 -10 -26 -21t-41 -41t-46.5 -68.5t-17.5 -78.5zM242 575q0 -64 20 -112.5t53 -75t70 -39t76 -12.5 q45 0 76 12t57.5 44.5t39.5 95t13 157.5q0 122 -22 150q-8 12 -47.5 24t-83.5 12q-116 0 -184 -74.5t-68 -181.5z" />
<glyph unicode="h" horiz-adv-x="1138" d="M68 1434v61q11 0 20 0.5t20.5 1.5t18 1.5t22 2.5t24.5 3t32 4t37 5t48 7t58 8q0 -34 -2 -207.5t-2 -200.5v-256q0 -57 16 -57q1 0 46 20.5t121 41t151 20.5q123 0 191.5 -63t68.5 -185v-590l109 -2v-49h-361v49l105 2v580q0 109 -38.5 152.5t-156.5 43.5 q-58 0 -127.5 -14t-108.5 -39q-16 -11 -16 -80v-643l102 -2v-49h-362v49l113 2v1055q0 54 -1 162t-1 162z" />
<glyph unicode="i" horiz-adv-x="569" d="M106 0v49l115 2v676q0 40 -15.5 50t-88.5 14v61l252 33v-834l108 -2v-49h-371zM205 1292q0 45 28 75t70 30q34 0 58 -22.5t24 -63.5q0 -44 -28 -75.5t-68 -31.5q-38 0 -61 25.5t-23 62.5z" />
<glyph unicode="j" horiz-adv-x="569" d="M123 795v65l258 25l2 -574v-86q0 -59 -1 -103q-1 -74 -12 -174.5t-34 -176.5q-18 -61 -46 -107.5t-47 -65t-50 -44.5h-64q36 42 49.5 61t27 60.5t19.5 105.5q13 142 13 350l-2 578q0 55 -16.5 66.5t-96.5 19.5zM225 1292q0 45 28 75t71 30q34 0 58 -22.5t24 -63.5 q0 -44 -28.5 -75.5t-68.5 -31.5q-38 0 -61 25.5t-23 62.5z" />
<glyph unicode="k" horiz-adv-x="948" d="M31 1434v65q120 2 305 29q-4 -152 -4 -402v-665q0 -15 12 -15q6 0 153.5 166t147.5 172q0 11 -78 11v61l293 16v-65q-77 -9 -117 -22t-64.5 -32.5t-70.5 -70.5l-131 -141q-14 -14 -14 -21q0 -4 10 -16l193 -228q87 -102 129.5 -145t63.5 -55t59 -21v-55h-197l-334 393 q-24 24 -35 21q-20 0 -20 -35v-328l110 -2v-49h-374v49l116 2v1348q0 24 -24 29.5t-129 5.5z" />
<glyph unicode="l" horiz-adv-x="569" d="M61 1438v65q14 1 301 25q0 -71 -1 -213.5t-1 -212.5v-1051l111 -2v-49h-393v49l135 2v1192q0 175 -16 187q-4 3 -32 4.5t-62 2t-42 1.5z" />
<glyph unicode="m" horiz-adv-x="1705" d="M92 768v84l248 33q2 -57 5 -68.5t20 -11.5q2 0 50.5 21t122.5 42t138 21q43 0 79 -8t57.5 -17.5t42 -27t28.5 -27t22 -27.5q66 33 105 50.5t108.5 37t130.5 19.5q146 0 208.5 -72t62.5 -231v-535l106 -2v-49h-362v49l108 2v567q0 121 -41.5 165t-148.5 44q-56 0 -121 -14 t-100 -37q-18 -10 -21.5 -26.5t-3.5 -83.5v-615l108 -2v-49h-362v49l106 2v567q0 122 -40.5 165.5t-147.5 43.5q-56 0 -121.5 -14t-101.5 -37q-18 -10 -21.5 -26.5t-3.5 -83.5v-615l109 -2v-49h-363v49l107 2v713z" />
<glyph unicode="n" horiz-adv-x="1138" d="M90 770v82l248 29q0 -45 4.5 -60.5t19.5 -15.5q5 0 53 21t124 42t151 21q123 0 191.5 -63t68.5 -185v-590l109 -2v-49h-361v49l105 2v580q0 109 -38.5 152.5t-156.5 43.5q-58 0 -127 -14t-108 -39q-21 -14 -21 -80v-643l107 -2v-49h-363v49l109 2v715z" />
<glyph unicode="o" d="M82 422q0 105 27.5 189t72 136.5t104.5 87t120 48.5t124 14q94 0 168 -29t118.5 -74t74 -105.5t40.5 -117.5t11 -116q0 -95 -29 -182.5t-82 -156t-135 -109t-182 -40.5q-65 0 -127 17.5t-117.5 55t-97 90.5t-66 128t-24.5 164zM238 430q0 -110 32 -204.5t95.5 -154 t146.5 -59.5q90 0 153.5 61.5t92 154.5t28.5 206q0 181 -68.5 299.5t-189.5 118.5q-45 0 -92 -21t-93 -66.5t-75.5 -132.5t-29.5 -202z" />
<glyph unicode="p" horiz-adv-x="1062" d="M61 -483l121 2q2 55 2 348v489q0 277 -4 416l-119 2v78l248 33q8 -66 37 -66q5 0 45 17.5t100 35t115 17.5q70 0 136 -29t120.5 -83t87.5 -140.5t33 -192.5q0 -111 -35.5 -201t-96.5 -148t-142 -89t-174 -31q-81 0 -203 35v-491l145 -2v-49h-416v49zM332 35 q48 -10 108 -10q184 0 285.5 106.5t101.5 302.5q0 98 -29.5 175t-77.5 121t-102 66.5t-110 22.5q-32 0 -83 -10t-73 -21q-20 -10 -20 -55v-698z" />
<glyph unicode="q" horiz-adv-x="1062" d="M86 428q0 93 30.5 176t88 146.5t147.5 101t201 37.5q20 0 125 -9.5t123 -9.5l84 2v-1353l110 -2v-49h-385v49l121 2q6 105 6 219v309q-133 -72 -254 -72q-174 0 -285.5 128t-111.5 325zM242 442q0 -99 29 -177t79 -126t112 -73t132 -25q43 0 88 14t49 31q6 24 6 131v442 q1 27 1 49q0 90 -13 107q-11 14 -45.5 25.5t-89.5 11.5q-162 0 -255 -108.5t-93 -301.5z" />
<glyph unicode="r" horiz-adv-x="681" d="M90 782v70l248 33l8 -76q4 -35 14 -35q3 0 24.5 19t49 42.5t73.5 42.5t93 19q57 0 57 -20q0 -14 -4 -57t-8 -50q-4 -8 -164 -8q-62 0 -89 -7t-33.5 -20t-6.5 -45v-639l135 -2v-49h-391v49l109 2v432q0 279 -10 289q-5 5 -105 10z" />
<glyph unicode="s" horiz-adv-x="681" d="M66 242h49q6 -30 15 -58t26 -60.5t38 -56t53.5 -39.5t71.5 -16q75 0 115.5 49t40.5 115q0 49 -21 89t-55 68.5t-75 55t-82.5 53.5t-75.5 56.5t-55 72.5t-21 95q0 96 73.5 163.5t178.5 67.5q49 0 87.5 -11.5t80.5 -32.5t63 -28l5 -170h-43q-11 38 -18.5 60t-22.5 51.5 t-31.5 45.5t-43 28t-59.5 12q-66 0 -112.5 -41t-46.5 -96t41.5 -100t100 -79.5t117.5 -72t100.5 -96.5t41.5 -134q0 -118 -83.5 -192t-190.5 -74q-91 0 -250 66z" />
<glyph unicode="t" horiz-adv-x="569" d="M53 776v64l94 4q33 0 33 28l4 353h146l-4 -373q151 7 247 20v-77q-25 1 -52 1q-47 0 -97 -2q-80 -4 -88 -12q-9 -9 -10.5 -27.5t-1.5 -92.5l-5 -355v-30q0 -134 25 -182q28 -54 107 -54q66 0 122 16v-30q-55 -20 -79 -28.5t-61.5 -16t-72.5 -7.5q-100 1 -144 57 q-44 55 -44 189v6l8 555z" />
<glyph unicode="u" horiz-adv-x="1138" d="M88 791v69l252 25v-639q0 -122 48 -169.5t179 -47.5q65 0 124.5 13t80.5 26q12 7 17.5 22.5t5.5 56.5v584q0 39 -20.5 49t-110.5 11v69l278 25v-811h102v-62q-150 -32 -178 -32q-23 0 -37 9.5t-18 21t-10.5 21t-16.5 9.5q-3 0 -51 -16.5t-124 -33t-148 -16.5 q-147 0 -207.5 72.5t-60.5 255.5v477z" />
<glyph unicode="v" horiz-adv-x="872" d="M25 807v57h311v-57q-86 0 -86 -16q0 -5 51 -152l182 -492l226 549q28 65 28 80q0 19 -80 19v69h209v-61q-51 -10 -70.5 -34.5t-64.5 -133.5l-282 -672h-31l-305 768q-22 51 -34.5 62t-53.5 14z" />
<glyph unicode="w" horiz-adv-x="1366" d="M41 807v57h291v-57q-46 0 -60 -8t-14 -23q0 -10 21 -69l192 -555l195 475l-39 106q-19 52 -34 62t-65 12v57h344v-57q-62 -3 -82 -12.5t-20 -30.5q0 -20 18 -76l191 -536l229 565q17 34 17 63q0 13 -82 19v65h196v-69q-40 -3 -53.5 -20t-44.5 -93l-299 -719h-31l-223 604 l-256 -604h-31l-278 760q-19 52 -32 64t-50 20z" />
<glyph unicode="x" horiz-adv-x="872" d="M29 0v53q63 1 82.5 12.5t54.5 59.5l209 285l-205 305q-38 57 -60.5 70t-80.5 18v61h331v-57q-32 -1 -47 -3t-18.5 -4.5t-3.5 -8.5q0 -7 22 -41l150 -224l137 187q8 8 31.5 42t23.5 38q0 9 -20 11t-60 -1v61h250v-61q-75 -3 -98 -13.5t-57 -54.5l-166 -219 q-12 -12 -12 -24q0 -9 12 -25l229 -344q29 -43 46.5 -53.5t72.5 -16.5v-53h-332v53h18q64 0 64 13q0 2 -20 34l-185 277l-190 -275q-21 -28 -21 -34q0 -7 34 -12q24 -4 51 -4q11 0 22 1v-53h-264z" />
<glyph unicode="y" horiz-adv-x="872" d="M25 807v57h344v-57q-7 -1 -25 -1.5t-32 -2t-28.5 -4t-23 -9t-8.5 -16.5q0 -13 14 -51l217 -576l213 519q39 92 39 110q0 16 -78 23v65h205v-65q-44 -3 -60 -17t-38 -67l-356 -846q-141 -318 -158 -346q-34 -55 -72 -55h-4q-131 8 -131 51q0 14 10 52t23 38q3 0 50 -7.5 t56 -7.5q34 0 57 25.5t54 95.5l117 262l-277 693q-38 96 -52 113.5t-56 23.5z" />
<glyph unicode="z" horiz-adv-x="909" d="M47 0v14l574 807l-340 -4q-50 -2 -63.5 -11t-20.5 -48l-19 -101h-61l2 207h694v-16l-573 -807l454 4q20 0 25.5 6t7.5 27l14 135q2 13 11 19t34 6q24 0 30 -4q4 -3 4 -14q0 -4 -1 -9l-18 -211h-754z" />
<glyph unicode="{" horiz-adv-x="720" d="M39 500v28q141 36 186 100.5t45 211.5v155q0 97 8 167t30.5 132t61 100t100.5 59.5t148 21.5v-41q-69 -7 -116.5 -27t-76 -48t-44 -74.5t-20.5 -95t-5 -120.5v-111q-1 -185 -16 -250q-23 -107 -107 -151q-55 -29 -145 -41v-4q57 -7 99.5 -23t71 -33t47.5 -51.5t29 -60 t14.5 -79.5t5.5 -88.5t1 -106.5v-113q0 -71 4.5 -118t20 -94t43.5 -75t76 -48.5t118 -27.5v-40q-86 0 -148 21.5t-100.5 59t-61 99.5t-30.5 132t-8 167v155q0 149 -46 212.5t-185 99.5z" />
<glyph unicode="|" horiz-adv-x="454" d="M184 -438v2048h86v-2048h-86z" />
<glyph unicode="}" horiz-adv-x="720" d="M102 -406q69 7 117 27t76.5 48.5t44 74.5t20.5 94.5t5 120.5v111q1 185 16 250q23 107 107 151q55 29 145 41v4q-57 7 -99.5 23t-71 33t-47.5 51.5t-29 60t-14.5 79.5t-5.5 88.5t-1 106.5v113q0 71 -4.5 118t-20 93.5t-44 75t-76.5 49t-118 27.5v41q86 0 148 -21.5 t100.5 -59.5t61 -100t31 -132t8.5 -167v-155q0 -149 46 -212.5t185 -99.5v-28q-141 -36 -186 -100.5t-45 -211.5v-155q0 -122 -14 -204t-51 -147.5t-107 -96.5t-177 -31v40z" />
<glyph unicode="~" horiz-adv-x="1228" d="M33 330q20 90 54 154.5t74.5 97t77.5 47t74 14.5q71 0 194 -46t241.5 -92t179.5 -46q79 0 131 57.5t88 165.5h49q-9 -32 -15 -50.5t-20 -56t-28 -62t-37.5 -55t-49 -49t-61 -31.5t-76.5 -13q-58 0 -146 28.5t-164 62.5t-161.5 62.5t-138.5 28.5q-77 0 -133.5 -59 t-83.5 -158h-49z" />
<glyph unicode="&#xa1;" horiz-adv-x="569" d="M186 799q0 40 29 69t70 29t69.5 -29t28.5 -69q0 -41 -28.5 -70t-69.5 -29t-70 29t-29 70zM205 -451l59 1029h47l62 -996z" />
<glyph unicode="&#xa2;" d="M111 446q0 58 13 120t44 128t76.5 117.5t117.5 85t160 33.5q104 0 185 -43l106 229h57l-118 -256q57 -40 87.5 -93.5t30.5 -104.5q0 -22 -9.5 -28.5t-43.5 -6.5q-49 0 -67.5 15.5t-30.5 68.5q-6 30 -12 51l-287 -621q71 -51 162 -51q41 0 78 12t61.5 27t50 41t36.5 40 t28 38l28 -19q-50 -109 -142.5 -169t-213.5 -60q-75 0 -141 29l-123 -267h-58l136 289q-98 56 -154.5 161t-56.5 234zM258 487q0 -197 121 -311l301 655q-23 54 -109 54q-57 0 -112 -26t-100.5 -74.5t-73 -126t-27.5 -171.5z" />
<glyph unicode="&#xa3;" d="M39 39q0 45 45.5 83.5t138.5 45.5q64 91 64 248q0 92 -41 284h-207v58h192q-45 185 -45 303q0 104 33 184.5t89 128.5t124.5 72t145.5 24q99 0 191.5 -40.5t154.5 -118.5l-68 -99q-40 109 -116.5 161t-166.5 52q-54 0 -100 -16.5t-83.5 -51t-59 -93.5t-21.5 -138 q0 -75 28.5 -200.5t33.5 -167.5h276v-58h-268q10 -55 10 -118q0 -98 -18 -179t-39 -126t-60 -109q70 -3 212 -44.5t196 -41.5q26 0 55.5 9.5t61 29t55.5 57.5t31 88l102 -59q-23 -105 -101.5 -168.5t-183.5 -63.5q-57 0 -116 22.5t-102.5 49t-106 50t-123.5 24.5 q-11 -26 -19.5 -42.5t-27.5 -45t-45.5 -43.5t-57.5 -15q-28 0 -45.5 19.5t-17.5 44.5z" />
<glyph unicode="&#xa4;" d="M129 379l119 119q-19 25 -28 38.5t-25 43.5t-23.5 66t-7.5 79t7.5 79t23.5 66t25 43.5t28 38.5l-119 119l35 35l119 -119q33 25 54.5 39.5t70.5 30.5t104 16t104 -16t70.5 -30.5t54.5 -39.5l119 119l35 -35l-119 -119q19 -25 28 -38.5t25 -43.5t23.5 -66t7.5 -79 t-7.5 -79t-23.5 -66t-25 -43.5t-28 -38.5l119 -119l-35 -35l-119 117q-35 -26 -55 -38.5t-69.5 -29t-104.5 -16.5t-104.5 16.5t-69.5 29t-55 38.5l-119 -117zM252 725q0 -107 76.5 -183.5t183.5 -76.5t183.5 76.5t76.5 183.5t-76.5 183.5t-183.5 76.5t-183.5 -76.5 t-76.5 -183.5z" />
<glyph unicode="&#xa5;" d="M-25 1384v54q11 0 96 -2t87 -2q8 0 108 2t119 2v-54q-16 -2 -57.5 -2t-65.5 -3.5t-24 -14.5q0 -14 32 -72l285 -501l309 497q37 59 37 70q0 7 -3.5 10t-20.5 6t-49 4t-93 2v54q208 0 318 4v-62q-18 -1 -27.5 -3.5t-22.5 -11t-28 -26.5q-18 -21 -37 -45.5t-43.5 -59.5 t-39.5 -56.5t-45 -67.5t-39 -59.5t-42 -66t-35 -54.5h277v-49h-309l-80 -123v-136h348v-49h-348q-2 -327 6 -512l180 -8v-53q-188 4 -256 4q-40 0 -128.5 -2t-133.5 -2v53l180 8q6 257 4 512h-358v49h358v95l-92 164h-307v49h278q-5 8 -71 123t-118.5 201t-72.5 108 q-20 20 -76 26z" />
<glyph unicode="&#xa6;" horiz-adv-x="454" d="M184 -182v512h86v-512h-86zM184 842v512h86v-512h-86z" />
<glyph unicode="&#xa7;" d="M248 1098q0 91 35 175t103.5 140.5t154.5 56.5q96 0 153.5 -67.5t57.5 -155.5q0 -57 -25 -101t-63 -44q-43 0 -43 53q0 31 13.5 82.5t27.5 91t14 41.5q0 8 -14 24t-46 32t-71 16q-108 0 -178 -90.5t-70 -229.5q0 -101 39 -223.5t94.5 -238t110.5 -230.5t94 -236t39 -219 q0 -134 -78 -229l-18 16q45 70 45 179q0 89 -38.5 206.5t-93.5 235t-110.5 237.5t-94 247.5t-38.5 230.5zM262 -186q0 62 24.5 109.5t71.5 47.5q16 0 30.5 -9.5t14.5 -35.5q0 -43 -35.5 -126t-35.5 -101q0 -31 46.5 -55.5t104.5 -24.5q71 0 127 35t88 91.5t48 119.5t16 127 q0 92 -28 198t-70.5 198.5t-92 196t-92 191.5t-70.5 184t-28 175q0 71 29 139l24 -6q-10 -36 -10 -90q0 -87 40 -200t97 -226t114.5 -230t97.5 -247t40 -242q0 -78 -21 -155t-60.5 -142t-104.5 -105.5t-144 -40.5q-93 0 -157 59.5t-64 164.5z" />
<glyph unicode="&#xa8;" horiz-adv-x="569" d="M0 1128q0 48 27.5 74.5t66.5 26.5q33 0 56.5 -22.5t23.5 -61.5q0 -41 -28 -72t-66 -31q-33 0 -56.5 28.5t-23.5 57.5zM395 1128q0 48 27.5 74.5t66.5 26.5q33 0 56.5 -22.5t23.5 -61.5q0 -41 -28 -72t-66 -31q-33 0 -56.5 28.5t-23.5 57.5z" />
<glyph unicode="&#xa9;" horiz-adv-x="1638" d="M66 715q0 206 101 379.5t274 274.5t378 101q153 0 292.5 -59.5t240.5 -160.5t161 -241t60 -294q0 -153 -60 -292.5t-161 -240t-240.5 -160t-292.5 -59.5t-292.5 59.5t-240.5 160t-160.5 240t-59.5 292.5zM123 715q0 -141 55.5 -269.5t148.5 -222t222 -148.5t270 -55 t270 55t222.5 148.5t149 222t55.5 269.5q0 142 -55.5 271t-149 222.5t-222.5 149t-270 55.5q-188 0 -348.5 -93.5t-254 -254.5t-93.5 -350zM406 711q0 129 60.5 230.5t153.5 153.5t197 52q59 0 112 -18t86 -36t44 -18q13 0 22 10t11.5 17.5t5.5 21.5h32l9 -295h-35 q-64 281 -275 281q-132 0 -214.5 -115t-82.5 -282q0 -86 23.5 -153.5t57.5 -105.5t79 -63t82 -33t72 -8q49 0 92.5 17t71 37t54.5 54t37 50.5t25 44.5l33 -16q-15 -30 -29 -54.5t-45 -60.5t-65.5 -60.5t-89 -42.5t-117.5 -18q-75 0 -147 27.5t-130.5 78t-94 130t-35.5 174.5 z" />
<glyph unicode="&#xaa;" horiz-adv-x="681" d="M88 1026q0 43 26 75.5t72 52.5t101.5 31t122.5 15l2 152q0 43 -16.5 56t-67.5 13q-103 0 -105 -12q-5 -35 -16 -88q-2 -9 -21 -21t-36 -12q-31 0 -31 49q0 34 15.5 51t49.5 33q38 19 95.5 34t109.5 15q68 0 97.5 -28.5t29.5 -87.5l-2 -377h70v-33q-101 -26 -125 -26 q-19 0 -31 11t-12 29q0 25 -13 25l-31 -18q-30 -18 -77 -36t-88 -18q-50 0 -84.5 32.5t-34.5 82.5zM190 1036q0 -71 66 -71q19 0 42.5 5t40 10.5t31 11t15.5 5.5q16 6 19.5 11.5t3.5 25.5v117q1 13 -2 16.5t-13 3.5q-11 0 -38 -5t-67 -18t-69 -42.5t-29 -69.5z" />
<glyph unicode="&#xab;" horiz-adv-x="985" d="M123 426v14q30 26 311 295q17 17 31 17q7 0 12.5 -5.5t5.5 -13.5q0 -16 -73 -115.5t-142 -185.5q62 -74 138.5 -178.5t76.5 -120.5q0 -8 -5.5 -13t-12.5 -5q-15 0 -31 16q-242 232 -311 295zM465 426v14q59 54 311 295q17 17 29 17q8 0 14 -5t6 -14q0 -16 -73 -115.5 t-142 -185.5q66 -80 140.5 -181.5t74.5 -117.5q0 -18 -20 -18q-13 0 -29 16q-24 23 -156 148.5t-155 146.5z" />
<glyph unicode="&#xac;" horiz-adv-x="1228" d="M109 657v88h1009v-481h-88v393h-921z" />
<glyph unicode="&#xad;" horiz-adv-x="530" d="M20 371v123h490v-123h-490z" />
<glyph unicode="&#xae;" horiz-adv-x="1638" d="M66 715q0 206 101 379.5t274 274.5t378 101q153 0 292.5 -59.5t240.5 -160.5t161 -241t60 -294q0 -153 -60 -292.5t-161 -240t-240.5 -160t-292.5 -59.5t-292.5 59.5t-240.5 160t-160.5 240t-59.5 292.5zM123 715q0 -141 55.5 -269.5t148.5 -222t222 -148.5t270 -55 t270 55t222.5 148.5t149 222t55.5 269.5q0 142 -55.5 271t-149 222.5t-222.5 149t-270 55.5q-188 0 -348.5 -93.5t-254 -254.5t-93.5 -350zM475 330v32q73 6 89 17t16 61v576q0 50 -16 61t-89 17v28h371q106 0 179 -49.5t73 -144.5q0 -81 -48.5 -140.5t-125.5 -85.5 l125 -172q102 -139 170 -182v-18h-127q-21 0 -41.5 14.5t-44.5 48.5t-46.5 70.5t-62 100.5t-76.5 118h-112v-242q0 -49 16.5 -60.5t89.5 -17.5v-32h-340zM709 719h100q78 0 119 53.5t41 147.5q0 86 -46.5 124.5t-119.5 38.5h-94v-364z" />
<glyph unicode="&#xaf;" horiz-adv-x="569" d="M-25 1090v98h619v-98h-619z" />
<glyph unicode="&#xb0;" horiz-adv-x="819" d="M123 1184q0 118 84 202t203 84q118 0 202 -84t84 -202q0 -117 -84 -201t-202 -84t-202.5 84t-84.5 201zM188 1184q0 -90 65.5 -154.5t156.5 -64.5t156 64t65 155q0 92 -65 156.5t-156 64.5t-156.5 -64.5t-65.5 -156.5z" />
<glyph unicode="&#xb1;" horiz-adv-x="1228" d="M109 0v88h1009v-88h-1009zM109 543v88h460v379h88v-379h461v-88h-461v-379h-88v379h-460z" />
<glyph unicode="&#xb2;" horiz-adv-x="720" d="M55 612v27q10 11 75 76.5t114 119t108.5 125t93 133.5t33.5 105q0 63 -46.5 102t-119.5 39q-63 0 -182 -41q-3 -2 -23.5 -9t-21.5 -7q-6 0 -2 18l25 130q136 40 219 40q124 0 197 -63t73 -156q0 -51 -28 -109t-78 -116.5t-95 -103.5t-105 -100t-81 -77h360l19 89h41 l-17 -220h-223q-260 0 -336 -2z" />
<glyph unicode="&#xb3;" horiz-adv-x="720" d="M127 1305l18 129q129 36 215 36q122 0 180 -49.5t58 -113.5q0 -125 -192 -199v-4q110 -20 168 -71.5t57 -127.5q-1 -65 -53 -125.5t-126.5 -99.5t-153 -62.5t-136.5 -23.5q-21 0 -21 20q0 9 8 14t31 11q162 33 241 94t79 131q0 156 -283 156q-43 0 -43 18q0 10 7.5 14.5 t33.5 12.5q34 11 65.5 24t86 39.5t87.5 62t33 73.5t-32.5 69t-104.5 31q-84 0 -223 -59z" />
<glyph unicode="&#xb4;" horiz-adv-x="569" d="M137 1001l299 299q43 50 84 50q27 0 45.5 -18.5t18.5 -45.5q0 -43 -47 -69l-351 -216h-49z" />
<glyph unicode="&#xb6;" horiz-adv-x="1062" d="M61 887q0 145 73 260.5t194.5 184.5t277.5 93v-1079q-156 24 -277.5 93t-194.5 185.5t-73 262.5zM594 -389h168v1823h188v-58h-139v-1827h-217v62z" />
<glyph unicode="&#xb7;" horiz-adv-x="512" d="M158 432q0 41 28.5 69.5t69.5 28.5t69.5 -28.5t28.5 -69.5q0 -40 -28.5 -69t-69.5 -29t-69.5 29t-28.5 69z" />
<glyph unicode="&#xb8;" horiz-adv-x="569" d="M74 -408l14 43q74 -24 129 -24q40 0 68.5 11t40.5 28.5t17 32t5 28.5q0 41 -29.5 66.5t-72.5 25.5q-26 0 -66 -18l-22 12l88 203h47l-62 -143q36 16 86 16q74 0 120 -39.5t46 -105.5q0 -78 -64.5 -124t-174.5 -46q-92 0 -170 34z" />
<glyph unicode="&#xb9;" horiz-adv-x="720" d="M147 614v45l154 11q1 91 2 153.5t1.5 88t0.5 44.5v424l-149 2v60l286 22l-4 -794l152 -11v-45q-132 4 -225 4q-96 0 -218 -4z" />
<glyph unicode="&#xba;" horiz-adv-x="681" d="M61 1186q0 63 18 113t47 81t68 52t78 29.5t80 8.5q61 0 109.5 -17t77.5 -44t48.5 -63.5t26.5 -71t7 -70.5q0 -120 -75.5 -206.5t-203.5 -86.5q-71 0 -133.5 29.5t-105 93.5t-42.5 152zM184 1190q0 -106 39 -172t119 -66q156 0 156 240q0 238 -146 238q-30 0 -57 -10.5 t-53.5 -35.5t-42 -75t-15.5 -119z" />
<glyph unicode="&#xbb;" horiz-adv-x="985" d="M162 133q0 16 76 120t139 179q-65 78 -140 181.5t-75 119.5q0 8 5.5 13.5t12.5 5.5q10 0 31 -17q242 -232 311 -295v-14q-28 -25 -160.5 -152t-150.5 -143q-19 -16 -31 -16q-18 0 -18 18zM502 133q0 16 74.5 117.5t140.5 181.5q-70 87 -142.5 186.5t-72.5 114.5q0 9 6 14 t14 5q6 0 31 -17q280 -269 309 -295v-14q-22 -20 -87.5 -82.5t-138.5 -133t-83 -79.5q-19 -16 -31 -16q-20 0 -20 18z" />
<glyph unicode="&#xbc;" horiz-adv-x="1705" d="M147 614v45l154 11q1 91 2 153.5t1.5 88t0.5 44.5v424l-149 2v60l286 22l-4 -794l152 -11v-45q-132 4 -225 4q-96 0 -218 -4zM299 -25l932 1495h94l-932 -1495h-94zM862 281v36l520 557h27l-2 -489l147 2v-106h-149v-281h-141l6 281h-408zM977 381l295 2l8 324z" />
<glyph unicode="&#xbd;" horiz-adv-x="1705" d="M147 614v45l154 11q1 91 2 153.5t1.5 88t0.5 44.5v424l-149 2v60l286 22l-4 -794l152 -11v-45q-132 4 -225 4q-96 0 -218 -4zM299 -25l932 1495h94l-932 -1495h-94zM1026 -2v27q10 11 75 76.5t114 119t108.5 125t93 133.5t33.5 105q0 63 -46.5 102t-119.5 39 q-63 0 -182 -41q-3 -2 -23.5 -9t-21.5 -7q-6 0 -2 18l24 129q139 41 219 41q124 0 197.5 -63t73.5 -156q0 -51 -28 -109t-78 -116.5t-95 -103.5t-105 -100t-81 -77h360l19 88h41l-17 -219h-223q-260 0 -336 -2z" />
<glyph unicode="&#xbe;" horiz-adv-x="1705" d="M127 1305l18 129q129 36 215 36q122 0 180 -49.5t58 -113.5q0 -125 -192 -199v-4q110 -20 168 -71.5t57 -127.5q-1 -65 -53 -125.5t-126.5 -99.5t-153 -62.5t-136.5 -23.5q-21 0 -21 20q0 9 8 14t31 11q162 33 241 94t79 131q0 156 -283 156q-43 0 -43 18q0 10 7.5 14.5 t33.5 12.5q34 11 65.5 24t86 39.5t87.5 62t33 73.5t-32.5 69t-104.5 31q-84 0 -223 -59zM295 -25l932 1495h94l-932 -1495h-94zM862 281v36l520 557h27l-2 -489l147 2v-106h-149v-281h-141l6 281h-408zM977 381l295 2l8 324z" />
<glyph unicode="&#xbf;" horiz-adv-x="796" d="M94 -186q0 118 97 222.5t294 227.5l9 305h43l14 -327q-56 -40 -82 -59.5t-69.5 -53.5t-64 -54t-48 -50t-39.5 -54t-21.5 -53t-9.5 -59q0 -80 61 -121t150 -41q129 0 262 65l-18 -161q-44 -22 -119 -37t-129 -15q-147 0 -238.5 73.5t-91.5 191.5zM416 799q0 40 28.5 69 t69.5 29t69.5 -29t28.5 -69q0 -41 -28.5 -70t-69.5 -29t-69.5 29t-28.5 70z" />
<glyph unicode="&#xc0;" horiz-adv-x="1251" d="M-29 -4v61q56 4 79.5 10.5t35 18.5t25.5 43q80 190 159 403l346 938h31l311 -825q194 -501 226 -559q5 -13 22.5 -19.5t67.5 -9.5v-61q-20 0 -85.5 2t-119.5 2q-32 0 -113 -1.5t-147 -2.5v53l98 8q40 3 52 8t12 17q0 13 -17 53l-149 408q-10 28 -21 34.5t-43 6.5h-368 q-32 0 -45 -39l-140 -400q-20 -62 -20 -71q0 -16 39 -19l100 -6v-53q-24 0 -87.5 2t-98.5 2q-40 0 -87.5 -2t-62.5 -2zM334 1860q0 29 20 46t45 17q24 0 41.5 -11.5t42.5 -37.5l299 -299h-49l-350 215q-49 27 -49 70zM367 643q0 -10 36 -10h340q23 0 23 12q0 10 -10 33 l-170 461q-10 28 -17 28q-9 0 -20 -32l-170 -449q-1 -5 -6.5 -21t-5.5 -22z" />
<glyph unicode="&#xc1;" horiz-adv-x="1251" d="M-29 -4v61q56 4 79.5 10.5t35 18.5t25.5 43q80 190 159 403l346 938h31l311 -825q194 -501 226 -559q5 -13 22.5 -19.5t67.5 -9.5v-61q-20 0 -85.5 2t-119.5 2q-32 0 -113 -1.5t-147 -2.5v53l98 8q40 3 52 8t12 17q0 13 -17 53l-149 408q-10 28 -21 34.5t-43 6.5h-368 q-32 0 -45 -39l-140 -400q-20 -62 -20 -71q0 -16 39 -19l100 -6v-53q-24 0 -87.5 2t-98.5 2q-40 0 -87.5 -2t-62.5 -2zM367 643q0 -10 36 -10h340q23 0 23 12q0 10 -10 33l-170 461q-10 28 -17 28q-9 0 -20 -32l-170 -449q-1 -5 -6.5 -21t-5.5 -22zM487 1575l299 299 q43 49 84 49q28 0 46 -18.5t18 -44.5q0 -44 -47 -70l-350 -215h-50z" />
<glyph unicode="&#xc2;" horiz-adv-x="1251" d="M-29 -4v61q56 4 79.5 10.5t35 18.5t25.5 43q80 190 159 403l346 938h31l311 -825q194 -501 226 -559q5 -13 22.5 -19.5t67.5 -9.5v-61q-20 0 -85.5 2t-119.5 2q-32 0 -113 -1.5t-147 -2.5v53l98 8q40 3 52 8t12 17q0 13 -17 53l-149 408q-10 28 -21 34.5t-43 6.5h-368 q-32 0 -45 -39l-140 -400q-20 -62 -20 -71q0 -16 39 -19l100 -6v-53q-24 0 -87.5 2t-98.5 2q-40 0 -87.5 -2t-62.5 -2zM340 1575l254 344h104l256 -344h-45l-262 217l-262 -217h-45zM367 643q0 -10 36 -10h340q23 0 23 12q0 10 -10 33l-170 461q-10 28 -17 28q-9 0 -20 -32 l-170 -449q-1 -5 -6.5 -21t-5.5 -22z" />
<glyph unicode="&#xc3;" horiz-adv-x="1251" d="M-29 -4v61q56 4 79.5 10.5t35 18.5t25.5 43q80 190 159 403l346 938h31l311 -825q194 -501 226 -559q5 -13 22.5 -19.5t67.5 -9.5v-61q-20 0 -85.5 2t-119.5 2q-32 0 -113 -1.5t-147 -2.5v53l98 8q40 3 52 8t12 17q0 13 -17 53l-149 408q-10 28 -21 34.5t-43 6.5h-368 q-32 0 -45 -39l-140 -400q-20 -62 -20 -71q0 -16 39 -19l100 -6v-53q-24 0 -87.5 2t-98.5 2q-40 0 -87.5 -2t-62.5 -2zM305 1630q23 98 80.5 149.5t122.5 51.5q68 0 160 -49t129 -49q27 0 49 10.5t37 30t22.5 32.5t16.5 33h43q-56 -209 -215 -209q-63 0 -148 47 q-77 39 -110 45q-13 2 -25 2q-28 0 -49.5 -9t-35.5 -26t-20.5 -29t-13.5 -30h-43zM367 643q0 -10 36 -10h340q23 0 23 12q0 10 -10 33l-170 461q-10 28 -17 28q-9 0 -20 -32l-170 -449q-1 -5 -6.5 -21t-5.5 -22z" />
<glyph unicode="&#xc4;" horiz-adv-x="1251" d="M-29 -4v61q56 4 79.5 10.5t35 18.5t25.5 43q80 190 159 403l346 938h31l311 -825q194 -501 226 -559q5 -13 22.5 -19.5t67.5 -9.5v-61q-20 0 -85.5 2t-119.5 2q-32 0 -113 -1.5t-147 -2.5v53l98 8q40 3 52 8t12 17q0 13 -17 53l-149 408q-10 28 -21 34.5t-43 6.5h-368 q-32 0 -45 -39l-140 -400q-20 -62 -20 -71q0 -16 39 -19l100 -6v-53q-24 0 -87.5 2t-98.5 2q-40 0 -87.5 -2t-62.5 -2zM350 1702q0 48 27 74t67 26q33 0 56.5 -22.5t23.5 -61.5q0 -41 -28 -71.5t-66 -30.5q-33 0 -56.5 28.5t-23.5 57.5zM367 643q0 -10 36 -10h340 q23 0 23 12q0 10 -10 33l-170 461q-10 28 -17 28q-9 0 -20 -32l-170 -449q-1 -5 -6.5 -21t-5.5 -22zM745 1702q0 48 27.5 74t67.5 26q33 0 56.5 -22.5t23.5 -61.5q0 -41 -28.5 -71.5t-66.5 -30.5q-33 0 -56.5 28.5t-23.5 57.5z" />
<glyph unicode="&#xc5;" horiz-adv-x="1251" d="M-29 -4v61q56 4 79.5 10.5t35 18.5t25.5 43q80 190 159 403l346 938h31l311 -825q194 -501 226 -559q5 -13 22.5 -19.5t67.5 -9.5v-61q-20 0 -85.5 2t-119.5 2q-32 0 -113 -1.5t-147 -2.5v53l98 8q40 3 52 8t12 17q0 13 -17 53l-149 408q-10 28 -21 34.5t-43 6.5h-368 q-32 0 -45 -39l-140 -400q-20 -62 -20 -71q0 -16 39 -19l100 -6v-53q-24 0 -87.5 2t-98.5 2q-40 0 -87.5 -2t-62.5 -2zM367 643q0 -10 36 -10h340q23 0 23 12q0 10 -10 33l-170 461q-10 28 -17 28q-9 0 -20 -32l-170 -449q-1 -5 -6.5 -21t-5.5 -22zM449 1759q0 83 57.5 141 t140.5 58t141 -58t58 -141q0 -82 -58 -140t-141 -58t-140.5 58t-57.5 140zM510 1759q0 -57 40 -97t97 -40t97 40t40 97t-40 97t-97 40t-97 -40t-40 -97z" />
<glyph unicode="&#xc6;" horiz-adv-x="1896" d="M-84 -4v61q67 3 106.5 39.5t124.5 175.5q82 133 357.5 612t275.5 488q0 6 -14.5 7.5t-74.5 2.5q-13 0 -21 0.5t-22 1t-27 0.5v54q22 0 140.5 -2t137.5 -2h180q215 0 625 4v-316h-66q-3 52 -6 82.5t-9.5 62.5t-13.5 48t-23 32.5t-33 22.5t-47.5 12t-62.5 7.5t-83 1.5 l-356 2v-619q279 0 321 31q13 11 23 46.5t13.5 68t7 74t3.5 44.5h70q-12 -91 -12 -327q0 -179 6 -242h-72q0 96 -6.5 152.5t-17 77t-27.5 22.5q-53 8 -309 8q0 -547 6 -598q6 -53 30.5 -69.5t81.5 -16.5h500l98 328h62l-25 -373h-604q-366 0 -475 -4v53l143 8q2 86 2 615 h-381l-264 -473q-20 -33 -42.5 -76.5t-22.5 -50.5q0 -12 27 -15.5t128 -3.5v-53q-270 0 -352 -4zM469 721h354q0 99 -1 295t-1 295h-18z" />
<glyph unicode="&#xc7;" horiz-adv-x="1554" d="M86 721q0 170 59.5 313t160 237.5t231.5 146.5t274 52q92 0 186 -23t152.5 -50.5t105 -50.5t56.5 -23q8 0 14.5 6.5t8.5 11.5t7 17h60v-393h-41q-25 86 -63 157t-79 117.5t-89 82t-89.5 54.5t-85 30.5t-72 15t-53.5 3.5q-77 0 -154.5 -26t-150 -81.5t-128 -133 t-89 -189.5t-33.5 -243q0 -139 34.5 -259t93 -204.5t135.5 -145t163 -89.5t174 -29q205 0 327 120.5t173 327.5h41l-22 -338q-276 -172 -580 -172h-6l-45 -106q36 16 86 16q74 0 120 -39.5t46 -105.5q0 -78 -65 -124t-175 -46q-92 0 -170 34l14 43q74 -24 130 -24 q40 0 68.5 11t40.5 28.5t17 32t5 28.5q0 41 -30 66.5t-73 25.5q-24 0 -65 -18l-23 12l74 168q-143 9 -267 66t-214.5 153.5t-142.5 235t-52 301.5z" />
<glyph unicode="&#xc8;" horiz-adv-x="1366" d="M94 1384v54q132 -4 326 -4q502 0 754 4v-316h-70q-1 50 -3.5 84.5t-9 64.5t-14 48.5t-23.5 33t-32 21.5t-45.5 12t-58 6t-74.5 1h-410v-619q303 0 346 31q10 7 17.5 26.5t12.5 40.5t8.5 51t4.5 48t3 43l1 24h68q-12 -183 -12 -327q0 -148 6 -242h-68q-12 175 -18 211 t-23 39q-58 10 -346 10q0 -547 6 -598t30 -68.5t83 -17.5h539l98 328h61l-24 -373h-641q-259 0 -477 -4v53l143 8q2 53 2 160v768q0 280 -4 391zM383 1860q0 29 20.5 46t45.5 17q24 0 41 -11t42 -38l299 -299h-49l-350 215q-49 27 -49 70z" />
<glyph unicode="&#xc9;" horiz-adv-x="1366" d="M94 1384v54q132 -4 326 -4q502 0 754 4v-316h-70q-1 50 -3.5 84.5t-9 64.5t-14 48.5t-23.5 33t-32 21.5t-45.5 12t-58 6t-74.5 1h-410v-619q303 0 346 31q10 7 17.5 26.5t12.5 40.5t8.5 51t4.5 48t3 43l1 24h68q-12 -183 -12 -327q0 -148 6 -242h-68q-12 175 -18 211 t-23 39q-58 10 -346 10q0 -547 6 -598t30 -68.5t83 -17.5h539l98 328h61l-24 -373h-641q-259 0 -477 -4v53l143 8q2 53 2 160v768q0 280 -4 391zM537 1575l299 299q43 49 84 49q27 0 45 -18t18 -45q0 -44 -47 -70l-350 -215h-49z" />
<glyph unicode="&#xca;" horiz-adv-x="1366" d="M94 1384v54q132 -4 326 -4q502 0 754 4v-316h-70q-1 50 -3.5 84.5t-9 64.5t-14 48.5t-23.5 33t-32 21.5t-45.5 12t-58 6t-74.5 1h-410v-619q303 0 346 31q10 7 17.5 26.5t12.5 40.5t8.5 51t4.5 48t3 43l1 24h68q-12 -183 -12 -327q0 -148 6 -242h-68q-12 175 -18 211 t-23 39q-58 10 -346 10q0 -547 6 -598t30 -68.5t83 -17.5h539l98 328h61l-24 -373h-641q-259 0 -477 -4v53l143 8q2 53 2 160v768q0 280 -4 391zM377 1575l254 344h104l256 -344h-45l-262 217l-262 -217h-45z" />
<glyph unicode="&#xcb;" horiz-adv-x="1366" d="M94 1384v54q132 -4 326 -4q502 0 754 4v-316h-70q-1 50 -3.5 84.5t-9 64.5t-14 48.5t-23.5 33t-32 21.5t-45.5 12t-58 6t-74.5 1h-410v-619q303 0 346 31q10 7 17.5 26.5t12.5 40.5t8.5 51t4.5 48t3 43l1 24h68q-12 -183 -12 -327q0 -148 6 -242h-68q-12 175 -18 211 t-23 39q-58 10 -346 10q0 -547 6 -598t30 -68.5t83 -17.5h539l98 328h61l-24 -373h-641q-259 0 -477 -4v53l143 8q2 53 2 160v768q0 280 -4 391zM399 1702q0 48 27.5 74t67.5 26q33 0 56 -22.5t23 -61.5q0 -41 -28 -71.5t-66 -30.5q-33 0 -56.5 28.5t-23.5 57.5zM795 1702 q0 48 27 74t67 26q33 0 56.5 -22.5t23.5 -61.5q0 -41 -28.5 -71.5t-66.5 -30.5q-33 0 -56 28.5t-23 57.5z" />
<glyph unicode="&#xcc;" horiz-adv-x="681" d="M41 1860q0 29 20 46t45 17q24 0 41.5 -11.5t42.5 -37.5l299 -299h-49l-350 215q-49 27 -49 70zM96 -4v53l152 8q2 56 2 402q0 849 -2 917l-152 8v54q136 -4 246 -4q104 0 244 4v-54l-150 -8q-6 -166 -6 -401q0 -783 6 -918l150 -8v-53q-132 4 -244 4q-106 0 -246 -4z" />
<glyph unicode="&#xcd;" horiz-adv-x="681" d="M96 -4v53l152 8q2 56 2 402q0 849 -2 917l-152 8v54q136 -4 246 -4q104 0 244 4v-54l-150 -8q-6 -166 -6 -401q0 -783 6 -918l150 -8v-53q-132 4 -244 4q-106 0 -246 -4zM195 1575l299 299q43 49 84 49q27 0 45 -18t18 -45q0 -44 -47 -70l-350 -215h-49z" />
<glyph unicode="&#xce;" horiz-adv-x="681" d="M35 1575l254 344h104l256 -344h-45l-262 217l-262 -217h-45zM96 -4v53l152 8q2 56 2 402q0 849 -2 917l-152 8v54q136 -4 246 -4q104 0 244 4v-54l-150 -8q-6 -166 -6 -401q0 -783 6 -918l150 -8v-53q-132 4 -244 4q-106 0 -246 -4z" />
<glyph unicode="&#xcf;" horiz-adv-x="681" d="M57 1702q0 48 27.5 74t67.5 26q33 0 56 -22.5t23 -61.5q0 -41 -28 -71.5t-66 -30.5q-33 0 -56.5 28.5t-23.5 57.5zM96 -4v53l152 8q2 56 2 402q0 849 -2 917l-152 8v54q136 -4 246 -4q104 0 244 4v-54l-150 -8q-6 -166 -6 -401q0 -783 6 -918l150 -8v-53q-132 4 -244 4 q-106 0 -246 -4zM453 1702q0 48 27 74t67 26q33 0 56.5 -22.5t23.5 -61.5q0 -41 -28.5 -71.5t-66.5 -30.5q-33 0 -56 28.5t-23 57.5z" />
<glyph unicode="&#xd0;" horiz-adv-x="1630" d="M66 705v61h200q0 454 -6 610l-151 4v54q50 0 336 8t346 8q161 0 297.5 -47.5t238.5 -137.5t159.5 -228t57.5 -310q0 -150 -42.5 -271.5t-118 -206.5t-181.5 -142.5t-230.5 -84t-266.5 -26.5q-29 0 -182.5 2t-178.5 2q-79 0 -235 -4v53l151 8q6 167 6 402v246h-200z M446 408q0 -308 13 -330q8 -17 100.5 -27t194.5 -10q143 0 259 53t190 144.5t113.5 212t39.5 258.5q0 173 -58.5 307t-162.5 217t-241 125.5t-300 42.5q-94 0 -131 -15q-12 -7 -14 -51q-3 -61 -3 -569h496v-61h-496v-297z" />
<glyph unicode="&#xd1;" horiz-adv-x="1593" d="M82 1384v54q160 -4 317 -4q93 -126 448.5 -583t440.5 -556v407q0 527 -2 674l-176 8v54q55 -1 83 -1.5t32.5 -0.5t23.5 -0.5t62 -1.5q31 -1 112.5 1.5t87.5 2.5v-54l-155 -8q-1 -43 -4.5 -218t-7 -329.5t-3.5 -179.5l-4 -674h-30q-387 507 -525 678q-376 467 -465 586 l-4 -4l2 -651q0 -131 9 -527l172 -8v-53q-102 4 -205 4t-205 -4v53l164 8q2 201 10 598l2 602q0 36 -46.5 75.5t-133.5 51.5zM467 1630q23 98 80.5 149.5t122.5 51.5q67 0 159 -49t129 -49q27 0 49 10.5t37 30t22.5 32.5t16.5 33h43q-56 -209 -215 -209q-62 0 -147 47 q-3 2 -10 5q-84 40 -125 42q-28 0 -49.5 -9t-35.5 -26t-20.5 -29t-13.5 -30h-43z" />
<glyph unicode="&#xd2;" horiz-adv-x="1630" d="M88 700q0 120 30 232.5t91 210t147.5 170.5t207.5 115t263 42q171 0 309 -58t226 -158t135 -231.5t47 -281.5q0 -120 -31 -234t-93 -212.5t-148.5 -172.5t-204.5 -116.5t-254 -42.5q-138 0 -257 41.5t-204 113t-145 165.5t-89.5 200t-29.5 217zM276 705q0 -155 46 -287.5 t122.5 -221t177 -138.5t209.5 -50q119 0 219.5 60t166.5 160.5t102.5 231t36.5 273.5q0 131 -29.5 244.5t-80.5 194.5t-118.5 139t-143.5 86t-155 28q-67 0 -137.5 -20.5t-146.5 -73t-134.5 -131t-96.5 -207t-38 -288.5zM514 1860q0 29 20.5 46t45.5 17q24 0 41.5 -11.5 t42.5 -37.5l299 -299h-50l-350 215q-49 27 -49 70z" />
<glyph unicode="&#xd3;" horiz-adv-x="1630" d="M88 700q0 120 30 232.5t91 210t147.5 170.5t207.5 115t263 42q171 0 309 -58t226 -158t135 -231.5t47 -281.5q0 -120 -31 -234t-93 -212.5t-148.5 -172.5t-204.5 -116.5t-254 -42.5q-138 0 -257 41.5t-204 113t-145 165.5t-89.5 200t-29.5 217zM276 705q0 -155 46 -287.5 t122.5 -221t177 -138.5t209.5 -50q119 0 219.5 60t166.5 160.5t102.5 231t36.5 273.5q0 131 -29.5 244.5t-80.5 194.5t-118.5 139t-143.5 86t-155 28q-67 0 -137.5 -20.5t-146.5 -73t-134.5 -131t-96.5 -207t-38 -288.5zM668 1575l299 299q43 49 84 49q27 0 45 -18t18 -45 q0 -44 -47 -70l-350 -215h-49z" />
<glyph unicode="&#xd4;" horiz-adv-x="1630" d="M88 700q0 120 30 232.5t91 210t147.5 170.5t207.5 115t263 42q171 0 309 -58t226 -158t135 -231.5t47 -281.5q0 -120 -31 -234t-93 -212.5t-148.5 -172.5t-204.5 -116.5t-254 -42.5q-138 0 -257 41.5t-204 113t-145 165.5t-89.5 200t-29.5 217zM276 705q0 -155 46 -287.5 t122.5 -221t177 -138.5t209.5 -50q119 0 219.5 60t166.5 160.5t102.5 231t36.5 273.5q0 131 -29.5 244.5t-80.5 194.5t-118.5 139t-143.5 86t-155 28q-67 0 -137.5 -20.5t-146.5 -73t-134.5 -131t-96.5 -207t-38 -288.5zM508 1575l254 344h104l256 -344h-45l-262 217 l-262 -217h-45z" />
<glyph unicode="&#xd5;" horiz-adv-x="1630" d="M88 700q0 120 30 232.5t91 210t147.5 170.5t207.5 115t263 42q171 0 309 -58t226 -158t135 -231.5t47 -281.5q0 -120 -31 -234t-93 -212.5t-148.5 -172.5t-204.5 -116.5t-254 -42.5q-138 0 -257 41.5t-204 113t-145 165.5t-89.5 200t-29.5 217zM276 705q0 -155 46 -287.5 t122.5 -221t177 -138.5t209.5 -50q119 0 219.5 60t166.5 160.5t102.5 231t36.5 273.5q0 131 -29.5 244.5t-80.5 194.5t-118.5 139t-143.5 86t-155 28q-67 0 -137.5 -20.5t-146.5 -73t-134.5 -131t-96.5 -207t-38 -288.5zM485 1630q23 98 80.5 149.5t122.5 51.5q68 0 160 -49 t129 -49q27 0 49 10.5t37 30t22.5 32.5t16.5 33h43q-56 -209 -215 -209q-63 0 -148 47q-3 2 -10 5q-84 40 -125 42q-28 0 -49.5 -9t-35.5 -26t-20.5 -29t-13.5 -30h-43z" />
<glyph unicode="&#xd6;" horiz-adv-x="1630" d="M88 700q0 120 30 232.5t91 210t147.5 170.5t207.5 115t263 42q171 0 309 -58t226 -158t135 -231.5t47 -281.5q0 -120 -31 -234t-93 -212.5t-148.5 -172.5t-204.5 -116.5t-254 -42.5q-138 0 -257 41.5t-204 113t-145 165.5t-89.5 200t-29.5 217zM276 705q0 -155 46 -287.5 t122.5 -221t177 -138.5t209.5 -50q119 0 219.5 60t166.5 160.5t102.5 231t36.5 273.5q0 131 -29.5 244.5t-80.5 194.5t-118.5 139t-143.5 86t-155 28q-67 0 -137.5 -20.5t-146.5 -73t-134.5 -131t-96.5 -207t-38 -288.5zM530 1702q0 48 27.5 74t67.5 26q33 0 56.5 -22.5 t23.5 -61.5q0 -41 -28.5 -71.5t-66.5 -30.5q-33 0 -56.5 28.5t-23.5 57.5zM926 1702q0 48 27 74t67 26q33 0 56.5 -22.5t23.5 -61.5q0 -41 -28 -71.5t-66 -30.5q-33 0 -56.5 28.5t-23.5 57.5z" />
<glyph unicode="&#xd7;" horiz-adv-x="1228" d="M141 94l412 412l-412 409l62 64l411 -412l412 412l61 -64l-411 -409l411 -412l-61 -63l-412 411l-411 -411z" />
<glyph unicode="&#xd8;" horiz-adv-x="1630" d="M88 700q0 120 30 232.5t91 210t147.5 170.5t207.5 115t263 42q215 0 377 -92l125 187h92l-151 -228q133 -97 203.5 -253t70.5 -343q0 -120 -31 -234t-93 -212.5t-148.5 -172.5t-204.5 -116.5t-254 -42.5q-229 0 -393 109l-170 -252h-94l200 297q-130 105 -199 259.5 t-69 323.5zM276 705q0 -290 150 -484l721 1071q-136 133 -318 133q-67 0 -137.5 -20.5t-146.5 -73t-134.5 -131t-96.5 -207t-38 -288.5zM479 162q154 -154 352 -154q119 0 219.5 60t166.5 160.5t102.5 231t36.5 273.5q0 311 -156 502z" />
<glyph unicode="&#xd9;" horiz-adv-x="1554" d="M104 1384v54q47 -1 102.5 -2t87.5 -1.5t56 -0.5q66 0 238 4v-54l-158 -8l-16 -733q-6 -306 96 -466.5t315 -160.5q415 0 412 590l-6 770l-152 8v54q39 -1 83 -2t69 -1.5t41 -0.5q18 0 190 4v-54l-129 -8l-14 -790q-2 -98 -17.5 -183.5t-53.5 -168t-95.5 -141 t-149.5 -94.5t-210 -36q-120 0 -215 32t-159 89t-105.5 138.5t-59.5 177.5t-16 210l6 766zM477 1860q0 29 20.5 46t45.5 17q24 0 41.5 -11.5t42.5 -37.5l299 -299h-49l-351 215q-49 27 -49 70z" />
<glyph unicode="&#xda;" horiz-adv-x="1554" d="M104 1384v54q47 -1 102.5 -2t87.5 -1.5t56 -0.5q66 0 238 4v-54l-158 -8l-16 -733q-6 -306 96 -466.5t315 -160.5q415 0 412 590l-6 770l-152 8v54q39 -1 83 -2t69 -1.5t41 -0.5q18 0 190 4v-54l-129 -8l-14 -790q-2 -98 -17.5 -183.5t-53.5 -168t-95.5 -141 t-149.5 -94.5t-210 -36q-120 0 -215 32t-159 89t-105.5 138.5t-59.5 177.5t-16 210l6 766zM631 1575l299 299q43 49 84 49q27 0 45 -18t18 -45q0 -44 -47 -70l-350 -215h-49z" />
<glyph unicode="&#xdb;" horiz-adv-x="1554" d="M104 1384v54q47 -1 102.5 -2t87.5 -1.5t56 -0.5q66 0 238 4v-54l-158 -8l-16 -733q-6 -306 96 -466.5t315 -160.5q415 0 412 590l-6 770l-152 8v54q39 -1 83 -2t69 -1.5t41 -0.5q18 0 190 4v-54l-129 -8l-14 -790q-2 -98 -17.5 -183.5t-53.5 -168t-95.5 -141 t-149.5 -94.5t-210 -36q-120 0 -215 32t-159 89t-105.5 138.5t-59.5 177.5t-16 210l6 766zM471 1575l254 344h104l256 -344h-45l-262 217l-262 -217h-45z" />
<glyph unicode="&#xdc;" horiz-adv-x="1554" d="M104 1384v54q47 -1 102.5 -2t87.5 -1.5t56 -0.5q66 0 238 4v-54l-158 -8l-16 -733q-6 -306 96 -466.5t315 -160.5q415 0 412 590l-6 770l-152 8v54q39 -1 83 -2t69 -1.5t41 -0.5q18 0 190 4v-54l-129 -8l-14 -790q-2 -98 -17.5 -183.5t-53.5 -168t-95.5 -141 t-149.5 -94.5t-210 -36q-120 0 -215 32t-159 89t-105.5 138.5t-59.5 177.5t-16 210l6 766zM494 1702q0 48 27 74t67 26q33 0 56.5 -22.5t23.5 -61.5q0 -41 -28.5 -71.5t-66.5 -30.5q-33 0 -56 28.5t-23 57.5zM889 1702q0 48 27 74t67 26q33 0 56.5 -22.5t23.5 -61.5 q0 -41 -28 -71.5t-66 -30.5q-33 0 -56.5 28.5t-23.5 57.5z" />
<glyph unicode="&#xdd;" horiz-adv-x="1175" d="M-51 1384v54q200 -4 223 -4q11 0 137.5 2t155.5 2v-54q-59 -2 -92 -3.5t-49.5 -4t-20.5 -5t-4 -7.5q0 -8 41 -77t94.5 -155t61.5 -100l155 -241l154 225q12 17 93 132.5t97 137.5q41 61 41 72q0 18 -32 18q-54 4 -152 4v54q275 0 377 4v-62q-50 -2 -74 -13t-53 -46 q-60 -70 -232 -301l-194 -273v-516q0 -52 4 -170l180 -8v-53q-38 0 -131 2t-143 2q-89 0 -277 -4v53l183 8q4 127 4 641l-224 349q-51 82 -121.5 187t-91.5 124q-16 14 -36 18.5t-74 7.5zM440 1575l299 299q43 49 84 49q27 0 45.5 -18.5t18.5 -44.5q0 -44 -47 -70l-351 -215 h-49z" />
<glyph unicode="&#xde;" horiz-adv-x="1214" d="M96 -4v53l152 8q2 56 2 402q0 849 -2 917l-152 8v54q136 -4 246 -4q88 0 260 4v-54l-166 -8q-4 -152 -4 -278q10 0 76 4q172 8 199 8q105 0 187.5 -33.5t130.5 -88.5t72.5 -118t24.5 -129q0 -130 -67.5 -220.5t-184 -133.5t-272.5 -43h-168q2 -205 6 -287l166 -8v-53 q-164 4 -260 4q-106 0 -246 -4zM430 393q118 -4 129 -4q175 0 283 84.5t108 255.5q0 61 -14.5 110t-39 83t-61.5 59.5t-76 40.5t-89.5 24t-96 12t-100.5 3q-27 0 -43 -4v-664z" />
<glyph unicode="&#xdf;" horiz-adv-x="1062" d="M82 0v49l115 2v989q0 257 77.5 368.5t270.5 111.5q155 0 248.5 -94.5t93.5 -237.5q0 -64 -22 -117.5t-49 -84t-69.5 -56.5t-64 -34.5t-51.5 -18.5q-2 -1 -5.5 -2.5t-5.5 -2t-4.5 -2t-4 -2.5l-3 -2t-2 -2.5t-0.5 -3.5q0 -9 27 -16q40 -12 62 -19.5t64 -27t67 -38.5 t57.5 -53.5t51 -74t31.5 -97.5t13 -126q0 -101 -27.5 -184.5t-72 -135.5t-99 -80t-110.5 -28q-85 0 -141 51.5t-56 134.5q0 24 14.5 32.5t49.5 8.5q34 0 48.5 -10.5t14.5 -38.5q0 -5 -2 -31.5t-2 -30.5q0 -35 18 -57.5t52 -22.5q56 0 94 55.5t53.5 137t15.5 182.5 q0 207 -63 310t-205 122q-49 6 -72 11t-28.5 9.5t-5.5 12.5q0 13 13 19t62 12q58 6 100.5 33t65 70.5t33 92t10.5 105.5q0 137 -53 212t-149 75q-80 0 -119 -35t-56.5 -129.5t-17.5 -286.5v-973l78 -2v-49h-340z" />
<glyph unicode="&#xe0;" horiz-adv-x="909" d="M66 158q0 72 40 126t112.5 86t162 48.5t199.5 19.5l2 262q1 85 -26.5 110.5t-119.5 25.5q-76 0 -124.5 -13t-51.5 -28q-9 -68 -22 -146q-3 -14 -31.5 -34.5t-46.5 -20.5q-45 0 -45 82q0 56 23.5 84.5t74.5 56.5q59 31 147.5 55.5t167.5 24.5q106 0 151.5 -47.5 t45.5 -144.5l-2 -631h106v-54q-151 -45 -192 -45q-28 0 -44 19t-18 49q-5 41 -10 43q-8 -4 -52.5 -28.5t-65.5 -34t-59.5 -26t-72 -23.5t-65.5 -7q-78 0 -131 53.5t-53 137.5zM154 1286q0 29 20 46.5t45 17.5q24 0 41.5 -11.5t42.5 -38.5l299 -299h-49l-350 216 q-49 27 -49 69zM205 174q0 -121 121 -121q53 0 121.5 22t95.5 36q24 9 29 17.5t6 41.5v195q1 27 -3.5 34t-19.5 7q-12 0 -44 -4t-86.5 -19.5t-102 -39t-82.5 -68t-35 -101.5z" />
<glyph unicode="&#xe1;" horiz-adv-x="909" d="M66 158q0 72 40 126t112.5 86t162 48.5t199.5 19.5l2 262q1 85 -26.5 110.5t-119.5 25.5q-76 0 -124.5 -13t-51.5 -28q-9 -68 -22 -146q-3 -14 -31.5 -34.5t-46.5 -20.5q-45 0 -45 82q0 56 23.5 84.5t74.5 56.5q59 31 147.5 55.5t167.5 24.5q106 0 151.5 -47.5 t45.5 -144.5l-2 -631h106v-54q-151 -45 -192 -45q-28 0 -44 19t-18 49q-5 41 -10 43q-8 -4 -52.5 -28.5t-65.5 -34t-59.5 -26t-72 -23.5t-65.5 -7q-78 0 -131 53.5t-53 137.5zM205 174q0 -121 121 -121q53 0 121.5 22t95.5 36q24 9 29 17.5t6 41.5v195q1 27 -3.5 34t-19.5 7 q-12 0 -44 -4t-86.5 -19.5t-102 -39t-82.5 -68t-35 -101.5zM307 1001l299 299q43 50 84 50q27 0 45.5 -18.5t18.5 -45.5q0 -43 -47 -69l-351 -216h-49z" />
<glyph unicode="&#xe2;" horiz-adv-x="909" d="M66 158q0 72 40 126t112.5 86t162 48.5t199.5 19.5l2 262q1 85 -26.5 110.5t-119.5 25.5q-76 0 -124.5 -13t-51.5 -28q-9 -68 -22 -146q-3 -14 -31.5 -34.5t-46.5 -20.5q-45 0 -45 82q0 56 23.5 84.5t74.5 56.5q59 31 147.5 55.5t167.5 24.5q106 0 151.5 -47.5 t45.5 -144.5l-2 -631h106v-54q-151 -45 -192 -45q-28 0 -44 19t-18 49q-5 41 -10 43q-8 -4 -52.5 -28.5t-65.5 -34t-59.5 -26t-72 -23.5t-65.5 -7q-78 0 -131 53.5t-53 137.5zM147 1001l254 345h105l256 -345h-45l-262 218l-262 -218h-46zM205 174q0 -121 121 -121 q53 0 121.5 22t95.5 36q24 9 29 17.5t6 41.5v195q1 27 -3.5 34t-19.5 7q-12 0 -44 -4t-86.5 -19.5t-102 -39t-82.5 -68t-35 -101.5z" />
<glyph unicode="&#xe3;" horiz-adv-x="909" d="M66 158q0 72 40 126t112.5 86t162 48.5t199.5 19.5l2 262q1 85 -26.5 110.5t-119.5 25.5q-76 0 -124.5 -13t-51.5 -28q-9 -68 -22 -146q-3 -14 -31.5 -34.5t-46.5 -20.5q-45 0 -45 82q0 56 23.5 84.5t74.5 56.5q59 31 147.5 55.5t167.5 24.5q106 0 151.5 -47.5 t45.5 -144.5l-2 -631h106v-54q-151 -45 -192 -45q-28 0 -44 19t-18 49q-5 41 -10 43q-8 -4 -52.5 -28.5t-65.5 -34t-59.5 -26t-72 -23.5t-65.5 -7q-78 0 -131 53.5t-53 137.5zM125 1057q23 98 80.5 149t122.5 51q67 0 159 -49t129 -49q27 0 49 10.5t37.5 30t22.5 33t16 33.5 h43q-56 -209 -215 -209q-62 0 -147 47q-77 39 -110 45q-13 2 -25 2q-28 0 -49.5 -9t-35.5 -26t-20.5 -29t-13.5 -30h-43zM205 174q0 -121 121 -121q53 0 121.5 22t95.5 36q24 9 29 17.5t6 41.5v195q1 27 -3.5 34t-19.5 7q-12 0 -44 -4t-86.5 -19.5t-102 -39t-82.5 -68 t-35 -101.5z" />
<glyph unicode="&#xe4;" horiz-adv-x="909" d="M66 158q0 72 40 126t112.5 86t162 48.5t199.5 19.5l2 262q1 85 -26.5 110.5t-119.5 25.5q-76 0 -124.5 -13t-51.5 -28q-9 -68 -22 -146q-3 -14 -31.5 -34.5t-46.5 -20.5q-45 0 -45 82q0 56 23.5 84.5t74.5 56.5q59 31 147.5 55.5t167.5 24.5q106 0 151.5 -47.5 t45.5 -144.5l-2 -631h106v-54q-151 -45 -192 -45q-28 0 -44 19t-18 49q-5 41 -10 43q-8 -4 -52.5 -28.5t-65.5 -34t-59.5 -26t-72 -23.5t-65.5 -7q-78 0 -131 53.5t-53 137.5zM170 1128q0 48 27.5 74.5t66.5 26.5q33 0 56.5 -22.5t23.5 -61.5q0 -41 -28 -72t-66 -31 q-33 0 -56.5 28.5t-23.5 57.5zM205 174q0 -121 121 -121q53 0 121.5 22t95.5 36q24 9 29 17.5t6 41.5v195q1 27 -3.5 34t-19.5 7q-12 0 -44 -4t-86.5 -19.5t-102 -39t-82.5 -68t-35 -101.5zM565 1128q0 48 27.5 74.5t66.5 26.5q33 0 56.5 -22.5t23.5 -61.5q0 -41 -28 -72 t-66 -31q-33 0 -56.5 28.5t-23.5 57.5z" />
<glyph unicode="&#xe5;" horiz-adv-x="909" d="M66 158q0 72 40 126t112.5 86t162 48.5t199.5 19.5l2 262q1 85 -26.5 110.5t-119.5 25.5q-76 0 -124.5 -13t-51.5 -28q-9 -68 -22 -146q-3 -14 -31.5 -34.5t-46.5 -20.5q-45 0 -45 82q0 56 23.5 84.5t74.5 56.5q59 31 147.5 55.5t167.5 24.5q106 0 151.5 -47.5 t45.5 -144.5l-2 -631h106v-54q-151 -45 -192 -45q-28 0 -44 19t-18 49q-5 41 -10 43q-8 -4 -52.5 -28.5t-65.5 -34t-59.5 -26t-72 -23.5t-65.5 -7q-78 0 -131 53.5t-53 137.5zM205 174q0 -121 121 -121q53 0 121.5 22t95.5 36q24 9 29 17.5t6 41.5v195q1 27 -3.5 34t-19.5 7 q-12 0 -44 -4t-86.5 -19.5t-102 -39t-82.5 -68t-35 -101.5zM256 1186q0 83 58 140.5t141 57.5t140.5 -57.5t57.5 -140.5q0 -82 -57.5 -140.5t-140.5 -58.5t-141 58.5t-58 140.5zM317 1186q0 -57 40.5 -97t97.5 -40t97 40t40 97t-40 97t-97 40t-97.5 -40t-40.5 -97z" />
<glyph unicode="&#xe6;" horiz-adv-x="1366" d="M74 170q0 54 18.5 98t47.5 74t73.5 53.5t85.5 36.5t96.5 22.5t94 13.5t88.5 7l6 219q1 76 -34.5 106.5t-123.5 30.5q-43 0 -103.5 -15t-64.5 -34q-1 -3 -8 -63.5t-12 -69.5q-29 -55 -76 -55q-39 0 -39 68q0 75 51 116q49 41 141.5 80t194.5 39q128 0 180 -86l4 -5 q4 -5 7.5 -9t5.5 -4q1 0 4 3l9 9t11 10q92 82 236 82q147 0 237 -94t90 -232q0 -30 -5 -63.5t-13 -36.5q-24 -8 -82 -8l-449 -19q-16 0 -22 -5.5t-6 -24.5q0 -165 80 -256.5t209 -91.5q54 0 97 13.5t74 40.5t47.5 46.5t37.5 50.5l30 -18q-15 -30 -28 -51.5t-44.5 -58.5 t-65.5 -61t-89.5 -42.5t-118.5 -18.5q-85 0 -163 39t-134 107q-15 20 -20 20l-21 -17q-21 -17 -56.5 -41.5t-77.5 -49t-94 -41.5t-97 -17q-91 0 -150 56t-59 147zM213 176q0 -63 41 -97t98 -34q84 0 207 74q14 8 14 49l5 242q0 21 -3 26.5t-12 5.5q-32 0 -74.5 -9t-91 -30 t-89.5 -50.5t-68 -76t-27 -100.5zM721 524q0 -32 10 -35q3 -1 31.5 0t34.5 3l301 12q41 0 49 12t8 74q0 119 -43 190.5t-131 71.5q-109 0 -184.5 -92.5t-75.5 -235.5z" />
<glyph unicode="&#xe7;" horiz-adv-x="948" d="M86 414q0 47 9.5 98.5t29 106.5t53 104t77 88.5t106.5 62.5t137 23q81 0 149 -25.5t110 -65.5t65.5 -86.5t23.5 -90.5q0 -22 -9.5 -28.5t-43.5 -6.5q-50 0 -68.5 16t-30.5 68q-23 98 -38 125q-35 47 -109 49q-57 0 -112.5 -26t-100.5 -74.5t-73 -125.5t-28 -171 q0 -95 29 -173t76 -126t104 -73.5t115 -25.5q41 0 78 12t61.5 27t50 41t36.5 40t28 38l29 -18q-46 -104 -132.5 -164t-199.5 -64l-49 -112q36 16 86 16q74 0 120 -39.5t46 -105.5q0 -78 -65 -124t-175 -46q-92 0 -170 34l14 43q74 -24 129 -24q40 0 68.5 11t40.5 28.5t17 32 t5 28.5q0 41 -29.5 66.5t-72.5 25.5q-25 0 -65 -18l-23 12l76 172q-165 9 -270 136.5t-105 308.5z" />
<glyph unicode="&#xe8;" horiz-adv-x="948" d="M90 418q0 72 18 141t54.5 130.5t87.5 107.5t120.5 73t149.5 27q77 0 138.5 -25t97 -61.5t59.5 -81.5t32.5 -80.5t8.5 -62.5q0 -25 -7.5 -34t-33.5 -9h-549q-22 0 -29.5 -14t-7.5 -68q0 -71 22.5 -140.5t64 -126.5t108.5 -92.5t147 -35.5q53 0 96 14t74.5 41t47.5 46 t38 50l31 -18q-17 -32 -29 -51.5t-44.5 -58t-66 -61.5t-88.5 -42t-118 -19q-178 0 -300 126.5t-122 324.5zM174 1286q0 29 20.5 46.5t45.5 17.5q24 0 41.5 -11.5t42.5 -38.5l299 -299h-50l-350 216q-49 27 -49 69zM254 598q0 -10 22 -10h396q27 0 36 5t9 19q0 18 -3.5 42.5 t-15.5 61t-31.5 65.5t-55.5 50t-83 21q-62 0 -117 -32.5t-87.5 -76.5t-51 -84t-18.5 -61z" />
<glyph unicode="&#xe9;" horiz-adv-x="948" d="M90 418q0 72 18 141t54.5 130.5t87.5 107.5t120.5 73t149.5 27q77 0 138.5 -25t97 -61.5t59.5 -81.5t32.5 -80.5t8.5 -62.5q0 -25 -7.5 -34t-33.5 -9h-549q-22 0 -29.5 -14t-7.5 -68q0 -71 22.5 -140.5t64 -126.5t108.5 -92.5t147 -35.5q53 0 96 14t74.5 41t47.5 46 t38 50l31 -18q-17 -32 -29 -51.5t-44.5 -58t-66 -61.5t-88.5 -42t-118 -19q-178 0 -300 126.5t-122 324.5zM254 598q0 -10 22 -10h396q27 0 36 5t9 19q0 18 -3.5 42.5t-15.5 61t-31.5 65.5t-55.5 50t-83 21q-62 0 -117 -32.5t-87.5 -76.5t-51 -84t-18.5 -61zM328 1001 l299 299q43 50 84 50q27 0 45 -18.5t18 -45.5q0 -43 -47 -69l-350 -216h-49z" />
<glyph unicode="&#xea;" horiz-adv-x="948" d="M90 418q0 72 18 141t54.5 130.5t87.5 107.5t120.5 73t149.5 27q77 0 138.5 -25t97 -61.5t59.5 -81.5t32.5 -80.5t8.5 -62.5q0 -25 -7.5 -34t-33.5 -9h-549q-22 0 -29.5 -14t-7.5 -68q0 -71 22.5 -140.5t64 -126.5t108.5 -92.5t147 -35.5q53 0 96 14t74.5 41t47.5 46 t38 50l31 -18q-17 -32 -29 -51.5t-44.5 -58t-66 -61.5t-88.5 -42t-118 -19q-178 0 -300 126.5t-122 324.5zM168 1001l254 345h104l256 -345h-45l-262 218l-262 -218h-45zM254 598q0 -10 22 -10h396q27 0 36 5t9 19q0 18 -3.5 42.5t-15.5 61t-31.5 65.5t-55.5 50t-83 21 q-62 0 -117 -32.5t-87.5 -76.5t-51 -84t-18.5 -61z" />
<glyph unicode="&#xeb;" horiz-adv-x="948" d="M90 418q0 72 18 141t54.5 130.5t87.5 107.5t120.5 73t149.5 27q77 0 138.5 -25t97 -61.5t59.5 -81.5t32.5 -80.5t8.5 -62.5q0 -25 -7.5 -34t-33.5 -9h-549q-22 0 -29.5 -14t-7.5 -68q0 -71 22.5 -140.5t64 -126.5t108.5 -92.5t147 -35.5q53 0 96 14t74.5 41t47.5 46 t38 50l31 -18q-17 -32 -29 -51.5t-44.5 -58t-66 -61.5t-88.5 -42t-118 -19q-178 0 -300 126.5t-122 324.5zM190 1128q0 48 27.5 74.5t67.5 26.5q33 0 56.5 -22.5t23.5 -61.5q0 -41 -28.5 -72t-66.5 -31q-33 0 -56.5 28.5t-23.5 57.5zM254 598q0 -10 22 -10h396q27 0 36 5 t9 19q0 18 -3.5 42.5t-15.5 61t-31.5 65.5t-55.5 50t-83 21q-62 0 -117 -32.5t-87.5 -76.5t-51 -84t-18.5 -61zM586 1128q0 48 27.5 74.5t66.5 26.5q33 0 56.5 -22.5t23.5 -61.5q0 -41 -28 -72t-66 -31q-33 0 -56.5 28.5t-23.5 57.5z" />
<glyph unicode="&#xec;" horiz-adv-x="569" d="M-16 1286q0 29 20 46.5t45 17.5q24 0 41.5 -11.5t42.5 -38.5l299 -299h-49l-350 216q-49 27 -49 69zM106 0v49l115 2v676q0 40 -15.5 50t-88.5 14v61l252 33v-834l108 -2v-49h-371z" />
<glyph unicode="&#xed;" horiz-adv-x="569" d="M106 0v49l115 2v676q0 40 -15.5 50t-88.5 14v61l252 33v-834l108 -2v-49h-371zM137 1001l299 299q43 50 84 50q27 0 45.5 -18.5t18.5 -45.5q0 -43 -47 -69l-351 -216h-49z" />
<glyph unicode="&#xee;" horiz-adv-x="569" d="M-23 1001l254 345h105l256 -345h-45l-262 218l-262 -218h-46zM106 0v49l115 2v676q0 40 -15.5 50t-88.5 14v61l252 33v-834l108 -2v-49h-371z" />
<glyph unicode="&#xef;" horiz-adv-x="569" d="M0 1128q0 48 27.5 74.5t66.5 26.5q33 0 56.5 -22.5t23.5 -61.5q0 -41 -28 -72t-66 -31q-33 0 -56.5 28.5t-23.5 57.5zM106 0v49l115 2v676q0 40 -15.5 50t-88.5 14v61l252 33v-834l108 -2v-49h-371zM395 1128q0 48 27.5 74.5t66.5 26.5q33 0 56.5 -22.5t23.5 -61.5 q0 -41 -28 -72t-66 -31q-33 0 -56.5 28.5t-23.5 57.5z" />
<glyph unicode="&#xf0;" d="M82 430q0 112 35 202.5t93.5 147.5t131.5 87t154 30q63 0 116 -16q39 -9 43 -9q11 0 11 7q0 4 -17 32l-162 269l-297 -119l-18 49l287 115l-160 254l125 49l160 -252l284 115l21 -50l-277 -110q17 -28 73.5 -116.5t79.5 -127t65 -119t61 -135t35 -129t16 -145.5 q0 -135 -51 -246t-150 -178.5t-227 -67.5q-60 0 -119 15.5t-116 51.5t-100.5 88t-70 132t-26.5 176zM238 430q0 -110 32 -204.5t95.5 -154t146.5 -59.5q90 0 153.5 61.5t92 154.5t28.5 206q0 181 -68.5 299.5t-189.5 118.5q-45 0 -92 -21t-93 -66.5t-75.5 -132.5t-29.5 -202 z" />
<glyph unicode="&#xf1;" horiz-adv-x="1138" d="M90 770v82l248 29q0 -45 4.5 -60.5t19.5 -15.5q5 0 53 21t124 42t151 21q123 0 191.5 -63t68.5 -185v-590l109 -2v-49h-361v49l105 2v580q0 109 -38.5 152.5t-156.5 43.5q-58 0 -127 -14t-108 -39q-21 -14 -21 -80v-643l107 -2v-49h-363v49l109 2v715zM240 1057 q23 98 80 149t122 51q68 0 160 -49t129 -49q27 0 49 10.5t37.5 30t22.5 33t16 33.5h43q-56 -209 -215 -209q-62 0 -147 47q-3 1 -8 4q-86 41 -128 43q-28 0 -49.5 -9t-35 -26t-19.5 -28.5t-14 -30.5h-43z" />
<glyph unicode="&#xf2;" d="M82 422q0 105 27.5 189t72 136.5t104.5 87t120 48.5t124 14q94 0 168 -29t118.5 -74t74 -105.5t40.5 -117.5t11 -116q0 -95 -29 -182.5t-82 -156t-135 -109t-182 -40.5q-65 0 -127 17.5t-117.5 55t-97 90.5t-66 128t-24.5 164zM211 1286q0 29 20 46.5t45 17.5 q24 0 41.5 -11.5t42.5 -38.5l299 -299h-49l-350 216q-49 27 -49 69zM238 430q0 -110 32 -204.5t95.5 -154t146.5 -59.5q90 0 153.5 61.5t92 154.5t28.5 206q0 181 -68.5 299.5t-189.5 118.5q-45 0 -92 -21t-93 -66.5t-75.5 -132.5t-29.5 -202z" />
<glyph unicode="&#xf3;" d="M82 422q0 105 27.5 189t72 136.5t104.5 87t120 48.5t124 14q94 0 168 -29t118.5 -74t74 -105.5t40.5 -117.5t11 -116q0 -95 -29 -182.5t-82 -156t-135 -109t-182 -40.5q-65 0 -127 17.5t-117.5 55t-97 90.5t-66 128t-24.5 164zM238 430q0 -110 32 -204.5t95.5 -154 t146.5 -59.5q90 0 153.5 61.5t92 154.5t28.5 206q0 181 -68.5 299.5t-189.5 118.5q-45 0 -92 -21t-93 -66.5t-75.5 -132.5t-29.5 -202zM365 1001l299 299q43 50 84 50q27 0 45 -18.5t18 -45.5q0 -43 -47 -69l-350 -216h-49z" />
<glyph unicode="&#xf4;" d="M82 422q0 105 27.5 189t72 136.5t104.5 87t120 48.5t124 14q94 0 168 -29t118.5 -74t74 -105.5t40.5 -117.5t11 -116q0 -95 -29 -182.5t-82 -156t-135 -109t-182 -40.5q-65 0 -127 17.5t-117.5 55t-97 90.5t-66 128t-24.5 164zM205 1001l254 345h104l256 -345h-45 l-262 218l-262 -218h-45zM238 430q0 -110 32 -204.5t95.5 -154t146.5 -59.5q90 0 153.5 61.5t92 154.5t28.5 206q0 181 -68.5 299.5t-189.5 118.5q-45 0 -92 -21t-93 -66.5t-75.5 -132.5t-29.5 -202z" />
<glyph unicode="&#xf5;" d="M82 422q0 105 27.5 189t72 136.5t104.5 87t120 48.5t124 14q94 0 168 -29t118.5 -74t74 -105.5t40.5 -117.5t11 -116q0 -95 -29 -182.5t-82 -156t-135 -109t-182 -40.5q-65 0 -127 17.5t-117.5 55t-97 90.5t-66 128t-24.5 164zM182 1057q23 98 80.5 149t122.5 51 q68 0 160 -49t129 -49q27 0 49 10.5t37.5 30t22.5 33t16 33.5h43q-56 -209 -215 -209q-63 0 -148 47q-77 39 -110 45q-13 2 -25 2q-28 0 -49.5 -9t-35.5 -26t-20.5 -29t-13.5 -30h-43zM238 430q0 -110 32 -204.5t95.5 -154t146.5 -59.5q90 0 153.5 61.5t92 154.5t28.5 206 q0 181 -68.5 299.5t-189.5 118.5q-45 0 -92 -21t-93 -66.5t-75.5 -132.5t-29.5 -202z" />
<glyph unicode="&#xf6;" d="M82 422q0 105 27.5 189t72 136.5t104.5 87t120 48.5t124 14q94 0 168 -29t118.5 -74t74 -105.5t40.5 -117.5t11 -116q0 -95 -29 -182.5t-82 -156t-135 -109t-182 -40.5q-65 0 -127 17.5t-117.5 55t-97 90.5t-66 128t-24.5 164zM227 1128q0 48 27.5 74.5t67.5 26.5 q33 0 56 -22.5t23 -61.5q0 -41 -28 -72t-66 -31q-33 0 -56.5 28.5t-23.5 57.5zM238 430q0 -110 32 -204.5t95.5 -154t146.5 -59.5q90 0 153.5 61.5t92 154.5t28.5 206q0 181 -68.5 299.5t-189.5 118.5q-45 0 -92 -21t-93 -66.5t-75.5 -132.5t-29.5 -202zM623 1128 q0 48 27.5 74.5t66.5 26.5q33 0 56.5 -22.5t23.5 -61.5q0 -41 -28.5 -72t-66.5 -31q-33 0 -56 28.5t-23 57.5z" />
<glyph unicode="&#xf7;" horiz-adv-x="1228" d="M109 461v88h1009v-88h-1009zM528 145q0 35 25.5 60.5t60.5 25.5t60.5 -25.5t25.5 -60.5t-25.5 -60.5t-60.5 -25.5t-60.5 25.5t-25.5 60.5zM528 864q0 35 25.5 60.5t60.5 25.5t60.5 -25.5t25.5 -60.5t-25.5 -60.5t-60.5 -25.5t-60.5 25.5t-25.5 60.5z" />
<glyph unicode="&#xf8;" d="M53 -219l185 285q-72 57 -114 147.5t-42 208.5q0 105 27.5 189t72 136.5t104.5 87t120 48.5t124 14q123 0 213 -49l138 213h75l-161 -250q78 -62 112.5 -158.5t34.5 -197.5q0 -95 -29 -182.5t-82 -156t-135 -109t-182 -40.5q-122 0 -225 62l-160 -248h-76zM238 430 q0 -155 61 -268l393 606q-68 84 -164 84q-45 0 -92 -21t-93 -66.5t-75.5 -132.5t-29.5 -202zM338 102q74 -90 174 -90q90 0 153.5 61.5t92 154.5t28.5 206q0 169 -57 277z" />
<glyph unicode="&#xf9;" horiz-adv-x="1138" d="M88 791v69l252 25v-639q0 -122 48 -169.5t179 -47.5q65 0 124.5 13t80.5 26q12 7 17.5 22.5t5.5 56.5v584q0 39 -20.5 49t-110.5 11v69l278 25v-811h102v-62q-150 -32 -178 -32q-23 0 -37 9.5t-18 21t-10.5 21t-16.5 9.5q-3 0 -51 -16.5t-124 -33t-148 -16.5 q-147 0 -207.5 72.5t-60.5 255.5v477zM268 1286q0 29 20.5 46.5t45.5 17.5q24 0 41.5 -11.5t42.5 -38.5l299 -299h-49l-351 216q-49 27 -49 69z" />
<glyph unicode="&#xfa;" horiz-adv-x="1138" d="M88 791v69l252 25v-639q0 -122 48 -169.5t179 -47.5q65 0 124.5 13t80.5 26q12 7 17.5 22.5t5.5 56.5v584q0 39 -20.5 49t-110.5 11v69l278 25v-811h102v-62q-150 -32 -178 -32q-23 0 -37 9.5t-18 21t-10.5 21t-16.5 9.5q-3 0 -51 -16.5t-124 -33t-148 -16.5 q-147 0 -207.5 72.5t-60.5 255.5v477zM422 1001l299 299q43 50 84 50q27 0 45 -18.5t18 -45.5q0 -43 -47 -69l-350 -216h-49z" />
<glyph unicode="&#xfb;" horiz-adv-x="1138" d="M88 791v69l252 25v-639q0 -122 48 -169.5t179 -47.5q65 0 124.5 13t80.5 26q12 7 17.5 22.5t5.5 56.5v584q0 39 -20.5 49t-110.5 11v69l278 25v-811h102v-62q-150 -32 -178 -32q-23 0 -37 9.5t-18 21t-10.5 21t-16.5 9.5q-3 0 -51 -16.5t-124 -33t-148 -16.5 q-147 0 -207.5 72.5t-60.5 255.5v477zM262 1001l254 345h105l256 -345h-46l-262 218l-262 -218h-45z" />
<glyph unicode="&#xfc;" horiz-adv-x="1138" d="M88 791v69l252 25v-639q0 -122 48 -169.5t179 -47.5q65 0 124.5 13t80.5 26q12 7 17.5 22.5t5.5 56.5v584q0 39 -20.5 49t-110.5 11v69l278 25v-811h102v-62q-150 -32 -178 -32q-23 0 -37 9.5t-18 21t-10.5 21t-16.5 9.5q-3 0 -51 -16.5t-124 -33t-148 -16.5 q-147 0 -207.5 72.5t-60.5 255.5v477zM285 1128q0 48 27.5 74.5t66.5 26.5q33 0 56.5 -22.5t23.5 -61.5q0 -41 -28 -72t-66 -31q-33 0 -56.5 28.5t-23.5 57.5zM680 1128q0 48 27.5 74.5t66.5 26.5q33 0 56.5 -22.5t23.5 -61.5q0 -41 -28 -72t-66 -31q-33 0 -56.5 28.5 t-23.5 57.5z" />
<glyph unicode="&#xfd;" horiz-adv-x="872" d="M25 807v57h344v-57q-7 -1 -25 -1.5t-32 -2t-28.5 -4t-23 -9t-8.5 -16.5q0 -13 14 -51l217 -576l213 519q39 92 39 110q0 16 -78 23v65h205v-65q-44 -3 -60 -17t-38 -67l-356 -846q-141 -318 -158 -346q-36 -58 -76 -55q-131 8 -131 51q0 14 10 52t23 38q3 0 50 -7.5 t56 -7.5q34 0 57 25.5t54 95.5l117 262l-277 693q-38 96 -52 113.5t-56 23.5zM289 1001l299 299q43 50 84 50q27 0 45 -18.5t18 -45.5q0 -43 -47 -69l-350 -216h-49z" />
<glyph unicode="&#xfe;" horiz-adv-x="1062" d="M31 1432v63q86 4 301 31q0 -32 -2 -205t-2 -201v-280q0 -21 18 -21q2 0 38 17.5t95.5 35t120.5 17.5q70 0 136 -29t120.5 -83t87.5 -140.5t33 -192.5q0 -147 -61.5 -255t-162 -161t-225.5 -53q-83 0 -200 35v-491l141 -2v-49h-414v49l121 2q0 28 2 176t2 172v1239 q0 54 -1 162t-1 162zM328 35q48 -10 108 -10q184 0 285.5 106.5t101.5 302.5q0 98 -29.5 175t-77.5 121t-102 66.5t-110 22.5q-32 0 -83 -10t-73 -21q-20 -10 -20 -55v-698z" />
<glyph unicode="&#xff;" horiz-adv-x="872" d="M25 807v57h344v-57q-7 -1 -25 -1.5t-32 -2t-28.5 -4t-23 -9t-8.5 -16.5q0 -13 14 -51l217 -576l213 519q39 92 39 110q0 16 -78 23v65h205v-65q-44 -3 -60 -17t-38 -67l-356 -846q-141 -318 -158 -346q-36 -58 -76 -55q-131 8 -131 51q0 14 10 52t23 38q3 0 50 -7.5 t56 -7.5q34 0 57 25.5t54 95.5l117 262l-277 693q-38 96 -52 113.5t-56 23.5zM152 1128q0 48 27.5 74.5t66.5 26.5q33 0 56.5 -22.5t23.5 -61.5q0 -41 -28.5 -72t-66.5 -31q-33 0 -56 28.5t-23 57.5zM547 1128q0 48 27.5 74.5t66.5 26.5q33 0 56.5 -22.5t23.5 -61.5 q0 -41 -28 -72t-66 -31q-33 0 -56.5 28.5t-23.5 57.5z" />
<glyph unicode="&#x152;" horiz-adv-x="2123" d="M86 719q0 116 28.5 225t87 203.5t140.5 165.5t196 112t246 41q72 0 353 -24q84 -8 243 -8q313 0 568 6v-318h-66q-5 70 -9 106.5t-14.5 72t-22.5 49t-39.5 25t-57.5 13t-84 1.5h-406v-617q47 0 103.5 2t127.5 10t89 21q11 8 18.5 25.5t12 46t7 50.5t5.5 59.5t4 51.5h67 q-10 -102 -10 -327q0 -179 2 -242h-67q-5 109 -9.5 162.5t-8.5 65t-11 16.5q-23 14 -330 14q0 -545 4 -596q4 -49 29 -67.5t82 -18.5h502l98 328h61l-24 -373h-604q-205 0 -295 -8q-34 -3 -112 -11.5t-131 -13t-81 -4.5q-198 0 -356 96t-247 269t-89 391zM274 715 q0 -206 65.5 -365.5t191 -250.5t292.5 -91q229 0 242 80q4 27 4 891q0 348 -12 373q-15 37 -90.5 53t-161.5 16q-235 0 -383 -191t-148 -515z" />
<glyph unicode="&#x153;" horiz-adv-x="1630" d="M82 422q0 105 27.5 189t72 136.5t104.5 87t120 48.5t124 14q236 0 340 -172q125 172 334 172q77 0 138.5 -25t97 -61.5t59.5 -81.5t32.5 -80.5t8.5 -62.5q0 -25 -7.5 -34t-33.5 -9h-549q-22 0 -29.5 -14t-7.5 -68q0 -71 22.5 -140.5t64 -126.5t108.5 -92.5t147 -35.5 q53 0 96 14t74.5 41t47.5 46t38 50l31 -18q-17 -32 -29 -51.5t-44.5 -58t-66 -61.5t-88.5 -42t-118 -19q-106 0 -196 48.5t-146 134.5q-55 -85 -141.5 -134t-198.5 -49q-65 0 -127 17.5t-117.5 55t-97 90.5t-66 128t-24.5 164zM238 430q0 -110 32 -204.5t95.5 -154 t146.5 -59.5q90 0 153.5 61.5t92 154.5t28.5 206q0 181 -68.5 299.5t-189.5 118.5q-45 0 -92 -21t-93 -66.5t-75.5 -132.5t-29.5 -202zM938 598q0 -10 23 -10h395q27 0 36 5t9 19q0 18 -3.5 42.5t-15.5 61t-31.5 65.5t-55.5 50t-83 21q-62 0 -117 -32.5t-87.5 -76.5t-51 -84 t-18.5 -61z" />
<glyph unicode="&#x178;" horiz-adv-x="1175" d="M-51 1384v54q200 -4 223 -4q11 0 137.5 2t155.5 2v-54q-59 -2 -92 -3.5t-49.5 -4t-20.5 -5t-4 -7.5q0 -8 41 -77t94.5 -155t61.5 -100l155 -241l154 225q12 17 93 132.5t97 137.5q41 61 41 72q0 18 -32 18q-54 4 -152 4v54q275 0 377 4v-62q-50 -2 -74 -13t-53 -46 q-60 -70 -232 -301l-194 -273v-516q0 -52 4 -170l180 -8v-53q-38 0 -131 2t-143 2q-89 0 -277 -4v53l183 8q4 127 4 641l-224 349q-51 82 -121.5 187t-91.5 124q-16 14 -36 18.5t-74 7.5zM315 1702q0 48 27.5 74t67.5 26q33 0 56 -22.5t23 -61.5q0 -41 -28 -71.5t-66 -30.5 q-33 0 -56.5 28.5t-23.5 57.5zM711 1702q0 48 27 74t67 26q33 0 56.5 -22.5t23.5 -61.5q0 -41 -28 -71.5t-66 -30.5q-33 0 -56.5 28.5t-23.5 57.5z" />
<glyph unicode="&#x2c6;" horiz-adv-x="569" d="M-23 1001l254 345h105l256 -345h-45l-262 218l-262 -218h-46z" />
<glyph unicode="&#x2dc;" horiz-adv-x="569" d="M-45 1057q23 98 80.5 149t122.5 51q67 0 159 -49t129 -49q27 0 49 10.5t37.5 30t22.5 33t16 33.5h43q-56 -209 -215 -209q-62 0 -147 47q-77 39 -110 45q-13 2 -25 2q-28 0 -49.5 -9t-35.5 -26t-20.5 -29t-13.5 -30h-43z" />
<glyph unicode="&#x2000;" horiz-adv-x="979" />
<glyph unicode="&#x2001;" horiz-adv-x="1958" />
<glyph unicode="&#x2002;" horiz-adv-x="979" />
<glyph unicode="&#x2003;" horiz-adv-x="1958" />
<glyph unicode="&#x2004;" horiz-adv-x="652" />
<glyph unicode="&#x2005;" horiz-adv-x="489" />
<glyph unicode="&#x2006;" horiz-adv-x="326" />
<glyph unicode="&#x2007;" horiz-adv-x="326" />
<glyph unicode="&#x2008;" horiz-adv-x="244" />
<glyph unicode="&#x2009;" horiz-adv-x="391" />
<glyph unicode="&#x200a;" horiz-adv-x="108" />
<glyph unicode="&#x2010;" horiz-adv-x="530" d="M20 371v123h490v-123h-490z" />
<glyph unicode="&#x2011;" horiz-adv-x="530" d="M20 371v123h490v-123h-490z" />
<glyph unicode="&#x2012;" horiz-adv-x="530" d="M20 371v123h490v-123h-490z" />
<glyph unicode="&#x2013;" d="M0 383v98h1024v-98h-1024z" />
<glyph unicode="&#x2014;" horiz-adv-x="2048" d="M266 383v98h1516v-98h-1516z" />
<glyph unicode="&#x2018;" horiz-adv-x="454" d="M88 1149q0 46 63 138.5t120 157.5t69 75l27 -27q-24 -27 -52 -63.5t-63 -96.5t-35 -92q0 -21 9.5 -37t20.5 -24.5t33.5 -16t33.5 -9.5t36 -7l-55 -133q-83 14 -145 49.5t-62 85.5z" />
<glyph unicode="&#x2019;" horiz-adv-x="454" d="M88 991q150 174 150 252q0 25 -12 42.5t-35.5 27t-41.5 14t-45 8.5l56 135q83 -16 145 -51t62 -84q0 -36 -35.5 -97.5t-85 -122.5t-83 -99t-48.5 -53z" />
<glyph unicode="&#x201a;" horiz-adv-x="454" d="M88 -317q150 182 150 251q0 25 -12 42.5t-36 28t-41 15t-45 9.5l56 133q81 -14 144 -49.5t63 -85.5q0 -46 -63 -139t-114 -151.5t-75 -82.5z" />
<glyph unicode="&#x201c;" horiz-adv-x="833" d="M88 1149q0 46 63 138.5t120 157.5t69 75l27 -27q-24 -27 -52 -63.5t-63 -96.5t-35 -92q0 -21 9.5 -37t20.5 -24.5t33.5 -16t33.5 -9.5t36 -7l-55 -133q-83 14 -145 49.5t-62 85.5zM469 1149q0 46 65 141.5t115 152.5t70 77l26 -27q-23 -27 -51.5 -63.5t-63 -96.5 t-34.5 -92q0 -21 9.5 -36.5t20.5 -24.5t34 -16.5t34.5 -10t36.5 -6.5l-57 -133q-83 13 -144 49t-61 86z" />
<glyph unicode="&#x201d;" horiz-adv-x="833" d="M88 991q150 174 150 252q0 25 -12 42.5t-35.5 27t-41.5 14t-45 8.5l56 135q83 -16 145 -51t62 -84q0 -36 -35.5 -97.5t-85 -122.5t-83 -99t-48.5 -53zM469 991q147 181 147 252q0 25 -12 42.5t-35 27t-41 14t-45 8.5l56 135q83 -16 144.5 -51t61.5 -84q0 -36 -35.5 -97.5 t-84.5 -122.5t-83 -99.5t-48 -52.5z" />
<glyph unicode="&#x201e;" horiz-adv-x="833" d="M88 -317q150 182 150 251q0 25 -12 42.5t-36 28t-41 15t-45 9.5l56 133q81 -14 144 -49.5t63 -85.5q0 -46 -63 -139t-114 -151.5t-75 -82.5zM469 -317l16 20q16 20 22.5 28.5t23 31.5t25.5 36.5t22 35.5t20 37t12.5 32t5.5 30q0 25 -12 42.5t-35.5 28t-40.5 15t-45 9.5 l56 133q81 -14 143.5 -49.5t62.5 -85.5q0 -35 -35.5 -97t-84.5 -122.5t-83 -100t-48 -53.5z" />
<glyph unicode="&#x2022;" d="M141 717q0 154 108.5 262t262.5 108t262.5 -108t108.5 -262t-108.5 -262.5t-262.5 -108.5t-262.5 108.5t-108.5 262.5z" />
<glyph unicode="&#x2026;" horiz-adv-x="2048" d="M244 74q0 41 28.5 69.5t69.5 28.5t69.5 -28.5t28.5 -69.5q0 -40 -28.5 -69.5t-69.5 -29.5t-69.5 29.5t-28.5 69.5zM926 74q0 41 28.5 69.5t69.5 28.5t69.5 -28.5t28.5 -69.5q0 -40 -28.5 -69.5t-69.5 -29.5t-69.5 29.5t-28.5 69.5zM1608 74q0 41 28.5 69.5t69.5 28.5 t69.5 -28.5t28.5 -69.5q0 -40 -28.5 -69.5t-69.5 -29.5t-69.5 29.5t-28.5 69.5z" />
<glyph unicode="&#x202f;" horiz-adv-x="391" />
<glyph unicode="&#x2039;" horiz-adv-x="645" d="M123 426v14q30 26 311 295q17 17 31 17q7 0 12.5 -5.5t5.5 -13.5q0 -16 -73 -115.5t-142 -185.5q62 -74 138.5 -178.5t76.5 -120.5q0 -8 -5.5 -13t-12.5 -5q-15 0 -31 16q-242 232 -311 295z" />
<glyph unicode="&#x203a;" horiz-adv-x="645" d="M162 133q0 16 76 120t139 179q-65 78 -140 181.5t-75 119.5q0 8 5.5 13.5t12.5 5.5q10 0 31 -17q242 -232 311 -295v-14q-28 -25 -160.5 -152t-150.5 -143q-19 -16 -31 -16q-18 0 -18 18z" />
<glyph unicode="&#x205f;" horiz-adv-x="489" />
<glyph unicode="&#x2122;" horiz-adv-x="1857" d="M0 1235l14 199l320 -2l411 2l-10 -195h-39q-13 147 -14 150q-8 12 -98 12h-156q-3 -89 -3 -367.5t3 -367.5l84 -4v-37q-70 4 -141 4q-74 0 -144 -4v37l84 4q3 82 3 367.5t-3 367.5h-112q-90 0 -111 -21q-19 -19 -45 -145h-43zM768 625v37l88 4q3 370 -2 727l-76 4v37 q13 0 48.5 -1t58.5 -1q24 0 56 1t42 1l289 -666l270 664q102 0 221 2v-37l-92 -4q0 -289 8 -727l88 -4v-37q-94 4 -151 4t-143 -4v37l88 4q3 347 2 387q0 26 -2 161.5t-2 157.5h-5l-307 -758h-18l-334 742l-4 -4l8 -686l100 -4v-37q-50 4 -106 4q-14 0 -52.5 -1.5 t-72.5 -2.5z" />
<glyph unicode="&#x25fc;" horiz-adv-x="860" d="M0 0v860h860v-860h-860z" />
<glyph unicode="&#xfb01;" horiz-adv-x="1138" d="M78 782v66h139q2 88 3 126.5t4 102t8 92.5t14 71.5t22 68t31.5 54t44.5 54.5q103 103 195 103q36 0 104.5 -6t166.5 -15.5t146 -13.5l-22 -115q-67 5 -184 16t-204 19t-112 8q-28 0 -40.5 -10t-16.5 -45q-10 -103 -12.5 -291t0.5 -219h204q84 0 228 16l64 8t49 6l16 3 q12 0 12 -29v-801l109 -2v-49h-377v49l121 2v678q0 36 -8 44.5t-40 8.5q-72 0 -209 -4t-153 -10q-13 -6 -14.5 -17t-1.5 -69v-631l127 -2v-49h-383v49l108 2v727z" />
<glyph unicode="&#xfb02;" horiz-adv-x="1138" d="M78 782v66h139q3 259 21 366t90 197q88 109 204 109q15 0 94.5 -10.5t92.5 -10.5q41 0 225 21q-2 -221 -2 -777v-692l105 -2v-49h-377v49l125 2v731q-116 2 -257 -2.5t-157 -11.5q-12 -6 -14 -19t-2 -67v-631l127 -2v-49h-383v49l108 2v727zM364 1089q0 -64 0.5 -145.5 t0.5 -95.5h172q43 0 143.5 4t114.5 4v256q0 255 -9 262q-8 7 -165.5 33.5t-182.5 26.5q-33 0 -48 -24.5t-21 -84.5q-3 -29 -4 -100.5t-1 -135.5z" />
</font>
</defs>
</svg>
