<?xml version="1.0" standalone="no"?>
<!DOCTYPE svg PUBLIC "-//W3C//DTD SVG 1.1//EN" "http://www.w3.org/Graphics/SVG/1.1/DTD/svg11.dtd" >
<svg xmlns="http://www.w3.org/2000/svg">
<metadata></metadata>
<defs>
<font id="founders_grotesk_text_regulRg" horiz-adv-x="1075" >
<font-face units-per-em="2048" ascent="1577" descent="-471" />
<missing-glyph horiz-adv-x="516" />
<glyph unicode="&#xfb01;" horiz-adv-x="1169" d="M45 766v129h156v25q0 175 106.5 285t290.5 110q138 0 228.5 -54.5t127.5 -148.5l-123 -70q-19 69 -77.5 107.5t-149.5 38.5q-235 0 -235 -275v-18h639v-895h-170v766h-469v-766h-168v766h-156z" />
<glyph unicode="&#xfb02;" horiz-adv-x="1169" d="M45 766v129h156v82q0 154 94.5 246t239.5 92q117 0 198 -62l-55 -118q-54 51 -135 51t-127.5 -53.5t-46.5 -159.5v-78h247v-129h-247v-766h-168v766h-156zM838 0v1290h170v-1290h-170z" />
<glyph unicode="&#xfb03;" horiz-adv-x="1806" d="M45 766v129h156v61q0 154 93.5 246t237.5 92q75 0 138 -25t102 -69l-72 -106q-55 71 -153 71q-84 0 -131 -54.5t-47 -160.5v-55h469v25q0 175 106.5 285t290.5 110q138 0 228.5 -54.5t127.5 -148.5l-123 -70q-19 68 -78 107t-149 39q-235 0 -235 -275v-18h639v-895h-170 v766h-469v-766h-168v766h-469v-766h-168v766h-156z" />
<glyph unicode="&#xfb04;" horiz-adv-x="1806" d="M45 766v129h156v61q0 154 93.5 246t237.5 92q75 0 138 -25t102 -69l-72 -106q-55 71 -153 71q-84 0 -131 -54.5t-47 -160.5v-55h469v82q0 154 93.5 246t237.5 92q120 0 201 -62l-55 -118q-54 51 -135 51q-82 0 -128 -53.5t-46 -159.5v-78h247v-129h-247v-766h-168v766 h-469v-766h-168v766h-156zM1475 0v1290h170v-1290h-170z" />
<glyph horiz-adv-x="2048" />
<glyph horiz-adv-x="2048" />
<glyph unicode="&#xd;" horiz-adv-x="2048" />
<glyph unicode=" "  horiz-adv-x="516" />
<glyph unicode="&#x09;" horiz-adv-x="516" />
<glyph unicode="&#xa0;" horiz-adv-x="516" />
<glyph unicode="!" horiz-adv-x="473" d="M135 0v205h205v-205h-205zM145 897v393h183v-393l-49 -518h-82z" />
<glyph unicode="&#x22;" horiz-adv-x="710" d="M123 772v518h145v-518h-145zM442 772v518h146v-518h-146z" />
<glyph unicode="#" horiz-adv-x="1304" d="M61 342l23 119h221l86 368h-244l23 121h250l82 340h143l-82 -340h322l82 340h143l-82 -340h215l-22 -121h-222l-86 -368h244l-22 -119h-250l-82 -342h-144l82 342h-321l-82 -342h-143l81 342h-215zM449 461h321l86 368h-321z" />
<glyph unicode="$" horiz-adv-x="1224" d="M47 272l115 129q55 -118 161.5 -190t237.5 -90v461l-112 24q-336 71 -336 336q0 160 123.5 263.5t324.5 109.5v209h115v-215q147 -17 256 -83t170 -165l-119 -121q-40 86 -120.5 145.5t-186.5 79.5v-442l106 -23q66 -14 118 -32t100 -47t79.5 -65.5t50.5 -88.5t19 -117 q0 -163 -132.5 -263.5t-340.5 -109.5v-219h-115v219q-173 15 -311.5 93.5t-202.5 201.5zM281 948q0 -83 59.5 -123.5t183.5 -68.5l37 -8v426q-126 -5 -203 -64.5t-77 -161.5zM676 119q135 8 220 66.5t85 158.5q0 83 -58.5 127t-181.5 72l-65 14v-438z" />
<glyph unicode="%" horiz-adv-x="1748" d="M96 991q0 133 96 229.5t230 96.5q136 0 232 -96t96 -230q0 -135 -96 -230t-232 -95q-134 0 -230 95t-96 230zM225 991q0 -85 58.5 -144t138.5 -59q84 0 141.5 58.5t57.5 144.5q0 85 -58 144t-141 59q-80 0 -138.5 -59.5t-58.5 -143.5zM389 0l832 1290h139l-832 -1290 h-139zM999 299q0 135 96 230.5t232 95.5q134 0 230 -95.5t96 -230.5q0 -133 -96.5 -229.5t-229.5 -96.5q-136 0 -232 96t-96 230zM1128 299q0 -85 58 -144t141 -59q80 0 138.5 59.5t58.5 143.5q0 85 -58.5 144t-138.5 59q-84 0 -141.5 -58.5t-57.5 -144.5z" />
<glyph unicode="&#x26;" horiz-adv-x="1361" d="M90 330q0 123 71.5 209t211.5 161q-66 78 -100.5 147t-34.5 150q0 141 96 229.5t250 88.5q153 0 239 -80.5t86 -208.5q0 -113 -71.5 -190.5t-227.5 -155.5l314 -348q105 138 147 327l152 -10q-61 -242 -205 -420q51 -57 97.5 -84.5t105.5 -27.5q53 0 102 12v-111 q-58 -34 -147 -34q-69 0 -130.5 30.5t-138.5 104.5q-182 -144 -393 -144q-184 0 -304 96t-120 259zM262 334q0 -102 71.5 -161.5t182.5 -59.5q165 0 297 104l-4 4l-350 385q-101 -54 -149 -114.5t-48 -157.5zM401 1001q0 -41 19.5 -83.5t41.5 -70t64 -73.5q128 60 177 112.5 t49 137.5q0 68 -43.5 116t-124.5 48t-132 -49.5t-51 -137.5z" />
<glyph unicode="'" horiz-adv-x="395" d="M123 772v518h149v-518h-149z" />
<glyph unicode="(" horiz-adv-x="630" d="M104 590q0 211 74.5 412.5t210.5 349.5h170q-151 -172 -213.5 -361t-62.5 -401t62.5 -401t213.5 -361h-170q-136 148 -210.5 349.5t-74.5 412.5z" />
<glyph unicode=")" horiz-adv-x="630" d="M72 -172q151 172 213.5 361t62.5 401t-62.5 401t-213.5 361h170q135 -148 209.5 -349.5t74.5 -412.5t-74.5 -412.5t-209.5 -349.5h-170z" />
<glyph unicode="*" horiz-adv-x="774" d="M49 1020l39 113l240 -84v260h118v-258l244 84l35 -113l-244 -78l154 -207l-98 -69l-150 204l-147 -208l-97 73l152 203z" />
<glyph unicode="+" horiz-adv-x="1306" d="M131 567v144h451v452h143v-452h451v-144h-451v-452h-143v452h-451z" />
<glyph unicode="," horiz-adv-x="487" d="M106 -174q71 0 101.5 30.5t30.5 106.5v37h-103v217h217v-254q0 -246 -246 -246v109z" />
<glyph unicode="-" horiz-adv-x="745" d="M137 446v152h471v-152h-471z" />
<glyph unicode="." horiz-adv-x="487" d="M135 0v217h217v-217h-217z" />
<glyph unicode="/" horiz-adv-x="747" d="M27 -170l524 1520h160l-523 -1520h-161z" />
<glyph unicode="0" horiz-adv-x="1298" d="M113 645q0 320 141 495t395 175t394.5 -175t140.5 -495t-140.5 -495t-394.5 -175t-395 175t-141 495zM299 645q0 -264 86 -395t264 -131t264 131t86 395t-86 395t-264 131t-264 -131t-86 -395z" />
<glyph unicode="1" horiz-adv-x="796" d="M63 975v131h93q111 0 171 17t91.5 56.5t50.5 118.5h117v-1298h-178v975h-345z" />
<glyph unicode="2" horiz-adv-x="1132" d="M100 0v102l367 314q59 50 86.5 74t74.5 67.5t69.5 69t53 65t44 71t24 70t10.5 78.5q0 116 -68.5 185t-193.5 69q-133 0 -206.5 -78t-73.5 -219q0 -63 20 -116l-174 8q-20 59 -20 121q0 198 123.5 316t330.5 118q216 0 330.5 -111t114.5 -284q0 -67 -25 -135t-59.5 -121.5 t-93.5 -115t-102.5 -100.5t-110.5 -94l-240 -200h672v-154h-953z" />
<glyph unicode="3" horiz-adv-x="1146" d="M78 365l170 53q7 -142 99.5 -220.5t238.5 -78.5q129 0 206.5 61t77.5 174q0 106 -84.5 166t-212.5 60q-24 0 -45.5 -2t-46 -6t-30.5 -5v162q87 -12 122 -12q75 0 134.5 19t101 70t41.5 130q0 107 -71 171t-201 64q-131 0 -210.5 -80t-86.5 -221l-168 54q22 175 147.5 283 t321.5 108q210 0 326 -99t116 -264q0 -120 -81 -202.5t-189 -98.5q125 -11 210 -98t85 -211q0 -163 -126.5 -265t-338.5 -102q-213 0 -348.5 104t-157.5 286z" />
<glyph unicode="4" horiz-adv-x="1224" d="M80 344v172l633 774h221v-801h231v-145h-231v-344h-172v344h-682zM231 489h531v648z" />
<glyph unicode="5" horiz-adv-x="1169" d="M88 385l176 37q5 -139 92.5 -222t237.5 -83q136 0 218.5 85t82.5 226q0 130 -80 214.5t-215 84.5q-93 0 -163.5 -40t-110.5 -103l-174 30q25 151 47 344t26 332h766q8 -80 -24 -124t-119 -44q-96 0 -490 31q-3 -67 -20.5 -225t-28.5 -205q47 62 131.5 101.5t188.5 39.5 q138 0 239.5 -60t151 -157.5t49.5 -218.5q0 -199 -134 -326t-345 -127q-213 0 -350 113t-152 297z" />
<glyph unicode="6" horiz-adv-x="1214" d="M113 621q0 152 35 278.5t102 219.5t171.5 144.5t237.5 51.5q171 0 287 -83.5t150 -230.5l-160 -51q-51 224 -279 224q-102 0 -178.5 -47t-121 -130.5t-65.5 -191.5t-18 -236q34 121 135 196t257 75q199 0 320.5 -119t121.5 -307q0 -197 -127.5 -318t-341.5 -121 q-254 0 -390 172.5t-136 473.5zM324 412q0 -131 85.5 -212t227.5 -81q138 0 219.5 80.5t81.5 212.5t-82 210t-225 78t-225 -78t-82 -210z" />
<glyph unicode="7" horiz-adv-x="1079" d="M82 1126v164h915v-125q-232 -241 -333.5 -528.5t-104.5 -636.5h-194q4 333 123 624.5t319 501.5h-725z" />
<glyph unicode="8" horiz-adv-x="1179" d="M98 342q0 120 82 204.5t195 104.5q-106 36 -168 115t-62 190q0 164 124.5 261.5t320.5 97.5t321 -97.5t125 -261.5q0 -111 -62 -190t-169 -115q113 -20 194.5 -104.5t81.5 -204.5q0 -170 -131 -268.5t-360 -98.5t-360.5 99t-131.5 268zM285 350q0 -114 79.5 -177.5 t225.5 -63.5q147 0 226 63t79 178q0 114 -78.5 173t-226.5 59q-147 0 -226 -59.5t-79 -172.5zM322 944q0 -108 73 -168.5t195 -60.5t195 60.5t73 168.5q0 117 -72.5 178.5t-195.5 61.5q-124 0 -196 -61.5t-72 -178.5z" />
<glyph unicode="9" horiz-adv-x="1214" d="M106 877q0 196 127.5 317t341.5 121q254 0 390.5 -172t136.5 -473q0 -152 -35 -278.5t-102.5 -220t-172 -145t-237.5 -51.5q-171 0 -286.5 83.5t-149.5 230.5l160 51q51 -223 278 -223q102 0 178.5 47t121 130.5t65.5 191t18 235.5q-34 -121 -134.5 -195.5t-256.5 -74.5 q-199 0 -321 119t-122 307zM276 879q0 -132 82.5 -210.5t225.5 -78.5t225 78.5t82 210.5q0 131 -85.5 211.5t-227.5 80.5q-138 0 -220 -80t-82 -212z" />
<glyph unicode=":" horiz-adv-x="487" d="M135 0v217h217v-217h-217zM135 649v217h217v-217h-217z" />
<glyph unicode=";" horiz-adv-x="487" d="M106 -174q71 0 101.5 30.5t30.5 106.5v37h-103v217h217v-254q0 -246 -246 -246v109zM135 649v217h217v-217h-217z" />
<glyph unicode="&#x3c;" horiz-adv-x="987" d="M102 543v184l799 426v-166l-668 -352l668 -352v-168z" />
<glyph unicode="=" horiz-adv-x="1333" d="M143 401v140h1047v-140h-1047zM143 731v139h1047v-139h-1047z" />
<glyph unicode="&#x3e;" horiz-adv-x="987" d="M88 115v168l666 352l-666 352v166l797 -426v-184z" />
<glyph unicode="?" horiz-adv-x="1050" d="M82 881q0 198 123.5 316t329.5 118q109 0 193.5 -30.5t136 -83.5t78 -121.5t26.5 -147.5q0 -42 -8.5 -79.5t-28 -71t-39 -60t-54 -58.5t-59.5 -52.5t-68 -54.5q-9 -7 -14 -11q-60 -48 -83 -85t-23 -95h-162q0 87 35 148t119 126q13 11 47 38t48.5 39.5t39.5 39t35.5 48.5 t20 54.5t9.5 69.5q0 108 -64 175.5t-185 67.5q-134 0 -206.5 -79.5t-72.5 -223.5q0 -48 8 -84l-176 11q-6 46 -6 86zM403 0v201h205v-201h-205z" />
<glyph unicode="@" horiz-adv-x="1597" d="M88 387q0 219 95.5 395t274 277.5t410.5 101.5q301 0 475.5 -167.5t174.5 -432.5q0 -122 -31.5 -218t-85.5 -154.5t-122 -88.5t-144 -30q-84 0 -134.5 40t-66.5 105q-38 -68 -103 -106.5t-149 -38.5q-120 0 -191 76t-71 210q0 112 44 212.5t133 167.5t204 67 q82 0 141 -36t82 -93l31 112h149l-121 -485q-17 -65 2.5 -92t71.5 -27q104 0 169 95t65 284q0 218 -139.5 353t-383.5 135q-145 0 -267.5 -49.5t-207 -137t-131.5 -211t-47 -268.5q0 -128 46 -234.5t125.5 -177t187 -109t231.5 -38.5q234 0 422 92l43 -88 q-195 -117 -467 -117q-151 0 -281 45t-227 129.5t-152 213.5t-55 288zM582 358q0 -84 33.5 -124.5t103.5 -40.5q78 0 143.5 57t91.5 164l15 49q23 101 -18.5 164t-129.5 63q-72 0 -128 -50t-83.5 -125t-27.5 -157z" />
<glyph unicode="A" horiz-adv-x="1359" d="M63 0l510 1290h201l522 -1290h-192l-148 377h-569l-145 -377h-179zM440 520h459l-227 580h-8z" />
<glyph unicode="B" horiz-adv-x="1359" d="M172 0v1290h584q230 0 339 -91t109 -253q0 -109 -79 -183.5t-197 -92.5q135 -20 224 -102.5t89 -213.5q0 -169 -119.5 -261.5t-343.5 -92.5h-606zM346 150h430q142 0 216.5 57t74.5 162q0 108 -75 167.5t-218 59.5h-428v-446zM346 733h418q264 0 264 203 q0 98 -64.5 152.5t-199.5 54.5h-418v-410z" />
<glyph unicode="C" horiz-adv-x="1415" d="M109 645q0 195 85.5 348.5t233 237.5t328.5 84q200 0 340 -90t204 -250l-149 -98q-41 132 -142 208t-253 76q-205 0 -333 -140.5t-128 -375.5q0 -234 127.5 -375t327.5 -141q339 0 413 324l160 -86q-57 -183 -204 -287.5t-369 -104.5q-133 0 -251 49.5t-204 136.5 t-136 212.5t-50 271.5z" />
<glyph unicode="D" horiz-adv-x="1452" d="M172 0v1290h479q318 0 505 -172t187 -473t-187 -473t-505 -172h-479zM352 147h279q254 0 390 130.5t136 367.5t-136 367.5t-390 130.5h-279v-996z" />
<glyph unicode="E" horiz-adv-x="1280" d="M172 0v1290h969v-151h-793v-394h602v-153h-602v-440h811v-152h-987z" />
<glyph unicode="F" horiz-adv-x="1218" d="M172 0v1290h952v-151h-774v-402h602v-153h-602v-584h-178z" />
<glyph unicode="G" horiz-adv-x="1505" d="M109 645q0 146 50.5 272t136.5 212.5t204 136t250 49.5q210 0 352.5 -87t204.5 -247l-152 -102q-36 131 -140.5 206.5t-264.5 75.5q-202 0 -328.5 -141t-126.5 -377q0 -237 129 -376.5t338 -139.5q183 0 293.5 103t128.5 272h-500v135h662v-637h-132l-26 233 q-42 -120 -165.5 -189t-281.5 -69q-180 0 -323.5 83t-226 236.5t-82.5 350.5z" />
<glyph unicode="H" horiz-adv-x="1495" d="M172 0v1290h180v-545h791v545h180v-1290h-180v592h-791v-592h-180z" />
<glyph unicode="I" horiz-adv-x="524" d="M172 0v1290h180v-1290h-180z" />
<glyph unicode="J" horiz-adv-x="1128" d="M102 496l183 43q-5 -47 -5 -89q0 -126 49 -208q66 -111 212 -111q254 0 254 320v839h180v-841q0 -222 -117.5 -348t-316.5 -126q-215 0 -335 143q-106 126 -106 322q0 27 2 56z" />
<glyph unicode="K" horiz-adv-x="1349" d="M172 0v1290h180v-676l672 676h219l-534 -532l602 -758h-224l-509 645l-226 -227v-418h-180z" />
<glyph unicode="L" horiz-adv-x="1245" d="M172 0v1290h180v-1134h797v-156h-977z" />
<glyph unicode="M" horiz-adv-x="1671" d="M172 0v1290h285l383 -999h6l366 999h287v-1290h-180v1126h-8l-428 -1126h-95l-440 1126h-8v-1126h-168z" />
<glyph unicode="N" horiz-adv-x="1429" d="M172 0v1290h199l721 -999v999h165v-1290h-149l-770 1057v-1057h-166z" />
<glyph unicode="O" horiz-adv-x="1525" d="M109 645q0 195 85 348.5t233.5 237.5t334.5 84q187 0 336 -84t234 -237.5t85 -348.5t-85 -348.5t-234 -237.5t-336 -84q-186 0 -334.5 84t-233.5 237.5t-85 348.5zM295 645q0 -235 128 -374.5t339 -139.5t340 139.5t129 374.5t-129 374.5t-340 139.5t-339 -139.5 t-128 -374.5z" />
<glyph unicode="P" horiz-adv-x="1320" d="M172 0v1290h561q237 0 369.5 -102.5t132.5 -284.5t-132.5 -284.5t-369.5 -102.5h-383v-516h-178zM350 666h379q330 0 330 237q0 238 -330 238h-379v-475z" />
<glyph unicode="Q" horiz-adv-x="1525" d="M109 645q0 195 85 348.5t233.5 237.5t334.5 84q187 0 336 -84t234 -237.5t85 -348.5q0 -272 -158.5 -453.5t-410.5 -211.5q-2 -17 -2 -32q0 -60 28 -100q35 -49 105 -49q105 0 174 92l41 -135q-38 -45 -101 -71.5t-130 -26.5q-127 0 -205 88q-66 76 -66 194q0 19 2 40 q-258 24 -421.5 206t-163.5 459zM295 645q0 -235 128 -374.5t339 -139.5t340 139.5t129 374.5t-129 374.5t-340 139.5t-339 -139.5t-128 -374.5z" />
<glyph unicode="R" horiz-adv-x="1359" d="M172 0v1290h571q238 0 357 -95t119 -263q0 -119 -92.5 -202.5t-223.5 -92.5q108 -18 170 -96.5t80 -198.5q25 -155 57.5 -225.5t85.5 -102.5v-14h-215q-64 27 -86 260q-13 158 -70.5 231.5t-189.5 73.5h-385v-565h-178zM350 709h367q163 0 241 53.5t78 163.5 q0 107 -74 161t-233 54h-379v-432z" />
<glyph unicode="S" horiz-adv-x="1253" d="M59 270l117 136q62 -135 191.5 -209t279.5 -74q148 0 243 57.5t95 165.5q0 83 -59 126.5t-181 70.5l-282 61q-152 32 -244 114t-92 224q0 165 130 269t339 104q181 0 315 -69.5t205 -184.5l-123 -125q-49 104 -154 167.5t-243 63.5q-133 0 -213 -57.5t-80 -159.5 q0 -44 17 -76.5t52.5 -54t75 -35t99.5 -26.5l250 -53q84 -18 146.5 -44t114 -67t78.5 -102.5t27 -141.5q0 -115 -68.5 -201t-185 -130t-262.5 -44q-195 0 -357 79.5t-231 215.5z" />
<glyph unicode="T" horiz-adv-x="1398" d="M82 1135v155h1235v-155h-531v-1135h-180v1135h-524z" />
<glyph unicode="U" horiz-adv-x="1396" d="M154 530v760h180v-747q0 -199 96.5 -305.5t267.5 -106.5t269 107t98 305v747h176v-760q0 -137 -44 -245t-119.5 -174.5t-172 -101t-207.5 -34.5t-208 34.5t-173 101t-119.5 174.5t-43.5 245z" />
<glyph unicode="V" horiz-adv-x="1337" d="M63 1290h195l414 -1087h8l407 1087h187l-506 -1290h-199z" />
<glyph unicode="W" horiz-adv-x="1841" d="M74 1290h176l295 -1065h8l285 1065h172l288 -1069h9l290 1069h170l-354 -1290h-211l-276 1030h-8l-279 -1030h-209z" />
<glyph unicode="X" horiz-adv-x="1372" d="M68 0l516 670l-473 620h213l364 -487l369 487h203l-472 -612l517 -678h-211l-412 545l-412 -545h-202z" />
<glyph unicode="Y" horiz-adv-x="1280" d="M66 1290h208l373 -579l373 579h194l-487 -743v-547h-174v547z" />
<glyph unicode="Z" horiz-adv-x="1302" d="M111 0v133l835 1002h-827v155h1052v-139l-835 -995h858v-156h-1083z" />
<glyph unicode="[" horiz-adv-x="657" d="M156 -172v1524h393v-129h-234v-1266h234v-129h-393z" />
<glyph unicode="\" horiz-adv-x="747" d="M37 1350h160l524 -1520h-162z" />
<glyph unicode="]" horiz-adv-x="657" d="M109 -43h233v1266h-233v129h393v-1524h-393v129z" />
<glyph unicode="^" horiz-adv-x="811" d="M41 877l285 413h159l285 -413h-168l-196 286l-197 -286h-168z" />
<glyph unicode="_" horiz-adv-x="821" d="M61 -113h699v-133h-699v133z" />
<glyph unicode="`" horiz-adv-x="1064" d="M373 1364h194l123 -311h-115z" />
<glyph unicode="a" d="M90 242q0 114 89 178t261 104l267 62v71q0 53 -40 90t-130 37q-100 0 -169 -48t-94 -120l-151 56q50 111 158 179.5t260 68.5q156 0 241.5 -68t85.5 -201v-440q0 -96 80 -96q47 0 99 32l10 -127q-66 -40 -142 -40q-87 0 -143.5 56.5t-62.5 141.5q-33 -87 -123.5 -141.5 t-210.5 -54.5q-127 0 -206 70.5t-79 189.5zM260 250q0 -61 40.5 -100t115.5 -39q118 0 204.5 75t86.5 174v117l-226 -55q-114 -28 -167.5 -64.5t-53.5 -107.5z" />
<glyph unicode="b" horiz-adv-x="1171" d="M162 0v1290h170v-590q36 97 118.5 158.5t202.5 61.5q194 0 309 -135t115 -339q0 -132 -50 -238t-148 -169.5t-228 -63.5q-120 0 -204.5 59.5t-118.5 155.5l-41 -190h-125zM326 428q0 -144 81.5 -233t200.5 -89q137 0 215 92.5t78 247.5t-78 247.5t-215 92.5 q-119 0 -200.5 -88t-81.5 -231v-39z" />
<glyph unicode="c" horiz-adv-x="1032" d="M80 446q0 208 131.5 341t337.5 133q144 0 242 -66t143 -176l-137 -82q-30 83 -92 133.5t-154 50.5q-133 0 -214 -90t-81 -244q0 -152 80.5 -241.5t210.5 -89.5q100 0 165 53.5t93 144.5l139 -69q-39 -118 -142 -193.5t-259 -75.5q-203 0 -333 131.5t-130 339.5z" />
<glyph unicode="d" horiz-adv-x="1171" d="M94 446q0 204 115 339t309 135q120 0 203 -61.5t119 -158.5v590h170v-1290h-170v193q-36 -97 -119 -157.5t-203 -60.5q-194 0 -309 134t-115 337zM270 446q0 -155 78 -247.5t213 -92.5q120 0 202.5 89t82.5 233v39q0 143 -82.5 231t-202.5 88q-135 0 -213 -92.5 t-78 -247.5z" />
<glyph unicode="e" d="M94 434q0 211 130.5 348.5t326.5 137.5q104 0 187.5 -36t135.5 -98t79.5 -140.5t27.5 -166.5v-53h-719q0 -142 87 -229.5t214 -87.5q111 0 179 47.5t104 144.5l131 -78q-55 -120 -160.5 -184t-257.5 -64q-203 0 -334 127.5t-131 331.5zM268 537h551q-6 105 -76.5 177 t-191.5 72q-115 0 -191 -72t-92 -177z" />
<glyph unicode="f" horiz-adv-x="688" d="M45 766v129h156v78q0 157 98 249.5t254 92.5q116 0 191.5 -48t105.5 -134l-111 -78q-41 131 -178 131q-89 0 -140.5 -56t-51.5 -163v-72h252v-129h-252v-766h-168v766h-156z" />
<glyph unicode="g" horiz-adv-x="1093" d="M61 -117q0 70 57 123t142 62q-63 19 -97 59.5t-34 97.5q0 113 133 168q-106 79 -106 223q0 137 102 220.5t266 83.5q153 0 258 -78q37 71 110 114q56 34 124 34q20 0 41 -3l18 -149q-25 5 -51 5q-39 0 -78 -11q-67 -18 -100 -58q47 -68 47 -158q0 -138 -103 -220.5 t-266 -82.5q-109 0 -190 37q-64 -33 -64 -92q0 -76 117 -76h340q145 0 230 -65.5t85 -173.5q0 -80 -44 -142t-118.5 -98t-163 -54t-186.5 -18q-95 0 -178 15.5t-149 45t-104 79t-38 112.5zM221 -94q0 -81 86.5 -121.5t222.5 -40.5q156 0 253.5 45t97.5 133q0 61 -53 89 t-142 28h-280q-76 0 -130.5 -35.5t-54.5 -97.5zM322 616q0 -86 57.5 -139t144.5 -53q86 0 143.5 53t57.5 139q0 85 -57.5 138t-143.5 53t-144 -53t-58 -138z" />
<glyph unicode="h" horiz-adv-x="1142" d="M162 0v1290h170v-577q32 88 119.5 147.5t201.5 59.5q169 0 252.5 -99.5t83.5 -265.5v-555h-170v532q0 114 -58 179t-167 65q-114 0 -188 -81t-74 -212v-483h-170z" />
<glyph unicode="i" horiz-adv-x="493" d="M150 1102v188h194v-188h-194zM162 0v895h170v-895h-170z" />
<glyph unicode="j" horiz-adv-x="493" d="M-106 -303l43 106q71 -47 141 -47q84 0 84 99v1040h170v-1018q0 -120 -59.5 -183t-178.5 -63q-113 0 -200 66zM150 1102v188h194v-188h-194z" />
<glyph unicode="k" horiz-adv-x="1079" d="M162 0v1290h170v-813l485 418h209l-420 -350l438 -545h-198l-361 444l-153 -131v-313h-170z" />
<glyph unicode="l" horiz-adv-x="493" d="M162 0v1290h170v-1290h-170z" />
<glyph unicode="m" horiz-adv-x="1757" d="M162 0v895h170v-182q30 88 115.5 147.5t195.5 59.5q120 0 195 -57.5t106 -160.5q31 91 121 154.5t215 63.5q162 0 243 -100t81 -265v-555h-170v532q0 114 -55.5 179t-159.5 65q-109 0 -179.5 -81t-70.5 -212v-483h-170v532q0 114 -56 179t-159 65q-109 0 -180.5 -81.5 t-71.5 -211.5v-483h-170z" />
<glyph unicode="n" horiz-adv-x="1142" d="M162 0v895h170v-182q32 88 119.5 147.5t201.5 59.5q169 0 252.5 -99.5t83.5 -265.5v-555h-170v532q0 114 -58 179t-167 65q-114 0 -188 -81t-74 -212v-483h-170z" />
<glyph unicode="o" horiz-adv-x="1132" d="M94 446q0 137 63 246t170.5 168.5t237.5 59.5q131 0 239 -59.5t171 -168.5t63 -246q0 -205 -136.5 -338t-336.5 -133q-130 0 -237.5 59.5t-170.5 168t-63 243.5zM270 446q0 -151 80.5 -243t214.5 -92q136 0 216.5 91.5t80.5 243.5q0 153 -80.5 245.5t-216.5 92.5 q-134 0 -214.5 -92.5t-80.5 -245.5z" />
<glyph unicode="p" horiz-adv-x="1171" d="M162 -344v1239h170v-195q36 97 118.5 158.5t202.5 61.5q194 0 309 -135t115 -339q0 -203 -115 -337t-309 -134q-120 0 -202.5 60.5t-118.5 157.5v-537h-170zM326 428q0 -144 81.5 -233t200.5 -89q137 0 215 92.5t78 247.5t-78 247.5t-215 92.5q-119 0 -200.5 -88 t-81.5 -231v-39z" />
<glyph unicode="q" horiz-adv-x="1171" d="M94 446q0 204 115 339t309 135q120 0 203 -61.5t119 -158.5v195h170v-1239h-170v537q-36 -97 -119 -157.5t-203 -60.5q-194 0 -309 134t-115 337zM270 446q0 -155 78 -247.5t215 -92.5q119 0 201 89t82 233v39q0 143 -82 231t-201 88q-137 0 -215 -92.5t-78 -247.5z" />
<glyph unicode="r" horiz-adv-x="964" d="M158 0v895h170v-215q33 100 110 170t191 70q125 0 195.5 -82t70.5 -209q0 -39 -8 -60l-146 -45q9 36 9 62q0 86 -40 135t-124 49q-106 0 -182 -92.5t-76 -222.5v-455h-170z" />
<glyph unicode="s" horiz-adv-x="997" d="M82 180l98 113q46 -88 138.5 -137.5t197.5 -49.5q101 0 158 32.5t57 97.5q0 47 -34.5 74.5t-106.5 45.5l-201 47q-121 29 -188.5 87.5t-67.5 164.5q0 117 98.5 191t247.5 74q132 0 230.5 -49t150.5 -136l-106 -94q-38 69 -111 107t-164 38q-80 0 -133 -31.5t-53 -84.5 q0 -48 33.5 -76.5t105.5 -46.5l227 -55q234 -56 234 -244q0 -124 -105 -198.5t-270 -74.5q-142 0 -261.5 55.5t-174.5 149.5z" />
<glyph unicode="t" horiz-adv-x="899" d="M47 766v129h186v248l168 51v-299h381v-129h-381v-471q0 -87 44.5 -131.5t109.5 -44.5q74 0 117 38.5t86 123.5l86 -119q-35 -77 -116 -132t-185 -55q-133 0 -221.5 79.5t-88.5 228.5v483h-186z" />
<glyph unicode="u" horiz-adv-x="1138" d="M154 338v557h170v-533q0 -116 56 -180.5t163 -64.5q115 0 189.5 81.5t74.5 211.5v485h170v-895h-170v182q-34 -89 -121 -148t-201 -59q-169 0 -250 99t-81 264z" />
<glyph unicode="v" horiz-adv-x="1030" d="M49 895h178l291 -694h8l289 694h168l-389 -895h-158z" />
<glyph unicode="w" horiz-adv-x="1454" d="M49 895h168l215 -680h8l217 680h146l221 -680h8l213 680h160l-289 -895h-164l-221 670h-8l-219 -670h-164z" />
<glyph unicode="x" horiz-adv-x="1034" d="M53 0l365 461l-336 434h197l239 -309l236 309h182l-330 -426l373 -469h-199l-272 348l-270 -348h-185z" />
<glyph unicode="y" horiz-adv-x="1019" d="M29 -162l137 72q0 -141 108 -141q46 0 78 36.5t64 116.5l35 80l-404 893h186l299 -690h9l264 690h166l-383 -954q-31 -73 -58 -122.5t-65.5 -95.5t-88.5 -69t-112 -23q-103 0 -163.5 57.5t-71.5 149.5z" />
<glyph unicode="z" horiz-adv-x="976" d="M109 0v123l536 635h-522v137h737v-123l-547 -635h559v-137h-763z" />
<glyph unicode="{" horiz-adv-x="712" d="M76 524v131h51q61 0 78.5 30.5t17.5 119.5v340q0 103 45 155t142 52h194v-129h-155q-64 0 -64 -76v-348q0 -92 -32 -143.5t-111 -65.5q79 -14 111 -66t32 -145v-346q0 -76 64 -76h155v-129h-194q-97 0 -142 52t-45 155v340q0 89 -17.5 119t-78.5 30h-51z" />
<glyph unicode="|" horiz-adv-x="497" d="M172 -170v1520h154v-1520h-154z" />
<glyph unicode="}" horiz-adv-x="712" d="M109 -43h155q64 0 64 76v346q0 93 32.5 145t110.5 66q-78 14 -110.5 66t-32.5 143v348q0 76 -64 76h-155v129h196q96 0 140 -52t44 -155v-340q0 -88 18 -119t79 -31h51v-131h-51q-61 0 -79 -30.5t-18 -118.5v-340q0 -103 -44 -155t-140 -52h-196v129z" />
<glyph unicode="~" horiz-adv-x="843" d="M117 424q0 118 43.5 185t128.5 67q38 0 76.5 -19t64 -41.5t57.5 -41.5t58 -19q41 0 58 28t20 87h104q0 -118 -43.5 -185t-130.5 -67q-37 0 -75 19t-63.5 41.5t-57.5 41.5t-58 19q-41 0 -58 -28t-20 -87h-104z" />
<glyph unicode="&#xa1;" horiz-adv-x="473" d="M135 856v205h205v-205h-205zM145 164l52 518h82l49 -518v-393h-183v393z" />
<glyph unicode="&#xa2;" horiz-adv-x="1079" d="M94 446q0 192 116.5 320.5t307.5 148.5v195h113v-192q128 -11 216 -76t132 -164l-117 -80q-29 72 -89 121t-142 59v-661q90 13 152 65t89 131l119 -69q-42 -108 -132 -181t-228 -86v-178h-113v178q-190 19 -307 147t-117 322zM254 449q0 -139 71 -227t193 -105v661 q-123 -21 -193.5 -107t-70.5 -222z" />
<glyph unicode="&#xa3;" horiz-adv-x="1241" d="M45 182q0 90 66 148.5t170 58.5q75 0 151 -37q-2 105 -67 238h-226v115h168q-51 111 -51 217q0 177 114 285t308 108q190 0 305.5 -97t132.5 -272l-162 -49q-4 135 -75.5 206t-196.5 71t-189.5 -71.5t-64.5 -187.5q0 -87 49 -210h318v-115h-271q54 -134 54 -234 q0 -40 -7 -94q57 -43 94 -67t95.5 -46t116.5 -22q90 0 128.5 64t38.5 182l148 -19q6 -179 -73.5 -279t-225.5 -100q-55 0 -104.5 13.5t-97.5 42.5t-77 50.5t-77 61.5q-79 -168 -263 -168q-99 0 -164 55t-65 152zM166 182q0 -45 31.5 -73.5t81.5 -28.5q118 0 145 153 q-75 52 -143 52q-55 0 -85 -26.5t-30 -76.5z" />
<glyph unicode="&#xa5;" horiz-adv-x="1259" d="M57 1290h195l387 -602l375 602h188l-407 -622h270v-113h-344l-6 -8v-146h350v-112h-350v-289h-170v289h-350v112h350v146l-6 8h-344v113h270z" />
<glyph unicode="&#xa7;" horiz-adv-x="962" d="M63 629q0 69 42 130.5t108 98.5q-80 70 -80 180q0 122 98.5 199.5t247.5 77.5q131 0 233 -50.5t152 -138.5l-112 -92q-36 70 -108.5 110t-158.5 40q-88 0 -142 -40t-54 -102q0 -44 22.5 -73.5t83.5 -55.5l260 -118q121 -53 181.5 -123.5t60.5 -182.5q0 -70 -40.5 -130 t-106.5 -97q77 -70 77 -180q0 -123 -98 -201t-246 -78q-132 0 -233.5 50.5t-151.5 138.5l113 92q36 -70 107.5 -110t156.5 -40q88 0 142.5 40t54.5 102q0 42 -22.5 72.5t-82.5 58.5l-262 117q-120 54 -181 123.5t-61 181.5zM215 637q0 -62 37.5 -101.5t116.5 -76.5l252 -119 l4 -2q120 43 120 147q0 61 -36.5 100t-116.5 77l-252 116l-6 2q-119 -44 -119 -143z" />
<glyph unicode="&#xa8;" horiz-adv-x="1064" d="M291 1090v186h162v-186h-162zM610 1090v186h164v-186h-164z" />
<glyph unicode="&#xa9;" horiz-adv-x="1523" d="M92 645q0 190 90.5 344.5t243.5 240t336 85.5t336 -85.5t243.5 -240t90.5 -344.5t-90.5 -344.5t-243.5 -240t-336 -85.5t-336 85.5t-243.5 240t-90.5 344.5zM188 645q0 -164 77 -296t208.5 -205.5t288.5 -73.5q156 0 287 73.5t208.5 206t77.5 295.5t-77.5 296 t-208.5 206.5t-287 73.5q-157 0 -288.5 -73.5t-208.5 -206t-77 -296.5zM373 643q0 179 111.5 293.5t277.5 114.5q136 0 225.5 -63t124.5 -173l-119 -53q-21 76 -79 121t-148 45q-110 0 -177 -77t-67 -208q0 -129 67 -205t177 -76q97 0 156 51t75 136l121 -57 q-33 -120 -123.5 -188t-232.5 -68q-166 0 -277.5 114t-111.5 293z" />
<glyph unicode="&#xaa;" horiz-adv-x="817" d="M88 846q0 42 17 73.5t50.5 53.5t72.5 36t94 27l188 47v39q0 35 -26.5 57.5t-80.5 22.5q-69 0 -112.5 -32.5t-52.5 -84.5l-127 45q31 82 108.5 132.5t188.5 50.5q114 0 176.5 -48.5t62.5 -148.5v-282q0 -60 49 -60q39 0 68 25l10 -99q-54 -32 -112 -32q-62 0 -103 37 t-47 94q-24 -58 -84.5 -93.5t-140.5 -35.5q-89 0 -144 47.5t-55 128.5zM125 377v108h582v-108h-582zM233 858q0 -38 25 -61t70 -23q73 0 127.5 46.5t54.5 111.5v69l-148 -36q-67 -17 -98 -39t-31 -68z" />
<glyph unicode="&#xab;" horiz-adv-x="952" d="M115 377v141l329 285v-176l-204 -181l204 -178v-176zM508 377v141l330 285v-176l-205 -181l205 -178v-176z" />
<glyph unicode="&#xad;" horiz-adv-x="745" d="M137 446v152h471v-152h-471z" />
<glyph unicode="&#xae;" horiz-adv-x="1042" d="M82 872q0 191 127 317t311 126t312.5 -126t128.5 -317q0 -189 -128.5 -314.5t-312.5 -125.5t-311 125t-127 315zM162 872q0 -158 103 -261t255 -103t255.5 103t103.5 261q0 160 -103.5 264.5t-255.5 104.5t-255 -104.5t-103 -264.5zM338 647v461h215q86 0 130 -36 t44 -103q0 -47 -38.5 -78.5t-88.5 -34.5q93 -16 105 -94q12 -86 38 -115h-108q-16 21 -27 90q-5 41 -21 60.5t-52 19.5h-97v-170h-100zM438 897h94q47 0 70 15t23 51q0 65 -93 65h-94v-131z" />
<glyph unicode="&#xaf;" horiz-adv-x="1064" d="M268 1087v121h535v-121h-535z" />
<glyph unicode="&#xb0;" horiz-adv-x="733" d="M82 1036q0 117 82.5 198t202.5 81q121 0 202.5 -80.5t81.5 -198.5q0 -119 -81.5 -199.5t-202.5 -80.5q-120 0 -202.5 81t-82.5 199zM207 1036q0 -70 44.5 -118t115.5 -48q72 0 115.5 47.5t43.5 118.5q0 70 -43.5 117t-115.5 47q-71 0 -115.5 -47.5t-44.5 -116.5z" />
<glyph unicode="&#xb1;" horiz-adv-x="1306" d="M129 80v143h1049v-143h-1049zM129 717v141h453v383h141v-383h455v-141h-455v-383h-141v383h-453z" />
<glyph unicode="&#xb2;" horiz-adv-x="800" d="M104 489v93l228 188q60 50 88.5 76t62.5 63.5t47 70.5t13 71q0 62 -37.5 99.5t-104.5 37.5q-73 0 -113 -44t-40 -120q0 -38 12 -72l-141 6q-10 42 -10 76q0 124 80 199.5t212 75.5q137 0 213 -70.5t76 -179.5q0 -51 -18 -98t-55 -91t-71 -75t-87 -74l-135 -111h387v-121 h-607z" />
<glyph unicode="&#xb3;" horiz-adv-x="808" d="M84 719l137 35q6 -77 57 -120.5t130 -43.5q68 0 110.5 32.5t42.5 92.5q0 59 -45.5 91t-114.5 32q-8 0 -71 -7v119q48 -6 71 -6q64 0 107 29t43 92q0 58 -39 93.5t-109 35.5q-72 0 -115 -45.5t-46 -122.5l-138 31q14 112 95 182t209 70q134 0 209 -63t75 -167 q0 -73 -51 -123.5t-119 -60.5q79 -8 132 -61t53 -129q0 -104 -81.5 -167t-217.5 -63q-137 0 -224 65t-100 179z" />
<glyph unicode="&#xb4;" horiz-adv-x="1064" d="M373 1053l123 311h194l-203 -311h-114z" />
<glyph unicode="&#xb6;" horiz-adv-x="1165" d="M70 926q0 170 120 267t338 97h465v-1466h-135v1335h-199v-1335h-131v737q-218 0 -338 97.5t-120 267.5z" />
<glyph unicode="&#xb7;" horiz-adv-x="491" d="M137 420v217h217v-217h-217z" />
<glyph unicode="&#xb8;" horiz-adv-x="1212" d="M377 -338l35 74q78 -74 188 -74q47 0 76 19.5t29 54.5q0 37 -30.5 56.5t-72 18t-76.5 -19.5l-47 29l125 203h82l-88 -144q83 17 156 -19t73 -116q0 -85 -63.5 -127.5t-157.5 -42.5q-70 0 -131 26t-98 62z" />
<glyph unicode="&#xb9;" horiz-adv-x="608" d="M86 1071v105h57q96 0 135 25.5t58 94.5h102v-807h-143v582h-209z" />
<glyph unicode="&#xba;" horiz-adv-x="845" d="M92 991q0 140 95.5 232t234.5 92q141 0 236.5 -92t95.5 -232q0 -143 -95 -233t-237 -90q-140 0 -235 90t-95 233zM133 377v108h580v-108h-580zM242 991q0 -97 48.5 -155t131.5 -58q84 0 133 58t49 155q0 96 -49 153.5t-133 57.5q-83 0 -131.5 -57.5t-48.5 -153.5z" />
<glyph unicode="&#xbb;" horiz-adv-x="952" d="M115 92v176l204 178l-204 181v176l329 -285v-141zM508 92v176l205 178l-205 181v176l330 -285v-141z" />
<glyph unicode="&#xbc;" horiz-adv-x="1763" d="M86 1071v105h57q96 0 135 25.5t58 94.5h102v-807h-143v582h-209zM328 0l833 1290h139l-831 -1290h-141zM979 201v131l389 471h172v-490h137v-112h-137v-201h-133v201h-428zM1102 313h305v371z" />
<glyph unicode="&#xbd;" horiz-adv-x="1767" d="M86 1071v105h57q96 0 135 25.5t58 94.5h102v-807h-143v582h-209zM328 0l833 1290h139l-831 -1290h-141zM1098 0v92l227 189q49 41 72 61t56 52.5t47 54.5t25 52t11 60q0 63 -36.5 100t-104.5 37q-73 0 -113.5 -43t-40.5 -120q0 -37 12 -72l-139 4q-12 41 -12 76 q0 126 80.5 201t212.5 75q137 0 212.5 -70.5t75.5 -179.5q0 -51 -18 -98t-55 -91t-71 -75t-87 -74l-135 -110h385v-121h-604z" />
<glyph unicode="&#xbe;" horiz-adv-x="1912" d="M84 719l137 35q6 -77 57 -120.5t130 -43.5q68 0 110.5 32.5t42.5 92.5q0 59 -45.5 91t-114.5 32q-8 0 -71 -7v119q48 -6 71 -6q64 0 107 29t43 92q0 58 -39 93.5t-109 35.5q-72 0 -115 -45.5t-46 -122.5l-138 31q14 112 95 182t209 70q134 0 209 -63t75 -167 q0 -73 -51 -123.5t-119 -60.5q79 -8 132 -61t53 -129q0 -104 -81.5 -167t-217.5 -63q-137 0 -224 65t-100 179zM500 0l833 1290h140l-832 -1290h-141zM1130 201v131l390 471h172v-490h137v-112h-137v-201h-133v201h-429zM1253 313h306v371z" />
<glyph unicode="&#xbf;" horiz-adv-x="1050" d="M82 129q0 62 19 114.5t59.5 99.5t78.5 80.5t101 83.5l12 9q60 48 83.5 85.5t23.5 94.5h162q0 -87 -35 -148t-119 -126q-13 -11 -47 -38t-49 -39.5t-39.5 -39t-35.5 -48.5t-20.5 -54.5t-9.5 -69.5q0 -108 64.5 -176t185.5 -68q134 0 206.5 80t72.5 224q0 43 -9 83l177 -10 q6 -46 6 -86q0 -198 -123.5 -316t-329.5 -118q-109 0 -193.5 30.5t-136 83.5t-78 121.5t-26.5 147.5zM442 860v201h205v-201h-205z" />
<glyph unicode="&#xc0;" horiz-adv-x="1359" d="M63 0l510 1290h201l522 -1290h-192l-148 377h-569l-145 -377h-179zM430 1700h207l111 -258h-119zM440 520h459l-227 580h-8z" />
<glyph unicode="&#xc1;" horiz-adv-x="1359" d="M63 0l510 1290h201l522 -1290h-192l-148 377h-569l-145 -377h-179zM440 520h459l-227 580h-8zM604 1442l111 258h207l-199 -258h-119z" />
<glyph unicode="&#xc2;" horiz-adv-x="1359" d="M63 0l510 1290h201l522 -1290h-192l-148 377h-569l-145 -377h-179zM403 1442l170 258h197l168 -258h-123l-143 155l-144 -155h-125zM440 520h459l-227 580h-8z" />
<glyph unicode="&#xc3;" horiz-adv-x="1359" d="M63 0l510 1290h201l522 -1290h-192l-148 377h-569l-145 -377h-179zM362 1440q0 113 45 178t130 65q47 0 95.5 -30t90.5 -60t74 -30q40 0 56 27t19 87h107q0 -114 -44.5 -178.5t-129.5 -64.5q-37 0 -76 19t-66 41t-59.5 41t-58.5 19q-40 0 -56.5 -28t-19.5 -86h-107z M440 520h459l-227 580h-8z" />
<glyph unicode="&#xc4;" horiz-adv-x="1359" d="M63 0l510 1290h201l522 -1290h-192l-148 377h-569l-145 -377h-179zM430 1450v186h162v-186h-162zM440 520h459l-227 580h-8zM750 1450v186h163v-186h-163z" />
<glyph unicode="&#xc5;" horiz-adv-x="1359" d="M63 0l510 1290h201l522 -1290h-192l-148 377h-569l-145 -377h-179zM440 520h459l-227 580h-8zM469 1593q0 83 55.5 137t145.5 54q88 0 144 -54t56 -137q0 -84 -55.5 -138t-144.5 -54q-90 0 -145.5 54t-55.5 138zM567 1593q0 -47 26.5 -75.5t76.5 -28.5t76 28.5t26 75.5 q0 46 -26.5 74.5t-75.5 28.5t-76 -28.5t-27 -74.5z" />
<glyph unicode="&#xc6;" horiz-adv-x="2115" d="M63 0l850 1290h1063v-151h-794v-394h604v-153h-604v-440h813v-152h-987v377h-508l-246 -377h-191zM592 520h416v637z" />
<glyph unicode="&#xc7;" horiz-adv-x="1415" d="M109 645q0 195 85.5 348.5t233 237.5t328.5 84q200 0 340 -90t204 -250l-149 -98q-41 132 -142 208t-253 76q-205 0 -333 -140.5t-128 -375.5q0 -234 127.5 -375t327.5 -141q339 0 413 324l160 -86q-56 -180 -199.5 -284.5t-359.5 -107.5l-59 -96q83 17 156 -19t73 -116 q0 -85 -63.5 -127.5t-157.5 -42.5q-70 0 -131.5 26t-98.5 62l35 74q78 -74 189 -74q47 0 75.5 19.5t28.5 54.5q0 37 -30.5 56.5t-71.5 18t-76 -19.5l-47 29l98 160q-250 24 -412.5 207t-162.5 458z" />
<glyph unicode="&#xc8;" horiz-adv-x="1280" d="M172 0v1290h969v-151h-793v-394h602v-153h-602v-440h811v-152h-987zM410 1700h206l111 -258h-119z" />
<glyph unicode="&#xc9;" horiz-adv-x="1280" d="M172 0v1290h969v-151h-793v-394h602v-153h-602v-440h811v-152h-987zM584 1442l110 258h207l-199 -258h-118z" />
<glyph unicode="&#xca;" horiz-adv-x="1280" d="M172 0v1290h969v-151h-793v-394h602v-153h-602v-440h811v-152h-987zM381 1442l170 258h197l167 -258h-122l-144 155l-143 -155h-125z" />
<glyph unicode="&#xcb;" horiz-adv-x="1280" d="M172 0v1290h969v-151h-793v-394h602v-153h-602v-440h811v-152h-987zM408 1450v186h161v-186h-161zM727 1450v186h164v-186h-164z" />
<glyph unicode="&#xcc;" horiz-adv-x="524" d="M20 1700h207l111 -258h-119zM172 0v1290h180v-1290h-180z" />
<glyph unicode="&#xcd;" horiz-adv-x="524" d="M172 0v1290h180v-1290h-180zM193 1442l110 258h207l-199 -258h-118z" />
<glyph unicode="&#xce;" horiz-adv-x="524" d="M-8 1442l170 258h196l168 -258h-123l-143 155l-143 -155h-125zM172 0v1290h180v-1290h-180z" />
<glyph unicode="&#xcf;" horiz-adv-x="524" d="M18 1450v186h162v-186h-162zM172 0v1290h180v-1290h-180zM338 1450v186h164v-186h-164z" />
<glyph unicode="&#xd0;" horiz-adv-x="1484" d="M49 602v143h156v545h479q318 0 505 -172t187 -473t-187 -473t-505 -172h-479v602h-156zM385 147h279q254 0 390 130.5t136 367.5t-136 367.5t-390 130.5h-279v-398h313v-143h-313v-455z" />
<glyph unicode="&#xd1;" horiz-adv-x="1429" d="M172 0v1290h199l721 -999v999h165v-1290h-149l-770 1057v-1057h-166zM410 1440q0 113 44.5 178t129.5 65q47 0 95.5 -30t90.5 -60t74 -30q41 0 57 27t19 87h106q0 -114 -44.5 -178.5t-129.5 -64.5q-37 0 -76 19t-66 41t-59.5 41t-58.5 19q-40 0 -56.5 -28t-19.5 -86h-106 z" />
<glyph unicode="&#xd2;" horiz-adv-x="1525" d="M109 645q0 195 85 348.5t233.5 237.5t334.5 84q187 0 336 -84t234 -237.5t85 -348.5t-85 -348.5t-234 -237.5t-336 -84q-186 0 -334.5 84t-233.5 237.5t-85 348.5zM295 645q0 -235 128 -374.5t339 -139.5t340 139.5t129 374.5t-129 374.5t-340 139.5t-339 -139.5 t-128 -374.5zM522 1700h207l111 -258h-119z" />
<glyph unicode="&#xd3;" horiz-adv-x="1525" d="M109 645q0 195 85 348.5t233.5 237.5t334.5 84q187 0 336 -84t234 -237.5t85 -348.5t-85 -348.5t-234 -237.5t-336 -84q-186 0 -334.5 84t-233.5 237.5t-85 348.5zM295 645q0 -235 128 -374.5t339 -139.5t340 139.5t129 374.5t-129 374.5t-340 139.5t-339 -139.5 t-128 -374.5zM696 1442l111 258h207l-199 -258h-119z" />
<glyph unicode="&#xd4;" horiz-adv-x="1525" d="M109 645q0 195 85 348.5t233.5 237.5t334.5 84q187 0 336 -84t234 -237.5t85 -348.5t-85 -348.5t-234 -237.5t-336 -84q-186 0 -334.5 84t-233.5 237.5t-85 348.5zM295 645q0 -235 128 -374.5t339 -139.5t340 139.5t129 374.5t-129 374.5t-340 139.5t-339 -139.5 t-128 -374.5zM496 1442l170 258h196l168 -258h-123l-143 155l-143 -155h-125z" />
<glyph unicode="&#xd5;" horiz-adv-x="1525" d="M109 645q0 195 85 348.5t233.5 237.5t334.5 84q187 0 336 -84t234 -237.5t85 -348.5t-85 -348.5t-234 -237.5t-336 -84q-186 0 -334.5 84t-233.5 237.5t-85 348.5zM295 645q0 -235 128 -374.5t339 -139.5t340 139.5t129 374.5t-129 374.5t-340 139.5t-339 -139.5 t-128 -374.5zM455 1440q0 113 44.5 178t129.5 65q47 0 95.5 -30t90.5 -60t74 -30q41 0 57 27t19 87h106q0 -114 -44.5 -178.5t-129.5 -64.5q-37 0 -76 19t-66 41t-59.5 41t-58.5 19q-40 0 -56.5 -28t-19.5 -86h-106z" />
<glyph unicode="&#xd6;" horiz-adv-x="1525" d="M109 645q0 195 85 348.5t233.5 237.5t334.5 84q187 0 336 -84t234 -237.5t85 -348.5t-85 -348.5t-234 -237.5t-336 -84q-186 0 -334.5 84t-233.5 237.5t-85 348.5zM295 645q0 -235 128 -374.5t339 -139.5t340 139.5t129 374.5t-129 374.5t-340 139.5t-339 -139.5 t-128 -374.5zM522 1450v186h162v-186h-162zM842 1450v186h164v-186h-164z" />
<glyph unicode="&#xd7;" horiz-adv-x="1122" d="M131 301l332 330l-332 332l100 100l328 -336l328 336l100 -100l-330 -332l330 -330l-100 -100l-328 334l-328 -334z" />
<glyph unicode="&#xd8;" horiz-adv-x="1525" d="M109 645q0 195 85 348.5t233.5 237.5t334.5 84q245 0 416 -139l125 137l94 -72l-133 -147q153 -183 153 -449q0 -195 -85 -348.5t-234 -237.5t-336 -84q-231 0 -400 127l-139 -155l-94 71l147 162q-167 184 -167 465zM295 645q0 -202 98 -336l674 744q-121 106 -305 106 q-211 0 -339 -139.5t-128 -374.5zM475 223q119 -92 287 -92q211 0 340 139.5t129 374.5q0 190 -86 318z" />
<glyph unicode="&#xd9;" horiz-adv-x="1396" d="M154 530v760h180v-747q0 -199 96.5 -305.5t267.5 -106.5t269 107t98 305v747h176v-760q0 -137 -44 -245t-119.5 -174.5t-172 -101t-207.5 -34.5t-208 34.5t-173 101t-119.5 174.5t-43.5 245zM459 1700h207l110 -258h-119z" />
<glyph unicode="&#xda;" horiz-adv-x="1396" d="M154 530v760h180v-747q0 -199 96.5 -305.5t267.5 -106.5t269 107t98 305v747h176v-760q0 -137 -44 -245t-119.5 -174.5t-172 -101t-207.5 -34.5t-208 34.5t-173 101t-119.5 174.5t-43.5 245zM631 1442l110 258h207l-198 -258h-119z" />
<glyph unicode="&#xdb;" horiz-adv-x="1396" d="M154 530v760h180v-747q0 -199 96.5 -305.5t267.5 -106.5t269 107t98 305v747h176v-760q0 -137 -44 -245t-119.5 -174.5t-172 -101t-207.5 -34.5t-208 34.5t-173 101t-119.5 174.5t-43.5 245zM430 1442l170 258h197l168 -258h-123l-144 155l-143 -155h-125z" />
<glyph unicode="&#xdc;" horiz-adv-x="1396" d="M154 530v760h180v-747q0 -199 96.5 -305.5t267.5 -106.5t269 107t98 305v747h176v-760q0 -137 -44 -245t-119.5 -174.5t-172 -101t-207.5 -34.5t-208 34.5t-173 101t-119.5 174.5t-43.5 245zM457 1450v186h161v-186h-161zM776 1450v186h164v-186h-164z" />
<glyph unicode="&#xdd;" horiz-adv-x="1280" d="M66 1290h208l373 -579l373 579h194l-487 -743v-547h-174v547zM573 1442l111 258h207l-199 -258h-119z" />
<glyph unicode="&#xde;" horiz-adv-x="1320" d="M172 0v1290h178v-246h383q237 0 369.5 -102.5t132.5 -284.5t-132.5 -284.5t-369.5 -102.5h-383v-270h-178zM350 420h379q330 0 330 237q0 238 -330 238h-379v-475z" />
<glyph unicode="&#xdf;" horiz-adv-x="1140" d="M162 0v909q0 177 118.5 291.5t309.5 114.5q175 0 276 -86t101 -234q0 -111 -61 -181.5t-152 -90.5q134 -22 213.5 -115t79.5 -229q0 -93 -32 -168t-87 -123t-126.5 -73t-152.5 -25q-67 0 -151 26v131q78 -24 127 -24q111 0 181.5 68t70.5 196q0 120 -77.5 191t-205.5 69 q-51 0 -86 -2v137q25 -4 80 -4q105 0 160 54.5t55 156.5q0 88 -55.5 143.5t-159.5 55.5q-115 0 -185.5 -77.5t-70.5 -211.5v-899h-170z" />
<glyph unicode="&#xe0;" d="M90 242q0 114 89 178t261 104l267 62v71q0 53 -40 90t-130 37q-100 0 -169 -48t-94 -120l-151 56q50 111 158 179.5t260 68.5q156 0 241.5 -68t85.5 -201v-440q0 -96 80 -96q47 0 99 32l10 -127q-66 -40 -142 -40q-87 0 -143.5 56.5t-62.5 141.5q-33 -87 -123.5 -141.5 t-210.5 -54.5q-127 0 -206 70.5t-79 189.5zM260 250q0 -61 40.5 -100t115.5 -39q118 0 204.5 75t86.5 174v117l-226 -55q-114 -28 -167.5 -64.5t-53.5 -107.5zM295 1364h194l123 -311h-114z" />
<glyph unicode="&#xe1;" d="M90 242q0 114 89 178t261 104l267 62v71q0 53 -40 90t-130 37q-100 0 -169 -48t-94 -120l-151 56q50 111 158 179.5t260 68.5q156 0 241.5 -68t85.5 -201v-440q0 -96 80 -96q47 0 99 32l10 -127q-66 -40 -142 -40q-87 0 -143.5 56.5t-62.5 141.5q-33 -87 -123.5 -141.5 t-210.5 -54.5q-127 0 -206 70.5t-79 189.5zM260 250q0 -61 40.5 -100t115.5 -39q118 0 204.5 75t86.5 174v117l-226 -55q-114 -28 -167.5 -64.5t-53.5 -107.5zM471 1053l123 311h194l-202 -311h-115z" />
<glyph unicode="&#xe2;" d="M90 242q0 114 89 178t261 104l267 62v71q0 53 -40 90t-130 37q-100 0 -169 -48t-94 -120l-151 56q50 111 158 179.5t260 68.5q156 0 241.5 -68t85.5 -201v-440q0 -96 80 -96q47 0 99 32l10 -127q-66 -40 -142 -40q-87 0 -143.5 56.5t-62.5 141.5q-33 -87 -123.5 -141.5 t-210.5 -54.5q-127 0 -206 70.5t-79 189.5zM260 250q0 -61 40.5 -100t115.5 -39q118 0 204.5 75t86.5 174v117l-226 -55q-114 -28 -167.5 -64.5t-53.5 -107.5zM264 1053l174 299h180l175 -299h-121l-144 196l-143 -196h-121z" />
<glyph unicode="&#xe3;" d="M90 242q0 114 89 178t261 104l267 62v71q0 53 -40 90t-130 37q-100 0 -169 -48t-94 -120l-151 56q50 111 158 179.5t260 68.5q156 0 241.5 -68t85.5 -201v-440q0 -96 80 -96q47 0 99 32l10 -127q-66 -40 -142 -40q-87 0 -143.5 56.5t-62.5 141.5q-33 -87 -123.5 -141.5 t-210.5 -54.5q-127 0 -206 70.5t-79 189.5zM229 1065q0 117 45 188.5t129 71.5q37 0 76.5 -21.5t66.5 -47t59.5 -47t58.5 -21.5q39 0 55.5 34.5t19.5 96.5h107q0 -117 -45 -188.5t-129 -71.5q-37 0 -76 21.5t-66 47t-59.5 47t-58.5 21.5q-40 0 -56.5 -34t-19.5 -97h-107z M260 250q0 -61 40.5 -100t115.5 -39q118 0 204.5 75t86.5 174v117l-226 -55q-114 -28 -167.5 -64.5t-53.5 -107.5z" />
<glyph unicode="&#xe4;" d="M90 242q0 114 89 178t261 104l267 62v71q0 53 -40 90t-130 37q-100 0 -169 -48t-94 -120l-151 56q50 111 158 179.5t260 68.5q156 0 241.5 -68t85.5 -201v-440q0 -96 80 -96q47 0 99 32l10 -127q-66 -40 -142 -40q-87 0 -143.5 56.5t-62.5 141.5q-33 -87 -123.5 -141.5 t-210.5 -54.5q-127 0 -206 70.5t-79 189.5zM260 250q0 -61 40.5 -100t115.5 -39q118 0 204.5 75t86.5 174v117l-226 -55q-114 -28 -167.5 -64.5t-53.5 -107.5zM297 1090v186h162v-186h-162zM616 1090v186h164v-186h-164z" />
<glyph unicode="&#xe5;" d="M90 242q0 114 89 178t261 104l267 62v71q0 53 -40 90t-130 37q-100 0 -169 -48t-94 -120l-151 56q50 111 158 179.5t260 68.5q156 0 241.5 -68t85.5 -201v-440q0 -96 80 -96q47 0 99 32l10 -127q-66 -40 -142 -40q-87 0 -143.5 56.5t-62.5 141.5q-33 -87 -123.5 -141.5 t-210.5 -54.5q-127 0 -206 70.5t-79 189.5zM260 250q0 -61 40.5 -100t115.5 -39q118 0 204.5 75t86.5 174v117l-226 -55q-114 -28 -167.5 -64.5t-53.5 -107.5zM336 1221q0 83 55.5 137.5t145.5 54.5q88 0 144 -54.5t56 -137.5q0 -84 -55.5 -138.5t-144.5 -54.5 q-90 0 -145.5 54.5t-55.5 138.5zM434 1221q0 -47 26.5 -76t76.5 -29q49 0 75.5 29t26.5 76q0 46 -26.5 74t-75.5 28q-50 0 -76.5 -28t-26.5 -74z" />
<glyph unicode="&#xe6;" horiz-adv-x="1671" d="M90 238q0 49 17 88t45.5 67.5t74.5 51.5t95.5 39t117.5 32l267 62v79q0 53 -40 90t-130 37q-100 0 -169 -48t-94 -120l-151 56q50 111 157.5 179.5t256.5 68.5q215 0 286 -148q59 70 143 109t181 39q104 0 187.5 -36t135.5 -98t79.5 -140.5t27.5 -166.5v-53h-719 q1 -143 88 -230t213 -87q111 0 179 47.5t104 144.5l131 -78q-55 -120 -160.5 -184t-257.5 -64q-131 0 -234 57t-161 158q-49 -88 -147 -148t-238 -60q-128 0 -206.5 69t-78.5 187zM260 246q0 -61 40 -98t116 -37q118 0 204.5 75t86.5 174v109l-226 -53q-61 -16 -93 -26.5 t-66 -30t-48 -46.5t-14 -67zM864 537h551q-6 106 -76 177.5t-192 71.5q-115 0 -191 -72t-92 -177z" />
<glyph unicode="&#xe7;" horiz-adv-x="1032" d="M80 446q0 208 131.5 341t337.5 133q144 0 242 -66t143 -176l-137 -82q-30 83 -92 133.5t-154 50.5q-133 0 -214 -90t-81 -244q0 -152 80.5 -241.5t210.5 -89.5q100 0 165 53.5t93 144.5l139 -69q-38 -111 -130.5 -184.5t-233.5 -82.5l-60 -98q83 17 156.5 -19t73.5 -116 q0 -85 -63.5 -127.5t-158.5 -42.5q-70 0 -131 26t-98 62l35 74q78 -74 188 -74q47 0 76 19.5t29 54.5q0 37 -30.5 56.5t-71.5 18t-76 -19.5l-48 29l97 157q-186 15 -302 144.5t-116 324.5z" />
<glyph unicode="&#xe8;" d="M94 434q0 211 130.5 348.5t326.5 137.5q104 0 187.5 -36t135.5 -98t79.5 -140.5t27.5 -166.5v-53h-719q0 -142 87 -229.5t214 -87.5q111 0 179 47.5t104 144.5l131 -78q-55 -120 -160.5 -184t-257.5 -64q-203 0 -334 127.5t-131 331.5zM268 537h551q-6 105 -76.5 177 t-191.5 72q-115 0 -191 -72t-92 -177zM322 1364h194l123 -311h-115z" />
<glyph unicode="&#xe9;" d="M94 434q0 211 130.5 348.5t326.5 137.5q104 0 187.5 -36t135.5 -98t79.5 -140.5t27.5 -166.5v-53h-719q0 -142 87 -229.5t214 -87.5q111 0 179 47.5t104 144.5l131 -78q-55 -120 -160.5 -184t-257.5 -64q-203 0 -334 127.5t-131 331.5zM268 537h551q-6 105 -76.5 177 t-191.5 72q-115 0 -191 -72t-92 -177zM498 1053l123 311h194l-203 -311h-114z" />
<glyph unicode="&#xea;" d="M94 434q0 211 130.5 348.5t326.5 137.5q104 0 187.5 -36t135.5 -98t79.5 -140.5t27.5 -166.5v-53h-719q0 -142 87 -229.5t214 -87.5q111 0 179 47.5t104 144.5l131 -78q-55 -120 -160.5 -184t-257.5 -64q-203 0 -334 127.5t-131 331.5zM268 537h551q-6 105 -76.5 177 t-191.5 72q-115 0 -191 -72t-92 -177zM301 1053l174 299h180l174 -299h-120l-144 196l-143 -196h-121z" />
<glyph unicode="&#xeb;" d="M94 434q0 211 130.5 348.5t326.5 137.5q104 0 187.5 -36t135.5 -98t79.5 -140.5t27.5 -166.5v-53h-719q0 -142 87 -229.5t214 -87.5q111 0 179 47.5t104 144.5l131 -78q-55 -120 -160.5 -184t-257.5 -64q-203 0 -334 127.5t-131 331.5zM268 537h551q-6 105 -76.5 177 t-191.5 72q-115 0 -191 -72t-92 -177zM324 1090v186h161v-186h-161zM643 1090v186h164v-186h-164z" />
<glyph unicode="&#xec;" horiz-adv-x="493" d="M4 1364h195l123 -311h-115zM162 0v895h170v-895h-170z" />
<glyph unicode="&#xed;" horiz-adv-x="493" d="M162 0v895h170v-895h-170zM180 1053l123 311h195l-203 -311h-115z" />
<glyph unicode="&#xee;" horiz-adv-x="493" d="M-16 1053l174 299h180l174 -299h-121l-143 196l-144 -196h-120zM162 0v895h170v-895h-170z" />
<glyph unicode="&#xef;" horiz-adv-x="493" d="M6 1090v186h162v-186h-162zM162 0v895h170v-895h-170zM326 1090v186h163v-186h-163z" />
<glyph unicode="&#xf0;" horiz-adv-x="1132" d="M94 434q0 136 62 240.5t166.5 159.5t232.5 55q89 0 165.5 -41t129.5 -115q-59 156 -256 320l-260 -97l-37 84l213 78q-87 64 -195 123l119 76q123 -65 225 -141l175 63l36 -84l-129 -47q297 -269 297 -637q0 -235 -129.5 -365.5t-339.5 -130.5q-205 0 -340 127.5 t-135 331.5zM274 434q0 -147 78.5 -236t216.5 -89t216.5 89t78.5 236q0 148 -78.5 238t-216.5 90t-216.5 -90t-78.5 -238z" />
<glyph unicode="&#xf1;" horiz-adv-x="1142" d="M162 0v895h170v-182q32 88 119.5 147.5t201.5 59.5q169 0 252.5 -99.5t83.5 -265.5v-555h-170v532q0 114 -58 179t-167 65q-114 0 -188 -81t-74 -212v-483h-170zM264 1065q0 117 45 188.5t129 71.5q37 0 76 -21.5t66.5 -47t59.5 -47t58 -21.5q39 0 56 34.5t20 96.5h107 q0 -117 -45 -188.5t-129 -71.5q-37 0 -76 21.5t-66 47t-60 47t-59 21.5q-40 0 -56 -34t-19 -97h-107z" />
<glyph unicode="&#xf2;" horiz-adv-x="1132" d="M94 446q0 137 63 246t170.5 168.5t237.5 59.5q131 0 239 -59.5t171 -168.5t63 -246q0 -205 -136.5 -338t-336.5 -133q-130 0 -237.5 59.5t-170.5 168t-63 243.5zM270 446q0 -151 80.5 -243t214.5 -92q136 0 216.5 91.5t80.5 243.5q0 153 -80.5 245.5t-216.5 92.5 q-134 0 -214.5 -92.5t-80.5 -245.5zM324 1364h194l123 -311h-115z" />
<glyph unicode="&#xf3;" horiz-adv-x="1132" d="M94 446q0 137 63 246t170.5 168.5t237.5 59.5q131 0 239 -59.5t171 -168.5t63 -246q0 -205 -136.5 -338t-336.5 -133q-130 0 -237.5 59.5t-170.5 168t-63 243.5zM270 446q0 -151 80.5 -243t214.5 -92q136 0 216.5 91.5t80.5 243.5q0 153 -80.5 245.5t-216.5 92.5 q-134 0 -214.5 -92.5t-80.5 -245.5zM500 1053l123 311h194l-203 -311h-114z" />
<glyph unicode="&#xf4;" horiz-adv-x="1132" d="M94 446q0 137 63 246t170.5 168.5t237.5 59.5q131 0 239 -59.5t171 -168.5t63 -246q0 -205 -136.5 -338t-336.5 -133q-130 0 -237.5 59.5t-170.5 168t-63 243.5zM270 446q0 -151 80.5 -243t214.5 -92q136 0 216.5 91.5t80.5 243.5q0 153 -80.5 245.5t-216.5 92.5 q-134 0 -214.5 -92.5t-80.5 -245.5zM303 1053l174 299h180l174 -299h-120l-144 196l-143 -196h-121z" />
<glyph unicode="&#xf5;" horiz-adv-x="1132" d="M94 446q0 137 63 246t170.5 168.5t237.5 59.5q131 0 239 -59.5t171 -168.5t63 -246q0 -205 -136.5 -338t-336.5 -133q-130 0 -237.5 59.5t-170.5 168t-63 243.5zM258 1065q0 117 45 188.5t129 71.5q37 0 76 -21.5t66.5 -47t59.5 -47t58 -21.5q39 0 56 34.5t20 96.5h106 q0 -117 -45 -188.5t-129 -71.5q-37 0 -76 21.5t-66 47t-59.5 47t-58.5 21.5q-40 0 -56 -34t-19 -97h-107zM270 446q0 -151 80.5 -243t214.5 -92q136 0 216.5 91.5t80.5 243.5q0 153 -80.5 245.5t-216.5 92.5q-134 0 -214.5 -92.5t-80.5 -245.5z" />
<glyph unicode="&#xf6;" horiz-adv-x="1132" d="M94 446q0 137 63 246t170.5 168.5t237.5 59.5q131 0 239 -59.5t171 -168.5t63 -246q0 -205 -136.5 -338t-336.5 -133q-130 0 -237.5 59.5t-170.5 168t-63 243.5zM270 446q0 -151 80.5 -243t214.5 -92q136 0 216.5 91.5t80.5 243.5q0 153 -80.5 245.5t-216.5 92.5 q-134 0 -214.5 -92.5t-80.5 -245.5zM326 1090v186h161v-186h-161zM645 1090v186h164v-186h-164z" />
<glyph unicode="&#xf7;" horiz-adv-x="1306" d="M131 567v144h1045v-144h-1045zM551 109v202h207v-202h-207zM551 967v202h207v-202h-207z" />
<glyph unicode="&#xf8;" horiz-adv-x="1132" d="M92 -8l121 135q-119 132 -119 319q0 137 63 246t170.5 168.5t237.5 59.5q158 0 283 -89l110 125l80 -63l-114 -129q114 -130 114 -318q0 -205 -136.5 -338t-336.5 -133q-152 0 -276 84l-117 -131zM268 446q0 -115 49 -202l433 481q-74 61 -185 61q-136 0 -216.5 -93.5 t-80.5 -246.5zM385 166q75 -57 180 -57q137 0 217 92t80 245q0 119 -47 199z" />
<glyph unicode="&#xf9;" horiz-adv-x="1138" d="M154 338v557h170v-533q0 -116 56 -180.5t163 -64.5q115 0 189.5 81.5t74.5 211.5v485h170v-895h-170v182q-34 -89 -121 -148t-201 -59q-169 0 -250 99t-81 264zM315 1364h195l123 -311h-115z" />
<glyph unicode="&#xfa;" horiz-adv-x="1138" d="M154 338v557h170v-533q0 -116 56 -180.5t163 -64.5q115 0 189.5 81.5t74.5 211.5v485h170v-895h-170v182q-34 -89 -121 -148t-201 -59q-169 0 -250 99t-81 264zM494 1053l122 311h195l-203 -311h-114z" />
<glyph unicode="&#xfb;" horiz-adv-x="1138" d="M154 338v557h170v-533q0 -116 56 -180.5t163 -64.5q115 0 189.5 81.5t74.5 211.5v485h170v-895h-170v182q-34 -89 -121 -148t-201 -59q-169 0 -250 99t-81 264zM295 1053l174 299h180l174 -299h-121l-143 196l-143 -196h-121z" />
<glyph unicode="&#xfc;" horiz-adv-x="1138" d="M154 338v557h170v-533q0 -116 56 -180.5t163 -64.5q115 0 189.5 81.5t74.5 211.5v485h170v-895h-170v182q-34 -89 -121 -148t-201 -59q-169 0 -250 99t-81 264zM317 1090v186h162v-186h-162zM637 1090v186h164v-186h-164z" />
<glyph unicode="&#xfd;" horiz-adv-x="1019" d="M29 -162l137 72q0 -141 108 -141q46 0 78 36.5t64 116.5l35 80l-404 893h186l299 -690h9l264 690h166l-383 -954q-31 -73 -58 -122.5t-65.5 -95.5t-88.5 -69t-112 -23q-103 0 -163.5 57.5t-71.5 149.5zM461 1053l123 311h194l-203 -311h-114z" />
<glyph unicode="&#xfe;" horiz-adv-x="1171" d="M162 -344v1634h170v-590q36 97 118.5 158.5t202.5 61.5q194 0 309 -135t115 -339q0 -203 -115 -337t-309 -134q-120 0 -202.5 60.5t-118.5 157.5v-537h-170zM326 428q0 -144 81.5 -233t200.5 -89q137 0 215 92.5t78 247.5t-78 247.5t-215 92.5q-119 0 -200.5 -88 t-81.5 -231v-39z" />
<glyph unicode="&#xff;" horiz-adv-x="1019" d="M29 -162l137 72q0 -141 108 -141q46 0 78 36.5t64 116.5l35 80l-404 893h186l299 -690h9l264 690h166l-383 -954q-31 -73 -58 -122.5t-65.5 -95.5t-88.5 -69t-112 -23q-103 0 -163.5 57.5t-71.5 149.5zM285 1090v186h161v-186h-161zM604 1090v186h164v-186h-164z" />
<glyph unicode="&#x152;" horiz-adv-x="2211" d="M109 645q0 301 187 473t505 172h1272v-151h-795v-394h604v-153h-604v-440h813v-152h-1290q-318 0 -505 172t-187 473zM295 645q0 -237 136 -367.5t390 -130.5h279v996h-279q-254 0 -390 -130.5t-136 -367.5z" />
<glyph unicode="&#x153;" horiz-adv-x="1830" d="M94 446q0 137 63 246t170.5 168.5t237.5 59.5q116 0 216 -54.5t163 -146.5q60 92 156 146.5t207 54.5q104 0 187.5 -36t135.5 -98t79.5 -140.5t27.5 -166.5v-53h-719q0 -143 86.5 -230t214.5 -87q111 0 179 47.5t104 144.5l131 -78q-55 -120 -160 -184t-254 -64 q-121 0 -219 52t-160 143q-63 -90 -161.5 -142.5t-213.5 -52.5q-130 0 -237.5 59.5t-170.5 168t-63 243.5zM270 446q0 -151 80.5 -243t214.5 -92q136 0 216.5 91.5t80.5 243.5q0 153 -80.5 245.5t-216.5 92.5q-134 0 -214.5 -92.5t-80.5 -245.5zM1024 537h549 q-5 105 -75 177t-191 72q-115 0 -191 -72t-92 -177z" />
<glyph unicode="&#x178;" horiz-adv-x="1280" d="M66 1290h208l373 -579l373 579h194l-487 -743v-547h-174v547zM399 1450v186h162v-186h-162zM719 1450v186h164v-186h-164z" />
<glyph unicode="&#x2c6;" horiz-adv-x="1064" d="M268 1053l174 299h181l174 -299h-121l-144 196l-143 -196h-121z" />
<glyph unicode="&#x2dc;" horiz-adv-x="1064" d="M227 1065q0 117 45 188.5t129 71.5q37 0 76.5 -21.5t66.5 -47t59.5 -47t58.5 -21.5q39 0 55.5 34.5t19.5 96.5h107q0 -117 -45 -188.5t-129 -71.5q-37 0 -76 21.5t-66 47t-59.5 47t-58.5 21.5q-40 0 -56.5 -34t-19.5 -97h-107z" />
<glyph unicode="&#x2000;" horiz-adv-x="892" />
<glyph unicode="&#x2001;" horiz-adv-x="1784" />
<glyph unicode="&#x2002;" horiz-adv-x="892" />
<glyph unicode="&#x2003;" horiz-adv-x="1784" />
<glyph unicode="&#x2004;" horiz-adv-x="594" />
<glyph unicode="&#x2005;" horiz-adv-x="446" />
<glyph unicode="&#x2006;" horiz-adv-x="297" />
<glyph unicode="&#x2007;" horiz-adv-x="297" />
<glyph unicode="&#x2008;" horiz-adv-x="223" />
<glyph unicode="&#x2009;" horiz-adv-x="356" />
<glyph unicode="&#x200a;" horiz-adv-x="99" />
<glyph unicode="&#x2010;" horiz-adv-x="745" d="M137 446v152h471v-152h-471z" />
<glyph unicode="&#x2011;" horiz-adv-x="745" d="M137 446v152h471v-152h-471z" />
<glyph unicode="&#x2012;" horiz-adv-x="745" d="M137 446v152h471v-152h-471z" />
<glyph unicode="&#x2013;" horiz-adv-x="1062" d="M137 459v125h789v-125h-789z" />
<glyph unicode="&#x2014;" horiz-adv-x="2088" d="M137 459v125h1815v-125h-1815z" />
<glyph unicode="&#x2018;" horiz-adv-x="518" d="M152 819v250q0 246 245 246v-109q-70 0 -100.5 -30t-30.5 -105v-39h103v-213h-217z" />
<glyph unicode="&#x2019;" horiz-adv-x="518" d="M121 795v108q70 0 100.5 30t30.5 105v39h-102v213h217v-250q0 -245 -246 -245z" />
<glyph unicode="&#x201a;" horiz-adv-x="518" d="M121 -154q70 0 100.5 30.5t30.5 105.5v38h-102v213h217v-249q0 -246 -246 -246v108z" />
<glyph unicode="&#x201c;" horiz-adv-x="903" d="M152 819v250q0 246 245 246v-109q-70 0 -100.5 -30t-30.5 -105v-39h103v-213h-217zM539 819v250q0 246 245 246v-109q-70 0 -100.5 -30t-30.5 -105v-39h103v-213h-217z" />
<glyph unicode="&#x201d;" horiz-adv-x="903" d="M121 795v108q70 0 100.5 30t30.5 105v39h-102v213h217v-250q0 -245 -246 -245zM506 795v108q70 0 100.5 30t30.5 105v39h-102v213h217v-250q0 -245 -246 -245z" />
<glyph unicode="&#x201e;" horiz-adv-x="903" d="M121 -154q70 0 100.5 30.5t30.5 105.5v38h-102v213h217v-249q0 -246 -246 -246v108zM506 -154q70 0 100.5 30.5t30.5 105.5v38h-102v213h217v-249q0 -246 -246 -246v108z" />
<glyph unicode="&#x2022;" horiz-adv-x="722" d="M113 524q0 106 71.5 177t175.5 71q105 0 177.5 -71t72.5 -177q0 -108 -72 -178t-178 -70q-104 0 -175.5 70.5t-71.5 177.5z" />
<glyph unicode="&#x2026;" horiz-adv-x="1718" d="M135 0v217h217v-217h-217zM750 0v217h217v-217h-217zM1366 0v217h217v-217h-217z" />
<glyph unicode="&#x202f;" horiz-adv-x="356" />
<glyph unicode="&#x2039;" horiz-adv-x="559" d="M115 377v141l329 285v-176l-204 -181l204 -178v-176z" />
<glyph unicode="&#x203a;" horiz-adv-x="559" d="M115 92v176l204 178l-204 181v176l329 -285v-141z" />
<glyph unicode="&#x205f;" horiz-adv-x="446" />
<glyph unicode="&#x20ac;" horiz-adv-x="1327" d="M61 463v106h140q-2 25 -2 76q0 49 2 72h-140v106h152q42 229 183.5 360.5t355.5 131.5q194 0 321.5 -103.5t173.5 -279.5l-160 -84q-25 144 -110 230.5t-227 86.5q-145 0 -237.5 -89.5t-123.5 -252.5h402l-21 -106h-395q-2 -23 -2 -72q0 -51 2 -76h375l-21 -106h-340 q33 -162 124.5 -251t236.5 -89q144 0 229 86t111 240l165 -66q-46 -189 -175 -298.5t-328 -109.5q-213 0 -354 130.5t-183 357.5h-154z" />
<glyph unicode="&#x2122;" horiz-adv-x="1529" d="M45 1180v110h547v-110h-211v-488h-129v488h-207zM711 692v598h200l127 -440h6l130 440h188v-598h-127v477h-4l-146 -477h-102l-147 477h-5v-477h-120z" />
<glyph unicode="&#xe000;" horiz-adv-x="890" d="M0 0v891h891v-891h-891z" />
</font>
</defs>
</svg>
