<?xml version="1.0" standalone="no"?>
<!DOCTYPE svg PUBLIC "-//W3C//DTD SVG 1.1//EN" "http://www.w3.org/Graphics/SVG/1.1/DTD/svg11.dtd" >
<svg xmlns="http://www.w3.org/2000/svg">
<metadata></metadata>
<defs>
<font id="founders_grotesk_textlight" horiz-adv-x="1064" >
<font-face units-per-em="2048" ascent="1577" descent="-471" />
<missing-glyph horiz-adv-x="512" />
<glyph unicode="&#xfb01;" horiz-adv-x="1130" d="M45 788v101h158v29q0 178 99 287.5t276 109.5q133 0 219 -55t118 -152l-94 -53q-20 75 -83.5 117t-159.5 42q-134 0 -192 -77.5t-58 -225.5v-22h630v-889h-124v788h-506v-788h-125v788h-158z" />
<glyph unicode="&#xfb02;" horiz-adv-x="1130" d="M45 788v101h158v96q0 151 89.5 240.5t227.5 89.5q122 0 205 -70l-55 -90q-59 59 -150 59q-90 0 -141 -59t-51 -176v-90h256v-101h-256v-788h-125v788h-158zM834 0v1290h124v-1290h-124z" />
<glyph unicode="&#xfb03;" horiz-adv-x="1761" d="M45 788v101h158v76q0 151 89.5 240t227.5 89q71 0 132 -25.5t98 -68.5l-60 -88q-63 82 -170 82q-90 0 -141 -59.5t-51 -176.5v-69h506v29q0 178 98.5 287.5t275.5 109.5q133 0 219.5 -55.5t118.5 -151.5l-94 -53q-20 75 -84 117t-160 42q-134 0 -192 -77.5t-58 -225.5 v-22h631v-889h-125v788h-506v-788h-124v788h-506v-788h-125v788h-158z" />
<glyph unicode="&#xfb04;" horiz-adv-x="1761" d="M45 788v101h158v76q0 151 89.5 240t227.5 89q71 0 132 -25.5t98 -68.5l-60 -88q-63 82 -170 82q-90 0 -141 -59.5t-51 -176.5v-69h506v96q0 151 89.5 240.5t227.5 89.5q122 0 205 -70l-56 -90q-59 59 -149 59t-141.5 -59t-51.5 -176v-90h256v-101h-256v-788h-124v788 h-506v-788h-125v788h-158zM1464 0v1290h125v-1290h-125z" />
<glyph horiz-adv-x="2048" />
<glyph horiz-adv-x="2048" />
<glyph unicode="&#xd;" horiz-adv-x="2048" />
<glyph unicode=" "  horiz-adv-x="512" />
<glyph unicode="&#x09;" horiz-adv-x="512" />
<glyph unicode="&#xa0;" horiz-adv-x="512" />
<glyph unicode="!" horiz-adv-x="450" d="M143 0v164h164v-164h-164zM158 881v409h135v-409l-45 -529h-45z" />
<glyph unicode="&#x22;" horiz-adv-x="649" d="M123 793v497h113v-497h-113zM414 793v497h112v-497h-112z" />
<glyph unicode="#" horiz-adv-x="1282" d="M61 342l17 96h229l99 416h-256l16 96h262l82 340h115l-82 -340h340l82 340h114l-82 -340h224l-17 -96h-229l-98 -416h256l-17 -96h-262l-82 -342h-115l82 342h-340l-82 -342h-114l82 342h-224zM422 438h340l98 416h-340z" />
<glyph unicode="$" horiz-adv-x="1206" d="M53 289l90 100q51 -130 164.5 -208.5t251.5 -94.5v516l-110 25q-328 72 -328 329q0 157 123.5 258t314.5 101v219h100v-223q149 -18 257 -86.5t161 -167.5l-94 -96q-38 93 -124.5 156.5t-199.5 82.5v-493l111 -23q78 -17 136.5 -40.5t111 -62.5t80.5 -100t28 -141 q0 -161 -130.5 -259t-336.5 -106v-227h-100v232q-174 14 -314.5 97t-191.5 212zM246 956q0 -95 69.5 -142.5t212.5 -78.5l31 -6v479q-144 -3 -228.5 -69t-84.5 -183zM659 82q148 6 245 73.5t97 184.5q0 93 -66 143.5t-204 81.5l-72 17v-500z" />
<glyph unicode="%" horiz-adv-x="1705" d="M102 1001q0 130 93.5 224t222.5 94q132 0 224.5 -93.5t92.5 -224.5t-92.5 -223t-224.5 -92q-129 0 -222.5 92.5t-93.5 222.5zM211 1001q0 -89 60.5 -149.5t146.5 -60.5q88 0 148.5 60.5t60.5 149.5t-60.5 151t-148.5 62q-85 0 -146 -62t-61 -151zM371 0l848 1290h116 l-848 -1290h-116zM971 289q0 131 92.5 223t224.5 92q129 0 222.5 -92.5t93.5 -222.5t-93.5 -224t-222.5 -94q-132 0 -224.5 93.5t-92.5 224.5zM1079 289q0 -89 60.5 -151t148.5 -62q85 0 146 62t61 151t-61 150t-146 61q-88 0 -148.5 -61t-60.5 -150z" />
<glyph unicode="&#x26;" horiz-adv-x="1331" d="M102 326q0 127 72.5 215t212.5 164q-68 80 -103.5 151t-35.5 152q0 135 87.5 221t231.5 86q142 0 221.5 -77.5t79.5 -203.5q0 -111 -75 -190t-228 -156l342 -399q120 151 162 362l111 -10q-62 -256 -205 -428q56 -63 105.5 -94t109.5 -31q61 0 100 10v-86 q-55 -28 -127 -28t-131 32.5t-137 112.5q-170 -154 -389 -154q-173 0 -288.5 96t-115.5 255zM231 328q0 -111 77.5 -178.5t197.5 -67.5q180 0 319 123q-4 6 -14 17t-14 16l-346 393q-114 -59 -167 -125.5t-53 -177.5zM373 1008q0 -64 32 -118t97 -128q141 68 195.5 126 t54.5 148q0 72 -47.5 124t-135.5 52q-87 0 -141.5 -52.5t-54.5 -151.5z" />
<glyph unicode="'" horiz-adv-x="358" d="M123 793v497h113v-497h-113z" />
<glyph unicode="(" horiz-adv-x="600" d="M102 590q0 211 74 412.5t209 349.5h133q-151 -172 -213.5 -361t-62.5 -401t62.5 -401t213.5 -361h-133q-135 148 -209 349.5t-74 412.5z" />
<glyph unicode=")" horiz-adv-x="600" d="M82 -172q151 172 213.5 361t62.5 401t-62.5 401t-213.5 361h133q135 -148 209 -349.5t74 -412.5t-74 -412.5t-209 -349.5h-133z" />
<glyph unicode="*" horiz-adv-x="763" d="M51 1038l33 90l250 -86v273h96v-273l254 91l29 -93l-256 -79l161 -218l-79 -55l-156 215l-156 -219l-75 59l157 213z" />
<glyph unicode="+" horiz-adv-x="1310" d="M137 586v106h465v467h107v-467h465v-106h-465v-465h-107v465h-465z" />
<glyph unicode="," horiz-adv-x="466" d="M106 -176q70 0 97.5 28.5t27.5 104.5v43h-88v180h181v-223q0 -109 -50 -168t-168 -59v94z" />
<glyph unicode="-" horiz-adv-x="737" d="M143 465v113h451v-113h-451z" />
<glyph unicode="." horiz-adv-x="466" d="M143 0v180h181v-180h-181z" />
<glyph unicode="/" horiz-adv-x="735" d="M41 -170l532 1520h121l-532 -1520h-121z" />
<glyph unicode="0" horiz-adv-x="1282" d="M119 645q0 321 136 495.5t386 174.5t386 -174.5t136 -495.5t-136 -495.5t-386 -174.5t-386 174.5t-136 495.5zM254 645q0 -565 387 -565t387 565t-387 565t-387 -565z" />
<glyph unicode="1" horiz-adv-x="757" d="M61 1012v98h91q167 0 229 37t88 153h72v-1300h-129v1012h-351z" />
<glyph unicode="2" horiz-adv-x="1118" d="M102 0v61l369 322q53 47 69 61t62 55.5t61.5 59t51 55t49 59t36 56.5t31 62.5t16 61t7.5 67.5q0 131 -77.5 208.5t-217.5 77.5q-147 0 -228 -85t-81 -242q0 -65 22 -121l-131 8q-20 59 -20 121q0 196 118.5 312t319.5 116q212 0 321 -109.5t109 -279.5q0 -49 -15 -100 t-35.5 -93.5t-58.5 -92.5t-67 -83t-79.5 -81t-77 -71.5t-76.5 -66.5l-261 -223h717v-115h-934z" />
<glyph unicode="3" horiz-adv-x="1136" d="M88 362l123 52q9 -158 110.5 -246t262.5 -88q148 0 234.5 70t86.5 198q0 117 -95 182.5t-237 65.5q-38 0 -131 -12v133q77 -10 131 -10q61 0 113 11.5t97.5 38t71.5 75t26 116.5q0 119 -78 190.5t-225 71.5q-146 0 -234.5 -87t-95.5 -244l-123 55q24 172 145 276.5 t308 104.5q205 0 318.5 -98t113.5 -261q0 -120 -81 -204.5t-190 -100.5q124 -11 209.5 -98.5t85.5 -214.5q0 -159 -122.5 -261t-329.5 -102t-339.5 102.5t-154.5 284.5z" />
<glyph unicode="4" horiz-adv-x="1189" d="M80 365v124l657 801h160v-821h236v-104h-236v-365h-127v365h-690zM193 469h577v702z" />
<glyph unicode="5" horiz-adv-x="1167" d="M98 387l127 35q6 -156 102.5 -249t264.5 -93q154 0 245 95t91 253q0 145 -89 237.5t-237 92.5q-102 0 -179 -44.5t-122 -115.5l-139 29q66 389 74 663h739q7 -64 -17 -95.5t-96 -31.5q-154 0 -528 29q-2 -59 -22 -242t-31 -235q51 66 138.5 108.5t196.5 42.5 q140 0 242.5 -61t151.5 -158.5t49 -216.5q0 -198 -131.5 -326.5t-339.5 -128.5q-209 0 -343.5 113.5t-146.5 298.5z" />
<glyph unicode="6" horiz-adv-x="1208" d="M119 614q0 207 59.5 363t182.5 247t298 91q163 0 276 -80.5t150 -220.5l-116 -56q-28 120 -104 187t-206 67q-112 0 -197.5 -52t-136 -144t-74 -211.5t-18.5 -261.5q33 131 139 214t271 83q205 0 329 -120t124 -308q0 -195 -124.5 -316t-336.5 -121q-249 0 -382.5 171 t-133.5 468zM283 408q0 -146 96.5 -236t255.5 -90q152 0 243 90t91 236q0 147 -91.5 233t-250.5 86q-160 0 -252 -86t-92 -233z" />
<glyph unicode="7" d="M88 1171v119h889v-98q-447 -473 -453 -1192h-139q4 340 129.5 651.5t325.5 519.5h-752z" />
<glyph unicode="8" horiz-adv-x="1155" d="M102 340q0 121 80.5 204t192.5 103q-105 36 -165 116.5t-60 192.5q0 164 120.5 261.5t307.5 97.5t307.5 -97.5t120.5 -261.5q0 -112 -60.5 -192.5t-165.5 -116.5q112 -20 192.5 -103t80.5 -204q0 -168 -127.5 -266.5t-347.5 -98.5t-348 98.5t-128 266.5zM240 338 q0 -125 88 -194.5t250 -69.5t249.5 69.5t87.5 194.5t-86.5 189.5t-250.5 64.5t-251 -64.5t-87 -189.5zM279 950q0 -121 82 -188.5t217 -67.5t217 67.5t82 188.5q0 130 -81.5 198.5t-217.5 68.5t-217.5 -68.5t-81.5 -198.5z" />
<glyph unicode="9" horiz-adv-x="1208" d="M113 879q0 195 124 315.5t336 120.5q249 0 383 -171t134 -468q0 -207 -59.5 -363t-183 -247t-298.5 -91q-163 0 -276 80.5t-150 220.5l117 56q58 -254 309 -254q90 0 163 34t123 95t83 145t47 183.5t10 212.5q-33 -131 -139 -214t-271 -83q-205 0 -328.5 120t-123.5 308z M240 883q0 -147 91.5 -233.5t250.5 -86.5q160 0 252 86.5t92 233.5q0 145 -97 235t-256 90q-152 0 -242.5 -89.5t-90.5 -235.5z" />
<glyph unicode=":" horiz-adv-x="466" d="M143 0v180h181v-180h-181zM143 678v180h181v-180h-181z" />
<glyph unicode=";" horiz-adv-x="466" d="M106 -176q70 0 97.5 28.5t27.5 104.5v43h-88v180h181v-223q0 -109 -50 -168t-168 -59v94zM143 678v180h181v-180h-181z" />
<glyph unicode="&#x3c;" horiz-adv-x="983" d="M109 571v129l790 449v-125l-694 -389l694 -387v-127z" />
<glyph unicode="=" horiz-adv-x="1333" d="M147 432v109h1039v-109h-1039zM147 729v109h1039v-109h-1039z" />
<glyph unicode="&#x3e;" horiz-adv-x="983" d="M84 121v127l692 387l-692 389v125l790 -449v-129z" />
<glyph unicode="?" horiz-adv-x="1019" d="M82 887q0 196 118.5 312t319.5 116q108 0 190 -30.5t131 -83.5t73 -120t24 -145q0 -42 -8 -78.5t-28.5 -71.5t-37.5 -59t-55 -59t-58.5 -52.5t-70.5 -56.5q-17 -13 -25 -20q-61 -51 -84.5 -92.5t-23.5 -106.5h-117q0 91 35.5 155t122.5 134q15 13 49.5 39t51.5 40 t43 41.5t38.5 51t22.5 59t10 76.5q0 122 -73 198t-210 76q-147 0 -228 -86.5t-81 -244.5q0 -47 8 -88l-131 8q-6 47 -6 88zM399 0v164h164v-164h-164z" />
<glyph unicode="@" horiz-adv-x="1587" d="M92 395q0 162 55 303t154 243.5t244 161t317 58.5q149 0 271 -45t203 -125t125 -190t44 -240q0 -122 -30 -218t-82 -154.5t-117 -88.5t-139 -30q-79 0 -127.5 41.5t-61.5 107.5q-38 -68 -107 -108.5t-155 -40.5q-120 0 -191 76t-71 208q0 81 26.5 160t74 144t122.5 105 t164 40q84 0 145.5 -37.5t83.5 -97.5l33 118h121l-125 -493q-16 -67 5 -95t77 -28q107 0 175.5 98.5t68.5 292.5q0 223 -143.5 363.5t-389.5 140.5q-147 0 -270.5 -50.5t-209 -139.5t-133.5 -214t-48 -270q0 -132 47.5 -242t130 -184t193 -114.5t235.5 -40.5q234 0 422 92 l43 -72q-195 -117 -467 -117q-149 0 -278 45.5t-226.5 130.5t-153 215.5t-55.5 290.5zM555 352q0 -178 154 -178q86 0 160.5 62t105.5 176l14 53q26 105 -22.5 174.5t-145.5 69.5q-118 0 -192 -109t-74 -248z" />
<glyph unicode="A" horiz-adv-x="1329" d="M74 0l510 1290h147l524 -1290h-141l-164 412h-588l-157 -412h-131zM406 524h499l-250 627h-8z" />
<glyph unicode="B" horiz-adv-x="1341" d="M180 0v1290h559q227 0 334 -90.5t107 -249.5q0 -109 -79 -184.5t-194 -95.5q133 -20 221.5 -102.5t88.5 -213.5q0 -169 -118.5 -261.5t-342.5 -92.5h-576zM309 113h457q158 0 242 63.5t84 183.5q0 122 -84 188t-242 66h-457v-501zM309 723h451q293 0 293 227 q0 108 -72 168t-221 60h-451v-455z" />
<glyph unicode="C" horiz-adv-x="1411" d="M115 645q0 195 84.5 348.5t230.5 237.5t326 84q191 0 326.5 -85.5t201.5 -238.5l-104 -86q-45 139 -154.5 218t-269.5 79q-223 0 -362.5 -150.5t-139.5 -406.5q0 -255 138.5 -406t355.5 -151q368 0 448 344l113 -82q-58 -177 -202.5 -276t-358.5 -99q-131 0 -247.5 49.5 t-201.5 136.5t-134.5 212.5t-49.5 271.5z" />
<glyph unicode="D" horiz-adv-x="1441" d="M180 0v1290h455q317 0 504.5 -172.5t187.5 -472.5t-187.5 -472.5t-504.5 -172.5h-455zM313 113h303q278 0 425 139t147 393t-147.5 393.5t-424.5 139.5h-303v-1065z" />
<glyph unicode="E" horiz-adv-x="1263" d="M180 0v1290h936v-112h-807v-449h617v-115h-617v-501h826v-113h-955z" />
<glyph unicode="F" horiz-adv-x="1193" d="M180 0v1290h916v-112h-785v-449h615v-115h-615v-614h-131z" />
<glyph unicode="G" horiz-adv-x="1497" d="M115 645q0 195 83 348.5t225.5 237.5t317.5 84q205 0 344 -83.5t201 -240.5l-106 -88q-42 141 -154.5 220t-284.5 79q-218 0 -352.5 -151t-134.5 -408q0 -256 138.5 -405.5t361.5 -149.5q205 0 327 118.5t133 311.5h-544v109h659v-627h-98l-23 254q-39 -129 -168 -204 t-292 -75q-181 0 -325 83t-226 236.5t-82 350.5z" />
<glyph unicode="H" horiz-adv-x="1474" d="M180 0v1290h133v-563h848v563h133v-1290h-133v614h-848v-614h-133z" />
<glyph unicode="I" horiz-adv-x="493" d="M180 0v1290h133v-1290h-133z" />
<glyph unicode="J" horiz-adv-x="1077" d="M113 492l135 36q-6 -51 -6 -97q0 -133 51 -221q69 -118 225 -118q266 0 266 340v858h134v-854q0 -214 -106.5 -337.5t-293.5 -123.5q-202 0 -314 145q-95 120 -95 300q0 35 4 72z" />
<glyph unicode="K" horiz-adv-x="1318" d="M180 0v1290h133v-719l721 719h168l-543 -536l619 -754h-166l-551 674l-248 -250v-424h-133z" />
<glyph unicode="L" horiz-adv-x="1230" d="M180 0v1290h133v-1177h820v-113h-953z" />
<glyph unicode="M" horiz-adv-x="1632" d="M180 0v1290h211l432 -1081h6l410 1081h213v-1290h-131v1174h-8l-459 -1174h-68l-475 1174h-8v-1174h-123z" />
<glyph unicode="N" horiz-adv-x="1409" d="M180 0v1290h144l782 -1067v1067h123v-1290h-103l-823 1116v-1116h-123z" />
<glyph unicode="O" horiz-adv-x="1523" d="M115 645q0 196 83 349t230 237t334 84t334 -84t230 -237t83 -349t-83 -349t-230 -237t-334 -84t-334 84t-230 237t-83 349zM254 645q0 -255 139.5 -406t368.5 -151t368.5 151t139.5 406t-139.5 406t-368.5 151t-368.5 -151t-139.5 -406z" />
<glyph unicode="P" horiz-adv-x="1310" d="M180 0v1290h543q233 0 362 -100.5t129 -276.5t-129 -276t-362 -100h-412v-537h-131zM311 649h412q360 0 360 264q0 265 -360 265h-412v-529z" />
<glyph unicode="Q" horiz-adv-x="1523" d="M115 645q0 196 83 349t230 237t334 84t334 -84t230 -237t83 -349q0 -278 -162 -461.5t-420 -206.5q-3 -23 -3 -45q0 -63 27 -104q36 -55 112 -55q110 0 182 102l39 -106q-34 -50 -95.5 -78.5t-127.5 -28.5q-120 0 -195 88q-60 71 -60 177q0 24 3 50q-263 19 -428.5 202.5 t-165.5 465.5zM254 645q0 -255 139.5 -406t368.5 -151t368.5 151t139.5 406t-139.5 406t-368.5 151t-368.5 -151t-139.5 -406z" />
<glyph unicode="R" horiz-adv-x="1339" d="M180 0v1290h537q236 0 352.5 -93t116.5 -257q0 -117 -89 -199.5t-214 -93.5q205 -31 245 -299q24 -161 57.5 -232.5t92.5 -101.5v-14h-164q-74 19 -96 264q-14 170 -75.5 248t-205.5 78h-426v-590h-131zM311 700h389q179 0 264 58.5t85 181.5q0 118 -79 178t-253 60h-406 v-478z" />
<glyph unicode="S" horiz-adv-x="1230" d="M66 289l90 104q58 -146 192.5 -226.5t292.5 -80.5q161 0 265 66t104 188q0 92 -66.5 143t-204.5 82l-278 62q-328 72 -328 329q0 157 126 258t325 101q181 0 312.5 -71.5t193.5 -186.5l-95 -101q-47 111 -158 179.5t-253 68.5q-149 0 -235.5 -64.5t-86.5 -183.5 q0 -95 69.5 -142.5t213.5 -78.5l237 -51q61 -13 109.5 -30t96.5 -45t80 -63.5t51.5 -88t19.5 -117.5q0 -167 -140.5 -266t-357.5 -99q-126 0 -242 37t-205.5 109.5t-127.5 167.5z" />
<glyph unicode="T" horiz-adv-x="1376" d="M82 1178v112h1212v-112h-542v-1178h-134v1178h-536z" />
<glyph unicode="U" horiz-adv-x="1372" d="M160 532v758h133v-758q0 -213 105.5 -326.5t287.5 -113.5q183 0 290 114t107 326v758h129v-758q0 -110 -28 -202t-77 -157t-115.5 -110t-143.5 -66.5t-162 -21.5t-162 21.5t-143.5 66.5t-115.5 110t-77 157t-28 202z" />
<glyph unicode="V" horiz-adv-x="1310" d="M74 1290h143l440 -1149h9l434 1149h137l-506 -1290h-151z" />
<glyph unicode="W" horiz-adv-x="1814" d="M82 1290h129l319 -1136h9l305 1136h131l311 -1143h8l314 1143h125l-361 -1290h-166l-293 1090h-8l-297 -1090h-166z" />
<glyph unicode="X" horiz-adv-x="1341" d="M78 0l516 672l-471 618h156l393 -520l395 520h147l-469 -612l519 -678h-156l-440 580l-441 -580h-149z" />
<glyph unicode="Y" horiz-adv-x="1253" d="M78 1290h151l404 -618l401 618h142l-486 -739v-551h-127v551z" />
<glyph unicode="Z" horiz-adv-x="1286" d="M111 0v90l880 1088h-870v112h1034v-96l-879 -1081h902v-113h-1067z" />
<glyph unicode="[" horiz-adv-x="645" d="M154 -172v1524h368v-103h-246v-1319h246v-102h-368z" />
<glyph unicode="\" horiz-adv-x="735" d="M41 1350h121l532 -1520h-121z" />
<glyph unicode="]" horiz-adv-x="645" d="M123 -70h246v1319h-246v103h369v-1524h-369v102z" />
<glyph unicode="^" horiz-adv-x="794" d="M41 881l303 409h107l303 -409h-133l-224 305l-223 -305h-133z" />
<glyph unicode="_" horiz-adv-x="821" d="M61 -127h699v-100h-699v100z" />
<glyph unicode="`" d="M389 1372h158l127 -311h-86z" />
<glyph unicode="a" horiz-adv-x="1046" d="M98 242q0 114 91 179t268 105l260 58v86q0 53 -44 94t-143 41q-108 0 -182 -51t-104 -129l-113 51q48 105 152.5 171t246.5 66q146 0 226 -63t80 -182v-467q0 -107 84 -107q51 0 98 29l6 -109q-53 -32 -117 -32q-84 0 -135.5 57.5t-54.5 144.5q-32 -89 -123.5 -145.5 t-214.5 -56.5q-125 0 -203 71t-78 189zM225 242q0 -67 44 -110.5t128 -43.5q128 0 224 82t96 184v133l-240 -55q-132 -31 -192 -70.5t-60 -119.5z" />
<glyph unicode="b" horiz-adv-x="1148" d="M172 0v1290h125v-604q34 100 119.5 163.5t208.5 63.5q193 0 307.5 -133.5t114.5 -335.5t-114.5 -335.5t-307.5 -133.5q-123 0 -208.5 62.5t-119.5 161.5l-35 -199h-90zM291 424q0 -155 89.5 -251.5t217.5 -96.5q148 0 232.5 99t84.5 269t-84.5 269.5t-232.5 99.5 q-128 0 -217.5 -96.5t-89.5 -251.5v-41z" />
<glyph unicode="c" horiz-adv-x="1017" d="M84 444q0 204 128 336.5t329 132.5q134 0 225.5 -60t138.5 -161l-96 -86q-33 89 -101 144t-167 55q-148 0 -237 -98.5t-89 -262.5q0 -163 88.5 -261.5t231.5 -98.5q109 0 181 58t103 153l99 -72q-43 -109 -140 -178.5t-243 -69.5q-198 0 -324.5 131.5t-126.5 337.5z" />
<glyph unicode="d" horiz-adv-x="1148" d="M102 444q0 202 114.5 335.5t307.5 133.5q123 0 208.5 -63.5t119.5 -163.5v604h125v-1290h-125v203q-34 -100 -119.5 -164t-208.5 -64q-193 0 -307.5 133.5t-114.5 335.5zM233 444q0 -170 85 -269t233 -99q128 0 217.5 96.5t89.5 251.5v41q0 155 -89.5 251.5t-217.5 96.5 q-148 0 -233 -99.5t-85 -269.5z" />
<glyph unicode="e" d="M102 432q0 209 126.5 345t316.5 136q101 0 182.5 -35.5t132 -96.5t77 -138t26.5 -164v-47h-738q0 -158 96.5 -255t233.5 -97q121 0 195.5 54t113.5 163l94 -80q-118 -242 -405 -242q-196 0 -323.5 127t-127.5 330zM231 532h609q-6 115 -83.5 195t-211.5 80 q-126 0 -211 -80t-103 -195z" />
<glyph unicode="f" horiz-adv-x="649" d="M45 788v101h158v94q0 153 92.5 242.5t239.5 89.5q108 0 178.5 -47.5t97.5 -132.5l-94 -60q-18 64 -63.5 101.5t-118.5 37.5q-95 0 -151 -60t-56 -177v-88h256v-101h-256v-788h-125v788h-158z" />
<glyph unicode="g" horiz-adv-x="1067" d="M66 -113q0 73 59 127.5t147 65.5q-131 39 -131 151q0 103 121 160q-94 84 -94 219q0 137 96 220t250 83q155 0 246 -79q39 69 108 110q55 31 121 31q18 0 37 -2l16 -123q-25 4 -49 4q-42 0 -85 -12q-66 -19 -95 -66q47 -71 47 -166q0 -137 -96 -220t-250 -83 q-111 0 -190 43q-70 -38 -70 -100q0 -38 31.5 -60t95.5 -22h313q145 0 231.5 -65.5t86.5 -170.5q0 -79 -43 -140t-114.5 -96t-155 -52t-175.5 -17q-124 0 -225.5 27.5t-167 88t-65.5 144.5zM195 -92q0 -88 92 -134t237 -46q107 0 188 20.5t131 66.5t50 113q0 68 -62 99.5 t-161 31.5h-260q-89 0 -152 -40.5t-63 -110.5zM289 610q0 -93 65 -151t160 -58t160 58t65 151t-65 151t-160 58t-160 -58t-65 -151z" />
<glyph unicode="h" horiz-adv-x="1116" d="M172 0v1290h125v-590q32 91 119 152t205 61q167 0 249 -97.5t82 -264.5v-551h-125v543q0 121 -62.5 190.5t-180.5 69.5q-123 0 -205 -86t-82 -223v-494h-125z" />
<glyph unicode="i" horiz-adv-x="468" d="M158 1124v166h153v-166h-153zM172 0v889h125v-889h-125z" />
<glyph unicode="j" horiz-adv-x="468" d="M-94 -307l39 82q71 -47 141 -47q86 0 86 102v1059h125v-1039q0 -106 -52 -164.5t-157 -58.5t-182 66zM158 1124v166h153v-166h-153z" />
<glyph unicode="k" horiz-adv-x="1040" d="M172 0v1290h125v-831l516 430h166l-428 -348l448 -541h-149l-391 467l-162 -133v-334h-125z" />
<glyph unicode="l" horiz-adv-x="468" d="M172 0v1290h125v-1290h-125z" />
<glyph unicode="m" horiz-adv-x="1726" d="M172 0v889h125v-189q31 91 114 152t197 61q238 0 299 -221q32 93 120.5 157t213.5 64q160 0 241 -98t81 -264v-551h-125v543q0 121 -60.5 190.5t-173.5 69.5q-117 0 -195.5 -86t-78.5 -223v-494h-125v543q0 121 -60.5 190.5t-173.5 69.5q-117 0 -195.5 -86t-78.5 -223 v-494h-125z" />
<glyph unicode="n" horiz-adv-x="1116" d="M172 0v889h125v-189q32 91 119 152t205 61q167 0 249 -97.5t82 -264.5v-551h-125v543q0 121 -62.5 190.5t-180.5 69.5q-123 0 -205 -86t-82 -223v-494h-125z" />
<glyph unicode="o" horiz-adv-x="1120" d="M102 444q0 204 132.5 336.5t324.5 132.5q193 0 326 -132.5t133 -336.5t-133 -336.5t-326 -132.5q-192 0 -324.5 132.5t-132.5 336.5zM233 444q0 -163 88.5 -262.5t237.5 -99.5q150 0 239 99t89 263t-89 263.5t-239 99.5q-149 0 -237.5 -99.5t-88.5 -263.5z" />
<glyph unicode="p" horiz-adv-x="1148" d="M172 -348v1237h125v-203q34 100 119.5 163.5t208.5 63.5q193 0 307.5 -133.5t114.5 -335.5t-114.5 -335.5t-307.5 -133.5q-123 0 -208.5 64t-119.5 164v-551h-125zM291 424q0 -155 89.5 -251.5t217.5 -96.5q148 0 232.5 99t84.5 269t-84.5 269.5t-232.5 99.5 q-128 0 -217.5 -96.5t-89.5 -251.5v-41z" />
<glyph unicode="q" horiz-adv-x="1148" d="M102 444q0 202 114.5 335.5t307.5 133.5q123 0 208.5 -63.5t119.5 -163.5v203h125v-1237h-125v551q-34 -100 -119.5 -164t-208.5 -64q-193 0 -307.5 133.5t-114.5 335.5zM233 444q0 -170 85 -269t233 -99q128 0 217.5 96.5t89.5 251.5v41q0 155 -89.5 251.5t-217.5 96.5 q-148 0 -233 -99.5t-85 -269.5z" />
<glyph unicode="r" horiz-adv-x="931" d="M168 0v889h125v-221q30 102 107 173.5t194 71.5q122 0 191 -79t69 -199q0 -49 -10 -74l-111 -26q8 28 8 65q0 199 -172 199q-110 0 -193 -96t-83 -228v-475h-125z" />
<glyph unicode="s" horiz-adv-x="980" d="M92 180l70 109q48 -98 142.5 -151.5t205.5 -53.5q235 0 235 147q0 54 -37.5 86.5t-115.5 51.5l-205 51q-113 28 -176.5 82.5t-63.5 156.5q0 114 95 184t235 70q125 0 221 -49t140 -135l-88 -84q-32 73 -107 116.5t-166 43.5t-150 -37t-59 -98q0 -56 38 -88.5t122 -53.5 l221 -55q219 -56 219 -237q0 -119 -101 -190t-255 -71q-140 0 -253.5 56t-166.5 149z" />
<glyph unicode="t" horiz-adv-x="872" d="M49 788v101h195v258l123 47v-305h397v-101h-397v-514q0 -95 48.5 -142.5t116.5 -47.5q79 0 124.5 42.5t86.5 131.5l66 -100q-27 -74 -103 -128.5t-174 -54.5q-122 0 -205 75.5t-83 215.5v522h-195z" />
<glyph unicode="u" horiz-adv-x="1112" d="M164 338v551h125v-543q0 -122 61 -191t178 -69q123 0 205 86t82 223v494h125v-889h-125v188q-33 -91 -119 -152t-204 -61q-166 0 -247 97.5t-81 265.5z" />
<glyph unicode="v" horiz-adv-x="1005" d="M55 889h131l318 -723h8l309 723h129l-397 -889h-100z" />
<glyph unicode="w" horiz-adv-x="1425" d="M55 889h125l234 -725h8l235 725h113l240 -725h8l231 725h121l-295 -889h-119l-239 713h-8l-238 -713h-119z" />
<glyph unicode="x" horiz-adv-x="1007" d="M61 0l367 461l-340 428h152l262 -334l258 334h139l-330 -422l377 -467h-151l-299 377l-295 -377h-140z" />
<glyph unicode="y" horiz-adv-x="987" d="M35 -182l112 61q0 -145 115 -145q50 0 84.5 40t73.5 134l41 98l-406 883h138l325 -725h8l279 725h127l-393 -983q-26 -65 -49.5 -109t-57.5 -86t-79.5 -63t-102.5 -21q-95 0 -149.5 53t-65.5 138z" />
<glyph unicode="z" horiz-adv-x="952" d="M109 0v94l561 686h-543v109h707v-94l-572 -686h586v-109h-739z" />
<glyph unicode="{" horiz-adv-x="694" d="M72 539v102h51q61 0 78.5 30.5t17.5 119.5v374q0 94 36.5 140.5t125.5 46.5h190v-103h-163q-64 0 -64 -75v-383q0 -85 -30.5 -136t-104.5 -65q74 -14 104.5 -65t30.5 -136v-383q0 -76 64 -76h163v-102h-190q-89 0 -125.5 46t-36.5 140v375q0 89 -17.5 119.5t-78.5 30.5 h-51z" />
<glyph unicode="|" horiz-adv-x="475" d="M180 -170v1520h115v-1520h-115z" />
<glyph unicode="}" horiz-adv-x="694" d="M123 -70h164q63 0 63 76v383q0 85 30.5 136t104.5 65q-74 14 -104.5 65t-30.5 136v383q0 39 -15 57t-48 18h-164v103h190q89 0 125.5 -46.5t36.5 -140.5v-374q0 -89 17.5 -119.5t78.5 -30.5h52v-102h-52q-61 0 -78.5 -30.5t-17.5 -119.5v-375q0 -94 -36.5 -140 t-125.5 -46h-190v102z" />
<glyph unicode="~" horiz-adv-x="837" d="M123 426q0 109 41.5 170t124.5 61q39 0 77.5 -20.5t65 -45t58.5 -45t59 -20.5q44 0 59.5 29.5t18.5 95.5h88q0 -109 -41.5 -170t-124.5 -61q-39 0 -77.5 20.5t-65 45t-58.5 45t-59 20.5q-44 0 -59.5 -29.5t-18.5 -95.5h-88z" />
<glyph unicode="&#xa1;" horiz-adv-x="450" d="M143 897v164h164v-164h-164zM158 180l45 529h45l45 -529v-409h-135v409z" />
<glyph unicode="&#xa2;" horiz-adv-x="1071" d="M102 444q0 189 114.5 318t301.5 149v201h100v-201q122 -9 206.5 -67t129.5 -152l-80 -86q-33 80 -98 133.5t-158 63.5v-717q101 11 168.5 67.5t100.5 141.5l82 -72q-41 -100 -130 -167.5t-221 -78.5v-180h-100v180q-186 17 -301 145.5t-115 321.5zM223 444 q0 -150 79.5 -245.5t215.5 -112.5v715q-137 -17 -216 -112.5t-79 -244.5z" />
<glyph unicode="&#xa3;" horiz-adv-x="1214" d="M47 168q0 86 62 142.5t161 56.5q76 0 152 -39v2q0 115 -70 270h-213v98h172q-49 123 -49 228q0 174 106 281.5t294 107.5q183 0 293 -97.5t122 -273.5l-123 -29q-4 146 -79.5 220.5t-212.5 74.5q-141 0 -210 -78.5t-69 -205.5q0 -97 49 -228h328v-98h-289 q64 -163 64 -270q0 -12 -5 -74q9 -7 37.5 -30t39.5 -31t37.5 -27.5t41.5 -27.5t40.5 -21t46 -18.5t46 -10t51.5 -4.5q172 0 172 264l117 -18q0 -163 -77.5 -260t-215.5 -97q-45 0 -90 12t-76 26t-72.5 43t-61 45.5t-60.5 52.5q-28 -82 -89 -130.5t-155 -48.5 q-92 0 -153.5 51.5t-61.5 141.5zM147 170q0 -49 32 -79t85 -30q129 0 152 164q-74 54 -146 54q-60 0 -91.5 -28t-31.5 -81z" />
<glyph unicode="&#xa5;" horiz-adv-x="1216" d="M61 1290h142l413 -635l402 635h137l-420 -635h283v-98h-348v-158h348v-98h-348v-301h-123v301h-348v98h348v158h-348v98h282z" />
<glyph unicode="&#xa7;" horiz-adv-x="911" d="M59 633q0 70 43 130.5t111 92.5q-88 75 -88 191q0 120 95 194t235 74q124 0 220 -49.5t140 -135.5l-88 -83q-32 73 -106.5 117t-165.5 44q-95 0 -155 -45.5t-60 -113.5q0 -49 23 -82t87 -62l275 -127q112 -51 168.5 -118.5t56.5 -174.5q0 -70 -43 -130.5t-111 -92.5 q88 -75 88 -190q0 -120 -94.5 -194.5t-234.5 -74.5q-124 0 -220.5 49.5t-140.5 135.5l88 84q32 -73 107 -117.5t166 -44.5q95 0 155 45.5t60 114.5q0 49 -23.5 81.5t-87.5 61.5l-274 127q-112 52 -169 119t-57 174zM172 633q0 -68 42 -109.5t130 -83.5l250 -118 q143 48 143 163q0 68 -42 109.5t-130 83.5l-250 119q-143 -48 -143 -164z" />
<glyph unicode="&#xa8;" d="M317 1106v166h134v-166h-134zM614 1106v166h134v-166h-134z" />
<glyph unicode="&#xa9;" horiz-adv-x="1523" d="M92 645q0 190 90.5 344.5t243.5 240t336 85.5t336 -85.5t243.5 -240t90.5 -344.5t-90.5 -344.5t-243.5 -240t-336 -85.5t-336 85.5t-243.5 240t-90.5 344.5zM186 645q0 -164 77.5 -297t209.5 -206.5t289 -73.5t288.5 73.5t209 206.5t77.5 297t-77.5 297.5t-209 207 t-288.5 73.5q-118 0 -223.5 -43.5t-183.5 -119t-123.5 -184t-45.5 -231.5zM379 643q0 178 110 292t273 114q131 0 218.5 -59.5t123.5 -164.5l-96 -53q-22 80 -85 127t-157 47q-118 0 -190 -81.5t-72 -221.5q0 -138 72 -219.5t190 -81.5q102 0 166 54.5t82 146.5l98 -58 q-33 -117 -122.5 -182t-227.5 -65q-163 0 -273 113.5t-110 291.5z" />
<glyph unicode="&#xaa;" horiz-adv-x="796" d="M94 850q0 80 60 122t180 70l182 43v50q0 35 -28 60.5t-89 25.5q-75 0 -123 -36t-59 -93l-100 43q29 80 103 129t181 49q106 0 165 -46t59 -137v-301q0 -65 53 -65q39 0 67 22l7 -86q-49 -28 -95 -28q-60 0 -98 38t-43 97q-22 -59 -83 -96t-144 -37q-87 0 -141 47.5 t-54 128.5zM125 379v98h559v-98h-559zM209 856q0 -42 27 -68t79 -26q81 0 141 51t60 119v80l-156 -37q-81 -20 -116 -43.5t-35 -75.5z" />
<glyph unicode="&#xab;" horiz-adv-x="917" d="M123 393v99l313 292v-147l-209 -195l209 -194v-148zM481 393v99l314 292v-147l-209 -195l209 -194v-148z" />
<glyph unicode="&#xad;" horiz-adv-x="737" d="M143 465v113h451v-113h-451z" />
<glyph unicode="&#xae;" horiz-adv-x="1032" d="M82 879q0 188 126 312t308 124t308 -124t126 -312t-126 -312.5t-308 -124.5t-308 124.5t-126 312.5zM162 879q0 -157 101.5 -259t252.5 -102t252.5 102t101.5 259t-101.5 259.5t-252.5 102.5t-252.5 -102.5t-101.5 -259.5zM338 659v453h205q85 0 128.5 -35t43.5 -100 q0 -47 -39 -78.5t-86 -34.5q97 -16 106 -92q10 -86 37 -113h-98q-19 25 -27 93q-5 41 -22.5 61.5t-53.5 20.5h-106v-175h-88zM426 903h104q48 0 71.5 16.5t23.5 53.5q0 67 -95 67h-104v-137z" />
<glyph unicode="&#xaf;" d="M274 1098v104h514v-104h-514z" />
<glyph unicode="&#xb0;" horiz-adv-x="716" d="M82 1042q0 116 79.5 194.5t196.5 78.5t197 -79t80 -194t-80 -193.5t-197 -78.5t-196.5 78.5t-79.5 193.5zM188 1042q0 -75 47.5 -125.5t122.5 -50.5t122.5 50.5t47.5 125.5t-47.5 126t-122.5 51t-122.5 -51t-47.5 -126z" />
<glyph unicode="&#xb1;" horiz-adv-x="1300" d="M123 94v107h1055v-107h-1055zM123 721v104h475v410h104v-410h476v-104h-476v-410h-104v410h-475z" />
<glyph unicode="&#xb2;" horiz-adv-x="796" d="M106 489v70l230 195q51 44 73 63.5t58 55.5t50.5 60t27 56.5t12.5 65.5q0 70 -41.5 111.5t-116.5 41.5q-82 0 -126 -47t-44 -133q0 -38 15 -72l-117 5q-12 40 -12 75q0 124 77.5 198.5t206.5 74.5q135 0 208 -70t73 -178q0 -41 -15 -82.5t-36.5 -74.5t-57.5 -70.5 t-64 -62t-69 -58.5l-145 -123h409v-101h-596z" />
<glyph unicode="&#xb3;" horiz-adv-x="806" d="M92 717l113 33q4 -85 60.5 -133t144.5 -48q77 0 124.5 37.5t47.5 104.5q0 65 -52 101t-129 36q-37 0 -73 -8v104q48 -6 75 -6q70 0 118 32t48 101q0 64 -42.5 102.5t-120.5 38.5q-80 0 -128.5 -48t-52.5 -134l-112 33q14 110 93 178t202 68q131 0 204.5 -62.5 t73.5 -165.5q0 -73 -51.5 -124.5t-118.5 -61.5q79 -8 131.5 -62t52.5 -131q0 -102 -78.5 -164.5t-211.5 -62.5q-134 0 -219.5 64.5t-98.5 177.5z" />
<glyph unicode="&#xb4;" d="M389 1061l127 311h158l-199 -311h-86z" />
<glyph unicode="&#xb6;" horiz-adv-x="1124" d="M74 936q0 166 116 260t328 94h426v-1466h-113v1358h-202v-1358h-111v758q-212 0 -328 94t-116 260z" />
<glyph unicode="&#xb7;" horiz-adv-x="466" d="M143 440v181h181v-181h-181z" />
<glyph unicode="&#xb8;" d="M307 -334l35 68q35 -35 87 -58.5t108 -23.5q48 0 78 21.5t30 58.5q0 40 -31.5 60.5t-74.5 19t-80 -20.5l-41 29l121 203h73l-90 -150q51 9 101.5 1.5t88.5 -44t38 -90.5q0 -85 -60.5 -125.5t-152.5 -40.5q-70 0 -131 27.5t-99 64.5z" />
<glyph unicode="&#xb9;" horiz-adv-x="591" d="M86 1092v86h57q99 0 137.5 24.5t57.5 95.5h78v-809h-117v603h-213z" />
<glyph unicode="&#xba;" horiz-adv-x="837" d="M98 993q0 139 92.5 230.5t227.5 91.5q136 0 228.5 -91t92.5 -231q0 -141 -92 -231t-229 -90q-136 0 -228 90t-92 231zM139 379v98h559v-98h-559zM215 993q0 -104 55.5 -167.5t147.5 -63.5q93 0 148 63t55 168q0 104 -55 167t-148 63q-92 0 -147.5 -63.5t-55.5 -166.5z " />
<glyph unicode="&#xbb;" horiz-adv-x="917" d="M123 100v148l209 194l-209 195v147l313 -292v-99zM481 100v148l209 194l-209 195v147l314 -292v-99z" />
<glyph unicode="&#xbc;" horiz-adv-x="1716" d="M86 1092v86h57q99 0 137.5 24.5t57.5 95.5h78v-809h-117v603h-213zM309 0l848 1290h117l-848 -1290h-117zM954 211v108l402 484h139v-500h141v-92h-141v-211h-109v211h-432zM1057 303h329v399z" />
<glyph unicode="&#xbd;" horiz-adv-x="1734" d="M86 1092v86h57q99 0 137.5 24.5t57.5 95.5h78v-809h-117v603h-213zM309 0l848 1290h117l-848 -1290h-117zM1077 0v70l230 194q51 44 73 63.5t58 55.5t50.5 60t27 56.5t12.5 65.5q0 70 -41.5 112t-116.5 42q-82 0 -126 -47t-44 -133q0 -40 14 -72l-116 4q-13 44 -13 76 q0 124 78 198t207 74q135 0 208 -70t73 -178q0 -41 -15 -82.5t-36.5 -74.5t-57.5 -70.5t-64 -62t-69 -58.5l-145 -123h409v-100h-596z" />
<glyph unicode="&#xbe;" horiz-adv-x="1880" d="M92 717l113 33q4 -85 60.5 -133t144.5 -48q77 0 124.5 37.5t47.5 104.5q0 65 -52 101t-129 36q-37 0 -73 -8v104q48 -6 75 -6q70 0 118 32t48 101q0 64 -42.5 102.5t-120.5 38.5q-80 0 -128.5 -48t-52.5 -134l-112 33q14 110 93 178t202 68q131 0 204.5 -62.5 t73.5 -165.5q0 -73 -51.5 -124.5t-118.5 -61.5q79 -8 131.5 -62t52.5 -131q0 -102 -78.5 -164.5t-211.5 -62.5q-134 0 -219.5 64.5t-98.5 177.5zM494 0l847 1290h117l-848 -1290h-116zM1118 211v108l402 484h139v-500h141v-92h-141v-211h-109v211h-432zM1221 303h329v399z " />
<glyph unicode="&#xbf;" horiz-adv-x="1019" d="M82 125q0 42 8 78.5t28.5 71.5t37.5 59t55 59t58.5 52.5t70.5 56.5q8 7 13.5 11.5t11.5 8.5q61 51 84.5 92.5t23.5 106.5h117q0 -91 -35.5 -155t-122.5 -134q-15 -13 -49.5 -39t-51.5 -40t-43 -41.5t-38.5 -51t-22.5 -59t-10 -76.5q0 -122 73 -198.5t210 -76.5 q147 0 228 87t81 245q0 47 -8 88l131 -8q6 -47 6 -88q0 -196 -118.5 -312t-319.5 -116q-108 0 -190 30.5t-131 83.5t-73 119.5t-24 145.5zM457 897v164h164v-164h-164z" />
<glyph unicode="&#xc0;" horiz-adv-x="1329" d="M74 0l510 1290h147l524 -1290h-141l-164 412h-588l-157 -412h-131zM406 524h499l-250 627h-8zM436 1700h174l111 -250h-86z" />
<glyph unicode="&#xc1;" horiz-adv-x="1329" d="M74 0l510 1290h147l524 -1290h-141l-164 412h-588l-157 -412h-131zM406 524h499l-250 627h-8zM604 1450l111 250h174l-199 -250h-86z" />
<glyph unicode="&#xc2;" horiz-adv-x="1329" d="M74 0l510 1290h147l524 -1290h-141l-164 412h-588l-157 -412h-131zM406 524h499l-250 627h-8zM412 1450l161 250h164l162 -250h-100l-144 164l-143 -164h-100z" />
<glyph unicode="&#xc3;" horiz-adv-x="1329" d="M74 0l510 1290h147l524 -1290h-141l-164 412h-588l-157 -412h-131zM360 1448q0 109 41.5 170t124.5 61q39 0 77.5 -20.5t65 -45t58.5 -45t59 -20.5q44 0 59.5 29.5t18.5 95.5h88q0 -109 -41.5 -170t-124.5 -61q-39 0 -77.5 20.5t-65 45t-58.5 45t-59 20.5 q-44 0 -59 -29.5t-18 -95.5h-89zM406 524h499l-250 627h-8z" />
<glyph unicode="&#xc4;" horiz-adv-x="1329" d="M74 0l510 1290h147l524 -1290h-141l-164 412h-588l-157 -412h-131zM406 524h499l-250 627h-8zM440 1462v166h133v-166h-133zM737 1462v166h133v-166h-133z" />
<glyph unicode="&#xc5;" horiz-adv-x="1329" d="M74 0l510 1290h147l524 -1290h-141l-164 412h-588l-157 -412h-131zM406 524h499l-250 627h-8zM465 1593q0 79 52.5 132t137.5 53t139 -53t54 -132t-54 -131.5t-139 -52.5t-137.5 52.5t-52.5 131.5zM551 1593q0 -47 27 -75.5t77 -28.5t77.5 28.5t27.5 75.5t-27.5 76 t-77.5 29t-77 -29t-27 -76z" />
<glyph unicode="&#xc6;" horiz-adv-x="2088" d="M74 0l866 1290h1002v-112h-807v-449h616v-115h-616v-501h825v-113h-954v412h-519l-272 -412h-141zM563 524h443v668z" />
<glyph unicode="&#xc7;" horiz-adv-x="1411" d="M115 645q0 195 84.5 348.5t230.5 237.5t326 84q191 0 326.5 -85.5t201.5 -238.5l-104 -86q-45 139 -154.5 218t-269.5 79q-223 0 -362.5 -150.5t-139.5 -406.5q0 -255 138.5 -406t355.5 -151q368 0 448 344l113 -82q-57 -174 -197.5 -273t-349.5 -102l-62 -102 q51 9 101.5 1.5t88.5 -44t38 -90.5q0 -85 -60.5 -125.5t-152.5 -40.5q-70 0 -131 27.5t-99 64.5l35 68q35 -35 87 -58.5t108 -23.5q48 0 78 21.5t30 58.5q0 40 -31.5 60.5t-74.5 19t-80 -20.5l-41 29l94 157q-122 11 -227.5 64.5t-182.5 139.5t-121 206t-44 258z" />
<glyph unicode="&#xc8;" horiz-adv-x="1263" d="M180 0v1290h936v-112h-807v-449h617v-115h-617v-501h826v-113h-955zM416 1700h174l110 -250h-86z" />
<glyph unicode="&#xc9;" horiz-adv-x="1263" d="M180 0v1290h936v-112h-807v-449h617v-115h-617v-501h826v-113h-955zM584 1450l110 250h174l-198 -250h-86z" />
<glyph unicode="&#xca;" horiz-adv-x="1263" d="M180 0v1290h936v-112h-807v-449h617v-115h-617v-501h826v-113h-955zM391 1450l162 250h164l162 -250h-101l-143 164l-143 -164h-101z" />
<glyph unicode="&#xcb;" horiz-adv-x="1263" d="M180 0v1290h936v-112h-807v-449h617v-115h-617v-501h826v-113h-955zM420 1462v166h133v-166h-133zM717 1462v166h133v-166h-133z" />
<glyph unicode="&#xcc;" horiz-adv-x="493" d="M25 1700h174l110 -250h-86zM180 0v1290h133v-1290h-133z" />
<glyph unicode="&#xcd;" horiz-adv-x="493" d="M180 0v1290h133v-1290h-133zM193 1450l110 250h174l-198 -250h-86z" />
<glyph unicode="&#xce;" horiz-adv-x="493" d="M0 1450l162 250h164l161 -250h-100l-143 164l-144 -164h-100zM180 0v1290h133v-1290h-133z" />
<glyph unicode="&#xcf;" horiz-adv-x="493" d="M29 1462v166h133v-166h-133zM180 0v1290h133v-1290h-133zM326 1462v166h133v-166h-133z" />
<glyph unicode="&#xd0;" horiz-adv-x="1472" d="M51 629v104h160v557h455q317 0 504.5 -172.5t187.5 -472.5t-187.5 -472.5t-504.5 -172.5h-455v629h-160zM344 113h303q278 0 425 139t147 393t-147.5 393.5t-424.5 139.5h-303v-445h324v-104h-324v-516z" />
<glyph unicode="&#xd1;" horiz-adv-x="1409" d="M180 0v1290h144l782 -1067v1067h123v-1290h-103l-823 1116v-1116h-123zM416 1448q0 109 41.5 170t124.5 61q39 0 77.5 -20.5t65 -45t58.5 -45t59 -20.5q44 0 59.5 29.5t18.5 95.5h88q0 -109 -41.5 -170t-124.5 -61q-39 0 -77.5 20.5t-65 45t-58.5 45t-59 20.5 q-44 0 -59.5 -29.5t-18.5 -95.5h-88z" />
<glyph unicode="&#xd2;" horiz-adv-x="1523" d="M115 645q0 196 83 349t230 237t334 84t334 -84t230 -237t83 -349t-83 -349t-230 -237t-334 -84t-334 84t-230 237t-83 349zM254 645q0 -255 139.5 -406t368.5 -151t368.5 151t139.5 406t-139.5 406t-368.5 151t-368.5 -151t-139.5 -406zM543 1700h174l110 -250h-86z" />
<glyph unicode="&#xd3;" horiz-adv-x="1523" d="M115 645q0 196 83 349t230 237t334 84t334 -84t230 -237t83 -349t-83 -349t-230 -237t-334 -84t-334 84t-230 237t-83 349zM254 645q0 -255 139.5 -406t368.5 -151t368.5 151t139.5 406t-139.5 406t-368.5 151t-368.5 -151t-139.5 -406zM711 1450l110 250h174l-198 -250 h-86z" />
<glyph unicode="&#xd4;" horiz-adv-x="1523" d="M115 645q0 196 83 349t230 237t334 84t334 -84t230 -237t83 -349t-83 -349t-230 -237t-334 -84t-334 84t-230 237t-83 349zM254 645q0 -255 139.5 -406t368.5 -151t368.5 151t139.5 406t-139.5 406t-368.5 151t-368.5 -151t-139.5 -406zM518 1450l162 250h164l162 -250 h-101l-143 164l-144 -164h-100z" />
<glyph unicode="&#xd5;" horiz-adv-x="1523" d="M115 645q0 196 83 349t230 237t334 84t334 -84t230 -237t83 -349t-83 -349t-230 -237t-334 -84t-334 84t-230 237t-83 349zM254 645q0 -255 139.5 -406t368.5 -151t368.5 151t139.5 406t-139.5 406t-368.5 151t-368.5 -151t-139.5 -406zM467 1448q0 109 41.5 170 t124.5 61q39 0 77.5 -20.5t65 -45t58.5 -45t59 -20.5q44 0 59.5 29.5t18.5 95.5h88q0 -109 -41.5 -170t-124.5 -61q-39 0 -77.5 20.5t-65 45t-58.5 45t-59 20.5q-44 0 -59.5 -29.5t-18.5 -95.5h-88z" />
<glyph unicode="&#xd6;" horiz-adv-x="1523" d="M115 645q0 196 83 349t230 237t334 84t334 -84t230 -237t83 -349t-83 -349t-230 -237t-334 -84t-334 84t-230 237t-83 349zM254 645q0 -255 139.5 -406t368.5 -151t368.5 151t139.5 406t-139.5 406t-368.5 151t-368.5 -151t-139.5 -406zM547 1462v166h133v-166h-133z M844 1462v166h133v-166h-133z" />
<glyph unicode="&#xd7;" horiz-adv-x="1122" d="M145 289l342 342l-342 342l76 76l338 -347l338 347l76 -76l-342 -342l342 -342l-76 -76l-338 346l-338 -346z" />
<glyph unicode="&#xd8;" horiz-adv-x="1523" d="M115 645q0 196 83 349t230 237t334 84q246 0 424 -148l123 138l80 -64l-132 -145q152 -182 152 -451q0 -196 -83 -349t-230 -237t-334 -84q-234 0 -404 131l-143 -159l-80 63l150 164q-170 188 -170 471zM254 645q0 -231 115 -377l735 809q-138 125 -342 125 q-229 0 -368.5 -151t-139.5 -406zM440 195q128 -107 322 -107q229 0 368.5 151t139.5 406q0 211 -99 356z" />
<glyph unicode="&#xd9;" horiz-adv-x="1372" d="M160 532v758h133v-758q0 -213 105.5 -326.5t287.5 -113.5q183 0 290 114t107 326v758h129v-758q0 -110 -28 -202t-77 -157t-115.5 -110t-143.5 -66.5t-162 -21.5t-162 21.5t-143.5 66.5t-115.5 110t-77 157t-28 202zM467 1700h174l111 -250h-86z" />
<glyph unicode="&#xda;" horiz-adv-x="1372" d="M160 532v758h133v-758q0 -213 105.5 -326.5t287.5 -113.5q183 0 290 114t107 326v758h129v-758q0 -110 -28 -202t-77 -157t-115.5 -110t-143.5 -66.5t-162 -21.5t-162 21.5t-143.5 66.5t-115.5 110t-77 157t-28 202zM635 1450l110 250h175l-199 -250h-86z" />
<glyph unicode="&#xdb;" horiz-adv-x="1372" d="M160 532v758h133v-758q0 -213 105.5 -326.5t287.5 -113.5q183 0 290 114t107 326v758h129v-758q0 -110 -28 -202t-77 -157t-115.5 -110t-143.5 -66.5t-162 -21.5t-162 21.5t-143.5 66.5t-115.5 110t-77 157t-28 202zM442 1450l162 250h164l162 -250h-101l-143 164 l-143 -164h-101z" />
<glyph unicode="&#xdc;" horiz-adv-x="1372" d="M160 532v758h133v-758q0 -213 105.5 -326.5t287.5 -113.5q183 0 290 114t107 326v758h129v-758q0 -110 -28 -202t-77 -157t-115.5 -110t-143.5 -66.5t-162 -21.5t-162 21.5t-143.5 66.5t-115.5 110t-77 157t-28 202zM471 1462v166h133v-166h-133zM768 1462v166h133v-166 h-133z" />
<glyph unicode="&#xdd;" horiz-adv-x="1253" d="M78 1290h151l404 -618l401 618h142l-486 -739v-551h-127v551zM575 1450l111 250h174l-198 -250h-87z" />
<glyph unicode="&#xde;" horiz-adv-x="1310" d="M180 0v1290h131v-258h412q233 0 362 -100.5t129 -276.5t-129 -276t-362 -100h-412v-279h-131zM311 391h412q360 0 360 264q0 265 -360 265h-412v-529z" />
<glyph unicode="&#xdf;" horiz-adv-x="1118" d="M172 0v932q0 165 111 274t290 109q167 0 263 -84t96 -230q0 -116 -65.5 -188.5t-159.5 -87.5q144 -18 226.5 -114t82.5 -232q0 -124 -56.5 -214t-145.5 -132.5t-196 -42.5q-60 0 -145 26v99q83 -27 137 -27q122 0 199.5 74t77.5 217q0 131 -87 210.5t-231 78.5 q-49 0 -86 -2v104q27 -4 86 -4q117 0 177.5 60.5t60.5 172.5q0 98 -60.5 159t-173.5 61q-123 0 -199.5 -79.5t-76.5 -217.5v-922h-125z" />
<glyph unicode="&#xe0;" horiz-adv-x="1046" d="M98 242q0 114 91 179t268 105l260 58v86q0 53 -44 94t-143 41q-108 0 -182 -51t-104 -129l-113 51q48 105 152.5 171t246.5 66q146 0 226 -63t80 -182v-467q0 -107 84 -107q51 0 98 29l6 -109q-53 -32 -117 -32q-84 0 -135.5 57.5t-54.5 144.5q-32 -89 -123.5 -145.5 t-214.5 -56.5q-125 0 -203 71t-78 189zM225 242q0 -67 44 -110.5t128 -43.5q128 0 224 82t96 184v133l-240 -55q-132 -31 -192 -70.5t-60 -119.5zM303 1372h158l127 -311h-86z" />
<glyph unicode="&#xe1;" horiz-adv-x="1046" d="M98 242q0 114 91 179t268 105l260 58v86q0 53 -44 94t-143 41q-108 0 -182 -51t-104 -129l-113 51q48 105 152.5 171t246.5 66q146 0 226 -63t80 -182v-467q0 -107 84 -107q51 0 98 29l6 -109q-53 -32 -117 -32q-84 0 -135.5 57.5t-54.5 144.5q-32 -89 -123.5 -145.5 t-214.5 -56.5q-125 0 -203 71t-78 189zM225 242q0 -67 44 -110.5t128 -43.5q128 0 224 82t96 184v133l-240 -55q-132 -31 -192 -70.5t-60 -119.5zM475 1061l127 311h158l-199 -311h-86z" />
<glyph unicode="&#xe2;" horiz-adv-x="1046" d="M98 242q0 114 91 179t268 105l260 58v86q0 53 -44 94t-143 41q-108 0 -182 -51t-104 -129l-113 51q48 105 152.5 171t246.5 66q146 0 226 -63t80 -182v-467q0 -107 84 -107q51 0 98 29l6 -109q-53 -32 -117 -32q-84 0 -135.5 57.5t-54.5 144.5q-32 -89 -123.5 -145.5 t-214.5 -56.5q-125 0 -203 71t-78 189zM225 242q0 -67 44 -110.5t128 -43.5q128 0 224 82t96 184v133l-240 -55q-132 -31 -192 -70.5t-60 -119.5zM274 1061l168 295h144l168 -295h-97l-143 209l-143 -209h-97z" />
<glyph unicode="&#xe3;" horiz-adv-x="1046" d="M98 242q0 114 91 179t268 105l260 58v86q0 53 -44 94t-143 41q-108 0 -182 -51t-104 -129l-113 51q48 105 152.5 171t246.5 66q146 0 226 -63t80 -182v-467q0 -107 84 -107q51 0 98 29l6 -109q-53 -32 -117 -32q-84 0 -135.5 57.5t-54.5 144.5q-32 -89 -123.5 -145.5 t-214.5 -56.5q-125 0 -203 71t-78 189zM225 242q0 -67 44 -110.5t128 -43.5q128 0 224 82t96 184v133l-240 -55q-132 -31 -192 -70.5t-60 -119.5zM231 1075q0 112 42.5 182t123.5 70q39 0 77.5 -23.5t65 -52t58.5 -52t59 -23.5q43 0 58.5 37.5t19.5 107.5h88 q0 -112 -42.5 -182t-123.5 -70q-39 0 -77.5 23.5t-65 52.5t-58.5 52.5t-59 23.5q-30 0 -47.5 -22t-23 -50t-7.5 -74h-88z" />
<glyph unicode="&#xe4;" horiz-adv-x="1046" d="M98 242q0 114 91 179t268 105l260 58v86q0 53 -44 94t-143 41q-108 0 -182 -51t-104 -129l-113 51q48 105 152.5 171t246.5 66q146 0 226 -63t80 -182v-467q0 -107 84 -107q51 0 98 29l6 -109q-53 -32 -117 -32q-84 0 -135.5 57.5t-54.5 144.5q-32 -89 -123.5 -145.5 t-214.5 -56.5q-125 0 -203 71t-78 189zM225 242q0 -67 44 -110.5t128 -43.5q128 0 224 82t96 184v133l-240 -55q-132 -31 -192 -70.5t-60 -119.5zM311 1106v166h133v-166h-133zM608 1106v166h133v-166h-133z" />
<glyph unicode="&#xe5;" horiz-adv-x="1046" d="M98 242q0 114 91 179t268 105l260 58v86q0 53 -44 94t-143 41q-108 0 -182 -51t-104 -129l-113 51q48 105 152.5 171t246.5 66q146 0 226 -63t80 -182v-467q0 -107 84 -107q51 0 98 29l6 -109q-53 -32 -117 -32q-84 0 -135.5 57.5t-54.5 144.5q-32 -89 -123.5 -145.5 t-214.5 -56.5q-125 0 -203 71t-78 189zM225 242q0 -67 44 -110.5t128 -43.5q128 0 224 82t96 184v133l-240 -55q-132 -31 -192 -70.5t-60 -119.5zM336 1214q0 79 52.5 132t137.5 53t139 -53t54 -132t-54 -131.5t-139 -52.5t-137.5 52.5t-52.5 131.5zM422 1214 q0 -47 27 -75.5t77 -28.5t77.5 28.5t27.5 75.5t-27.5 76t-77.5 29t-77 -29t-27 -76z" />
<glyph unicode="&#xe6;" horiz-adv-x="1671" d="M98 236q0 61 24 107t74.5 78t111 53.5t149.5 41.5l260 57v97q0 53 -44 94t-143 41q-108 0 -182 -51t-104 -129l-113 51q48 105 152.5 171t246.5 66q113 0 184.5 -42t96.5 -119q61 76 149 118.5t191 42.5q101 0 182.5 -35.5t132 -96.5t77 -138t26.5 -164v-47h-738 q0 -158 96.5 -255t233.5 -97q121 0 195.5 54t113.5 163l95 -80q-118 -242 -406 -242q-133 0 -237 61t-160 169q-44 -93 -141.5 -158t-241.5 -65q-126 0 -203.5 68.5t-77.5 185.5zM225 236q0 -66 44 -107t128 -41q128 0 224 82t96 184v123l-240 -55q-48 -11 -74 -18t-60 -19 t-51.5 -24t-35 -30t-24.5 -41.5t-7 -53.5zM838 532h608q-6 115 -83.5 195t-211.5 80q-126 0 -210.5 -80t-102.5 -195z" />
<glyph unicode="&#xe7;" horiz-adv-x="1017" d="M84 444q0 204 128 336.5t329 132.5q134 0 225.5 -60t138.5 -161l-96 -86q-33 89 -101 144t-167 55q-148 0 -237 -98.5t-89 -262.5q0 -163 88.5 -261.5t231.5 -98.5q109 0 181 58t103 153l99 -72q-40 -101 -128 -169t-217 -77l-63 -104q51 9 101.5 1.5t88 -44t37.5 -90.5 q0 -85 -60.5 -125.5t-152.5 -40.5q-70 0 -130 27.5t-99 64.5l35 68q35 -35 86.5 -58.5t107.5 -23.5q48 0 78.5 21.5t30.5 58.5q0 40 -32 60.5t-75 19t-80 -20.5l-40 29l94 157q-185 12 -300.5 141.5t-115.5 325.5z" />
<glyph unicode="&#xe8;" d="M102 432q0 209 126.5 345t316.5 136q101 0 182.5 -35.5t132 -96.5t77 -138t26.5 -164v-47h-738q0 -158 96.5 -255t233.5 -97q121 0 195.5 54t113.5 163l94 -80q-118 -242 -405 -242q-196 0 -323.5 127t-127.5 330zM231 532h609q-6 115 -83.5 195t-211.5 80 q-126 0 -211 -80t-103 -195zM336 1372h158l127 -311h-86z" />
<glyph unicode="&#xe9;" d="M102 432q0 209 126.5 345t316.5 136q101 0 182.5 -35.5t132 -96.5t77 -138t26.5 -164v-47h-738q0 -158 96.5 -255t233.5 -97q121 0 195.5 54t113.5 163l94 -80q-118 -242 -405 -242q-196 0 -323.5 127t-127.5 330zM231 532h609q-6 115 -83.5 195t-211.5 80 q-126 0 -211 -80t-103 -195zM508 1061l127 311h158l-199 -311h-86z" />
<glyph unicode="&#xea;" d="M102 432q0 209 126.5 345t316.5 136q101 0 182.5 -35.5t132 -96.5t77 -138t26.5 -164v-47h-738q0 -158 96.5 -255t233.5 -97q121 0 195.5 54t113.5 163l94 -80q-118 -242 -405 -242q-196 0 -323.5 127t-127.5 330zM231 532h609q-6 115 -83.5 195t-211.5 80 q-126 0 -211 -80t-103 -195zM319 1061l168 295h144l168 -295h-97l-143 209l-143 -209h-97z" />
<glyph unicode="&#xeb;" d="M102 432q0 209 126.5 345t316.5 136q101 0 182.5 -35.5t132 -96.5t77 -138t26.5 -164v-47h-738q0 -158 96.5 -255t233.5 -97q121 0 195.5 54t113.5 163l94 -80q-118 -242 -405 -242q-196 0 -323.5 127t-127.5 330zM231 532h609q-6 115 -83.5 195t-211.5 80 q-126 0 -211 -80t-103 -195zM344 1106v166h133v-166h-133zM641 1106v166h133v-166h-133z" />
<glyph unicode="&#xec;" horiz-adv-x="468" d="M12 1372h158l127 -311h-86zM172 0v889h125v-889h-125z" />
<glyph unicode="&#xed;" horiz-adv-x="468" d="M172 0v889h125v-889h-125zM184 1061l127 311h158l-199 -311h-86z" />
<glyph unicode="&#xee;" horiz-adv-x="468" d="M-6 1061l170 295h143l168 -295h-96l-143 209l-144 -209h-98zM172 0v889h125v-889h-125z" />
<glyph unicode="&#xef;" horiz-adv-x="468" d="M20 1106v166h134v-166h-134zM172 0v889h125v-889h-125zM317 1106v166h134v-166h-134z" />
<glyph unicode="&#xf0;" horiz-adv-x="1120" d="M102 434q0 203 131 332t330 129q95 0 177.5 -46.5t136.5 -129.5q-63 177 -273 352l-254 -100l-33 73l211 82q-86 64 -182 115l64 76q116 -62 231 -146l158 62l35 -72l-121 -47q305 -266 305 -649q0 -233 -126 -361.5t-329 -128.5q-198 0 -329.5 128.5t-131.5 330.5z M238 434q0 -162 86 -259t239 -97t239.5 97t86.5 259q0 164 -86.5 261.5t-239.5 97.5t-239 -97.5t-86 -261.5z" />
<glyph unicode="&#xf1;" horiz-adv-x="1116" d="M172 0v889h125v-189q32 91 119 152t205 61q167 0 249 -97.5t82 -264.5v-551h-125v543q0 121 -62.5 190.5t-180.5 69.5q-123 0 -205 -86t-82 -223v-494h-125zM266 1075q0 112 42.5 182t123.5 70q39 0 77.5 -23.5t65 -52t58.5 -52t59 -23.5q43 0 58.5 37.5t19.5 107.5h88 q0 -112 -42.5 -182t-123.5 -70q-39 0 -77.5 23.5t-65 52.5t-58.5 52.5t-59 23.5q-30 0 -47.5 -22t-23 -50t-7.5 -74h-88z" />
<glyph unicode="&#xf2;" horiz-adv-x="1120" d="M102 444q0 204 132.5 336.5t324.5 132.5q193 0 326 -132.5t133 -336.5t-133 -336.5t-326 -132.5q-192 0 -324.5 132.5t-132.5 336.5zM233 444q0 -163 88.5 -262.5t237.5 -99.5q150 0 239 99t89 263t-89 263.5t-239 99.5q-149 0 -237.5 -99.5t-88.5 -263.5zM338 1372h158 l127 -311h-86z" />
<glyph unicode="&#xf3;" horiz-adv-x="1120" d="M102 444q0 204 132.5 336.5t324.5 132.5q193 0 326 -132.5t133 -336.5t-133 -336.5t-326 -132.5q-192 0 -324.5 132.5t-132.5 336.5zM233 444q0 -163 88.5 -262.5t237.5 -99.5q150 0 239 99t89 263t-89 263.5t-239 99.5q-149 0 -237.5 -99.5t-88.5 -263.5zM510 1061 l127 311h158l-199 -311h-86z" />
<glyph unicode="&#xf4;" horiz-adv-x="1120" d="M102 444q0 204 132.5 336.5t324.5 132.5q193 0 326 -132.5t133 -336.5t-133 -336.5t-326 -132.5q-192 0 -324.5 132.5t-132.5 336.5zM233 444q0 -163 88.5 -262.5t237.5 -99.5q150 0 239 99t89 263t-89 263.5t-239 99.5q-149 0 -237.5 -99.5t-88.5 -263.5zM322 1061 l167 295h144l168 -295h-96l-144 209l-143 -209h-96z" />
<glyph unicode="&#xf5;" horiz-adv-x="1120" d="M102 444q0 204 132.5 336.5t324.5 132.5q193 0 326 -132.5t133 -336.5t-133 -336.5t-326 -132.5q-192 0 -324.5 132.5t-132.5 336.5zM233 444q0 -163 88.5 -262.5t237.5 -99.5q150 0 239 99t89 263t-89 263.5t-239 99.5q-149 0 -237.5 -99.5t-88.5 -263.5zM264 1075 q0 112 42.5 182t123.5 70q39 0 77.5 -23.5t65 -52t58.5 -52t59 -23.5q43 0 58.5 37.5t19.5 107.5h88q0 -112 -42.5 -182t-123.5 -70q-39 0 -77.5 23.5t-65 52.5t-58.5 52.5t-59 23.5q-30 0 -47.5 -22t-23 -50t-7.5 -74h-88z" />
<glyph unicode="&#xf6;" horiz-adv-x="1120" d="M102 444q0 204 132.5 336.5t324.5 132.5q193 0 326 -132.5t133 -336.5t-133 -336.5t-326 -132.5q-192 0 -324.5 132.5t-132.5 336.5zM233 444q0 -163 88.5 -262.5t237.5 -99.5q150 0 239 99t89 263t-89 263.5t-239 99.5q-149 0 -237.5 -99.5t-88.5 -263.5zM346 1106v166 h133v-166h-133zM643 1106v166h133v-166h-133z" />
<glyph unicode="&#xf7;" horiz-adv-x="1310" d="M137 586v106h1037v-106h-1037zM571 129v172h172v-172h-172zM571 977v172h172v-172h-172z" />
<glyph unicode="&#xf8;" horiz-adv-x="1120" d="M98 -14l121 137q-117 133 -117 321q0 204 132.5 336.5t324.5 132.5q157 0 277 -90l112 127l70 -57l-115 -131q115 -128 115 -318q0 -204 -133 -336.5t-326 -132.5q-155 0 -272 88l-119 -135zM233 444q0 -139 64 -231l467 526q-87 68 -205 68q-149 0 -237.5 -99.5 t-88.5 -263.5zM360 145q78 -63 199 -63q150 0 239 99t89 263q0 133 -62 230z" />
<glyph unicode="&#xf9;" horiz-adv-x="1112" d="M164 338v551h125v-543q0 -122 61 -191t178 -69q123 0 205 86t82 223v494h125v-889h-125v188q-33 -91 -119 -152t-204 -61q-166 0 -247 97.5t-81 265.5zM322 1372h157l127 -311h-86z" />
<glyph unicode="&#xfa;" horiz-adv-x="1112" d="M164 338v551h125v-543q0 -122 61 -191t178 -69q123 0 205 86t82 223v494h125v-889h-125v188q-33 -91 -119 -152t-204 -61q-166 0 -247 97.5t-81 265.5zM494 1061l127 311h157l-198 -311h-86z" />
<glyph unicode="&#xfb;" horiz-adv-x="1112" d="M164 338v551h125v-543q0 -122 61 -191t178 -69q123 0 205 86t82 223v494h125v-889h-125v188q-33 -91 -119 -152t-204 -61q-166 0 -247 97.5t-81 265.5zM305 1061l168 295h143l168 -295h-96l-143 209l-144 -209h-96z" />
<glyph unicode="&#xfc;" horiz-adv-x="1112" d="M164 338v551h125v-543q0 -122 61 -191t178 -69q123 0 205 86t82 223v494h125v-889h-125v188q-33 -91 -119 -152t-204 -61q-166 0 -247 97.5t-81 265.5zM330 1106v166h133v-166h-133zM627 1106v166h133v-166h-133z" />
<glyph unicode="&#xfd;" horiz-adv-x="987" d="M35 -182l112 61q0 -145 115 -145q50 0 84.5 40t73.5 134l41 98l-406 883h138l325 -725h8l279 725h127l-393 -983q-26 -65 -49.5 -109t-57.5 -86t-79.5 -63t-102.5 -21q-95 0 -149.5 53t-65.5 138zM457 1061l127 311h157l-198 -311h-86z" />
<glyph unicode="&#xfe;" horiz-adv-x="1148" d="M172 -348v1638h125v-604q34 100 119.5 163.5t208.5 63.5q193 0 307.5 -133.5t114.5 -335.5t-114.5 -335.5t-307.5 -133.5q-123 0 -208.5 64t-119.5 164v-551h-125zM291 424q0 -155 89.5 -251.5t217.5 -96.5q148 0 232.5 99t84.5 269t-84.5 269.5t-232.5 99.5 q-128 0 -217.5 -96.5t-89.5 -251.5v-41z" />
<glyph unicode="&#xff;" horiz-adv-x="987" d="M35 -182l112 61q0 -145 115 -145q50 0 84.5 40t73.5 134l41 98l-406 883h138l325 -725h8l279 725h127l-393 -983q-26 -65 -49.5 -109t-57.5 -86t-79.5 -63t-102.5 -21q-95 0 -149.5 53t-65.5 138zM293 1106v166h133v-166h-133zM590 1106v166h133v-166h-133z" />
<glyph unicode="&#x152;" horiz-adv-x="2215" d="M115 645q0 300 187.5 472.5t504.5 172.5h1261v-112h-806v-449h616v-115h-616v-501h825v-113h-1280q-317 0 -504.5 172.5t-187.5 472.5zM254 645q0 -254 147 -393t424 -139h303v1065h-303q-277 0 -424 -139.5t-147 -393.5z" />
<glyph unicode="&#x153;" horiz-adv-x="1843" d="M102 444q0 204 132.5 336.5t324.5 132.5q121 0 224.5 -60t164.5 -161q60 102 158.5 161.5t216.5 59.5q101 0 182.5 -35.5t132 -96.5t77 -138t26.5 -164v-47h-737q0 -158 96 -255t233 -97q121 0 195.5 54t113.5 163l95 -80q-118 -242 -406 -242q-124 0 -224.5 57.5 t-160.5 157.5q-63 -100 -164.5 -157.5t-222.5 -57.5q-192 0 -324.5 132.5t-132.5 336.5zM233 444q0 -163 88.5 -262.5t237.5 -99.5q150 0 239 99t89 263t-89 263.5t-239 99.5q-149 0 -237.5 -99.5t-88.5 -263.5zM1010 532h608q-6 115 -83.5 195t-211.5 80q-126 0 -210.5 -80 t-102.5 -195z" />
<glyph unicode="&#x178;" horiz-adv-x="1253" d="M78 1290h151l404 -618l401 618h142l-486 -739v-551h-127v551zM412 1462v166h133v-166h-133zM709 1462v166h133v-166h-133z" />
<glyph unicode="&#x2c6;" d="M293 1061l168 295h143l168 -295h-96l-144 209l-143 -209h-96z" />
<glyph unicode="&#x2dc;" d="M236 1075q0 112 42 182t123 70q32 0 63 -15.5t55.5 -37.5t47.5 -44.5t48 -38t47 -15.5q43 0 58 37t19 108h88q0 -112 -42 -182t-123 -70q-32 0 -63 15.5t-55.5 38t-47.5 45t-48 38t-47 15.5q-43 0 -58 -37.5t-19 -108.5h-88z" />
<glyph unicode="&#x2000;" horiz-adv-x="889" />
<glyph unicode="&#x2001;" horiz-adv-x="1778" />
<glyph unicode="&#x2002;" horiz-adv-x="889" />
<glyph unicode="&#x2003;" horiz-adv-x="1778" />
<glyph unicode="&#x2004;" horiz-adv-x="592" />
<glyph unicode="&#x2005;" horiz-adv-x="444" />
<glyph unicode="&#x2006;" horiz-adv-x="296" />
<glyph unicode="&#x2007;" horiz-adv-x="296" />
<glyph unicode="&#x2008;" horiz-adv-x="222" />
<glyph unicode="&#x2009;" horiz-adv-x="355" />
<glyph unicode="&#x200a;" horiz-adv-x="98" />
<glyph unicode="&#x2010;" horiz-adv-x="737" d="M143 465v113h451v-113h-451z" />
<glyph unicode="&#x2011;" horiz-adv-x="737" d="M143 465v113h451v-113h-451z" />
<glyph unicode="&#x2012;" horiz-adv-x="737" d="M143 465v113h451v-113h-451z" />
<glyph unicode="&#x2013;" d="M143 473v98h779v-98h-779z" />
<glyph unicode="&#x2014;" horiz-adv-x="2088" d="M143 473v98h1803v-98h-1803z" />
<glyph unicode="&#x2018;" horiz-adv-x="503" d="M164 864v223q0 109 49.5 168.5t167.5 59.5v-94q-70 0 -97.5 -29t-27.5 -105v-43h88v-180h-180z" />
<glyph unicode="&#x2019;" horiz-adv-x="503" d="M123 840v94q70 0 97.5 28.5t27.5 104.5v43h-88v180h180v-223q0 -109 -49.5 -168t-167.5 -59z" />
<glyph unicode="&#x201a;" horiz-adv-x="503" d="M123 -156q70 0 97.5 28.5t27.5 104.5v43h-88v181h180v-224q0 -109 -49.5 -168t-167.5 -59v94z" />
<glyph unicode="&#x201c;" horiz-adv-x="858" d="M164 864v223q0 109 49.5 168.5t167.5 59.5v-94q-70 0 -97.5 -29t-27.5 -105v-43h88v-180h-180zM518 864v223q0 109 49.5 168.5t167.5 59.5v-94q-70 0 -97.5 -29t-27.5 -105v-43h88v-180h-180z" />
<glyph unicode="&#x201d;" horiz-adv-x="858" d="M123 840v94q70 0 97.5 28.5t27.5 104.5v43h-88v180h180v-223q0 -109 -49.5 -168t-167.5 -59zM477 840v94q70 0 97.5 28.5t27.5 104.5v43h-88v180h180v-223q0 -109 -49.5 -168t-167.5 -59z" />
<glyph unicode="&#x201e;" horiz-adv-x="858" d="M123 -156q70 0 97.5 28.5t27.5 104.5v43h-88v181h180v-224q0 -109 -49.5 -168t-167.5 -59v94zM477 -156q70 0 97.5 28.5t27.5 104.5v43h-88v181h180v-224q0 -109 -49.5 -168t-167.5 -59v94z" />
<glyph unicode="&#x2022;" horiz-adv-x="686" d="M123 522q0 95 63 158t156 63t157 -63t64 -158q0 -94 -64 -156.5t-157 -62.5t-156 62t-63 157z" />
<glyph unicode="&#x2026;" horiz-adv-x="1695" d="M143 0v180h181v-180h-181zM758 0v180h180v-180h-180zM1372 0v180h180v-180h-180z" />
<glyph unicode="&#x202f;" horiz-adv-x="355" />
<glyph unicode="&#x2039;" horiz-adv-x="559" d="M123 393v99l313 292v-147l-209 -195l209 -194v-148z" />
<glyph unicode="&#x203a;" horiz-adv-x="559" d="M123 100v148l209 194l-209 195v147l313 -292v-99z" />
<glyph unicode="&#x205f;" horiz-adv-x="444" />
<glyph unicode="&#x20ac;" horiz-adv-x="1312" d="M66 467v96h149q0 13 -1 40t-1 42q0 51 2 76h-149v96h161q39 229 176 363.5t342 134.5q188 0 312.5 -101.5t171.5 -275.5l-117 -72q-29 156 -122 248t-245 92q-158 0 -258 -103t-131 -286h426l-20 -96h-418q-2 -25 -2 -76q0 -55 2 -82h395l-20 -96h-363q33 -181 132 -282 t257 -101q156 0 248 92t121 256l121 -55q-46 -187 -171 -294.5t-319 -107.5q-203 0 -340.5 132.5t-177.5 359.5h-161z" />
<glyph unicode="&#x2122;" horiz-adv-x="1462" d="M41 1200v90h524v-90h-211v-495h-106v495h-207zM684 705v585h168l139 -452h6l140 452h161v-585h-104v491h-4l-156 -491h-90l-158 491h-4v-491h-98z" />
<glyph unicode="&#xe000;" horiz-adv-x="890" d="M0 0v891h891v-891h-891z" />
</font>
</defs>
</svg>
