<?xml version="1.0" standalone="no"?>
<!DOCTYPE svg PUBLIC "-//W3C//DTD SVG 1.1//EN" "http://www.w3.org/Graphics/SVG/1.1/DTD/svg11.dtd" >
<svg xmlns="http://www.w3.org/2000/svg">
<metadata></metadata>
<defs>
<font id="founders_grotesk_textmedium" horiz-adv-x="1527" >
<font-face units-per-em="2048" ascent="1577" descent="-471" />
<missing-glyph horiz-adv-x="524" />
<glyph unicode="&#xfb01;" horiz-adv-x="1232" d="M43 729v174h154v19q0 173 120 283t316 110q147 0 245.5 -53t141.5 -142l-170 -98q-18 56 -69 88.5t-130 32.5q-105 0 -158 -59.5t-53 -165.5v-15h650v-903h-246v729h-404v-729h-243v729h-154z" />
<glyph unicode="&#xfb02;" horiz-adv-x="1232" d="M43 729v174h154v58q0 163 100.5 258.5t257.5 95.5q116 0 193 -49l-58 -166q-42 39 -108 39q-68 0 -105 -43.5t-37 -130.5v-62h230v-174h-230v-729h-243v729h-154zM844 0v1290h246v-1290h-246z" />
<glyph unicode="&#xfb03;" horiz-adv-x="1880" d="M43 729v174h154v37q0 162 100 258t254 96q168 0 260 -92l-94 -139q-48 55 -127 55q-150 0 -150 -180v-35h404v19q0 173 120 283t316 110q146 0 244 -53t141 -142l-168 -98q-19 56 -70.5 88.5t-130.5 32.5q-105 0 -158 -59.5t-53 -165.5v-15h650v-903h-246v729h-404v-729 h-241v729h-404v-729h-243v729h-154z" />
<glyph unicode="&#xfb04;" horiz-adv-x="1880" d="M43 729v174h154v37q0 162 100 258t254 96q168 0 260 -92l-94 -139q-48 55 -127 55q-150 0 -150 -180v-35h404v58q0 163 100 258.5t258 95.5q112 0 193 -49l-58 -166q-45 39 -108 39q-68 0 -106 -43.5t-38 -130.5v-62h232v-174h-232v-729h-241v729h-404v-729h-243v729 h-154zM1489 0v1290h246v-1290h-246z" />
<glyph horiz-adv-x="2048" />
<glyph horiz-adv-x="2048" />
<glyph unicode="&#xd;" horiz-adv-x="2048" />
<glyph unicode=" "  horiz-adv-x="524" />
<glyph unicode="&#x09;" horiz-adv-x="524" />
<glyph unicode="&#xa0;" horiz-adv-x="524" />
<glyph unicode="!" horiz-adv-x="512" d="M119 0v274h274v-274h-274zM125 926v364h262v-364l-59 -504h-144z" />
<glyph unicode="&#x22;" horiz-adv-x="817" d="M123 737v553h201v-553h-201zM492 737v553h202v-553h-202z" />
<glyph unicode="#" horiz-adv-x="1341" d="M61 340l33 160h203l70 291h-222l33 159h225l82 340h193l-82 -340h293l82 340h192l-82 -340h199l-31 -159h-205l-69 -291h221l-33 -160h-225l-82 -340h-192l81 340h-292l-82 -340h-193l82 340h-199zM489 500h293l70 291h-293z" />
<glyph unicode="$" horiz-adv-x="1255" d="M37 246l158 176q59 -99 156.5 -161.5t213.5 -80.5v367l-114 24q-353 74 -353 351q0 168 127.5 276t339.5 117v192h140v-198q284 -36 440 -240l-164 -162q-86 159 -276 199v-354l96 -21q194 -42 290.5 -125.5t96.5 -238.5q0 -168 -136 -272t-347 -118v-202h-140v202 q-170 13 -307 84.5t-221 184.5zM338 936q0 -63 44.5 -93.5t137.5 -51.5l45 -11v334q-98 -6 -162.5 -54t-64.5 -124zM705 176q112 9 177.5 54t65.5 120q0 68 -46.5 100.5t-143.5 53.5l-53 12v-340z" />
<glyph unicode="%" horiz-adv-x="1820" d="M88 971q0 141 100.5 242.5t241.5 101.5q142 0 243 -101.5t101 -242.5t-101 -241.5t-243 -100.5q-141 0 -241.5 100.5t-100.5 241.5zM250 971q0 -77 53 -131t127 -54q75 0 128.5 53.5t53.5 131.5q0 79 -53.5 133.5t-128.5 54.5q-74 0 -127 -54.5t-53 -133.5zM418 0 l805 1290h180l-805 -1290h-180zM1047 319q0 141 101 242t243 101q141 0 241.5 -101t100.5 -242t-100.5 -242.5t-241.5 -101.5q-142 0 -243 101.5t-101 242.5zM1208 319q0 -79 53.5 -133.5t129.5 -54.5q74 0 127 54.5t53 133.5q0 77 -53 131t-127 54q-75 0 -129 -54t-54 -131 z" />
<glyph unicode="&#x26;" horiz-adv-x="1415" d="M72 336q0 119 68.5 202t209.5 156q-67 73 -100 139t-33 148q0 152 112.5 243t282.5 91q172 0 269.5 -86.5t97.5 -218.5q0 -113 -67.5 -190.5t-221.5 -153.5l260 -265q78 114 125 275l221 -12q-64 -228 -209 -404q51 -51 89.5 -72.5t93.5 -21.5q46 0 106 14v-153 q-67 -43 -180 -43q-66 0 -130 25.5t-142 92.5q-181 -127 -394 -127q-131 0 -234 41t-163.5 124t-60.5 196zM315 342q0 -85 61.5 -132.5t158.5 -47.5q131 0 251 76l-311 323q-79 -41 -119.5 -92.5t-40.5 -126.5zM451 989q0 -28 8.5 -53.5t29.5 -53.5t34.5 -43t43.5 -46 q106 48 146.5 93t40.5 118q0 59 -38 100t-108 41t-113.5 -42.5t-43.5 -113.5z" />
<glyph unicode="'" horiz-adv-x="458" d="M123 737v553h213v-553h-213z" />
<glyph unicode="(" horiz-adv-x="684" d="M106 590q0 210 76.5 411.5t212.5 350.5h232q-151 -173 -214 -361.5t-63 -400.5t63 -400.5t214 -361.5h-232q-136 149 -212.5 350.5t-76.5 411.5z" />
<glyph unicode=")" horiz-adv-x="684" d="M57 -172q151 173 214 361.5t63 400.5t-63 400.5t-214 361.5h232q136 -148 211 -349.5t75 -412.5t-75 -412.5t-211 -349.5h-232z" />
<glyph unicode="*" horiz-adv-x="790" d="M45 987l49 150l223 -76v239h158v-237l223 76l50 -150l-226 -74l142 -190l-129 -92l-140 190l-137 -192l-127 94l139 190z" />
<glyph unicode="+" horiz-adv-x="1298" d="M119 535v204h428v430h205v-430h428v-204h-428v-429h-205v429h-428z" />
<glyph unicode="," horiz-adv-x="524" d="M106 -170q70 0 106 33t36 108v29h-125v281h278v-308q0 -134 -73.5 -205t-221.5 -71v133z" />
<glyph unicode="-" horiz-adv-x="757" d="M125 416v215h508v-215h-508z" />
<glyph unicode="." horiz-adv-x="524" d="M123 0v281h278v-281h-278z" />
<glyph unicode="/" horiz-adv-x="768" d="M4 -170l508 1520h229l-510 -1520h-227z" />
<glyph unicode="0" horiz-adv-x="1325" d="M104 645q0 318 149 494t409 176q262 0 410.5 -175.5t148.5 -494.5t-148.5 -494.5t-410.5 -175.5q-260 0 -409 176t-149 494zM375 645q0 -235 69.5 -349t217.5 -114q149 0 218.5 113.5t69.5 349.5t-69.5 349.5t-218.5 113.5q-148 0 -217.5 -114t-69.5 -349z" />
<glyph unicode="1" horiz-adv-x="862" d="M68 913v187h96q79 0 130 9.5t86 34.5t54.5 59t36.5 91h188v-1294h-258v913h-333z" />
<glyph unicode="2" horiz-adv-x="1157" d="M98 0v172l365 297q63 52 95.5 80t77 69.5t66.5 69.5t44.5 63.5t31 70.5t8.5 73q0 92 -53 147.5t-153 55.5q-109 0 -169.5 -66t-60.5 -180q0 -61 19 -113l-252 11q-17 70 -17 120q0 202 132 323.5t348 121.5q224 0 347.5 -113.5t123.5 -292.5q0 -66 -20.5 -128t-50 -110.5 t-81.5 -103.5t-96 -93t-113 -93l-203 -164h594v-217h-983z" />
<glyph unicode="3" horiz-adv-x="1165" d="M61 369l246 57q7 -114 84.5 -179t196.5 -65q99 0 162 48.5t63 136.5q0 89 -67.5 136.5t-172.5 47.5q-44 0 -110 -12v209q74 -11 112 -11q96 0 159 43t63 135q0 88 -57 140.5t-160 52.5q-107 0 -172.5 -68.5t-71.5 -183.5l-244 51q21 180 152.5 294t341.5 114 q219 0 342 -101.5t123 -267.5q0 -118 -83 -199t-192 -94q130 -14 214.5 -99.5t84.5 -207.5q0 -170 -133.5 -270.5t-355.5 -100.5q-223 0 -363 105.5t-162 288.5z" />
<glyph unicode="4" horiz-adv-x="1286" d="M82 311v248l592 731h321v-766h226v-213h-226v-311h-247v311h-666zM295 524h453v557z" />
<glyph unicode="5" horiz-adv-x="1171" d="M74 383l256 41q3 -111 75 -177.5t191 -66.5q111 0 178.5 67t67.5 179q0 107 -65.5 177.5t-180.5 70.5q-76 0 -136.5 -32.5t-94.5 -82.5l-234 37q26 154 50 354.5t28 339.5h807q13 -106 -33.5 -169.5t-159.5 -63.5q-86 0 -424 33q-19 -261 -41 -355q42 56 119 91.5 t172 35.5q199 0 316.5 -124.5t117.5 -311.5q0 -203 -137.5 -327t-351.5 -124q-221 0 -362 112t-158 296z" />
<glyph unicode="6" horiz-adv-x="1226" d="M104 629q0 151 35.5 276t103.5 216.5t174 142.5t242 51q183 0 303 -88t154 -248l-235 -45q-18 85 -74.5 130.5t-151.5 45.5q-84 0 -146 -38.5t-98 -108t-52.5 -157.5t-14.5 -194q37 103 129 165.5t232 62.5q189 0 307 -118t118 -304q0 -200 -133.5 -321.5t-351.5 -121.5 q-260 0 -400.5 174.5t-140.5 479.5zM391 416q0 -106 68 -172t182 -66t180 66t66 172q0 110 -66 173.5t-184 63.5q-115 0 -180.5 -64t-65.5 -173z" />
<glyph unicode="7" horiz-adv-x="1101" d="M72 1053v237h958v-172q-120 -121 -202.5 -253.5t-127.5 -275t-63.5 -282t-20.5 -307.5h-284q8 613 420 1053h-680z" />
<glyph unicode="8" horiz-adv-x="1222" d="M92 346q0 118 84 204t197 109q-108 37 -172 113t-64 184q0 165 131.5 262t341.5 97q212 0 343.5 -97t131.5 -262q0 -108 -64 -184t-173 -113q114 -23 197 -108.5t83 -204.5q0 -172 -137 -271.5t-381 -99.5q-243 0 -380.5 100t-137.5 271zM358 369q0 -95 66 -148t186 -53 t186 53t66 148q0 96 -65.5 146t-186.5 50t-186.5 -50t-65.5 -146zM393 932q0 -88 58.5 -136t158.5 -48t159.5 48t59.5 136q0 94 -59 144t-160 50t-159 -49.5t-58 -144.5z" />
<glyph unicode="9" horiz-adv-x="1226" d="M96 872q0 200 134 321.5t352 121.5q260 0 400 -174t140 -479q0 -151 -35.5 -276t-103.5 -217t-174 -143t-242 -51q-183 0 -302.5 88t-153.5 248l235 45q36 -176 225 -176q84 0 146.5 38.5t98 108t52.5 157.5t15 194q-37 -103 -129 -165t-232 -62q-190 0 -308 118 t-118 303zM340 874q0 -110 66 -173.5t184 -63.5q115 0 180.5 64t65.5 173q0 106 -68 172t-182 66t-180 -66t-66 -172z" />
<glyph unicode=":" horiz-adv-x="524" d="M123 0v281h278v-281h-278zM123 600v281h278v-281h-278z" />
<glyph unicode=";" horiz-adv-x="524" d="M106 -170q70 0 106 33t36 108v29h-125v281h278v-308q0 -134 -73.5 -205t-221.5 -71v133zM123 600v281h278v-281h-278z" />
<glyph unicode="&#x3c;" horiz-adv-x="995" d="M92 496v274l811 389v-235l-624 -291l624 -291v-238z" />
<glyph unicode="=" horiz-adv-x="1335" d="M135 352v191h1063v-191h-1063zM135 733v193h1063v-193h-1063z" />
<glyph unicode="&#x3e;" horiz-adv-x="995" d="M94 104v238l621 291l-621 291v235l809 -389v-274z" />
<glyph unicode="?" horiz-adv-x="1099" d="M82 870q0 202 130.5 323.5t344.5 121.5q221 0 341 -110.5t120 -278.5q0 -63 -18 -115.5t-57 -98.5t-75 -78t-96 -77q-60 -48 -82.5 -77t-23.5 -77h-236q1 81 33.5 137.5t111.5 118.5q7 6 38 31t39 32.5t31 29t30.5 35t20 35.5t16.5 44.5t4 48.5q0 84 -51 137.5t-148 53.5 q-111 0 -167 -67.5t-56 -186.5q0 -43 6 -80l-248 16q-8 58 -8 82zM408 0v262h274v-262h-274z" />
<glyph unicode="@" horiz-adv-x="1611" d="M80 373q0 224 97.5 402.5t281 282t422.5 103.5q303 0 481 -167.5t178 -432.5q0 -122 -34.5 -218t-92.5 -154.5t-130.5 -88.5t-152.5 -30q-172 0 -219 139q-77 -139 -235 -139q-121 0 -192.5 76.5t-71.5 213.5q0 115 43.5 215t129.5 164t195 64q81 0 136.5 -33t78.5 -88 l29 104h201l-121 -473q-13 -59 3.5 -84.5t61.5 -25.5q99 0 156 89t57 269q0 211 -130.5 334t-370.5 123q-291 0 -465 -178t-174 -469q0 -164 73 -283t198 -178.5t288 -59.5q232 0 422 93l45 -117q-195 -117 -469 -117q-208 0 -369 76t-255.5 228t-94.5 360zM627 371 q0 -146 110 -146q63 0 113.5 48t71.5 143l12 45q20 91 -11 143.5t-104 52.5q-57 0 -102 -44t-67.5 -108.5t-22.5 -133.5z" />
<glyph unicode="A" horiz-adv-x="1409" d="M45 0l512 1290h289l518 -1290h-274l-123 317h-543l-121 -317h-258zM500 516h389l-193 496h-8z" />
<glyph unicode="B" horiz-adv-x="1390" d="M160 0v1290h622q236 0 350.5 -92.5t114.5 -257.5q0 -106 -82 -180.5t-204 -89.5q138 -20 230.5 -102.5t92.5 -213.5q0 -168 -122 -261t-347 -93h-655zM410 209h381q118 0 177.5 46t59.5 130q0 82 -60 130t-177 48h-381v-354zM410 750h360q111 0 165 44.5t54 120.5 t-54 121t-165 45h-360v-331z" />
<glyph unicode="C" horiz-adv-x="1423" d="M98 645q0 195 87.5 348.5t238 237.5t334.5 84q216 0 362 -98.5t209 -270.5l-227 -117q-34 120 -120.5 190.5t-225.5 70.5q-176 0 -283.5 -121t-107.5 -324q0 -202 107.5 -323t279.5 -121q152 0 240.5 76.5t117.5 211.5l236 -94q-53 -195 -204.5 -307.5t-387.5 -112.5 q-183 0 -332 84t-236.5 238t-87.5 348z" />
<glyph unicode="D" horiz-adv-x="1468" d="M160 0v1290h520q320 0 506 -172t186 -473t-186 -473t-506 -172h-520zM418 207h239q215 0 331 115t116 325q0 207 -116.5 321.5t-330.5 114.5h-239v-876z" />
<glyph unicode="E" horiz-adv-x="1308" d="M160 0v1290h1024v-219h-772v-301h581v-217h-581v-334h790v-219h-1042z" />
<glyph unicode="F" horiz-adv-x="1259" d="M160 0v1290h1011v-219h-755v-321h581v-218h-581v-532h-256z" />
<glyph unicode="G" horiz-adv-x="1517" d="M98 645q0 145 53.5 271.5t144 213t212 136t256.5 49.5q218 0 366 -92t209 -260l-223 -125q-29 115 -119 183.5t-233 68.5q-178 0 -288.5 -122t-110.5 -323q0 -206 111 -328t298 -122q147 0 238 74.5t118 203.5h-425v182h665v-655h-180l-35 199q-47 -105 -161 -164.5 t-261 -59.5q-134 0 -251 49t-201.5 136t-133.5 212.5t-49 272.5z" />
<glyph unicode="H" horiz-adv-x="1529" d="M160 0v1290h258v-514h694v514h258v-1290h-258v553h-694v-553h-258z" />
<glyph unicode="I" horiz-adv-x="575" d="M160 0v1290h258v-1290h-258z" />
<glyph unicode="J" horiz-adv-x="1214" d="M82 502l264 51q-5 -39 -5 -75q0 -114 47 -186q61 -95 192 -95q231 0 231 286v807h260v-823q0 -233 -137 -362.5t-356 -129.5q-235 0 -369 141q-127 135 -127 362v24z" />
<glyph unicode="K" horiz-adv-x="1400" d="M160 0v1290h258v-604l590 604h307l-522 -524l571 -766h-315l-445 598l-186 -192v-406h-258z" />
<glyph unicode="L" horiz-adv-x="1267" d="M160 0v1290h258v-1065h762v-225h-1020z" />
<glyph unicode="M" horiz-adv-x="1736" d="M160 0v1290h403l307 -864h7l292 864h410v-1290h-264v1047h-8l-377 -1047h-137l-383 1047h-9v-1047h-241z" />
<glyph unicode="N" horiz-adv-x="1464" d="M160 0v1290h289l618 -884v884h238v-1290h-228l-682 956v-956h-235z" />
<glyph unicode="O" d="M98 645q0 195 88 348.5t240 237.5t338 84q187 0 339 -84t239.5 -237.5t87.5 -348.5t-87.5 -348.5t-239.5 -237.5t-339 -84q-186 0 -338 84t-240 237.5t-88 348.5zM365 645q0 -202 110 -323t289 -121t289 121t110 323t-110 323.5t-289 121.5t-289 -121.5t-110 -323.5z" />
<glyph unicode="P" horiz-adv-x="1337" d="M160 0v1290h590q246 0 382 -105.5t136 -297.5t-136 -299t-382 -107h-334v-481h-256zM416 690h323q279 0 279 197q0 194 -279 194h-323v-391z" />
<glyph unicode="Q" d="M98 645q0 195 88 348.5t240 237.5t338 84q187 0 339 -84t239.5 -237.5t87.5 -348.5q0 -261 -153.5 -441.5t-395.5 -219.5v-10q0 -57 31 -93q34 -39 96 -39q88 0 159 74l47 -180q-46 -38 -112.5 -60t-136.5 -22q-142 0 -224 87q-76 80 -76 217q0 12 1 24 q-249 33 -408.5 214.5t-159.5 448.5zM365 645q0 -202 110 -323t289 -121t289 121t110 323t-110 323.5t-289 121.5t-289 -121.5t-110 -323.5z" />
<glyph unicode="R" horiz-adv-x="1394" d="M160 0v1290h626q240 0 363 -98.5t123 -271.5q0 -122 -97 -208t-235 -94q104 -20 169.5 -96t86.5 -192q25 -144 55.5 -212.5t75.5 -103.5v-14h-301q-48 45 -68 254q-11 136 -63.5 202t-163.5 66h-317v-522h-254zM414 721h329q273 0 273 180t-266 180h-336v-360z" />
<glyph unicode="S" horiz-adv-x="1292" d="M49 238l162 186q69 -116 189 -178t259 -62q128 0 207.5 45t79.5 127q0 65 -47 96.5t-141 53.5l-291 59q-352 73 -352 357q0 175 138.5 284t364.5 109q179 0 317 -66t228 -180l-174 -168q-55 94 -148 149.5t-223 55.5q-109 0 -177 -45t-68 -123q0 -63 44.5 -93t133.5 -50 l268 -58q191 -40 288 -127t97 -243q0 -121 -73.5 -211.5t-196 -135.5t-275.5 -45q-199 0 -359 69.5t-251 193.5z" />
<glyph unicode="T" horiz-adv-x="1437" d="M82 1065v225h1274v-225h-512v-1065h-256v1065h-506z" />
<glyph unicode="U" horiz-adv-x="1435" d="M143 528v762h258v-727q0 -177 82 -272.5t234 -95.5q153 0 235 95.5t82 272.5v727h256v-762q0 -137 -45.5 -244.5t-125.5 -174t-182 -100.5t-220 -34t-220.5 34t-182 100.5t-125.5 174t-46 244.5z" />
<glyph unicode="V" horiz-adv-x="1384" d="M47 1290h283l366 -983h9l362 983h270l-508 -1290h-276z" />
<glyph unicode="W" horiz-adv-x="1888" d="M61 1290h256l252 -946h9l251 946h238l254 -948h8l250 948h248l-348 -1290h-285l-248 930h-8l-248 -930h-282z" />
<glyph unicode="X" horiz-adv-x="1425" d="M51 0l512 668l-473 622h307l320 -432l325 432h291l-473 -614l516 -676h-307l-360 483l-365 -483h-293z" />
<glyph unicode="Y" horiz-adv-x="1325" d="M47 1290h301l326 -516l321 516h283l-490 -751v-539h-249v539z" />
<glyph unicode="Z" horiz-adv-x="1327" d="M109 0v203l763 862h-755v225h1085v-209l-766 -856h785v-225h-1112z" />
<glyph unicode="[" horiz-adv-x="677" d="M158 -172v1524h434v-176h-211v-1172h211v-176h-434z" />
<glyph unicode="\" horiz-adv-x="768" d="M29 1350h227l508 -1520h-227z" />
<glyph unicode="]" horiz-adv-x="677" d="M86 4h209v1172h-209v176h432v-1524h-432v176z" />
<glyph unicode="^" horiz-adv-x="839" d="M39 868l256 422h250l256 -422h-230l-151 258l-152 -258h-229z" />
<glyph unicode="_" horiz-adv-x="819" d="M59 -86h699v-188h-699v188z" />
<glyph unicode="`" horiz-adv-x="1062" d="M344 1352h256l117 -312h-162z" />
<glyph unicode="a" horiz-adv-x="1122" d="M78 242q0 60 24 105.5t71.5 78t103.5 54t135 40.5l280 68v47q0 54 -36 84.5t-109 30.5q-88 0 -147.5 -42t-73.5 -104l-215 62q49 119 164 190.5t282 71.5q367 0 367 -303v-398q0 -37 18.5 -56t50.5 -19q52 0 101 36l16 -155q-88 -56 -182 -56q-93 0 -157 54t-75 135 q-36 -83 -123 -132.5t-204 -49.5q-130 0 -210.5 69t-80.5 189zM317 262q0 -50 34.5 -81t94.5 -31q99 0 172.5 63t73.5 156v92l-205 -53q-84 -23 -127 -55t-43 -91z" />
<glyph unicode="b" horiz-adv-x="1208" d="M145 0v1290h244v-565q37 93 117 148t196 55q194 0 309 -135.5t115 -341.5q0 -133 -50 -240t-149.5 -171.5t-232.5 -64.5q-114 0 -197.5 54.5t-117.5 146.5l-53 -176h-181zM383 432q0 -122 70.5 -197t175.5 -75q116 0 182 80.5t66 210.5q0 132 -66 212t-182 80 q-105 0 -175.5 -75t-70.5 -197v-39z" />
<glyph unicode="c" horiz-adv-x="1056" d="M74 451q0 213 135.5 345t351.5 132q162 0 270.5 -74t149.5 -199l-207 -77q-52 161 -205 161q-109 0 -176 -76.5t-67 -211.5q0 -134 66.5 -210.5t174.5 -76.5q84 0 138 48t77 132l209 -68q-36 -134 -147.5 -217.5t-284.5 -83.5q-215 0 -350 131.5t-135 344.5z" />
<glyph unicode="d" horiz-adv-x="1208" d="M82 451q0 206 115 341.5t309 135.5q116 0 196 -55t117 -148v565h246v-1290h-246v178q-37 -93 -117 -148t-196 -55q-194 0 -309 136t-115 340zM332 451q0 -130 66 -210.5t184 -80.5q104 0 173.5 75t69.5 197v39q0 122 -69.5 197t-173.5 75q-118 0 -184 -80t-66 -212z" />
<glyph unicode="e" horiz-adv-x="1091" d="M82 438q0 213 137 351.5t344 138.5q108 0 194.5 -36t141 -98.5t83 -142t28.5 -170.5v-65h-686q1 -116 72.5 -187t181.5 -71q175 0 239 149l189 -71q-49 -128 -161 -194.5t-276 -66.5q-215 0 -351 128.5t-136 334.5zM330 543h452q-5 90 -62 149.5t-157 59.5 q-97 0 -158 -59t-75 -150z" />
<glyph unicode="f" horiz-adv-x="753" d="M43 729v174h154v55q0 162 108 259.5t279 97.5q126 0 210 -50t121 -135l-139 -108q-17 50 -59 83.5t-111 33.5q-76 0 -121 -48t-45 -141v-47h242v-174h-242v-729h-243v729h-154z" />
<glyph unicode="g" horiz-adv-x="1136" d="M53 -123q0 66 53 113.5t136 56.5q-64 19 -100 63.5t-36 102.5q0 63 41.5 109.5t112.5 72.5q-125 82 -125 230q0 138 112 220.5t292 82.5q163 0 276 -74q40 75 117 122q61 38 138 38q20 0 40 -2l18 -193q-26 6 -55 6q-32 0 -67 -8q-65 -15 -103 -47q43 -65 43 -145 q0 -138 -113 -219.5t-294 -81.5q-96 0 -185 26q-57 -26 -57 -76q0 -67 102 -67h383q146 0 229 -68t83 -180q0 -81 -47 -143.5t-126.5 -100t-176.5 -56.5t-205 -19q-101 0 -186 13t-153.5 40.5t-107.5 74.5t-39 109zM268 -98q0 -67 75 -98t198 -31q142 0 230.5 35.5 t88.5 103.5q0 90 -143 90h-320q-56 0 -92.5 -26t-36.5 -74zM377 625q0 -74 46 -118t118 -44t118 44t46 118q0 72 -46 116.5t-118 44.5t-118 -44.5t-46 -116.5z" />
<glyph unicode="h" horiz-adv-x="1185" d="M145 0v1290h244v-557q35 84 123.5 139.5t196.5 55.5q172 0 257 -101.5t85 -263.5v-563h-244v514q0 105 -50 162t-143 57q-100 0 -162.5 -74t-62.5 -192v-467h-244z" />
<glyph unicode="i" horiz-adv-x="534" d="M133 1065v225h268v-225h-268zM145 0v903h244v-903h-244z" />
<glyph unicode="j" horiz-adv-x="534" d="M-125 -295l45 143q75 -43 143 -43q82 0 82 89v1009h244v-983q0 -280 -283 -280q-136 0 -231 65zM133 1065v225h268v-225h-268z" />
<glyph unicode="k" horiz-adv-x="1144" d="M145 0v1290h244v-784l436 397h279l-404 -352l418 -551h-278l-312 406l-139 -125v-281h-244z" />
<glyph unicode="l" horiz-adv-x="534" d="M145 0v1290h244v-1290h-244z" />
<glyph unicode="m" horiz-adv-x="1808" d="M145 0v903h244v-170q33 83 121 139t192 56q119 0 195.5 -55t106.5 -152q32 88 123.5 147.5t215.5 59.5q86 0 151 -28.5t103 -79t57 -115t19 -142.5v-563h-246v514q0 105 -47.5 162t-136.5 57q-94 0 -152.5 -74t-58.5 -192v-467h-246v514q0 105 -47.5 162t-136.5 57 q-94 0 -153.5 -74t-59.5 -192v-467h-244z" />
<glyph unicode="n" horiz-adv-x="1185" d="M145 0v903h244v-170q35 84 123.5 139.5t196.5 55.5q172 0 257 -101.5t85 -263.5v-563h-244v514q0 105 -50 162t-143 57q-100 0 -162.5 -74t-62.5 -192v-467h-244z" />
<glyph unicode="o" horiz-adv-x="1153" d="M82 451q0 209 141 343t352 134q213 0 354.5 -134t141.5 -343q0 -208 -142 -342t-354 -134q-138 0 -250.5 60.5t-177.5 169.5t-65 246zM334 451q0 -132 64.5 -212.5t176.5 -80.5q113 0 178.5 80.5t65.5 212.5q0 133 -65.5 213.5t-178.5 80.5t-177 -80t-64 -214z" />
<glyph unicode="p" horiz-adv-x="1208" d="M145 -336v1239h244v-178q37 93 117 148t196 55q194 0 309 -135.5t115 -341.5q0 -204 -115 -340t-309 -136q-116 0 -196 55t-117 148v-514h-244zM383 432q0 -122 70.5 -197t175.5 -75q116 0 182 80.5t66 210.5q0 132 -66 212t-182 80q-105 0 -175.5 -75t-70.5 -197v-39z " />
<glyph unicode="q" horiz-adv-x="1208" d="M82 451q0 206 115 341.5t309 135.5q116 0 196 -55t117 -148v178h244v-1239h-244v514q-37 -93 -117 -148t-196 -55q-194 0 -309 136t-115 340zM332 451q0 -130 66 -210.5t182 -80.5q105 0 175 75t70 197v39q0 122 -70 197t-175 75q-116 0 -182 -80t-66 -212z" />
<glyph unicode="r" horiz-adv-x="1021" d="M143 0v903h246v-201q37 94 113.5 160t185.5 66q132 0 204.5 -85.5t72.5 -224.5q0 -24 -4 -32l-203 -76q4 14 4 55q0 73 -36 115.5t-110 42.5q-102 0 -164.5 -87t-62.5 -218v-418h-246z" />
<glyph unicode="s" horiz-adv-x="1026" d="M61 178l152 123q43 -73 131 -114.5t184 -41.5q83 0 131 24t48 73q0 39 -30 60t-89 34l-195 41q-284 59 -284 270q0 123 105 202t269 79q282 0 416 -183l-141 -112q-93 125 -275 125q-62 0 -104.5 -24.5t-42.5 -65.5q0 -35 24.5 -56.5t77.5 -33.5l238 -54 q117 -27 187.5 -89.5t70.5 -166.5q0 -134 -110.5 -213.5t-293.5 -79.5q-146 0 -276 54t-193 149z" />
<glyph unicode="t" horiz-adv-x="944" d="M43 729v174h176v234l238 55v-289h354v-174h-354v-401q0 -73 37.5 -113.5t99.5 -40.5q67 0 104 33t80 112l121 -151q-46 -81 -135 -137t-207 -56q-148 0 -243 84.5t-95 247.5v422h-176z" />
<glyph unicode="u" horiz-adv-x="1181" d="M135 340v563h246v-514q0 -106 47 -162.5t139 -56.5q100 0 162 74t62 192v467h245v-903h-245v170q-33 -84 -121.5 -139.5t-196.5 -55.5q-89 0 -155.5 28.5t-105.5 79t-58 115t-19 142.5z" />
<glyph unicode="v" horiz-adv-x="1073" d="M37 903h256l252 -645h8l254 645h229l-370 -903h-258z" />
<glyph unicode="w" horiz-adv-x="1501" d="M39 903h242l180 -604h8l188 604h201l191 -604h8l180 604h225l-278 -903h-240l-188 598h-8l-189 -598h-240z" />
<glyph unicode="x" horiz-adv-x="1077" d="M41 0l362 463l-333 440h276l197 -266l198 266h258l-331 -430l368 -473h-276l-232 301l-229 -301h-258z" />
<glyph unicode="y" horiz-adv-x="1073" d="M18 -129l179 92q0 -135 98 -135q39 0 65.5 28t51.5 87l22 51l-399 909h268l254 -629h8l238 629h233l-368 -901q-28 -69 -53.5 -119.5t-60 -98.5t-72 -78t-87.5 -48t-108 -18q-115 0 -186 64t-83 167z" />
<glyph unicode="z" horiz-adv-x="1017" d="M106 0v172l496 547h-483v184h784v-170l-502 -549h514v-184h-809z" />
<glyph unicode="{" horiz-adv-x="745" d="M82 504v172h51q61 0 78.5 30t17.5 119v285q0 119 58.5 180.5t169.5 61.5h202v-176h-141q-37 0 -50 -19t-13 -57v-285q0 -102 -35.5 -156t-122.5 -69q87 -15 122.5 -69t35.5 -156v-285q0 -38 13 -57t50 -19h141v-176h-202q-111 0 -169.5 61.5t-58.5 180.5v284 q0 89 -17.5 119.5t-78.5 30.5h-51z" />
<glyph unicode="|" horiz-adv-x="534" d="M160 -170v1520h215v-1520h-215z" />
<glyph unicode="}" horiz-adv-x="745" d="M88 4h139q38 0 51 19t13 57v285q0 102 36.5 156t123.5 69q-87 15 -123.5 69t-36.5 156v285q0 38 -13 57t-51 19h-139v176h201q111 0 169 -61.5t58 -180.5v-285q0 -89 17.5 -119t78.5 -30h52v-172h-52q-61 0 -78.5 -30.5t-17.5 -119.5v-284q0 -119 -58 -180.5t-169 -61.5 h-201v176z" />
<glyph unicode="~" horiz-adv-x="854" d="M104 422q0 131 48 208t139 77q37 0 74 -16t62 -35.5t55.5 -35.5t56.5 -16q69 0 75 96h136q0 -131 -49 -208.5t-140 -77.5q-45 0 -90.5 26t-85.5 52t-72 26q-35 0 -52.5 -23t-22.5 -73h-134z" />
<glyph unicode="&#xa1;" horiz-adv-x="512" d="M119 786v275h274v-275h-274zM125 135l59 504h144l59 -504v-364h-262v364z" />
<glyph unicode="&#xa2;" horiz-adv-x="1091" d="M82 451q0 195 120 324t316 149v182h133v-182q138 -14 233 -88t136 -181l-178 -73q-20 61 -72 103t-119 54v-575q72 15 125.5 62.5t73.5 115.5l180 -66q-41 -120 -136 -200t-243 -96v-177h-133v177q-195 19 -315.5 147t-120.5 324zM305 455q0 -119 57.5 -194.5 t155.5 -96.5v573q-99 -21 -156 -93.5t-57 -188.5z" />
<glyph unicode="&#xa3;" horiz-adv-x="1286" d="M43 203q0 100 70.5 161.5t183.5 61.5q72 0 154 -35q-7 91 -62 184h-250v142h162q-55 101 -55 201q0 179 129 288t334 109q202 0 325 -97t148 -270l-226 -80q-7 116 -71.5 180t-169.5 64q-99 0 -155 -57.5t-56 -155.5q0 -83 47 -182h301v-142h-238q35 -89 35 -172 q0 -65 -12 -120q139 -86 252 -86q87 0 123.5 52t36.5 161l198 -17q13 -207 -69.5 -312.5t-239.5 -105.5q-101 0 -184 42t-172 116q-44 -74 -117.5 -116t-169.5 -42q-111 0 -181.5 62t-70.5 166zM197 203q0 -39 30.5 -65.5t73.5 -26.5q108 0 137 137q-76 49 -139 49 q-46 0 -74 -25t-28 -69z" />
<glyph unicode="&#xa5;" horiz-adv-x="1329" d="M49 1290h285l342 -547l330 547h274l-389 -602h252v-135h-340l-15 -23v-124h355v-136h-355v-270h-247v270h-353v136h353v124l-15 23h-338v135h250z" />
<glyph unicode="&#xa7;" horiz-adv-x="1048" d="M72 623q0 68 38 130.5t99 102.5q-64 67 -64 166q0 127 105 210t268 83q146 0 257.5 -51.5t170.5 -143.5l-155 -104q-44 62 -111 95.5t-143 33.5t-121 -31.5t-43 -81.5q0 -34 20.5 -58t75.5 -48l238 -101q135 -58 201.5 -133.5t66.5 -193.5q0 -69 -38 -132t-99 -102 q63 -66 63 -166q0 -126 -104.5 -209.5t-268.5 -83.5q-145 0 -257 51.5t-169 143.5l154 104q43 -62 111.5 -95.5t144.5 -33.5t119 29.5t43 79.5q0 35 -20 61.5t-74 49.5l-238 100q-136 57 -203 133t-67 195zM289 643q0 -52 28.5 -88.5t92.5 -65.5l254 -116q8 -3 16 -8 q35 16 57.5 47t22.5 71q0 52 -28.5 86t-92.5 62l-256 117q-8 3 -16 8q-78 -38 -78 -113z" />
<glyph unicode="&#xa8;" horiz-adv-x="1062" d="M244 1061v221h213v-221h-213zM604 1061v221h213v-221h-213z" />
<glyph unicode="&#xa9;" horiz-adv-x="1521" d="M90 645q0 190 90.5 344.5t243.5 240t336 85.5t336 -85.5t243.5 -240t90.5 -344.5t-90.5 -344.5t-243.5 -240t-336 -85.5t-336 85.5t-243.5 240t-90.5 344.5zM190 645q0 -162 77 -294.5t207.5 -205.5t285.5 -73q156 0 286.5 73t207.5 205t77 295t-77 295t-207.5 205.5 t-286.5 73.5q-155 0 -285.5 -73.5t-207.5 -206t-77 -294.5zM365 645q0 181 113.5 295.5t285.5 114.5q143 0 235.5 -69t124.5 -187l-155 -56q-18 69 -68.5 110.5t-132.5 41.5q-98 0 -155.5 -67.5t-57.5 -184.5q0 -114 57.5 -181t155.5 -67q85 0 136 44.5t67 117.5l157 -55 q-32 -125 -124.5 -197t-239.5 -72q-172 0 -285.5 115t-113.5 297z" />
<glyph unicode="&#xaa;" horiz-adv-x="849" d="M80 840q0 79 57.5 120t165.5 66l195 53v21q0 74 -88 74q-58 0 -94.5 -28t-41.5 -69l-172 47q34 85 115.5 136t202.5 51q264 0 264 -219v-254q0 -45 43 -45q40 0 70 26l14 -117q-70 -43 -141 -43q-65 0 -111 35t-55 90q-26 -56 -84.5 -87t-136.5 -31q-91 0 -147 46 t-56 128zM125 373v129h618v-129h-618zM272 860q0 -31 21 -49t55 -18q61 0 105.5 38t44.5 99v53l-131 -35q-46 -14 -70.5 -33.5t-24.5 -54.5z" />
<glyph unicode="&#xab;" horiz-adv-x="1007" d="M98 348v213l363 270v-223l-203 -153l203 -154v-225zM547 348v213l362 270v-223l-202 -153l202 -154v-225z" />
<glyph unicode="&#xad;" horiz-adv-x="757" d="M125 416v215h508v-215h-508z" />
<glyph unicode="&#xae;" horiz-adv-x="1058" d="M82 862q0 129 60 233.5t162 162t224 57.5q187 0 318 -129t131 -324q0 -127 -61 -231t-163.5 -161.5t-224.5 -57.5q-187 0 -316.5 128.5t-129.5 321.5zM164 862q0 -162 104.5 -267.5t259.5 -105.5t261 106t106 267q0 164 -105.5 270.5t-261.5 106.5q-155 0 -259.5 -106.5 t-104.5 -270.5zM338 629v473h229q89 0 136 -38.5t47 -107.5q0 -50 -38.5 -80t-97.5 -36q90 -16 105 -95q15 -88 43 -116h-127q-15 20 -25 88q-6 40 -21.5 55.5t-51.5 15.5h-78v-159h-121zM459 885h78q45 0 65.5 13.5t20.5 45.5q0 62 -86 62h-78v-121z" />
<glyph unicode="&#xaf;" horiz-adv-x="1062" d="M258 1069v150h567v-150h-567z" />
<glyph unicode="&#xb0;" horiz-adv-x="761" d="M80 1024q0 123 87 207t214 84t214 -84t87 -207q0 -124 -86.5 -208.5t-214.5 -84.5t-214.5 84.5t-86.5 208.5zM238 1024q0 -63 39 -105t104 -42t104 42t39 105t-39 104t-104 41t-104 -41t-39 -104z" />
<glyph unicode="&#xb1;" horiz-adv-x="1314" d="M137 59v203h1041v-203h-1041zM137 711v202h418v338h203v-338h420v-202h-420v-338h-203v338h-418z" />
<glyph unicode="&#xb2;" horiz-adv-x="808" d="M98 1028q0 127 85.5 204t222.5 77q142 0 221.5 -71.5t79.5 -184.5q0 -95 -52.5 -164.5t-162.5 -153.5l-117 -92h346v-154h-621v127l228 183q108 86 149 134t41 109q0 49 -29 80t-83 31q-61 0 -94 -37.5t-33 -99.5q0 -48 10 -70l-180 6q-11 50 -11 76z" />
<glyph unicode="&#xb3;" horiz-adv-x="811" d="M74 721l176 37q4 -63 47.5 -99t110.5 -36q52 0 86 25.5t34 72.5q0 50 -36 76t-95 26q-36 0 -63 -8v146q49 -7 65 -7q52 0 86.5 25t34.5 76q0 48 -31.5 76t-87.5 28q-59 0 -95.5 -38.5t-39.5 -102.5l-174 31q11 113 96 186.5t220 73.5q137 0 215.5 -64.5t78.5 -167.5 q0 -74 -52 -124t-120 -56q82 -9 134.5 -62t52.5 -128q0 -108 -84.5 -170t-226.5 -62t-230 66t-102 180z" />
<glyph unicode="&#xb4;" horiz-adv-x="1062" d="M344 1040l117 312h256l-211 -312h-162z" />
<glyph unicode="&#xb6;" horiz-adv-x="1234" d="M66 909q0 178 125 279.5t352 101.5h532v-1464h-170v1296h-192v-1296h-170v702q-227 0 -352 101.5t-125 279.5z" />
<glyph unicode="&#xb7;" horiz-adv-x="530" d="M127 387v281h279v-281h-279z" />
<glyph unicode="&#xb8;" horiz-adv-x="1460" d="M492 -346l34 84q80 -62 183 -62q42 0 67 18t25 50t-27.5 49t-64.5 16t-68 -16l-57 25l129 205h96l-86 -132q57 8 109 -3.5t88 -47t36 -90.5q0 -85 -68 -129.5t-165 -44.5q-71 0 -132 22.5t-99 55.5z" />
<glyph unicode="&#xb9;" horiz-adv-x="636" d="M84 1040v134h61q91 0 128.5 26t60.5 94h139v-805h-184v551h-205z" />
<glyph unicode="&#xba;" horiz-adv-x="860" d="M84 987q0 142 98.5 234t247.5 92q148 0 246 -92t98 -234q0 -144 -97.5 -234.5t-246.5 -90.5t-247.5 91t-98.5 234zM121 373v129h618v-129h-618zM285 987q0 -84 38.5 -134t106.5 -50t106.5 50t38.5 134t-38.5 133t-106.5 49t-106.5 -49t-38.5 -133z" />
<glyph unicode="&#xbb;" horiz-adv-x="1007" d="M98 76v225l203 154l-203 153v223l363 -270v-213zM547 76v225l203 154l-203 153v223l362 -270v-213z" />
<glyph unicode="&#xbc;" horiz-adv-x="1841" d="M84 1040v134h61q91 0 128.5 26t60.5 94h139v-805h-184v551h-205zM365 0l804 1290h179l-805 -1290h-178zM1022 184v170l364 449h230v-473h133v-146h-133v-184h-172v184h-422zM1178 330h266v323z" />
<glyph unicode="&#xbd;" horiz-adv-x="1824" d="M84 1040v134h61q91 0 128.5 26t60.5 94h139v-805h-184v551h-205zM365 0l804 1290h179l-805 -1290h-178zM1128 539q0 127 85.5 203.5t222.5 76.5q142 0 221.5 -71.5t79.5 -182.5q0 -51 -15 -94.5t-47 -83t-65.5 -69.5t-87.5 -72l-117 -92h346v-154h-621v129l226 180 q58 46 85.5 70t56.5 55.5t39.5 59t10.5 59.5q0 50 -28.5 80.5t-83.5 30.5q-61 0 -95 -38t-34 -100q0 -39 12 -69l-180 6q-11 50 -11 76z" />
<glyph unicode="&#xbe;" horiz-adv-x="1968" d="M74 721l176 37q4 -63 47.5 -99t110.5 -36q52 0 86 25.5t34 72.5q0 50 -36 76t-95 26q-36 0 -63 -8v146q49 -7 65 -7q52 0 86.5 25t34.5 76q0 48 -31.5 76t-87.5 28q-59 0 -95.5 -38.5t-39.5 -102.5l-174 31q11 113 96 186.5t220 73.5q137 0 215.5 -64.5t78.5 -167.5 q0 -74 -52 -124t-120 -56q82 -9 134.5 -62t52.5 -128q0 -108 -84.5 -170t-226.5 -62t-230 66t-102 180zM512 0l805 1290h178l-805 -1290h-178zM1149 184v170l364 449h230v-473h133v-146h-133v-184h-172v184h-422zM1305 330h266v323z" />
<glyph unicode="&#xbf;" horiz-adv-x="1099" d="M82 135q0 63 18 115.5t57 98.5t75 78t96 77q61 48 83 77t23 76h236q-1 -81 -34 -137.5t-112 -118.5q-9 -7 -33.5 -27t-33.5 -28t-29 -26t-28 -29t-21 -29.5t-18.5 -34.5t-10 -37.5t-4.5 -44.5q0 -84 51 -137t148 -53q111 0 167 67.5t56 186.5q0 43 -6 80l248 -17 q8 -58 8 -82q0 -202 -130.5 -323t-344.5 -121q-221 0 -341 110.5t-120 278.5zM418 799v262h274v-262h-274z" />
<glyph unicode="&#xc0;" horiz-adv-x="1409" d="M45 0l512 1290h289l518 -1290h-274l-123 317h-543l-121 -317h-258zM422 1700h262l111 -275h-174zM500 516h389l-193 496h-8z" />
<glyph unicode="&#xc1;" horiz-adv-x="1409" d="M45 0l512 1290h289l518 -1290h-274l-123 317h-543l-121 -317h-258zM500 516h389l-193 496h-8zM604 1425l111 275h262l-199 -275h-174z" />
<glyph unicode="&#xc2;" horiz-adv-x="1409" d="M45 0l512 1290h289l518 -1290h-274l-123 317h-543l-121 -317h-258zM389 1425l180 275h250l182 -275h-163l-144 148l-143 -148h-162zM500 516h389l-193 496h-8z" />
<glyph unicode="&#xc3;" horiz-adv-x="1409" d="M45 0l512 1290h289l518 -1290h-274l-123 317h-543l-121 -317h-258zM369 1425q0 121 50 192t138 71q43 0 92 -26t93 -51.5t75 -25.5q64 0 70 96h139q0 -121 -50.5 -191.5t-139.5 -70.5q-34 0 -73 16t-67.5 35.5t-62 35.5t-58.5 16q-63 0 -69 -97h-137zM500 516h389 l-193 496h-8z" />
<glyph unicode="&#xc4;" horiz-adv-x="1409" d="M45 0l512 1290h289l518 -1290h-274l-123 317h-543l-121 -317h-258zM408 1432v221h213v-221h-213zM500 516h389l-193 496h-8zM768 1432v221h213v-221h-213z" />
<glyph unicode="&#xc5;" horiz-adv-x="1409" d="M45 0l512 1290h289l518 -1290h-274l-123 317h-543l-121 -317h-258zM481 1591q0 89 59 147t154 58q96 0 155.5 -58t59.5 -147q0 -90 -59.5 -148.5t-155.5 -58.5t-154.5 58.5t-58.5 148.5zM500 516h389l-193 496h-8zM596 1591q0 -44 26 -72t72 -28q49 0 75 27.5t26 72.5 t-26 73t-75 28q-46 0 -72 -28.5t-26 -72.5z" />
<glyph unicode="&#xc6;" horiz-adv-x="2158" d="M45 0l821 1290h1168v-219h-772v-301h581v-217h-581v-334h790v-219h-1042v317h-492l-199 -317h-274zM643 516h367v582z" />
<glyph unicode="&#xc7;" horiz-adv-x="1423" d="M98 645q0 195 87.5 348.5t238 237.5t334.5 84q216 0 362 -98.5t209 -270.5l-227 -117q-34 120 -120.5 190.5t-225.5 70.5q-176 0 -283.5 -121t-107.5 -324q0 -202 107.5 -323t279.5 -121q152 0 240.5 76.5t117.5 211.5l236 -94q-52 -194 -202 -307t-378 -113l-55 -84 q57 8 109 -3.5t88 -47t36 -90.5q0 -85 -68 -129.5t-165 -44.5q-71 0 -132.5 22.5t-99.5 55.5l35 84q80 -62 182 -62q42 0 67 18t25 50t-27 49t-64 16t-68 -16l-58 25l103 162q-122 14 -228 68t-183 139.5t-121 203.5t-44 254z" />
<glyph unicode="&#xc8;" horiz-adv-x="1308" d="M160 0v1290h1024v-219h-772v-301h581v-217h-581v-334h790v-219h-1042zM397 1700h262l111 -275h-174z" />
<glyph unicode="&#xc9;" horiz-adv-x="1308" d="M160 0v1290h1024v-219h-772v-301h581v-217h-581v-334h790v-219h-1042zM580 1425l110 275h262l-198 -275h-174z" />
<glyph unicode="&#xca;" horiz-adv-x="1308" d="M160 0v1290h1024v-219h-772v-301h581v-217h-581v-334h790v-219h-1042zM367 1425l180 275h250l182 -275h-164l-143 148l-144 -148h-161z" />
<glyph unicode="&#xcb;" horiz-adv-x="1308" d="M160 0v1290h1024v-219h-772v-301h581v-217h-581v-334h790v-219h-1042zM385 1432v221h213v-221h-213zM745 1432v221h213v-221h-213z" />
<glyph unicode="&#xcc;" horiz-adv-x="575" d="M12 1700h262l111 -275h-174zM160 0v1290h258v-1290h-258z" />
<glyph unicode="&#xcd;" horiz-adv-x="575" d="M160 0v1290h258v-1290h-258zM195 1425l110 275h262l-198 -275h-174z" />
<glyph unicode="&#xce;" horiz-adv-x="575" d="M-18 1425l180 275h250l182 -275h-164l-143 148l-144 -148h-161zM160 0v1290h258v-1290h-258z" />
<glyph unicode="&#xcf;" horiz-adv-x="575" d="M0 1432v221h213v-221h-213zM160 0v1290h258v-1290h-258zM360 1432v221h213v-221h-213z" />
<glyph unicode="&#xd0;" horiz-adv-x="1505" d="M45 555v209h152v526h520q320 0 506 -172t186 -473t-186 -473t-506 -172h-520v555h-152zM455 207h239q215 0 331 115t116 325q0 207 -116.5 321.5t-330.5 114.5h-239v-319h295v-209h-295v-348z" />
<glyph unicode="&#xd1;" horiz-adv-x="1464" d="M160 0v1290h289l618 -884v884h238v-1290h-228l-682 956v-956h-235zM401 1425q0 121 50 192t139 71q43 0 92 -26t93 -51.5t75 -25.5q64 0 70 96h139q0 -121 -51 -191.5t-140 -70.5q-43 0 -92 25.5t-93 51.5t-75 26q-63 0 -69 -97h-138z" />
<glyph unicode="&#xd2;" d="M98 645q0 195 88 348.5t240 237.5t338 84q187 0 339 -84t239.5 -237.5t87.5 -348.5t-87.5 -348.5t-239.5 -237.5t-339 -84q-186 0 -338 84t-240 237.5t-88 348.5zM365 645q0 -202 110 -323t289 -121t289 121t110 323t-110 323.5t-289 121.5t-289 -121.5t-110 -323.5z M489 1700h263l110 -275h-174z" />
<glyph unicode="&#xd3;" d="M98 645q0 195 88 348.5t240 237.5t338 84q187 0 339 -84t239.5 -237.5t87.5 -348.5t-87.5 -348.5t-239.5 -237.5t-339 -84q-186 0 -338 84t-240 237.5t-88 348.5zM365 645q0 -202 110 -323t289 -121t289 121t110 323t-110 323.5t-289 121.5t-289 -121.5t-110 -323.5z M672 1425l110 275h262l-198 -275h-174z" />
<glyph unicode="&#xd4;" d="M98 645q0 195 88 348.5t240 237.5t338 84q187 0 339 -84t239.5 -237.5t87.5 -348.5t-87.5 -348.5t-239.5 -237.5t-339 -84q-186 0 -338 84t-240 237.5t-88 348.5zM365 645q0 -202 110 -323t289 -121t289 121t110 323t-110 323.5t-289 121.5t-289 -121.5t-110 -323.5z M459 1425l180 275h250l182 -275h-164l-143 148l-143 -148h-162z" />
<glyph unicode="&#xd5;" d="M98 645q0 195 88 348.5t240 237.5t338 84q187 0 339 -84t239.5 -237.5t87.5 -348.5t-87.5 -348.5t-239.5 -237.5t-339 -84q-186 0 -338 84t-240 237.5t-88 348.5zM365 645q0 -202 110 -323t289 -121t289 121t110 323t-110 323.5t-289 121.5t-289 -121.5t-110 -323.5z M436 1425q0 121 50 192t139 71q43 0 92 -26t93 -51.5t75 -25.5q63 0 69 96h140q0 -121 -51 -191.5t-140 -70.5q-43 0 -92 25.5t-93 51.5t-75 26q-64 0 -70 -97h-137z" />
<glyph unicode="&#xd6;" d="M98 645q0 195 88 348.5t240 237.5t338 84q187 0 339 -84t239.5 -237.5t87.5 -348.5t-87.5 -348.5t-239.5 -237.5t-339 -84q-186 0 -338 84t-240 237.5t-88 348.5zM365 645q0 -202 110 -323t289 -121t289 121t110 323t-110 323.5t-289 121.5t-289 -121.5t-110 -323.5z M477 1432v221h213v-221h-213zM838 1432v221h213v-221h-213z" />
<glyph unicode="&#xd7;" horiz-adv-x="1124" d="M111 322l311 311l-311 309l141 141l309 -313l309 313l142 -141l-312 -309l312 -311l-142 -142l-309 312l-309 -312z" />
<glyph unicode="&#xd8;" d="M98 645q0 195 88 348.5t240 237.5t338 84q228 0 401 -125l127 139l117 -88l-135 -149q156 -183 156 -447q0 -195 -87.5 -348.5t-239.5 -237.5t-339 -84q-219 0 -393 119l-135 -149l-119 88l145 160q-164 185 -164 452zM365 645q0 -155 67 -264l574 631q-101 78 -242 78 q-179 0 -289 -121.5t-110 -323.5zM530 272q95 -71 234 -71q179 0 289 121t110 323q0 147 -61 256z" />
<glyph unicode="&#xd9;" horiz-adv-x="1435" d="M143 528v762h258v-727q0 -177 82 -272.5t234 -95.5q153 0 235 95.5t82 272.5v727h256v-762q0 -137 -45.5 -244.5t-125.5 -174t-182 -100.5t-220 -34t-220.5 34t-182 100.5t-125.5 174t-46 244.5zM442 1700h263l110 -275h-174z" />
<glyph unicode="&#xda;" horiz-adv-x="1435" d="M143 528v762h258v-727q0 -177 82 -272.5t234 -95.5q153 0 235 95.5t82 272.5v727h256v-762q0 -137 -45.5 -244.5t-125.5 -174t-182 -100.5t-220 -34t-220.5 34t-182 100.5t-125.5 174t-46 244.5zM625 1425l110 275h262l-198 -275h-174z" />
<glyph unicode="&#xdb;" horiz-adv-x="1435" d="M143 528v762h258v-727q0 -177 82 -272.5t234 -95.5q153 0 235 95.5t82 272.5v727h256v-762q0 -137 -45.5 -244.5t-125.5 -174t-182 -100.5t-220 -34t-220.5 34t-182 100.5t-125.5 174t-46 244.5zM412 1425l180 275h250l182 -275h-164l-143 148l-144 -148h-161z" />
<glyph unicode="&#xdc;" horiz-adv-x="1435" d="M143 528v762h258v-727q0 -177 82 -272.5t234 -95.5q153 0 235 95.5t82 272.5v727h256v-762q0 -137 -45.5 -244.5t-125.5 -174t-182 -100.5t-220 -34t-220.5 34t-182 100.5t-125.5 174t-46 244.5zM430 1432v221h213v-221h-213zM791 1432v221h213v-221h-213z" />
<glyph unicode="&#xdd;" horiz-adv-x="1325" d="M47 1290h301l326 -516l321 516h283l-490 -751v-539h-249v539zM569 1425l111 275h262l-199 -275h-174z" />
<glyph unicode="&#xde;" horiz-adv-x="1337" d="M160 0v1290h256v-225h334q246 0 382 -105.5t136 -297.5t-136 -298t-382 -106h-334v-258h-256zM416 467h323q279 0 279 195q0 194 -279 194h-323v-389z" />
<glyph unicode="&#xdf;" horiz-adv-x="1177" d="M145 0v870q0 197 129.5 321t339.5 124q191 0 302.5 -89t111.5 -243q0 -100 -54.5 -168t-142.5 -94q120 -29 192.5 -117.5t72.5 -224.5q0 -122 -54 -211t-143 -132.5t-201 -43.5q-77 0 -159 24v187q61 -21 112 -21q93 0 150 57t57 162q0 100 -61.5 157.5t-163.5 55.5 q-53 0 -86 -2v191q25 -4 71 -4q85 0 131 44t46 130q0 72 -47.5 118t-133.5 46q-105 0 -165 -74t-60 -201v-862h-244z" />
<glyph unicode="&#xe0;" horiz-adv-x="1122" d="M78 242q0 60 24 105.5t71.5 78t103.5 54t135 40.5l280 68v47q0 54 -36 84.5t-109 30.5q-88 0 -147.5 -42t-73.5 -104l-215 62q49 119 164 190.5t282 71.5q367 0 367 -303v-398q0 -37 18.5 -56t50.5 -19q52 0 101 36l16 -155q-88 -56 -182 -56q-93 0 -157 54t-75 135 q-36 -83 -123 -132.5t-204 -49.5q-130 0 -210.5 69t-80.5 189zM279 1352h256l116 -312h-162zM317 262q0 -50 34.5 -81t94.5 -31q99 0 172.5 63t73.5 156v92l-205 -53q-84 -23 -127 -55t-43 -91z" />
<glyph unicode="&#xe1;" horiz-adv-x="1122" d="M78 242q0 60 24 105.5t71.5 78t103.5 54t135 40.5l280 68v47q0 54 -36 84.5t-109 30.5q-88 0 -147.5 -42t-73.5 -104l-215 62q49 119 164 190.5t282 71.5q367 0 367 -303v-398q0 -37 18.5 -56t50.5 -19q52 0 101 36l16 -155q-88 -56 -182 -56q-93 0 -157 54t-75 135 q-36 -83 -123 -132.5t-204 -49.5q-130 0 -210.5 69t-80.5 189zM317 262q0 -50 34.5 -81t94.5 -31q99 0 172.5 63t73.5 156v92l-205 -53q-84 -23 -127 -55t-43 -91zM463 1040l117 312h256l-211 -312h-162z" />
<glyph unicode="&#xe2;" horiz-adv-x="1122" d="M78 242q0 60 24 105.5t71.5 78t103.5 54t135 40.5l280 68v47q0 54 -36 84.5t-109 30.5q-88 0 -147.5 -42t-73.5 -104l-215 62q49 119 164 190.5t282 71.5q367 0 367 -303v-398q0 -37 18.5 -56t50.5 -19q52 0 101 36l16 -155q-88 -56 -182 -56q-93 0 -157 54t-75 135 q-36 -83 -123 -132.5t-204 -49.5q-130 0 -210.5 69t-80.5 189zM246 1040l186 303h240l184 -303h-162l-143 177l-143 -177h-162zM317 262q0 -50 34.5 -81t94.5 -31q99 0 172.5 63t73.5 156v92l-205 -53q-84 -23 -127 -55t-43 -91z" />
<glyph unicode="&#xe3;" horiz-adv-x="1122" d="M78 242q0 60 24 105.5t71.5 78t103.5 54t135 40.5l280 68v47q0 54 -36 84.5t-109 30.5q-88 0 -147.5 -42t-73.5 -104l-215 62q49 119 164 190.5t282 71.5q367 0 367 -303v-398q0 -37 18.5 -56t50.5 -19q52 0 101 36l16 -155q-88 -56 -182 -56q-93 0 -157 54t-75 135 q-36 -83 -123 -132.5t-204 -49.5q-130 0 -210.5 69t-80.5 189zM229 1051q0 122 50.5 196t138.5 74q34 0 72.5 -17.5t67 -38t62 -38t58.5 -17.5q63 0 70 105h139q0 -122 -51.5 -196.5t-139.5 -74.5q-34 0 -72.5 17.5t-67 38t-62 38t-58.5 17.5q-62 0 -69 -104h-138zM317 262 q0 -50 34.5 -81t94.5 -31q99 0 172.5 63t73.5 156v92l-205 -53q-84 -23 -127 -55t-43 -91z" />
<glyph unicode="&#xe4;" horiz-adv-x="1122" d="M78 242q0 60 24 105.5t71.5 78t103.5 54t135 40.5l280 68v47q0 54 -36 84.5t-109 30.5q-88 0 -147.5 -42t-73.5 -104l-215 62q49 119 164 190.5t282 71.5q367 0 367 -303v-398q0 -37 18.5 -56t50.5 -19q52 0 101 36l16 -155q-88 -56 -182 -56q-93 0 -157 54t-75 135 q-36 -83 -123 -132.5t-204 -49.5q-130 0 -210.5 69t-80.5 189zM268 1061v221h213v-221h-213zM317 262q0 -50 34.5 -81t94.5 -31q99 0 172.5 63t73.5 156v92l-205 -53q-84 -23 -127 -55t-43 -91zM629 1061v221h213v-221h-213z" />
<glyph unicode="&#xe5;" horiz-adv-x="1122" d="M78 242q0 60 24 105.5t71.5 78t103.5 54t135 40.5l280 68v47q0 54 -36 84.5t-109 30.5q-88 0 -147.5 -42t-73.5 -104l-215 62q49 119 164 190.5t282 71.5q367 0 367 -303v-398q0 -37 18.5 -56t50.5 -19q52 0 101 36l16 -155q-88 -56 -182 -56q-93 0 -157 54t-75 135 q-36 -83 -123 -132.5t-204 -49.5q-130 0 -210.5 69t-80.5 189zM317 262q0 -50 34.5 -81t94.5 -31q99 0 172.5 63t73.5 156v92l-205 -53q-84 -23 -127 -55t-43 -91zM342 1229q0 89 59 147t154 58q96 0 155.5 -58t59.5 -147t-59.5 -147t-155.5 -58q-95 0 -154 58t-59 147z M457 1229q0 -44 26 -72.5t72 -28.5q49 0 74.5 28t25.5 73t-25.5 72.5t-74.5 27.5q-46 0 -72 -28t-26 -72z" />
<glyph unicode="&#xe6;" horiz-adv-x="1673" d="M78 240q0 60 24 106t72 77t103.5 52t134.5 39l280 70v51q0 54 -36 84.5t-109 30.5q-88 0 -147.5 -42t-73.5 -104l-215 62q49 119 162.5 190.5t273.5 71.5q202 0 289 -127q127 127 307 127q108 0 194.5 -36t140.5 -98.5t82.5 -142t28.5 -170.5v-65h-684q0 -116 71 -187 t181 -71q179 0 240 149l188 -71q-47 -128 -159.5 -194.5t-276.5 -66.5q-130 0 -231 51t-164 144q-54 -80 -151 -133t-234 -53q-131 0 -211 68t-80 188zM317 260q0 -51 34 -80.5t95 -29.5q99 0 172.5 63t73.5 156v88l-205 -54q-86 -23 -128 -53.5t-42 -89.5zM911 543h451 q-5 90 -62 149.5t-157 59.5q-97 0 -158 -59t-74 -150z" />
<glyph unicode="&#xe7;" horiz-adv-x="1056" d="M74 451q0 213 135.5 345t351.5 132q162 0 270.5 -74t149.5 -199l-207 -77q-52 161 -205 161q-109 0 -176 -76.5t-67 -211.5q0 -134 66.5 -210.5t174.5 -76.5q84 0 138 48t77 132l209 -68q-34 -127 -137.5 -209.5t-263.5 -91.5l-55 -84q57 8 109 -3.5t88 -47t36 -90.5 q0 -85 -68 -129.5t-165 -44.5q-71 0 -132.5 22.5t-99.5 55.5l35 84q80 -62 182 -62q42 0 67 18t25 50t-27 49t-64 16t-68 -16l-58 25l101 162q-189 19 -305.5 147t-116.5 324z" />
<glyph unicode="&#xe8;" horiz-adv-x="1091" d="M82 438q0 213 137 351.5t344 138.5q108 0 194.5 -36t141 -98.5t83 -142t28.5 -170.5v-65h-686q1 -116 72.5 -187t181.5 -71q175 0 239 149l189 -71q-49 -128 -161 -194.5t-276 -66.5q-215 0 -351 128.5t-136 334.5zM295 1352h256l117 -312h-162zM330 543h452 q-5 90 -62 149.5t-157 59.5q-97 0 -158 -59t-75 -150z" />
<glyph unicode="&#xe9;" horiz-adv-x="1091" d="M82 438q0 213 137 351.5t344 138.5q108 0 194.5 -36t141 -98.5t83 -142t28.5 -170.5v-65h-686q1 -116 72.5 -187t181.5 -71q175 0 239 149l189 -71q-49 -128 -161 -194.5t-276 -66.5q-215 0 -351 128.5t-136 334.5zM330 543h452q-5 90 -62 149.5t-157 59.5 q-97 0 -158 -59t-75 -150zM479 1040l117 312h256l-211 -312h-162z" />
<glyph unicode="&#xea;" horiz-adv-x="1091" d="M82 438q0 213 137 351.5t344 138.5q108 0 194.5 -36t141 -98.5t83 -142t28.5 -170.5v-65h-686q1 -116 72.5 -187t181.5 -71q175 0 239 149l189 -71q-49 -128 -161 -194.5t-276 -66.5q-215 0 -351 128.5t-136 334.5zM266 1040l187 303h239l185 -303h-162l-144 177 l-143 -177h-162zM330 543h452q-5 90 -62 149.5t-157 59.5q-97 0 -158 -59t-75 -150z" />
<glyph unicode="&#xeb;" horiz-adv-x="1091" d="M82 438q0 213 137 351.5t344 138.5q108 0 194.5 -36t141 -98.5t83 -142t28.5 -170.5v-65h-686q1 -116 72.5 -187t181.5 -71q175 0 239 149l189 -71q-49 -128 -161 -194.5t-276 -66.5q-215 0 -351 128.5t-136 334.5zM285 1061v221h213v-221h-213zM330 543h452 q-5 90 -62 149.5t-157 59.5q-97 0 -158 -59t-75 -150zM645 1061v221h213v-221h-213z" />
<glyph unicode="&#xec;" horiz-adv-x="534" d="M-10 1352h256l116 -312h-161zM145 0v903h244v-903h-244z" />
<glyph unicode="&#xed;" horiz-adv-x="534" d="M145 0v903h244v-903h-244zM174 1040l117 312h256l-211 -312h-162z" />
<glyph unicode="&#xee;" horiz-adv-x="534" d="M-39 1040l186 303h240l184 -303h-161l-144 177l-143 -177h-162zM145 0v903h244v-903h-244z" />
<glyph unicode="&#xef;" horiz-adv-x="534" d="M-20 1061v221h213v-221h-213zM145 0v903h244v-903h-244zM340 1061v221h213v-221h-213z" />
<glyph unicode="&#xf0;" horiz-adv-x="1153" d="M82 436q0 136 64.5 238t168 152.5t228.5 50.5q78 0 146.5 -30.5t113.5 -88.5q-45 116 -225 268l-275 -92l-39 102l209 70q-104 77 -207 133l207 76q120 -61 219 -135l201 67l39 -102l-141 -47q280 -264 280 -619q0 -237 -134.5 -370.5t-356.5 -133.5q-142 0 -254.5 55 t-178 161t-65.5 245zM338 434q0 -122 64.5 -197t177.5 -75t177 74.5t64 197.5q0 124 -64 199.5t-177 75.5t-177.5 -75.5t-64.5 -199.5z" />
<glyph unicode="&#xf1;" horiz-adv-x="1185" d="M145 0v903h244v-170q35 84 123.5 139.5t196.5 55.5q172 0 257 -101.5t85 -263.5v-563h-244v514q0 105 -50 162t-143 57q-100 0 -162.5 -74t-62.5 -192v-467h-244zM264 1051q0 122 50.5 196t138.5 74q34 0 72.5 -17.5t67 -38t62 -38t58.5 -17.5q62 0 69 105h140 q0 -122 -51.5 -196.5t-139.5 -74.5q-34 0 -72.5 17.5t-67 38t-62 38t-58.5 17.5q-63 0 -70 -104h-137z" />
<glyph unicode="&#xf2;" horiz-adv-x="1153" d="M82 451q0 209 141 343t352 134q213 0 354.5 -134t141.5 -343q0 -208 -142 -342t-354 -134q-138 0 -250.5 60.5t-177.5 169.5t-65 246zM299 1352h256l117 -312h-162zM334 451q0 -132 64.5 -212.5t176.5 -80.5q113 0 178.5 80.5t65.5 212.5q0 133 -65.5 213.5t-178.5 80.5 t-177 -80t-64 -214z" />
<glyph unicode="&#xf3;" horiz-adv-x="1153" d="M82 451q0 209 141 343t352 134q213 0 354.5 -134t141.5 -343q0 -208 -142 -342t-354 -134q-138 0 -250.5 60.5t-177.5 169.5t-65 246zM334 451q0 -132 64.5 -212.5t176.5 -80.5q113 0 178.5 80.5t65.5 212.5q0 133 -65.5 213.5t-178.5 80.5t-177 -80t-64 -214zM483 1040 l117 312h256l-211 -312h-162z" />
<glyph unicode="&#xf4;" horiz-adv-x="1153" d="M82 451q0 209 141 343t352 134q213 0 354.5 -134t141.5 -343q0 -208 -142 -342t-354 -134q-138 0 -250.5 60.5t-177.5 169.5t-65 246zM270 1040l187 303h239l185 -303h-162l-144 177l-143 -177h-162zM334 451q0 -132 64.5 -212.5t176.5 -80.5q113 0 178.5 80.5 t65.5 212.5q0 133 -65.5 213.5t-178.5 80.5t-177 -80t-64 -214z" />
<glyph unicode="&#xf5;" horiz-adv-x="1153" d="M82 451q0 209 141 343t352 134q213 0 354.5 -134t141.5 -343q0 -208 -142 -342t-354 -134q-138 0 -250.5 60.5t-177.5 169.5t-65 246zM248 1051q0 122 50 196t138 74q34 0 72.5 -17.5t67 -38t62 -38t58.5 -17.5q63 0 70 105h139q0 -122 -51 -196.5t-139 -74.5 q-34 0 -72.5 17.5t-67 38t-62 38t-58.5 17.5q-63 0 -70 -104h-137zM334 451q0 -132 64.5 -212.5t176.5 -80.5q113 0 178.5 80.5t65.5 212.5q0 133 -65.5 213.5t-178.5 80.5t-177 -80t-64 -214z" />
<glyph unicode="&#xf6;" horiz-adv-x="1153" d="M82 451q0 209 141 343t352 134q213 0 354.5 -134t141.5 -343q0 -208 -142 -342t-354 -134q-138 0 -250.5 60.5t-177.5 169.5t-65 246zM289 1061v221h213v-221h-213zM334 451q0 -132 64.5 -212.5t176.5 -80.5q113 0 178.5 80.5t65.5 212.5q0 133 -65.5 213.5t-178.5 80.5 t-177 -80t-64 -214zM649 1061v221h213v-221h-213z" />
<glyph unicode="&#xf7;" horiz-adv-x="1298" d="M119 535v204h1061v-204h-1061zM518 74v252h266v-252h-266zM518 946v256h266v-256h-266z" />
<glyph unicode="&#xf8;" horiz-adv-x="1153" d="M80 4l121 129q-119 128 -119 318q0 209 141 343t352 134q163 0 287 -82l113 123l96 -74l-117 -127q117 -130 117 -317q0 -208 -142 -342t-354 -134q-157 0 -282 80l-117 -127zM330 451q0 -81 26 -148l369 395q-61 52 -150 52q-114 0 -179.5 -82t-65.5 -217zM430 203 q58 -49 145 -49q114 0 181 81.5t67 215.5q0 88 -26 147z" />
<glyph unicode="&#xf9;" horiz-adv-x="1181" d="M135 340v563h246v-514q0 -106 47 -162.5t139 -56.5q100 0 162 74t62 192v467h245v-903h-245v170q-33 -84 -121.5 -139.5t-196.5 -55.5q-89 0 -155.5 28.5t-105.5 79t-58 115t-19 142.5zM307 1352h256l117 -312h-162z" />
<glyph unicode="&#xfa;" horiz-adv-x="1181" d="M135 340v563h246v-514q0 -106 47 -162.5t139 -56.5q100 0 162 74t62 192v467h245v-903h-245v170q-33 -84 -121.5 -139.5t-196.5 -55.5q-89 0 -155.5 28.5t-105.5 79t-58 115t-19 142.5zM489 1040l117 312h256l-211 -312h-162z" />
<glyph unicode="&#xfb;" horiz-adv-x="1181" d="M135 340v563h246v-514q0 -106 47 -162.5t139 -56.5q100 0 162 74t62 192v467h245v-903h-245v170q-33 -84 -121.5 -139.5t-196.5 -55.5q-89 0 -155.5 28.5t-105.5 79t-58 115t-19 142.5zM276 1040l187 303h239l185 -303h-162l-143 177l-144 -177h-162z" />
<glyph unicode="&#xfc;" horiz-adv-x="1181" d="M135 340v563h246v-514q0 -106 47 -162.5t139 -56.5q100 0 162 74t62 192v467h245v-903h-245v170q-33 -84 -121.5 -139.5t-196.5 -55.5q-89 0 -155.5 28.5t-105.5 79t-58 115t-19 142.5zM295 1061v221h213v-221h-213zM655 1061v221h213v-221h-213z" />
<glyph unicode="&#xfd;" horiz-adv-x="1073" d="M18 -129l179 92q0 -135 98 -135q39 0 65.5 28t51.5 87l22 51l-399 909h268l254 -629h8l238 629h233l-368 -901q-28 -69 -53.5 -119.5t-60 -98.5t-72 -78t-87.5 -48t-108 -18q-115 0 -186 64t-83 167zM465 1040l117 312h256l-211 -312h-162z" />
<glyph unicode="&#xfe;" horiz-adv-x="1208" d="M145 -336v1626h244v-565q37 93 117 148t196 55q194 0 309 -135.5t115 -341.5q0 -204 -115 -340t-309 -136q-116 0 -196 55t-117 148v-514h-244zM383 432q0 -122 70.5 -197t175.5 -75q116 0 182 80.5t66 210.5q0 132 -66 212t-182 80q-105 0 -175.5 -75t-70.5 -197v-39z " />
<glyph unicode="&#xff;" horiz-adv-x="1073" d="M18 -129l179 92q0 -135 98 -135q39 0 65.5 28t51.5 87l22 51l-399 909h268l254 -629h8l238 629h233l-368 -901q-28 -69 -53.5 -119.5t-60 -98.5t-72 -78t-87.5 -48t-108 -18q-115 0 -186 64t-83 167zM268 1061v221h213v-221h-213zM629 1061v221h213v-221h-213z" />
<glyph unicode="&#x152;" horiz-adv-x="2203" d="M98 645q0 301 186.5 473t506.5 172h1288v-219h-772v-301h581v-217h-581v-334h790v-219h-1306q-320 0 -506.5 172t-186.5 473zM365 643q0 -206 117 -321t331 -115h240v876h-240q-215 0 -331.5 -115t-116.5 -325z" />
<glyph unicode="&#x153;" horiz-adv-x="1810" d="M82 451q0 209 141 343t352 134q104 0 198.5 -45.5t162.5 -120.5q65 75 154.5 120.5t189.5 45.5q108 0 195 -36t141.5 -98.5t83.5 -142t29 -170.5v-65h-687q0 -116 71 -187t181 -71q179 0 240 149l190 -71q-49 -128 -160 -194.5t-268 -66.5q-220 0 -366 160 q-66 -72 -159 -116t-196 -44q-138 0 -250.5 60.5t-177.5 169.5t-65 246zM334 451q0 -132 64.5 -212.5t176.5 -80.5q113 0 178.5 80.5t65.5 212.5q0 133 -65.5 213.5t-178.5 80.5t-177 -80t-64 -214zM1049 543h450q-5 90 -62 149.5t-157 59.5q-97 0 -157.5 -59t-73.5 -150z " />
<glyph unicode="&#x178;" horiz-adv-x="1325" d="M47 1290h301l326 -516l321 516h283l-490 -751v-539h-249v539zM375 1432v221h213v-221h-213zM735 1432v221h213v-221h-213z" />
<glyph unicode="&#x2c6;" horiz-adv-x="1062" d="M225 1040l187 303h239l185 -303h-162l-144 177l-143 -177h-162z" />
<glyph unicode="&#x2dc;" horiz-adv-x="1062" d="M215 1051q0 122 50 196t138 74q34 0 73 -17.5t67.5 -38t62 -38t58.5 -17.5q62 0 69 105h139q0 -122 -51 -196.5t-139 -74.5q-34 0 -72.5 17.5t-67 38t-62 38t-58.5 17.5q-63 0 -70 -104h-137z" />
<glyph unicode="&#x2000;" horiz-adv-x="898" />
<glyph unicode="&#x2001;" horiz-adv-x="1796" />
<glyph unicode="&#x2002;" horiz-adv-x="898" />
<glyph unicode="&#x2003;" horiz-adv-x="1796" />
<glyph unicode="&#x2004;" horiz-adv-x="598" />
<glyph unicode="&#x2005;" horiz-adv-x="449" />
<glyph unicode="&#x2006;" horiz-adv-x="299" />
<glyph unicode="&#x2007;" horiz-adv-x="299" />
<glyph unicode="&#x2008;" horiz-adv-x="224" />
<glyph unicode="&#x2009;" horiz-adv-x="359" />
<glyph unicode="&#x200a;" horiz-adv-x="99" />
<glyph unicode="&#x2010;" horiz-adv-x="757" d="M125 416v215h508v-215h-508z" />
<glyph unicode="&#x2011;" horiz-adv-x="757" d="M125 416v215h508v-215h-508z" />
<glyph unicode="&#x2012;" horiz-adv-x="757" d="M125 416v215h508v-215h-508z" />
<glyph unicode="&#x2013;" horiz-adv-x="1060" d="M125 438v168h809v-168h-809z" />
<glyph unicode="&#x2014;" horiz-adv-x="2086" d="M125 438v168h1837v-168h-1837z" />
<glyph unicode="&#x2018;" horiz-adv-x="538" d="M131 743v297q0 133 73.5 204t221.5 71v-133q-70 0 -105.5 -33t-35.5 -109v-28h127v-269h-281z" />
<glyph unicode="&#x2019;" horiz-adv-x="538" d="M113 719v133q70 0 105.5 33t35.5 108v29h-127v268h281v-297q0 -133 -73.5 -203.5t-221.5 -70.5z" />
<glyph unicode="&#x201a;" horiz-adv-x="538" d="M113 -150q70 0 105.5 33t35.5 109v28h-127v269h281v-297q0 -133 -73.5 -204t-221.5 -71v133z" />
<glyph unicode="&#x201c;" horiz-adv-x="980" d="M131 743v297q0 133 73.5 204t221.5 71v-133q-70 0 -105.5 -33t-35.5 -109v-28h127v-269h-281zM573 743v297q0 133 73.5 204t221.5 71v-133q-70 0 -105.5 -33t-35.5 -109v-28h127v-269h-281z" />
<glyph unicode="&#x201d;" horiz-adv-x="980" d="M113 719v133q70 0 105.5 33t35.5 108v29h-127v268h281v-297q0 -133 -73.5 -203.5t-221.5 -70.5zM555 719v133q70 0 105.5 33t35.5 108v29h-127v268h281v-297q0 -133 -73.5 -203.5t-221.5 -70.5z" />
<glyph unicode="&#x201e;" horiz-adv-x="980" d="M113 -150q70 0 105.5 33t35.5 109v28h-127v269h281v-297q0 -133 -73.5 -204t-221.5 -71v133zM555 -150q70 0 105.5 33t35.5 109v28h-127v269h281v-297q0 -133 -73.5 -204t-221.5 -71v133z" />
<glyph unicode="&#x2022;" horiz-adv-x="784" d="M98 526q0 129 85 212t208 83q125 0 211 -83t86 -212q0 -127 -86 -210t-211 -83q-123 0 -208 83t-85 210z" />
<glyph unicode="&#x2026;" horiz-adv-x="1757" d="M123 0v281h278v-281h-278zM739 0v281h279v-281h-279zM1356 0v281h278v-281h-278z" />
<glyph unicode="&#x202f;" horiz-adv-x="359" />
<glyph unicode="&#x2039;" horiz-adv-x="559" d="M98 348v213l363 270v-223l-203 -153l203 -154v-225z" />
<glyph unicode="&#x203a;" horiz-adv-x="559" d="M98 76v225l203 154l-203 153v223l363 -270v-213z" />
<glyph unicode="&#x205f;" horiz-adv-x="449" />
<glyph unicode="&#x20ac;" horiz-adv-x="1349" d="M55 457v123h121q-2 20 -2 65q0 44 2 64h-121v125h135q45 226 193.5 353.5t376.5 127.5q206 0 340 -107.5t180 -287.5l-231 -103q-20 126 -95 204.5t-198 78.5q-122 0 -200.5 -69t-109.5 -197h357l-21 -125h-354q-2 -20 -2 -64q0 -45 2 -65h338l-21 -123h-299 q31 -128 109.5 -197.5t200.5 -69.5q125 0 199.5 75.5t95.5 207.5l237 -78q-42 -193 -180 -307.5t-348 -114.5q-228 0 -376.5 128.5t-193.5 355.5h-135z" />
<glyph unicode="&#x2122;" horiz-adv-x="1644" d="M53 1145v145h586v-145h-211v-471h-168v471h-207zM758 674v616h252l106 -422h6l115 422h231v-616h-163v452h-5l-131 -452h-120l-131 452h-5v-452h-155z" />
<glyph unicode="&#xe000;" horiz-adv-x="901" d="M0 0v901h901v-901h-901z" />
</font>
</defs>
</svg>
