<?xml version="1.0" standalone="no"?>
<!DOCTYPE svg PUBLIC "-//W3C//DTD SVG 1.1//EN" "http://www.w3.org/Graphics/SVG/1.1/DTD/svg11.dtd" >
<svg xmlns="http://www.w3.org/2000/svg">
<metadata></metadata>
<defs>
<font id="modern_pictogramsnormal" horiz-adv-x="1122" >
<font-face units-per-em="2048" ascent="1536" descent="-512" />
<missing-glyph horiz-adv-x="614" />
<glyph horiz-adv-x="0" />
<glyph horiz-adv-x="0" />
<glyph unicode="&#xd;" horiz-adv-x="682" />
<glyph unicode=" "  horiz-adv-x="614" />
<glyph unicode="&#x09;" horiz-adv-x="614" />
<glyph unicode="&#xa0;" horiz-adv-x="614" />
<glyph unicode="!" horiz-adv-x="1624" d="M61 147q0 -60 44.5 -103.5t105.5 -43.5h1204q61 0 105 42q27 26 36.5 61t5 64.5t-17.5 53.5l-604 1045q-28 47 -78 65t-99.5 0.5t-76.5 -65.5l-604 -1045q-21 -33 -21 -74zM692 266q0 35 16 63.5t44 45t63 16.5q51 0 87 -36t36 -89q0 -51 -36 -86t-87 -35t-87 35t-36 86z M705 506v489h219v-489h-219z" />
<glyph unicode="&#x22;" horiz-adv-x="2465" />
<glyph unicode="#" horiz-adv-x="2119" d="M129 580q121 0 241.5 37.5t223.5 102.5q98 60 199 138q12 10 48 37.5t51 39t48 36.5t51.5 39t48 35.5t51.5 36.5t48.5 33t50.5 33q105 66 225 104t240 38q129 -287 319 -686q-159 0 -316.5 -64.5t-299.5 -171.5l-262 -201q-143 -110 -310.5 -185t-336.5 -88 q-9 19 -160 343q-153 327 -160 343zM326 471q77 -165 105 -223q33 -71 104 -223q213 40 462 223q-115 45 -174 170q-53 118 -32 274q-252 -183 -465 -221zM528 314q40 0 70 2q0 -3 4 -14q-15 -8 -61 -25q-8 17 -13 37zM539 366q6 20 18 32l26 -20q9 -8 25 -21q-5 -13 -8 -16 q-2 1 -18 8l-24 10q-5 2 -11 4.5t-8 2.5zM575 232q30 30 43 48l15 -9l-12 -30q-10 -24 -11 -27q-14 2 -35 18zM598 432q32 9 37 10q0 -15 4 -32q4 -19 4 -33q-15 -5 -16 -6q-9 21 -14 31l-5 9q-4 12 -10 21zM599 432q4 -7 8 -20h1zM609 411l4 -10l1 1l-5 11v-2zM657 269 q10 0 17 4q6 -15 14 -29q6 -10 14 -30q-9 -5 -34 -10q-10 51 -11 65zM668 375q7 26 22 63q13 -1 31 -16q-34 -46 -39 -55q-3 3 -7.5 4.5t-6.5 3.5zM694 290l8 16q19 -8 64 -20l-19 -35q-15 9 -53 39zM700 347v2q31 15 58 33h2q3 -7 8 -37q-32 -8 -64 -14q0 12 -4 16z M1104 934q111 -39 174 -168q55 -123 33 -274q248 182 467 221q-57 117 -209 446q-220 -41 -465 -225zM1327 899q7 6 31 19q59 -118 72 -154q-15 -7 -33 -19q-9 17 -35 76zM1397 938l15 7.5t15 8.5l74 -153q-12 -7 -33 -15q-27 61 -71 152zM1468 971l16 7q15 7 17 7 q11 -25 38 -80q29 -58 34 -71q-5 -2 -33 -13q-33 73 -72 150z" />
<glyph unicode="$" horiz-adv-x="1316" d="M123 483q0 -88 27 -169.5t76.5 -147.5t115.5 -115.5t147.5 -76.5t169.5 -27q109 0 208 42.5t170.5 114t114 171t42.5 208.5q0 163 -89 297t-235 195l134 293q-2 41 -46 41h-600q-45 0 -45 -41l133 -293q-146 -63 -234.5 -196t-88.5 -296zM348 240l68 153l12 -6 q0 -35 50 -65q49 -31 140 -39v157q-95 9 -148 28t-77 55.5t-24 97.5q0 90 65 143t184 57v25q2 23 -26 31v14h129v-14q-33 -8 -33 -31v-29q60 0 207 -57q8 -6 20 -6q7 0 23 12l10 -8l-74 -148l-12 6q0 16 -11 30q-11 13 -48 32q-56 29 -115 33v-144h17q243 -23 243 -188 q0 -88 -70.5 -144.5t-189.5 -62.5v-31q0 -25 33 -32v-15h-129v15q26 8 26 32v31q-106 7 -225 66q-10 10 -35 -5zM496 637q0 -35 26 -46q26 -12 96 -18v140q-79 -6 -106 -39q-16 -16 -16 -37zM688 279q127 18 127 92q0 30 -24 41q-24 10 -103 16v-149z" />
<glyph unicode="%" horiz-adv-x="1699" d="M184 555l557 -553l877 983l-223 203l-688 -750l-322 320z" />
<glyph unicode="&#x26;" horiz-adv-x="1452" />
<glyph unicode="'" horiz-adv-x="1568" d="M164 362l362 -362h514l365 362v515l-365 364h-514l-362 -364v-515zM219 385v469l330 332h469l332 -332v-469l-332 -330h-469zM289 414l291 -289h409l291 289v411l-291 291h-409l-291 -291v-411z" />
<glyph unicode="(" horiz-adv-x="1724" d="M58 940q2 -42 31 -99q21 -42 58 -74.5t88.5 -48.5t108.5 5q56 19 133 -55l170 -164l-352 -328q-23 -23 -23 -56q0 -34 23 -54l80 -82q23 -23 55 -23t55 23l308 370l329 -348q39 -39 93.5 -40t93.5 38q39 41 40 94t-38 92l-361 324l195 199l-148 151l-202 -207l-170 170 q-38 42 -46.5 65.5t-0.5 65.5q29 134 -66 218q-1 1 -15 11q-17 11 -20 13q-8 6 -8 8q-55 33 -124 33t-94 -9q-29 -12 -40 -18l-10 -16l129 -84q35 -24 34 -77q-1 -37 -27.5 -77t-58.5 -52q-48 -20 -81 7q-1 1 -129 82l-10 -16v-41zM748 1221l2 -47l50 -4q56 -3 135 -38 t134 -88q46 -53 2 -100l-18 -20l-25 -25l152 -149l43 43q10 14 33.5 17t52 -9t51.5 -35q24 -24 30.5 -49t-8.5 -33q-8 -10 -2.5 -29.5t19.5 -31.5l24 -27q43 -39 82 0l111 113q39 43 0 82l-23 24q-12 14 -32.5 16t-36.5 -10q-24 0 -42 10.5t-29.5 34.5t-13.5 60 q-4 55 -16 67l-108 109q-35 35 -44 43q-6 5 -18.5 14t-31.5 21t-39 23t-44 21t-44 14q-39 8 -90 10.5t-120 -4t-136 -23.5zM1147 99.5q0 28.5 18 47.5q22 21 51 21q27 0 47.5 -20.5t20.5 -50.5t-20 -48q-21 -20 -48.5 -19t-50.5 21q-18 20 -18 48.5z" />
<glyph unicode=")" horiz-adv-x="1206" d="M98 66l193 366l2 2q1 -16 17 -36q13 -21 63 -48q34 -12 61 -12q35 0 53 12q27 -23 33 -24q36 -20 76.5 -20.5t77.5 20.5q10 6 28 24q27 -12 58 -12q27 0 59 12q44 19 64 47q19 28 20 37q2 -2 8 -2h4l193 -366l-205 -17l-129 -151l-170 268l-170 -268l-137 153zM106 864 q0 38 13 51q7 11 151 13h4l-4 2q-133 52 -135 71q-5 31 16.5 68t61.5 37q5 0 51.5 -26.5t50.5 -30.5l9 -2l-7 6q-98 98 -94 114q1 18 27 45q28 27 59 27q16 0 99 -96l8 -6l-4 8q-61 121 -45 143q12 14 41 29q24 8 41 8q33 0 81 -135l2 -4v4q0 146 15 153q18 12 50 12.5 t50 -12.5q13 -7 15 -153q0 2 8.5 21t21.5 45.5t23 42.5q17 26 28 26q24 0 47 -10t37 -27q14 -24 -47 -143v-8l2 6q82 96 101 96q32 0 61 -27q19 -23 27 -45q1 -6 -6 -19q-12 -17 -50 -55q-18 -18 -27 -26l-16 -14l-2 -6l7 2q5 5 52 31t54 26q46 0 66 -53q14 -32 8 -52 q-2 -18 -133 -71l-4 -2h4q145 -2 151 -13q12 -18 12 -51q0 -31 -12 -49q-7 -16 -151 -16q3 -2 40 -16q24 -10 65 -29q28 -15 28 -25q3 -16 -2.5 -40t-24.5 -46t-47 -22q-7 0 -54 26t-52 31l-7 2l2 -2l16 -14q26 -25 54 -54q2 -3 10.5 -13t12.5 -15q7 -13 6 -19 q-6 -27 -33 -51.5t-55 -24.5q-6 0 -27 22q-19 18 -47 49l-27 30l-2 2v-6q61 -122 47 -142q-19 -25 -43 -30q-23 -12 -38.5 -10t-30.5 27q-24 41 -53 108q0 -143 -15 -150q-17 -14 -49 -14q-34 0 -51 14q-14 6 -15 150v4l-2 -4q-52 -134 -81 -136q-13 0 -41 11q-20 6 -41 30 q-16 18 45 142l4 6l-8 -2l-27 -30q-13 -14 -45 -49q-21 -22 -27 -22q-28 0 -56 27t-30 49q-4 15 94 115l7 2l-9 -2q-4 -4 -50.5 -30.5t-51.5 -26.5q-21 0 -38 12t-25.5 30t-12.5 35.5t-2 30.5q0 10 29 25q35 17 66 29l16 6t12 5t7.5 3.5t4.5 1.5q-144 0 -151 16 q-11 13 -13 49zM276 864q0 -86 43.5 -159t117.5 -115.5t161 -42.5q131 0 223 93t92 224q0 87 -42 160.5t-114.5 116.5t-158.5 43q-133 0 -227 -94q-95 -95 -95 -226zM350 864q0 102 73 174t175 72q100 0 171 -71.5t71 -173.5t-71 -173t-171 -71q-102 0 -175 71.5t-73 171.5z " />
<glyph unicode="*" horiz-adv-x="1617" d="M123 774l424 -307l-164 -500l426 307l424 -307l-162 500l424 307h-524l-162 496l-162 -496h-524z" />
<glyph unicode="+" horiz-adv-x="1329" d="M164 379h375v-379h292v379h375v283h-375v358h-292v-358h-375v-283z" />
<glyph unicode="," horiz-adv-x="1116" d="M123 924q0 -57 6 -93t31.5 -89.5t63.5 -111t116 -167.5q72 -105 129.5 -232.5t71.5 -185.5q7 -29 14 -70q5 -20 18 -12q2 1 3 2.5t1.5 2.5t1.5 3.5t1 4.5t0.5 6t1.5 7q41 233 209 474q4 7 38 54q27 38 83 125q34 55 67 136q29 72 29 146q0 182 -129.5 310t-314.5 128 q-121 0 -222.5 -58.5t-160 -159t-58.5 -220.5zM401 915q0 70 49 119t117 49q72 0 121 -48t49 -119q0 -72 -49 -123.5t-121 -51.5q-68 0 -117 51t-49 123z" />
<glyph unicode="-" d="M113 123h884l-444 774z" />
<glyph unicode="." horiz-adv-x="1566" d="M57 1122q0 -47 20.5 -64.5t74.5 -19.5q50 -1 67 -6q43 -12 68 -106l145 -520q4 -29 27.5 -49.5t52.5 -20.5h782q35 0 59.5 24.5t24.5 59.5v461q0 33 -22.5 56.5t-57.5 25.5l-886 63q-57 168 -260 168q-11 0 -16 -1t-11 -1h-4l-16 -2q-17 -3 -32.5 -21.5t-15.5 -46.5z M371 103q0 57 40 97t97 40t97 -40t40 -97q0 -58 -40 -98t-97 -40t-97 40t-40 98zM446 874l263 -16v-170h-201zM524 641h185v-158h-136zM774 483v158h205v-158h-205zM774 688v166l205 -14v-152h-205zM1036 103q0 57 40 97t95 40q57 0 96.5 -40t41.5 -98q0 -57 -40.5 -97 t-97.5 -40q-55 0 -95 40.5t-40 97.5zM1044 483v158h187v-158h-187zM1044 688v148l187 -15v-133h-187z" />
<glyph unicode="/" d="M111 856l444 -774l440 774h-884z" />
<glyph unicode="0" horiz-adv-x="1163" d="M205 283h370l383 -383v1235l-383 -383h-370v-469z" />
<glyph unicode="1" horiz-adv-x="1501" d="M205 283h370l383 -383v1235l-383 -383h-370v-469zM1069 252l107 -105q163 161 161 367q2 209 -159 373l-101 -101q105 -107 105 -260q0 -161 -113 -274z" />
<glyph unicode="2" horiz-adv-x="1818" d="M205 283h370l383 -383v1235l-383 -383h-370v-469zM1069 252l107 -105q163 161 161 367q2 209 -159 373l-101 -101q105 -107 105 -260q0 -161 -113 -274zM1298 47l115 -113q242 242 242 574q0 165 -64.5 319t-183.5 273l-109 -109q94 -93 142.5 -219.5t48.5 -254.5 t-49 -253.5t-142 -216.5z" />
<glyph unicode="3" horiz-adv-x="1998" d="M205 0h1589v1219h-1589v-1219zM315 111v258h260v-258h-260zM315 479v260h260v-260h-260zM315 850v258h260v-258h-260zM686 111v258h258v-258h-258zM686 479v260h258v-260h-258zM686 850v258h258v-258h-258zM1055 111v258h260v-258h-260zM1055 479v260h260v-260h-260z M1055 850v258h260v-258h-260zM1425 111v258h258v-258h-258zM1425 479v260h258v-260h-258zM1425 850v258h258v-258h-258z" />
<glyph unicode="4" horiz-adv-x="1722" d="M205 104h262v263h-262v-263zM205 477h262v266h-262v-266zM205 856h262v264h-262v-264zM643 166h875v133h-875v-133zM643 522h875v133h-875v-133zM643 899h875v133h-875v-133z" />
<glyph unicode="5" horiz-adv-x="1665" d="M205 915h344v304h-344v-304zM246 74h262v112h-262v-112zM246 360h262v113h-262v-113zM246 647h262v113h-262v-113zM659 915h345v304h-345v-304zM700 74h263v112h-263v-112zM700 360h263v113h-263v-113zM700 647h263v113h-263v-113zM1116 915h344v304h-344v-304zM1157 74 h262v112h-262v-112zM1157 360h262v113h-262v-113zM1157 647h262v113h-262v-113z" />
<glyph unicode="6" horiz-adv-x="1802" d="M125 258q6 -57 51 -92q37 -31 86 -31q66 0 109 51l319 396l375 -217q45 -27 95 -18t83 48l406 500q34 44 28.5 102t-49.5 93q-45 36 -102 30t-92 -49l-332 -409l-375 219q-45 26 -95 17t-83 -50l-393 -488q-37 -45 -31 -102z" />
<glyph unicode="7" horiz-adv-x="1523" d="M205 0h295v881h-295v-881zM614 0h295v655h-295v-655zM1024 0h295v1219h-295v-1219z" />
<glyph unicode="8" horiz-adv-x="1503" d="M123 518q0 89 27.5 172t77.5 150t116.5 117.5t149.5 78t172 27.5v-551h544q-1 -109 -44.5 -208.5t-116.5 -171.5t-173 -114.5t-210 -42.5q-227 0 -384 159q-159 159 -159 384zM838 684v549q111 0 211 -43t172.5 -115.5t115.5 -173t43 -211.5v-6h-542zM1210 512v6v-6z" />
<glyph unicode="9" horiz-adv-x="1378" d="M131 154q0 -68 103 -117q97 -46 224.5 -69t254.5 -23q120 0 248 22q90 15 163.5 40.5t122.5 64t49 82.5q1 29 -26 61q-39 81 -71.5 166t-55.5 169t-35 134.5t-27 120.5q-54 244 -266 291q-1 26 -15 47.5t-37 34t-50 12.5q-41 0 -70 -26.5t-33 -67.5q-212 -47 -264 -292 q-17 -76 -28 -121t-34.5 -132t-56 -171t-71.5 -165q-25 -26 -25 -61zM250 195q38 46 133.5 77t212.5 38.5t234 0t212.5 -38.5t133.5 -77q-101 -123 -463 -123q-356 -5 -463 123zM621 244q0 -43 26.5 -73t65.5 -30t65.5 30t26.5 73q0 14 -92 14t-92 -14z" />
<glyph unicode=":" horiz-adv-x="493" d="M82 150q0 -68 46 -114t114 -46q66 0 112.5 46t46.5 114q0 43 -21 79.5t-58 58t-80 21.5q-68 0 -114 -46.5t-46 -112.5zM82 725q0 -45 21 -81.5t57.5 -57.5t81.5 -21q66 0 112.5 46t46.5 114q0 66 -46.5 113t-112.5 47q-68 0 -114 -46.5t-46 -113.5z" />
<glyph unicode=";" horiz-adv-x="495" d="M82 -150q119 57 135 166q-49 11 -77.5 46.5t-28.5 82.5q0 39 18 71.5t50 50.5t71 18q72 0 118 -52.5t46 -132.5q0 -55 -23.5 -105t-66 -87t-105.5 -58t-137 -18v18zM82 725q0 -45 21 -81.5t57.5 -57.5t81.5 -21q66 0 112.5 46t46.5 114q0 66 -46.5 113t-112.5 47 q-68 0 -114 -46.5t-46 -113.5z" />
<glyph unicode="&#x3c;" d="M82 498l836 -420v844z" />
<glyph unicode="=" horiz-adv-x="1576" d="M123 618q0 -135 52.5 -257.5t141.5 -212t212.5 -142.5t258.5 -53q180 0 333.5 89.5t243 242.5t89.5 333q0 181 -90 334.5t-243 242.5t-333 89q-136 0 -259 -52.5t-212 -142t-141.5 -212.5t-52.5 -259zM674 963q0 47 34 80.5t83 33.5t82.5 -33t33.5 -81q0 -52 -33 -85.5 t-83 -33.5q-49 0 -83 35t-34 84zM692 172v571h199v-571h-199z" />
<glyph unicode="&#x3e;" d="M205 78l835 424l-835 420v-844z" />
<glyph unicode="?" horiz-adv-x="1576" d="M123 618q0 -135 52.5 -257.5t141.5 -212t212.5 -142.5t258.5 -53q180 0 333.5 89.5t243 242.5t89.5 333q0 181 -90 334.5t-243 242.5t-333 89q-136 0 -259 -52.5t-212 -142t-141.5 -212.5t-52.5 -259zM524 791q0 129 66.5 197.5t195.5 68.5q77 0 138 -34t95 -94.5 t34 -137.5q0 -183 -158 -224v-84h-213v201q20 -2 33 -2q114 0 114 109q0 94 -45 94q-47 0 -47 -94h-213zM664 266q0 52 37 89q36 38 88 38q51 0 87.5 -38t36.5 -89t-36.5 -89t-87.5 -38t-88 38t-37 89z" />
<glyph unicode="@" horiz-adv-x="1513" d="M129 621q0 -321 203 -506q170 -158 440 -158q247 0 412 82l10 4v158l-25 -13q-173 -75 -395 -75q-203 0 -336 133q-139 145 -139 362q0 123 41.5 223.5t112 166.5t164 101.5t198.5 35.5q86 0 159 -20.5t127 -57.5t91.5 -88t56.5 -114t19 -134q0 -54 -14 -121 q-17 -71 -59 -124.5t-95 -53.5q-23 0 -33 12q-18 20 -14 72l28 424h-139l-12 -43q-61 61 -148 61q-145 0 -231 -104q-80 -92 -80 -242q0 -145 68 -231q43 -62 117.5 -84t149 -0.5t120.5 80.5q13 -33 49 -60q46 -35 115 -35q170 0 266 152q76 128 76 297q0 249 -154 395 q-174 174 -465 174q-148 0 -276 -51q-122 -44 -218 -137q-190 -184 -190 -481zM643 602q0 83 31 135q31 64 104 64q66 0 99 -47q26 -47 26 -121q0 -61 -14 -105.5t-46 -72t-81 -27.5t-78 35q-26 32 -33.5 63t-7.5 76z" />
<glyph unicode="A" horiz-adv-x="1902" d="M205 0h1493v1038h-1112v99h-148v-99h-233v-1038zM281 651v312h1341v-312h-410q-100 127 -260 127q-162 0 -262 -127h-409zM674 445q0 114 82 196t197 82q114 0 195 -82t81 -196q0 -115 -81 -197t-195 -82q-45 0 -87.5 14t-77 40t-60.5 60.5t-40 77t-14 87.5zM791 445 q0 65 48 112q49 47 114 47t112 -47t47 -112q0 -66 -47 -113t-112 -47q-66 0 -114 47t-48 113z" />
<glyph unicode="B" horiz-adv-x="1449" d="M205 168q0 -91 62 -150t155 -59h823v1100h-57v-1026h-766q-64 0 -103.5 37t-39.5 98v4q0 59 38.5 93t104.5 34h668v944h-762q-52 0 -87.5 -36t-35.5 -87v-952zM395 170q0 27 35 27h660v-58h-660q-35 0 -35 31z" />
<glyph unicode="C" horiz-adv-x="1570" d="M123 621q0 -135 52.5 -258t141 -211.5t211 -140.5t257.5 -52q180 0 332.5 88.5t241.5 241t89 332.5q0 135 -53 257.5t-142 211t-211.5 140.5t-257.5 52q-134 0 -256 -52.5t-211 -141.5t-141.5 -211t-52.5 -256zM303 252l272 172q-75 82 -75 197q0 120 83.5 203t202.5 83 q80 0 146 -39l149 283q76 -45 133 -102q28 -25 50 -56l-271 -172q80 -83 80 -200q0 -121 -83 -204t-204 -83q-82 0 -149 41l-150 -283q-77 44 -131 98q-46 50 -53 62zM664 621q0 -50 36.5 -86.5t85.5 -36.5q33 0 62 17t46 45.5t17 60.5q0 34 -16.5 62t-45 45t-63.5 17 q-51 0 -86.5 -36.5t-35.5 -87.5zM725 621q0 28 17 45.5t44 17.5q14 0 26 -5t20.5 -13.5t13 -20t4.5 -24.5q0 -18 -8 -32t-22 -22t-33 -8q-28 0 -45 17.5t-17 44.5z" />
<glyph unicode="D" horiz-adv-x="1431" d="M205 0h1022v901l-336 344h-686v-1245zM352 147v951h463v-246h264v-705h-727zM438 565h193l-4 170h174v-172h192l-276 -321z" />
<glyph unicode="E" horiz-adv-x="1843" d="M123 516l36 -57q38 -60 111 -142t162 -160q97 -85 229.5 -140.5t260.5 -55.5q125 0 257.5 57t228.5 137q41 34 87 80t83 88.5t65 77.5t41 55q24 37 36 60l-36 57q-36 60 -109.5 142.5t-163.5 161.5q-63 55 -141 98.5t-170 70.5t-178 27q-125 0 -258 -56.5t-229 -136.5 q-78 -65 -161 -160t-114 -143q-21 -30 -37 -61zM530 516q0 162 115 277q115 114 277 114q106 0 196 -52.5t142.5 -142.5t52.5 -196t-52.5 -196t-142.5 -142.5t-196 -52.5t-196.5 52.5t-143 142.5t-52.5 196zM748 516q0 71 51 124q51 52 123 52q34 0 66.5 -14.5t56.5 -38.5 t38.5 -56.5t14.5 -66.5q0 -72 -52 -123t-124 -51t-123 51t-51 123z" />
<glyph unicode="F" horiz-adv-x="950" d="M164 569h149v-569h260v569h193l20 260h-213v84q0 37 8 59.5t30.5 36t60.5 13.5h114v240h-213q-260 0 -260 -242v-191h-149v-260z" />
<glyph unicode="G" horiz-adv-x="1654" d="M205 129q0 -129 129 -129h428v406h-131v194h131v207q-2 182 196 182h183v-182h-86q-74 0 -74 -78v-129h160v-194h-160v-406h338q131 0 131 129v985q0 68 -30.5 98.5t-100.5 30.5h-985q-129 0 -129 -129v-985z" />
<glyph unicode="H" horiz-adv-x="1896" d="M164 723q0 -46 47.5 -91t121.5 -76q137 -58 232 -73q71 -8 235 -8q48 0 134 2q76 2 112 4h48q57 0 95 38t38 95v107h235v276h-235v111q0 55 -38 93t-95 39h-45q-18 0 -63 1t-89.5 2t-85.5 1h-46q-136 0 -198 -9q-60 -7 -129.5 -29t-131 -52.5t-102 -72t-40.5 -82.5v-276z M412 795q0 49 35 84q34 34 84 34q49 0 83.5 -34.5t34.5 -84t-34.5 -84t-84 -34.5t-84 34.5t-34.5 84.5zM778 393h287l113 -393h-242q-52 0 -68 63zM1536 721l197 -146v568l-197 -144v-278z" />
<glyph unicode="I" horiz-adv-x="1619" d="M143 1202q0 -31 22 -52q21 -22 52 -22h19l219 -1126h716l222 1126h10q19 0 36 10t27.5 27t10.5 37q0 15 -6 29t-16 23.5t-24 15.5t-28 6h-1186q-31 0 -52.5 -21.5t-21.5 -52.5zM348 1128h78l-66 -65zM377 977l72 70l126 -125l-126 -127l-43 43zM436 678l13 12l126 -125 l-98 -98zM500 385l127 127l127 -127l-127 -125zM500 743l127 125l127 -125l-127 -127zM500 1100l30 28h193l31 -28l-127 -127zM518 264l152 -151h-123zM680 207l125 127l127 -127l-96 -94h-62zM680 565l125 125l127 -125l-127 -127zM680 922l125 125l127 -125l-127 -127z M858 385l125 127l127 -127l-127 -125zM858 743l125 125l127 -125l-127 -127zM858 1100l29 28h192l31 -28l-127 -127zM940 113l174 172l-35 -172h-139zM1036 565l125 125l27 -26l-41 -211zM1036 922l125 125l86 -84l-20 -105l-66 -63zM1184 1128h96l-16 -77z" />
<glyph unicode="J" horiz-adv-x="1536" d="M138 248q0 -9 3 -19q8 -28 33 -41l551 -319q15 -9 31 -9q9 0 18 3q28 8 41 33l397 688l17 381l-152 88q28 19 115 30q106 12 178 45q102 49 107 134q-4 49 -33 94q-35 45 -82 65q-47 24 -87 24q-45 0 -81 -30q-42 -32 -68 -66l-25 -32q-10 -13 -33 -65q-8 -19 -19 -60 q-11 -40 -11 -49q-12 -54 -14 -60l-156 88l-323 -202l-398 -688q-9 -16 -9 -33zM782 862q0 40 24 78t68 55q23 10 49 10q20 0 44 -8l69 -43q32 -35 36 -80q1 -5 1 -16q0 -27 -10 -53.5t-35.5 -51t-63.5 -33.5q-20 -6 -40 -6q-26 0 -52.5 10.5t-50.5 36t-33 61.5q-6 21 -6 40 zM1063 1085q4 12 4 29q4 15 4 25q25 161 141 250q29 23 65 23q33 0 71 -19q7 -4 10 -7q86 -48 86 -124q-5 -66 -88 -103q-63 -31 -168 -43q-89 -7 -125 -31z" />
<glyph unicode="K" horiz-adv-x="1431" d="M205 0h1022v901l-336 344h-686v-1245zM352 147v951h463v-246h264v-705h-727zM453 301v57h520v-57h-520zM453 465v57h520v-57h-520zM453 629v57h520v-57h-520z" />
<glyph unicode="L" horiz-adv-x="1636" d="M164 696q0 -45 22 -90q-8 -37 -8 -64q0 -73 59.5 -120t161.5 -47h31q-47 -85 -47 -176q0 -127 59.5 -204t139.5 -77q136 0 176 168q5 21 27 80q27 72 89 163t127 134v-53q0 -19 15 -33.5t33 -14.5h333q20 0 35 14.5t15 33.5v788q0 10 -4 19.5t-11 15.5t-16 10t-19 4h-333 q-12 0 -23 -6.5t-18 -18t-7 -24.5v-94q-19 19 -103 44q-207 64 -382 64q-24 0 -66 -2q-208 -16 -208 -147q0 -31 12 -70q-42 -29 -56 -79q-6 -19 -5 -37q0 -35 16 -70q-32 -28 -43 -83q-2 -18 -2 -28zM304 565q0 8 1 12q8 50 70 50q9 0 14 6q2 4 1.5 8t-5 7t-10.5 3 q-50 1 -69 34q-9 14 -9 29q0 17 13 34q24 30 79 30q12 0 18 7q5 6 -0.5 12t-17.5 6q-12 1 -30 7q-43 18 -43 48q0 7 3 15q17 53 117 53q17 0 19 12t-17 17q-3 1 -6 1q-81 21 -81 58q0 13 11 29q36 49 123 49h13q275 -6 503 -119v-371q-43 -19 -92 -61t-92.5 -96.5 t-81 -114.5t-62.5 -121t-32 -111q-7 -63 -59 -63q-31 0 -56.5 48.5t-25.5 117.5q0 45 42 130.5t42 106.5q0 24 -16 39t-46 15h-123q-35 0 -65 18.5t-30 54.5z" />
<glyph unicode="M" horiz-adv-x="1228" d="M205 123q0 -51 36 -87t87 -36h573q51 0 87 36t36 87v1108q0 20 -6 39t-17.5 34t-26.5 26.5t-34 17.5t-39 6h-573q-52 0 -87.5 -36t-35.5 -87v-1108zM332 813v397h565v-397h-565zM354 420q0 106 77 183t184 77t183 -76t76 -184t-76 -184t-183 -76t-184 77t-77 183z M516 420q0 -40 29 -69t69 -29q41 0 70 28.5t29 69.5t-29 69.5t-70 28.5t-69.5 -28.5t-28.5 -69.5z" />
<glyph unicode="N" horiz-adv-x="1124" d="M205 129q0 -53 39 -92t92 -39h452q54 0 93 39t39 92v1124q0 17 -14 30t-32 13h-626q-8 0 -16 -4t-14 -10t-9.5 -13.5t-3.5 -15.5v-1124zM305 223h152v-90h-64q-39 0 -63.5 25.5t-24.5 64.5zM305 262v86h152v-86h-152zM305 387v86h152v-86h-152zM305 512v86h152v-86h-152z M305 688v399h514v-399h-514zM483 1182q0 26 27 26h104h2q23 0 23 -26q0 -29 -25 -29h-104q-27 0 -27 29zM489 133v90h146v-90h-146zM489 262v86h146v-86h-146zM489 387v86h146v-86h-146zM489 512v86h146v-86h-146zM670 133v90h149q0 -26 -11 -46.5t-31.5 -32t-47.5 -11.5 h-59zM670 262v86h149v-86h-149zM670 387v86h149v-86h-149zM670 512v86h149v-86h-149z" />
<glyph unicode="O" horiz-adv-x="1187" d="M205 123q0 -51 36 -87t87 -36h532q51 0 87 36t36 87v1098q0 59 -38 96t-99 37h-504q-40 0 -71 -16.5t-48.5 -47t-17.5 -69.5v-1098zM279 270v813h630v-813h-630zM467 1239q0 27 25 27h204q25 0 25 -27t-25 -27h-204q-25 0 -25 27zM516 131q0 33 22.5 55.5t55.5 22.5 t55.5 -22.5t22.5 -55.5q0 -31 -23 -54.5t-55 -23.5t-55 23.5t-23 54.5z" />
<glyph unicode="P" horiz-adv-x="1798" d="M205 129q0 -129 129 -129h1128q131 0 131 129v821q0 68 -30.5 98.5t-100.5 30.5h-1128h-13q-116 0 -116 -129v-821zM631 227v623l618 -311z" />
<glyph unicode="Q" horiz-adv-x="1574" d="M205 164q0 -45 21.5 -82.5t58.5 -59.5t82 -22h841q68 0 115 48t47 116v1106q0 67 -47 115.5t-115 48.5h-841q-45 0 -82 -22t-58.5 -59.5t-21.5 -82.5v-1106zM401 254v983h773v-983h-773zM711 131q0 33 22 55.5t56 22.5t55.5 -22.5t21.5 -55.5q0 -31 -22.5 -54.5 t-54.5 -23.5q-21 0 -39.5 11t-28.5 29t-10 38z" />
<glyph unicode="R" horiz-adv-x="1288" d="M123 491q0 -213 153 -366q150 -154 369 -154t369 154q151 151 151 369h-184q0 -91 -45 -169t-122.5 -123.5t-168.5 -45.5q-68 0 -130.5 27t-108 72.5t-72.5 108t-27 130.5q0 67 26.5 128.5t71.5 106.5t107.5 72t130.5 28l-47 -301l520 396l-541 372l66 -282 q-208 0 -365 -152q-153 -158 -153 -371z" />
<glyph unicode="S" horiz-adv-x="1673" d="M184 346q0 -31 21.5 -52.5t52.5 -21.5h520v-94l-270 -166l24 -43l246 94v-188q0 -24 13 -38.5t36 -14.5q21 0 36.5 15t15.5 38v188l247 -94l25 43l-272 166v94h536q31 0 52.5 21.5t21.5 52.5t-21.5 52.5t-52.5 21.5v676q31 0 52.5 21.5t21.5 52.5q0 30 -21.5 51.5 t-52.5 21.5h-543l-30 80h-19l-30 -80h-535q-31 0 -52.5 -21.5t-21.5 -52.5q0 -28 19.5 -48.5t48.5 -22.5v-678q-30 -4 -49 -24.5t-19 -49.5zM346 426v664h975v-664h-975z" />
<glyph unicode="T" horiz-adv-x="1077" d="M188 469q2 -202 140 -330q127 -128 325 -139h129q56 0 93.5 38t37.5 93q0 53 -38 91t-93 38h-118q-94 6 -154.5 64.5t-60.5 144.5v121h333q56 0 93.5 37.5t37.5 91.5q0 55 -38 93t-93 38h-333v190q0 54 -38 91.5t-92 37.5q-36 0 -66 -17.5t-47.5 -47t-17.5 -64.5v-571z " />
<glyph unicode="U" horiz-adv-x="1654" d="M205 129q0 -129 129 -129h985q131 0 131 129v985q0 68 -30.5 98.5t-100.5 30.5h-985q-129 0 -129 -129v-985zM559 557v401q0 27 12.5 50t34.5 36t49 13q37 0 66 -30t29 -69v-120h290q41 0 69 -29t28 -70q0 -39 -28 -67.5t-69 -28.5h-290v-86q0 -43 19.5 -77.5t55.5 -55.5 t82 -23h133q20 0 38 -7.5t31 -20.5t20.5 -31t7.5 -37q0 -41 -28 -69.5t-69 -28.5h-139q-144 6 -242 104q-100 88 -100 246z" />
<glyph unicode="V" horiz-adv-x="1792" d="M162 0h1022v741l-148 -166v-428h-727v971h617l123 127h-887v-1245zM502 369l4 -2l260 59l608 629l37 123l-108 112l-3 -2q-122 -32 -122 -37l-609 -624zM588 524l16 66l37 35l57 10l74 -76l-8 -57l-37 -37l-63 -14zM1241 1319l121 27l104 -105l-28 -123l94 92 q44 47 45 104v5q0 36 -18.5 67t-51 49.5t-71.5 18.5q-60 0 -103 -43z" />
<glyph unicode="W" horiz-adv-x="1826" d="M205 489q0 -43 31.5 -74.5t76.5 -31.5h152v156h-94v551h682v-72h166v119q0 45 -31 76.5t-76 31.5h-799q-45 0 -76.5 -31.5t-31.5 -76.5v-648zM608 106q0 -43 32 -74.5t75 -31.5h801q44 0 75 31.5t31 74.5v662q0 43 -31 74.5t-75 31.5h-801q-43 0 -75 -31.5t-32 -74.5 v-662zM772 154v567h686v-567h-686z" />
<glyph unicode="X" horiz-adv-x="1333" d="M166 221l201 -201l297 299l297 -299l202 199l-299 301l297 293l-200 203l-297 -297l-297 297l-199 -203l297 -293z" />
<glyph unicode="Y" horiz-adv-x="2172" d="M123 623q0 -33 15 -67t36 -57q18 -20 42.5 -41t34.5 -27q9 -4 15 -9h154l285 -459q31 -37 62 -37q14 0 30 8l139 101l-229 387h104q301 0 520 -270q0 -15 7.5 -28t21 -20.5t29.5 -7.5q24 0 41.5 16.5t17.5 39.5v946q0 22 -17.5 38.5t-41.5 16.5q-25 0 -41.5 -16 t-16.5 -39q-217 -283 -520 -283h-545l-15 -8q-128 -77 -128 -184zM301 565q0 10 10 19q10 8 19 8h164q26 0 26 -27q0 -10 -8 -19t-18 -9h-164q-7 0 -14 4.5t-11 11t-4 12.5zM301 684q0 10 10 19q10 8 19 8h164q26 0 26 -27q0 -10 -8 -19.5t-18 -9.5h-164q-11 0 -20 9.5 t-9 19.5zM838 514v211q280 0 475 207v-617q-199 199 -475 199zM1597 307l226 -223l55 53l-225 225zM1597 930l56 -56l225 226l-55 53zM1694 588h377v78h-377v-78z" />
<glyph unicode="Z" horiz-adv-x="1533" d="M205 0h842v133h-842v-133zM205 295h1141v133h-1141v-133zM205 590h842v133h-842v-133zM205 885h1141v133h-1141v-133z" />
<glyph unicode="[" horiz-adv-x="1175" d="M82 467l508 -506l504 502h-349v555h-315v-551h-348z" />
<glyph unicode="\" horiz-adv-x="1800" d="M205 2h262v262h-262v-262zM205 375h262v266h-262v-266zM205 754h262v264h-262v-264zM582 2h264v262h-264v-262zM582 375h264v266h-264v-266zM582 754h264v264h-264v-264zM956 2h265v262h-265v-262zM956 377h265v266h-265v-266zM956 754h265v264h-265v-264zM1333 2h262 v266h-262v-266zM1333 377h262v266h-262v-266zM1333 754h262v264h-262v-264z" />
<glyph unicode="]" horiz-adv-x="1175" d="M82 555h348v-555h315v551h349l-508 506z" />
<glyph unicode="^" horiz-adv-x="1458" d="M205 139q0 -63 44 -106t106 -43t106.5 44.5t44.5 105.5t-44.5 105t-106.5 44q-61 0 -105.5 -44.5t-44.5 -105.5zM213 528q104 0 200 -42.5t165 -113.5t110 -168.5t41 -203.5h205q0 160 -57 296.5t-155 229.5t-229.5 145t-279.5 52v-195zM213 920q179 0 349 -73.5 t298 -201.5q127 -127 201 -297.5t74 -347.5h223q0 160 -43 312.5t-120 280t-182 225.5q-158 147 -367.5 229.5t-432.5 82.5v-210z" />
<glyph unicode="_" horiz-adv-x="2560" d="M205 -2h2150v1032h-2150v-1032zM537 164v112h309v-112h-309zM537 451v110h309v-110h-309zM537 737v109h309v-109h-309zM1716 164v112h309v-112h-309zM1716 451v110h309v-110h-309zM1716 735v111h309v-111h-309z" />
<glyph unicode="`" horiz-adv-x="1562" d="M82 1309q4 -200 139 -334l62 63q-109 109 -109 265q0 161 109 264l-64 65q-133 -130 -137 -323zM240 57q-11 -28 1.5 -57t41.5 -39q7 -4 26 -4q51 0 68 47l22 57h754l23 -57q17 -47 67 -47q20 0 27 4q28 10 40.5 38.5t2.5 57.5l-455 1170l-67 47h-27l-70 -47zM346 1305 q0 -119 90 -209l58 57q-60 59 -60 145q0 93 66 154l-60 61q-94 -91 -94 -208zM428 135l78 199l201 -199h-279zM535 410l71 182l123 -123l-127 -125zM641 659h279l-140 -137zM653 291l127 127l127 -127l-127 -127zM662 733l114 297l115 -297h-229zM682 1370q0 -39 28 -66 q26 -28 66 -28q39 0 66.5 27.5t27.5 66.5t-27.5 66.5t-66.5 27.5t-66.5 -27.5t-27.5 -66.5zM831 469l117 117l72 -183l-62 -59zM854 135l195 195l75 -195h-270zM1063 1149l61 -59q91 90 93 206q-2 111 -91 211l-57 -57q39 -42 53 -96.5t-1 -110t-58 -94.5zM1280 1034l63 -63 q133 129 138 321q-5 198 -140 332l-61 -59q110 -112 106 -267q4 -158 -106 -264z" />
<glyph unicode="a" horiz-adv-x="1980" d="M205 260q0 -260 223 -260h1176q66 0 119 55.5t53 126.5v1035h-1354v-201h-217v-756zM315 260v645h107v-645q0 -139 -55 -139q-52 0 -52 139zM502 111q30 61 30 149v846h1133v-924q0 -26 -17.5 -48.5t-43.5 -22.5h-1102zM709 250h260v37h-260v-37zM709 367h260v36h-260 v-36zM709 479h260v37h-260v-37zM709 596h260v37h-260v-37zM709 717h260v37h-260v-37zM748 872h682v72h-682v-72zM1071 338h436v416h-436v-416z" />
<glyph unicode="b" horiz-adv-x="1681" d="M205 446q0 -137 139 -137h154l-103 -399l496 399h448q138 0 138 133v635q-2 140 -138 140h-995h-7q-131 0 -132 -140v-631zM467 567v135h747v-135h-747zM467 823v135h747v-135h-747z" />
<glyph unicode="c" horiz-adv-x="1730" d="M61 1022q0 -22 8.5 -42t23.5 -35t35 -23.5t42 -8.5h164v-800q0 -113 115 -113h833q115 0 115 113v800h164q45 0 76.5 32t31.5 77v180q0 30 -14.5 55t-39.5 39.5t-54 14.5h-365v8q0 33 -23.5 56.5t-56.5 23.5h-20q-33 0 -55.5 -23.5t-22.5 -56.5v-8h-303v8 q0 33 -23.5 56.5t-56.5 23.5h-19q-33 0 -57 -23.5t-24 -56.5v-8h-365q-45 0 -77 -32t-32 -77v-180zM594 201q0 15 5.5 28.5t15.5 23t24.5 15.5t30.5 6q28 0 49.5 -21.5t21.5 -51.5q0 -29 -21 -50.5t-50 -21.5q-33 0 -54.5 21t-21.5 51zM594 389q0 30 21.5 51t54.5 21 q28 0 49.5 -21.5t21.5 -50.5q0 -31 -21 -52.5t-50 -21.5q-33 0 -54.5 21.5t-21.5 52.5zM594 578q0 18 9.5 34.5t27.5 26.5t39 10q28 0 49.5 -21t21.5 -50q0 -33 -20 -53.5t-51 -20.5q-33 0 -54.5 20.5t-21.5 53.5zM594 764q0 31 21.5 52.5t54.5 21.5q28 0 49.5 -22t21.5 -52 q0 -14 -5.5 -27.5t-15 -23t-23 -15.5t-27.5 -6q-33 0 -54.5 21t-21.5 51zM793 201q0 30 21 51.5t52 21.5q29 0 50.5 -21.5t21.5 -51.5q0 -29 -21.5 -50.5t-50.5 -21.5q-20 0 -37 10t-26.5 26.5t-9.5 35.5zM793 389q0 29 21 50.5t52 21.5q19 0 35.5 -10t26.5 -26.5t10 -35.5 q0 -31 -21.5 -52.5t-50.5 -21.5q-31 0 -52 21.5t-21 52.5zM793 578q0 18 9.5 34.5t26.5 26.5t37 10q29 0 50.5 -21t21.5 -50q0 -22 -9.5 -39t-25.5 -26t-36 -9t-37 9t-27 26t-10 39zM793 764q0 20 9.5 37t26.5 27t37 10q19 0 35.5 -10t26.5 -27t10 -37q0 -29 -21.5 -50.5 t-50.5 -21.5q-20 0 -37 10t-26.5 26.5t-9.5 35.5zM989 201q0 30 21.5 51.5t52.5 21.5q33 0 53.5 -21t20.5 -52q0 -29 -21.5 -50.5t-52.5 -21.5t-52.5 21.5t-21.5 50.5zM989 389q0 29 21.5 50.5t52.5 21.5t52.5 -21.5t21.5 -50.5q0 -12 -3.5 -23.5t-10 -20.5t-15.5 -16 t-20.5 -10.5t-24.5 -3.5q-15 0 -29 6t-23.5 15.5t-15.5 23.5t-6 29zM989 578q0 28 22 49.5t52 21.5q31 0 52.5 -21t21.5 -50q0 -33 -20.5 -53.5t-53.5 -20.5q-20 0 -37 9t-27 26t-10 39zM989 764q0 31 21.5 52.5t52.5 21.5q32 0 53 -21.5t21 -52.5q0 -20 -10 -36.5t-27 -26 t-37 -9.5q-31 0 -52.5 21.5t-21.5 50.5z" />
<glyph unicode="d" horiz-adv-x="1951" d="M205 254q0 -54 36.5 -90.5t90.5 -36.5h135l-45 -250h1132l-55 250h125q49 0 86 38t37 89v600q0 51 -37 89t-86 38h-160v193h-55v210h-864v-210h-56v-193h-157q-28 0 -51.5 -10t-40 -27t-26 -40.5t-9.5 -49.5v-600zM330 758q0 35 26.5 61.5t61.5 26.5q37 0 63.5 -26.5 t26.5 -61.5q0 -37 -26.5 -62.5t-63.5 -25.5q-36 0 -62 26t-26 62zM520 -47l60 395h792l78 -395h-930zM602 829v478h750v-478h-750zM707 137v58h227v-58h-227zM1030 137v58h227v-58h-227z" />
<glyph unicode="e" horiz-adv-x="1388" d="M123 -49l4 -6l729 184l387 389l10 39q12 40 12 104q0 60 -18 134l-342 -342l-127 -246l-289 -55q-71 69 -159 159l53 291l246 127l338 336q-69 19 -137 19q-70 0 -134 -19l-389 -387zM621 446l4 -4l192 99l371 370q-14 23 -29 40.5t-29.5 29t-39.5 29.5l-371 -371z" />
<glyph unicode="f" horiz-adv-x="1595" d="M63 39q0 -30 3 -39h1466v104q-44 50 -481 162q-20 22 -31 107h-27q-11 2 -11 40q0 21 5 66q39 27 41 158l14 -3q8 -1 18 19q2 4 11 43q6 24 6 51q0 6 2 26q2 18 2 22q1 10 -2 18t-7.5 12t-9.5 2q-7 -1 -7 0q11 33 12 112v19q0 66 -12 113q-15 42 -51 87t-60 62t-31 21 q12 12 15 17q5 6 6 10t0 5l-6 3q-12 5 -31 5q-15 0 -37 -3q-222 -39 -323 -182q-21 -28 -21 -96t21 -173q-10 2 -19 -5.5t-13.5 -21t-2.5 -26.5q5 -15 7 -49v-18.5t0.5 -18.5t1.5 -15.5t4 -15t8 -10.5t13 -8t19 -2q11 -54 57 -145q0 -19 -12 -134l-31 -8l-2 -74 q-5 -4 -115 -34q-117 -33 -234 -70.5t-152 -54.5q-3 -50 -3 -78z" />
<glyph unicode="g" horiz-adv-x="2355" d="M61 4h1086v-4h1147v94q-70 28 -396 94l-10 19q-21 59 -21 117q0 25 3 47q12 81 59 139q14 -8 23 -9q14 -1 25 18q2 3 4.5 10t4 12.5t1.5 7.5q25 60 32 69q13 20 13 44q0 52 -34 52q-3 0 -7 -1q13 18 24 59q28 12 29 39q1 17 -2 29.5t-5 16.5t-9 13q16 19 16 40t-16 38 q32 23 32 60q0 15 -4 28q-13 46 -48 46q-8 0 -19 -3q35 50 35 98q0 21 -8 45q-23 70 -107 87q-4 1 -13 1q-24 0 -65 -18.5t-65 -36.5q-32 -25 -33 -26q-22 8 -71 36q-47 26 -86 37q-21 7 -48 7q-9 0 -29 -2q-31 -1 -54 -15t-34 -33t-14 -41q-1 -8 -1 -25q0 -21 5.5 -53.5 t10.5 -48.5q4 -14 9 -26q-13 -5 -24 -12t-17.5 -15t-10 -16.5t-3.5 -15.5t2.5 -16t6 -16.5t6.5 -14t6 -9.5q6 -8 8 -10q-29 -5 -29 -20q0 -13 20 -35q-29 -24 -29 -43q0 -7 3 -12q7 -15 15 -24.5t12.5 -12t13.5 -5.5q-9 -12 -5.5 -19t8.5 -10t10 -4q3 -1 9 -1q-2 -1 -3 -4 t-1 -6v-7.5t1 -7.5t1.5 -6.5t0.5 -4.5l3 -9q-25 -2 -35 -20t-1 -34q25 -33 30 -80q11 -46 51 -69q16 -8 27 7q2 4 2 5l10 -16q31 -48 31 -96q0 -42 -2 -67.5t-8 -48t-17 -44.5q-19 -34 -20 -41q-13 -1 -36 -1q-152 0 -353 83q-21 23 -33 110h-27q-12 3 -12 49q0 29 4 64 q44 29 45 162q17 -8 27 7q15 21 29 161q2 17 -6 27.5t-16 7.5q-7 -3 -9 -1q13 36 14 117v18q0 68 -14 119q-14 45 -51.5 92t-64.5 67q-30 21 -32 22q4 4 9.5 9t6.5 6q7 9 8 14.5t-5.5 8t-14.5 3t-22 0.5q-9 0 -37 -2q-231 -40 -338 -191q-21 -32 -21 -102q0 -72 21 -181 q-16 5 -28.5 -14.5t-8.5 -42.5q4 -18 6 -53q0 -6 0.5 -19.5t1 -19.5t2 -16.5t4.5 -15.5t8.5 -11t14 -8t19.5 -2q12 -53 59 -152q0 -22 -10 -139l-33 -8l-2 -76l-100 -30q-255 -77 -342 -117q-34 -16 -58.5 -53.5t-31.5 -62.5q-2 -10 -3.5 -17t-1.5 -13z" />
<glyph unicode="h" horiz-adv-x="2041" d="M205 2h1118v819h-1118v-819zM1419 307v209l418 260v-729z" />
<glyph unicode="i" horiz-adv-x="1648" d="M52 1268q18 -37 63 -37h125l254 -555l-72 -53q-69 -53 -76 -125q-1 -7 -1 -18q0 -66 50 -114q49 -47 130 -47h3h801q43 0 61 33q8 18 8 34.5t-8 32.5q-18 34 -61 34h-784q-37 0 -51 23q-15 22 -0.5 45.5t47.5 27.5l827 92q33 4 54.5 26.5t21.5 55.5v383q0 37 -24 59.5 t-66 22.5h-926l-51 102q-22 50 -45 69t-72 19h-145q-45 0 -63 -36q-10 -18 -10 -36t10 -38zM215 94q0 -52 38 -90q37 -37 89 -37q55 0 92 37t37 90.5t-37.5 91t-91.5 37.5q-53 0 -90 -38t-37 -91zM481 1073h226l45 -139h-207zM575 860h195l53 -166l-164 -16zM780 1073h213 l33 -139h-203zM844 860h194l41 -139l-184 -19zM1067 1073h264v-139h-233zM1081 94q0 -52 38 -90q37 -37 92 -37q53 0 89.5 37t36.5 90.5t-36.5 91t-89.5 37.5q-54 0 -92 -38t-38 -91zM1114 860h217v-110l-184 -19z" />
<glyph unicode="j" horiz-adv-x="1572" d="M164 750q0 -173 155 -326l467 -465l467 465q156 154 156 328q0 133 -82 215t-217 82q-45 0 -79 -6.5t-61.5 -17.5t-58 -37t-56 -53t-69.5 -77q-50 55 -57 66q-6 8 -26 27.5t-45 40t-39 25.5q-80 32 -156 32q-135 0 -217 -82t-82 -217z" />
<glyph unicode="k" horiz-adv-x="1269" d="M61 0h1147v94q-67 27 -395 94l-10 19q-22 57 -22 117q-2 23 3 47q12 82 60 139q12 -7 23 -9q14 -1 25 18q2 3 4 10t3.5 12.5t1.5 7.5q27 62 33 69q13 20 13 44q0 23 -9 38.5t-33 12.5q14 17 25 59q26 12 29 39q1 17 -2.5 30t-5 16t-9.5 13q16 19 16 40t-16 38 q32 23 32 60q0 15 -4 28q-12 46 -48 46q-8 0 -19 -3q35 50 35 98q-2 26 -8 45q-24 70 -107 87q-4 1 -13 1q-22 0 -64.5 -19t-65.5 -36q-32 -25 -33 -26q-23 9 -70 36q-49 26 -87 37q-25 7 -50 7q-13 0 -26 -2q-31 -1 -54 -14.5t-34.5 -32.5t-14.5 -42q-1 -7 -1 -23 q-1 -21 5 -54t12 -50q4 -14 9 -26q-27 -9 -41 -26t-14 -33q0 -24 20 -56q6 -8 8 -10q-29 -5 -29 -20q0 -12 21 -35q-30 -22 -30 -43q0 -6 3 -12q13 -25 22 -32q8 -5 19 -10q-9 -12 -5 -19t9 -10t10 -4q3 -1 9 -1q-6 -4 -1 -36l3 -9q-25 -2 -35.5 -20t-1.5 -34q26 -32 31 -80 q11 -47 51 -69q16 -8 27 7q2 4 2 5l10 -16q31 -55 31 -96q0 -42 -4 -74t-10.5 -51.5t-16.5 -40.5q-14 -28 -21 -52q-268 -62 -342 -110v-78z" />
<glyph unicode="l" horiz-adv-x="1636" d="M205 23q0 -21 14.5 -35.5t32.5 -14.5h336q7 0 14 2.5t13 7.5t10.5 11t7 13.5t2.5 15.5v94q21 -19 104 -44q207 -64 381 -64q24 0 66 2q208 16 208 146q0 31 -12 70q43 29 56 79q4 16 4 42q0 32 -15 66q32 28 43 83q2 18 2 26q0 43 -24 91q10 36 10 69q0 71 -59 117 t-164 46h-29q47 91 47 176q0 128 -59 204.5t-141 76.5q-135 0 -174 -168q-3 -16 -28 -80q-30 -74 -90.5 -164t-125.5 -133v53q0 12 -6.5 23t-17.5 17.5t-23 6.5h-336q-12 0 -23 -6.5t-17.5 -17.5t-6.5 -23v-788zM635 248v370q73 32 153.5 120.5t137.5 194.5t69 189 q9 64 58 64q30 0 57 -49t27 -117q0 -46 -43 -131q-43 -86 -43 -107q0 -23 16.5 -38t46.5 -15h121q35 0 66 -18.5t31 -56.5q1 -4 0 -10q-6 -50 -70 -50q-10 0 -15 -6q-4 -6 1 -12.5t14 -6.5q52 -1 70 -33q8 -14 8 -28q0 -16 -14 -35q-24 -31 -79 -31q-13 0 -17 -6 q-5 -6 0 -12t17 -8q26 -3 49 -16t23 -37q0 -8 -3 -17q-20 -51 -118 -51q-15 0 -17 -12q-2 -13 17 -18l6 -1q81 -18 81 -58q0 -14 -12 -30q-34 -49 -124 -49h-10q-286 12 -504 121z" />
<glyph unicode="m" horiz-adv-x="1861" d="M205 76l424 434l-424 399v-833zM285 0h1292l-422 436l-225 -213l-221 209zM307 1018l623 -592l622 592h-1245zM1235 512l422 -436v833z" />
<glyph unicode="n" horiz-adv-x="1126" d="M123 406q0 -90 35 -171.5t94 -140.5t140 -94t171 -35q182 0 312 130q85 85 115 199q14 55 14 110q0 58 -16 117q-31 114 -118 198v272q0 83 -41 154.5t-112 113t-154 41.5t-154.5 -41.5t-113 -113t-41.5 -154.5v-272q-131 -128 -131 -313zM227 406l21 49h139v-99h-139z M303 217l100 102l70 -69l-100 -100l-49 18zM303 594l21 51l49 19l100 -101l-70 -69zM420 821v170q0 19 5 38t14.5 34.5t22.5 29t28.5 23t34.5 14.5t38 5q28 0 54.5 -11.5t45.5 -31t30.5 -46t11.5 -55.5v-170q-73 24 -144 24t-141 -24zM512 94v139h98v-139l-49 -20zM512 580 v139l49 20l49 -20v-139h-98zM647 250l70 69l100 -102l-18 -49l-51 -18zM647 563l101 101l51 -21l18 -49l-100 -100zM733 356v99h139l21 -49l-21 -50h-139z" />
<glyph unicode="o" horiz-adv-x="1826" d="M205 96q0 -39 28.5 -67.5t69.5 -28.5h1167q41 0 69 28.5t28 67.5v318h-148v-267h-1067v723h326v148h-375q-41 0 -69.5 -28.5t-28.5 -69.5v-824zM670 369h61q0 74 22.5 136.5t58.5 103.5q32 36 78.5 65.5t87.5 43.5q65 22 139 29q9 1 22 1l-60 -273l543 387l-543 381 l56 -242q-91 0 -168 -34t-127 -89q-44 -49 -79.5 -121t-53.5 -138q-15 -54 -25 -119.5t-11 -94.5q-1 -16 -1 -36z" />
<glyph unicode="p" horiz-adv-x="1647" d="M180 605q0 130 51 247.5t137.5 202.5t206 135.5t250.5 50.5q127 0 245.5 -50.5t205.5 -135t139 -203t52 -247.5q0 -130 -52 -249t-139 -204t-205.5 -135t-245.5 -50q-93 0 -183 25q40 50 65 130l39 174q64 -78 165 -78t179.5 58t121 159.5t42.5 230.5q0 70 -29.5 135.5 t-82 116t-129.5 80.5t-166 30q-88 0 -163.5 -24t-128 -64.5t-90.5 -92.5t-55.5 -107.5t-17.5 -110.5q0 -204 132 -244q25 0 25 16q0 13 23 55q0 11 -1.5 15t-11.5 16q-41 48 -41 123q0 60 20.5 116.5t58.5 101.5t97 72t131 27q87 0 148.5 -34.5t89.5 -90.5t28 -126 q0 -94 -24 -174t-69.5 -128t-101.5 -48q-35 0 -61.5 18.5t-37.5 48.5t-4 63q5 27 14.5 61.5t18 60t15 55t6.5 50.5q0 16 -3.5 31t-11 27.5t-17.5 22t-23.5 14.5t-29.5 5q-51 0 -85.5 -50t-34.5 -123q0 -27 3.5 -50.5t7.5 -33.5l4 -10q-70 -304 -76 -359q-5 -24 -7 -34.5 t-5.5 -33t-2.5 -40.5t6 -35q-179 78 -285.5 235t-106.5 356z" />
<glyph unicode="q" horiz-adv-x="1396" d="M82 858h166v213q0 29 11.5 55.5t30.5 45t45 29.5t54 11q60 0 101.5 -41t41.5 -100v-346q-139 -129 -139 -319q0 -90 35 -171.5t94 -140.5t140.5 -94t171.5 -35t171 35t140 94t94 140.5t35 171.5q0 119 -59 220t-160 159.5t-221 58.5q-74 0 -136 -21v248q0 83 -41.5 154 t-113 112t-154.5 41q-127 0 -217 -90t-90 -217v-213zM500 406l20 49h139v-99h-139zM575 217l101 102l69 -69l-100 -100l-49 18zM575 594l21 51l49 19l100 -101l-69 -69zM784 94v139h99v-139l-49 -20zM784 580v139l50 20l49 -20v-139h-99zM920 250l69 69l101 -102l-19 -49 l-51 -18zM920 563l100 101l51 -21l19 -49l-101 -100zM1006 356v99h139l20 -49l-20 -50h-139z" />
<glyph unicode="r" horiz-adv-x="1650" d="M180 -33l6 -6l344 84l807 807l4 7q10 24 10 50q0 69 -77 146q-17 17 -25 24l-784 -784l65 -66l-4 -92l-41 -39l-92 -24l-98 98l24 90l857 856q-17 4 -41 4q-28 0 -58 -8l-807 -803zM1137 1178l6 2q25 9 52 9q73 0 144 -71q53 -50 67 -104q9 -36 9 -56q0 -7 -2 -15 q-6 -17 -12 -28l76 76q59 61 62 137v7q0 73 -56 127q-49 52 -128 52h-4q-82 -2 -134 -57z" />
<glyph unicode="s" horiz-adv-x="1409" d="M82 80q0 -49 37 -87t86 -38q40 0 74 25l213 213l83 204q131 -108 297 -108q189 0 322 133.5t133 325.5q0 90 -37 174t-98.5 145t-145.5 98t-174 37q-187 0 -321 -133q-87 -87 -119 -199q-18 -63 -17 -124q0 -50 11 -98q25 -110 98 -197l-207 -84l-211 -213 q-24 -32 -24 -74zM592 748q0 112 83 195t197 83q113 0 196 -82.5t83 -195.5q0 -117 -82 -200t-197 -83q-113 0 -198 82q-82 82 -82 201z" />
<glyph unicode="t" horiz-adv-x="1585" d="M72 414l8 -23q9 -23 35 -56t62 -64q40 -35 108 -56.5t149 -21.5l-26 -27q-31 -31 -60 -74t-37 -76q-4 -21 3 -38t21 -25.5t31 -8.5q53 0 147 83v-38q-1 -41 19 -73.5t52 -32.5h8q100 9 100 122q0 40 -14 99q-2 23 31 15q67 -21 131 -21q166 0 295 150q43 51 68.5 113 t29.5 113q2 28 2 43q0 28 -4 67t-9 54q-5 20 -8 24l26 18q26 18 45 60t20 83q0 9 -2 29l217 139v35h-277l-13 32q-14 36 -68 66.5t-126 30.5q-53 0 -103 -18t-92 -53t-67.5 -92.5t-25.5 -129.5l-40 -18q-46 -22 -92 -74t-59 -113q-26 -110 -91.5 -177t-152.5 -83 q-26 -8 -60 -8q-22 0 -47 3q-69 7 -94 12zM985 938q0 32 24 58q22 24 58 24q35 0 58.5 -24t23.5 -58t-23.5 -58t-58.5 -24t-58.5 24t-23.5 58z" />
<glyph unicode="u" horiz-adv-x="1300" d="M123 86l108 -109l187 189l119 -119v344h-344l118 -119zM123 926l188 -189l-118 -119h344v345l-119 -121l-187 190zM764 47l119 119l188 -189l107 109l-189 186l119 119h-344v-344zM764 618h344l-119 119l189 189l-107 106l-188 -188l-119 119v-345z" />
<glyph unicode="v" horiz-adv-x="1423" d="M205 -2h344l-119 119l188 186l-108 109l-186 -189l-119 119v-344zM205 668l119 120l186 -190l108 107l-188 188l119 119h-344v-344zM805 303l188 -186l-119 -119h345v344l-119 -119l-189 189zM805 705l106 -107l189 188l119 -118v344h-345l119 -119z" />
<glyph unicode="w" horiz-adv-x="1574" d="M123 625q0 -137 52.5 -260.5t141.5 -212.5t212 -141t259 -52q183 0 335.5 88.5t240.5 241.5t88 336q0 136 -52 258.5t-141 210.5t-211.5 140t-258.5 52t-259.5 -52.5t-212.5 -141t-141.5 -210.5t-52.5 -257zM246 625v7q0 77 22 150q59 -24 193 -51q-6 -60 -6 -113 q0 -85 12 -163q-162 28 -217 94q-4 20 -4 76zM276 440q65 -35 205 -67q33 -157 99 -248q-108 45 -174 117q-77 71 -130 198zM299 854q40 91 107 150q56 58 186 120q-88 -116 -123 -321q-163 44 -170 51zM528 618q0 30 1 53t1 52q80 -9 218 -14v-289q-117 5 -207 20 q-13 81 -13 178zM541 793q24 142 78.5 241.5t123.5 126.5h5v-381q-76 3 -207 13zM559 360q93 -8 189 -12v-264q-79 0 -134 133q-36 64 -55 143zM825 84v264q97 3 191 12q-79 -276 -191 -276zM825 420v289q114 2 217 12q2 -46 2 -103q0 -114 -12 -180q-103 -17 -207 -18z M825 780v381h1q12 0 53 -28q113 -103 155 -340q-119 -12 -209 -13zM983 1126q201 -71 293 -274q-34 -27 -172 -51q-33 210 -121 325zM993 125q63 86 101 246q117 25 198 61q-44 -117 -123 -190q-66 -70 -176 -117zM1108 453q10 81 10 165q0 78 -4 113q98 11 191 49 q24 -73 24 -155q0 -41 -7 -65t-30 -45.5t-66.5 -35.5t-117.5 -26z" />
<glyph unicode="x" horiz-adv-x="1574" d="M123 625q0 -137 52.5 -260.5t141.5 -212.5t212 -141t259 -52q183 0 335.5 88.5t240.5 241.5t88 336q0 136 -52 258.5t-141 210.5t-211.5 140t-258.5 52t-259.5 -52.5t-212.5 -141t-141.5 -210.5t-52.5 -257zM444 420l207 205l-207 204l138 140l206 -207l203 205l139 -138 l-204 -204l204 -205l-139 -137l-203 204l-206 -206z" />
<glyph unicode="y" horiz-adv-x="1456" d="M82 753q0 -204 143 -350q135 -134 337 -138h16q192 0 319 112l66 -184l213 -213q31 -24 72 -24h10q45 3 77.5 36t36.5 80q1 4 1 12q0 41 -25 70l-211 213l-189 65q115 127 115 321v13q-5 203 -137 336q-146 143 -351 143q-204 0 -350 -143q-143 -145 -143 -349zM211 753 q0 151 106 257q109 108 259 108q0 1 1 1q148 0 254 -109q107 -107 107 -257q0 -99 -49 -183t-132 -132.5t-180 -48.5q-1 0 -1 1q-150 0 -259 106q-106 106 -106 257zM356 705h164v-164h111v164h162v104h-162v166h-111v-166h-164v-104z" />
<glyph unicode="z" horiz-adv-x="1456" d="M82 753q0 -205 145 -350q134 -134 335 -138h16q192 0 319 112l66 -184l213 -213q31 -24 72 -24h10q30 2 55.5 17.5t41 41.5t17.5 57q0 8 1 12q0 41 -25 70l-211 213l-187 65q114 128 114 321q-1 4 -1 13q-2 100 -40 189t-102 152.5t-153.5 100.5t-189.5 37 q-101 0 -192.5 -39t-158 -104.5t-106 -157t-39.5 -191.5zM211 753q0 151 106 257q109 108 259 108l2 1q150 0 253 -109q107 -107 107 -256q0 -74 -28.5 -141.5t-77 -116t-115 -77.5t-140.5 -29q-151 0 -260 106q-106 106 -106 257zM356 680h437v156h-437v-156z" />
<glyph unicode="{" horiz-adv-x="1576" d="M123 621q0 -135 52.5 -258.5t141.5 -212.5t212 -142t259 -53q135 0 258.5 53t212.5 142.5t142 213t53 257.5q0 181 -90 334t-243 242t-333 89q-136 0 -259 -52.5t-212 -141.5t-141.5 -212t-52.5 -259zM268 623q0 215 153 367q151 151 368 151q85 0 164 -26t142.5 -74 t111.5 -111.5t74 -142.5t26 -164q0 -71 -18.5 -138.5t-52 -124.5t-81 -105t-104.5 -81.5t-124 -52.5t-138 -19q-106 0 -202.5 41.5t-166.5 111t-111 166t-41 202.5zM356 625q0 -15 13 -27q12 -12 27 -12q6 0 11.5 2t10 6t8.5 8.5t6 10.5t2 12q0 14 -12 26.5t-26 12.5 q-7 0 -14.5 -3.5t-13 -9t-9 -12.5t-3.5 -14zM467.5 863.5q-1.5 23.5 11.5 41t31 29.5t41.5 9.5t42.5 -21.5l213 -234h178q47 0 65 -37q18 -38 -2.5 -74t-62.5 -36h-209q-35 -2 -53 24l-236 256q-18 19 -19.5 42.5zM479 338q0 -14 13 -26q12 -13 26 -13t26.5 12.5t12.5 26.5 t-12.5 26.5t-26.5 12.5q-9 0 -18.5 -5.5t-15 -15t-5.5 -18.5zM745 232q0 -15 13 -27q12 -12 27 -12q14 0 26 12t12 27q0 9 -5.5 18t-14.5 14.5t-18 5.5q-15 0 -27.5 -12t-12.5 -26zM748 1012q0 -17 11 -28t28 -11q16 0 27 11t11 28t-11 28t-27.5 11t-27.5 -11.5t-11 -27.5z M1020 906q0 -18 12 -28q12 -12 27 -12t27 12t12 28t-12 27t-27 11t-27 -11t-12 -27zM1032 351q0 -15 13 -27q12 -13 26 -13q9 0 18.5 6t15 15t5.5 19q0 14 -12.5 26t-26.5 12t-26.5 -12t-12.5 -26zM1141 625q0 -14 11 -27q11 -12 28 -12q16 0 27.5 12t11.5 27t-11.5 27 t-27.5 12t-27.5 -12t-11.5 -27z" />
<glyph unicode="|" horiz-adv-x="485" d="M205 -508h76v2050h-76v-2050z" />
<glyph unicode="}" horiz-adv-x="1576" d="M123 621q0 -135 52.5 -258.5t141.5 -212.5t212 -142t259 -53q135 0 258.5 53t212.5 142.5t142 213t53 257.5q0 181 -90 334t-243 242t-333 89q-136 0 -259 -52.5t-212 -141.5t-141.5 -212t-52.5 -259zM268 623q0 215 153 367q151 151 368 151q85 0 164 -26t142.5 -74 t111.5 -111.5t74 -142.5t26 -164q0 -71 -18.5 -138.5t-52 -124.5t-81 -105t-104.5 -81.5t-124 -52.5t-138 -19q-106 0 -202.5 41.5t-166.5 111t-111 166t-41 202.5zM488.5 843.5q-1.5 23.5 11 41t31 29t41.5 9t42 -21.5l193 -213h158q47 0 65 -37q18 -38 -2.5 -74t-62.5 -36 h-189q-35 -2 -53 24l-215 236q-18 19 -19.5 42.5z" />
<glyph unicode="&#xad;" d="M113 123h884l-444 774z" />
<glyph unicode="&#x2000;" horiz-adv-x="816" />
<glyph unicode="&#x2001;" horiz-adv-x="1632" />
<glyph unicode="&#x2002;" horiz-adv-x="816" />
<glyph unicode="&#x2003;" horiz-adv-x="1632" />
<glyph unicode="&#x2004;" horiz-adv-x="544" />
<glyph unicode="&#x2005;" horiz-adv-x="408" />
<glyph unicode="&#x2006;" horiz-adv-x="272" />
<glyph unicode="&#x2007;" horiz-adv-x="272" />
<glyph unicode="&#x2008;" horiz-adv-x="204" />
<glyph unicode="&#x2009;" horiz-adv-x="326" />
<glyph unicode="&#x200a;" horiz-adv-x="90" />
<glyph unicode="&#x2010;" d="M113 123h884l-444 774z" />
<glyph unicode="&#x2011;" d="M113 123h884l-444 774z" />
<glyph unicode="&#x2012;" d="M113 123h884l-444 774z" />
<glyph unicode="&#x2013;" horiz-adv-x="1024" d="M113 123h786v774h-786v-774z" />
<glyph unicode="&#x2014;" horiz-adv-x="2048" d="M113 123h1810v774h-1810v-774z" />
<glyph unicode="&#x2018;" horiz-adv-x="1024" />
<glyph unicode="&#x2019;" horiz-adv-x="1568" d="M164 362l362 -362h514l365 362v515l-365 364h-514l-362 -364v-515zM219 385v469l330 332h469l332 -332v-469l-332 -330h-469zM289 414l291 -289h409l291 289v411l-291 291h-409l-291 -291v-411z" />
<glyph unicode="&#x2026;" horiz-adv-x="4698" d="M57 1122q0 -47 20.5 -64.5t74.5 -19.5q50 -1 67 -6q43 -12 68 -106l145 -520q4 -29 27.5 -49.5t52.5 -20.5h782q35 0 59.5 24.5t24.5 59.5v461q0 33 -22.5 56.5t-57.5 25.5l-886 63q-57 168 -260 168q-11 0 -16 -1t-11 -1h-4l-16 -2q-17 -3 -32.5 -21.5t-15.5 -46.5z M371 103q0 57 40 97t97 40t97 -40t40 -97q0 -58 -40 -98t-97 -40t-97 40t-40 98zM446 874l263 -16v-170h-201zM524 641h185v-158h-136zM774 483v158h205v-158h-205zM774 688v166l205 -14v-152h-205zM1036 103q0 57 40 97t95 40q57 0 96.5 -40t41.5 -98q0 -57 -40.5 -97 t-97.5 -40q-55 0 -95 40.5t-40 97.5zM1044 483v158h187v-158h-187zM1044 688v148l187 -15v-133h-187zM1623 1122q0 -47 21 -64.5t74 -19.5q50 -1 67 -6q43 -12 68 -106l145 -520q4 -29 27.5 -49.5t52.5 -20.5h782q35 0 59.5 24.5t24.5 59.5v461q0 21 -10 39.5t-28.5 30 t-41.5 12.5l-886 63q-57 168 -260 168q-11 0 -16 -1t-11 -1h-4l-16 -2q-8 -1 -16 -6t-15.5 -13.5t-12 -21t-4.5 -27.5zM1937 103q0 57 40 97t97 40q28 0 53.5 -11t43.5 -29t29 -43.5t11 -53.5q0 -58 -40 -98t-97 -40t-97 40t-40 98zM2012 874l263 -16v-170h-201zM2090 641 h185v-158h-136zM2340 483v158h205v-158h-205zM2340 688v166l205 -14v-152h-205zM2602 103q0 57 40 97t95 40q57 0 96.5 -40t41.5 -98q0 -57 -40.5 -97t-97.5 -40q-55 0 -95 40.5t-40 97.5zM2610 483v158h187v-158h-187zM2610 688v148l187 -15v-133h-187zM3189 1122 q0 -47 21 -64.5t74 -19.5q50 -1 67 -6q43 -12 68 -106l145 -520q4 -29 27.5 -49.5t52.5 -20.5h782q35 0 59.5 24.5t24.5 59.5v461q0 33 -22.5 56.5t-57.5 25.5l-886 63q-57 168 -260 168q-11 0 -16 -1t-11 -1h-4l-16 -2q-17 -3 -32.5 -21.5t-15.5 -46.5zM3503 103 q0 57 40 97t97 40q28 0 53.5 -11t43.5 -29t29 -43.5t11 -53.5q0 -58 -40 -98t-97 -40t-97 40t-40 98zM3578 874l263 -16v-170h-201zM3656 641h185v-158h-136zM3906 483v158h205v-158h-205zM3906 688v166l205 -14v-152h-205zM4168 103q0 57 40 97t95 40q57 0 96.5 -40 t41.5 -98q0 -37 -18.5 -68.5t-50.5 -50t-69 -18.5q-36 0 -67 18.5t-49.5 50t-18.5 69.5zM4176 483v158h187v-158h-187zM4176 688v148l187 -15v-133h-187z" />
<glyph unicode="&#x202f;" horiz-adv-x="326" />
<glyph unicode="&#x205f;" horiz-adv-x="408" />
<glyph unicode="&#x2122;" horiz-adv-x="2305" d="M188 469q1 -202 140 -330q127 -128 325 -139h129q56 0 93.5 38t37.5 93q0 53 -38 91t-93 38h-118q-94 6 -154.5 64.5t-60.5 144.5v121h333q56 0 93.5 37.5t37.5 91.5q0 55 -38 93t-93 38h-333v190q0 35 -17.5 65t-47.5 47t-65 17q-55 0 -93 -38t-38 -91v-571zM1282 123 q0 -51 36 -87t87 -36h573q51 0 87 36t36 87v1108q0 51 -36 87t-87 36h-573q-52 0 -87.5 -36t-35.5 -87v-1108zM1409 813v397h565v-397h-565zM1431 420q0 106 77 183t184 77t183 -76t76 -184t-76 -184t-183 -76t-184 77t-77 183zM1593 420q0 -40 29 -69t69 -29q41 0 70 28.5 t29 69.5t-29 69.5t-70 28.5t-69.5 -28.5t-28.5 -69.5z" />
<glyph unicode="&#x25fc;" horiz-adv-x="1285" d="M0 0v1285h1285v-1285h-1285z" />
</font>
</defs>
</svg>
