<?xml version="1.0" standalone="no"?> <!DOCTYPE svg PUBLIC "-//W3C//DTD SVG 1.0//EN" "http://www.w3.org/TR/2001/REC-SVG-20010904/DTD/svg10.dtd" > <svg xmlns="http://www.w3.org/2000/svg" width="100%" height="100%">
<defs >
<font horiz-adv-x="586" ><font-face
    font-family="Poets Electra Web"
    units-per-em="1000"
    panose-1="0 0 0 0 0 0 0 0 0 0"
    ascent="790"
    descent="-210"
    alphabetic="0" />
<missing-glyph horiz-adv-x="220" />
<glyph unicode=" " glyph-name="space" horiz-adv-x="245" />
<glyph unicode="!" glyph-name="exclam" horiz-adv-x="285" d="M103 120Q129 120 147 102T165 58Q165 32 147 14T103 -5Q77 -5 59 13T40 58Q40 84 58 102T103 120ZM263 719Q248 680 231 623T196 499T162 361T134 222H96Q98 252 101 292T109 377T118 468T128 559T138
641T150 707L263 719Z" />
<glyph unicode="&quot;" glyph-name="quotedbl" horiz-adv-x="375" d="M280 524Q281 554 281 579T279 628T277 675T276 723Q276 752 288 768T325 785Q344 785 360 772T376 737Q376 726 370 705T353 655T331 592T307 520L280 524ZM115 524Q116 554 116 579T114
628T112 675T111 723Q111 752 123 768T160 785Q179 785 195 772T211 737Q211 726 205 705T188 655T166 592T142 520L115 524Z" />
<glyph unicode="#" glyph-name="numbersign" horiz-adv-x="588" d="M176 329L210 469L93 486L113 563L229 546L285 769H340L283 538L401 521L463 769H518L454 513L568 497L548 420L435 436L401 296L521 279L501 202L382 219L321 -28H266L329 227L210 244L143 -28H88L157
252L46 268L66 345L176 329ZM229 321L348 304L382 444L264 461L229 321Z" />
<glyph unicode="$" glyph-name="dollar" horiz-adv-x="524" d="M306 771H348L341 718Q378 713 407 702T458 677T490 648T501 622Q501 609 491 597T461 584Q441 584 432 596T412 625T385 656T335 678L300 413Q346 388 379 365T433 318T465 265T475 200Q475 156
459 120T414 59T344 20T256 6H246L229 -127H187L205 10Q166 16 133 30T76 62T38 97T24 129Q24 145 37 159T68 173Q85 173 95 158T118 122T151 81T210 51L248 337Q166 382 129 427T91 536Q91 581 109 615T157 672T224 708T299 721L306 771ZM261 46Q319 46 356 80T393
180Q393 225 368 256T288 317L252 46H261ZM164 556Q164 513 188 487T261 434L294 681Q269 680 246 673T204 650T175 612T164 556Z" />
<glyph unicode="%" glyph-name="percent" horiz-adv-x="868" d="M701 273Q732 273 757 261T799 227T825 178T835 117Q835 76 823 39T789 -25T735 -69T663 -85Q634 -85 607 -75T557 -46T522 3T509 70Q509 112 523 149T563 213T624 257T701 273ZM783 115Q783 178
760 206T703 235Q683 235 664 225T628 192T602 138T592 61Q592 1 616 -22T674 -46Q695 -46 714 -35T749 -3T774 47T783 115ZM635 704Q595 672 550 648T448 623Q417 622 395 628T357 642Q363 592 354 547T324 467T268 412T187 391Q161 391 134 401T84 430T47 479T33
546Q33 588 48 623T89 683T148 722T217 736Q254 736 279 725T327 699T378 674T447 662Q474 662 502 670T558 694T612 728T663 769H720L201 -119H139L635 704ZM311 596Q311 653 287 675T219 698Q202 698 184 690T151 662T126 612T116 537Q116 503 123 482T142 450T168
434T197 430Q218 430 238 440T275 472T301 524T311 596Z" />
<glyph unicode="&amp;" glyph-name="ampersand" horiz-adv-x="798" d="M601 728Q609 736 614 739T626 742Q635 742 642 735T650 714Q650 706 647 700T632 685Q535 608 413 515T132 309Q134 241 155 194T209 116T282 72T363 58Q409 58 452 73T527 119T578 194T598
298Q598 312 596 325T588 353Q563 345 538 339T483 333Q435 333 408 354T381 413Q381 431 389 446T409 471T438 488T470 494Q514 494 549 471T607 405Q623 409 639 411T670 414Q715 414 744 383T773 306Q773 284 764 267T729 249Q712 249 702 262T702 302L727 361Q716
375 688 375Q671 375 656 372T624 364Q630 344 633 321T637 273Q637 221 619 169T563 74T472 6T345 -21Q289 -21 236 -1T142 58T77 154T52 287Q52 354 77 409T142 505T231 568T330 591Q363 591 388 587T432 578Q478 616 520 653T601 728ZM363 522Q352 553 296 553Q269
553 242 541T191 504T152 442T132 352Q195 396 252 438T363 522ZM495 454Q479 454 465 446T450 418Q450 401 463 392T494 383Q512 383 531 386T569 395Q554 421 535 437T495 454Z" />
<glyph unicode="&apos;" glyph-name="quotesingle" horiz-adv-x="208" d="M113 524Q114 554 114 579T112 628T110 675T109 723Q109 752 121 768T158 785Q177 785 193 772T209 737Q209 726 203 705T186 655T164 592T140 520L113 524Z" />
<glyph unicode="(" glyph-name="parenleft" horiz-adv-x="334" d="M132 163Q132 92 142 34T168 -70T201 -149T234 -203Q242 -213 242 -222Q242 -230 236 -236T224 -242Q216 -242 212 -239T201 -228Q184 -209 160 -172T114 -83T77 33T62 171Q62 284 89 379T155
551T237 681T312 766Q317 771 322 774T336 778Q342 778 347 774T352 762Q352 753 340 739Q310 708 274 651T207 517T154 351T132 163Z" />
<glyph unicode=")" glyph-name="parenright" horiz-adv-x="338" d="M202 378Q202 448 192 506T166 611T133 690T100 744Q92 754 92 763Q92 771 98 777T110 783Q118 783 122 780T133 769Q150 749 174 712T219 624T256 508T272 370Q272 257 245 162T179 -10T97 -140T22
-225Q17 -230 12 -233T-2 -237Q-8 -237 -13 -233T-18 -221Q-18 -212 -6 -198Q24 -167 60 -110T127 24T180 190T202 378Z" />
<glyph unicode="*" glyph-name="asterisk" horiz-adv-x="469" d="M294 393Q294 380 289 374T265 367Q247 367 242 373T236 393V500L222 512L122 452Q113 446 107 446Q101 446 90 457T79 483Q79 490 83 494T95 503L191 560V582L95 638Q87 643 83 647T79 658Q79
672 90 683T107 694Q112 694 122 689L223 629L236 640V748Q236 761 241 767T265 774Q283 774 288 768T294 748V641L308 629L408 689Q418 694 423 694Q429 694 440 683T451 658Q451 651 447 647T435 638L340 582V560L435 503Q443 498 447 494T451 483Q451 469 440
458T423 446Q417 446 408 452L309 511L294 499V393ZM315 591L284 617H247L216 591V550L247 523H284L315 549V591Z" />
<glyph unicode="+" glyph-name="plus" horiz-adv-x="500" d="M224 78V270H49V318H224V510H276V318H451V270H276V78H224Z" />
<glyph unicode="," glyph-name="comma" horiz-adv-x="289" d="M29 34L63 121Q86 119 110 113T155 97T188 74T201 42Q201 26 190 2T159 -49T117 -105T69 -157Q57 -169 52 -172T41 -175Q34 -175 29 -171T23 -159Q23 -155 24 -150T32 -139Q44 -127 57 -110T83 -76T103
-41T111 -11Q111 10 91 19T29 34Z" />
<glyph unicode="-" glyph-name="hyphen" horiz-adv-x="326" d="M47 273L259 293V234L47 214V273Z" />
<glyph unicode="." glyph-name="period" horiz-adv-x="265" d="M108 120Q134 120 152 102T170 58Q170 32 152 14T108 -5Q82 -5 64 13T45 58Q45 84 63 102T108 120Z" />
<glyph unicode="/" glyph-name="slash" horiz-adv-x="489" d="M435 780H500L9 -220H-56L435 780Z" />
<glyph unicode="0" glyph-name="zero" horiz-adv-x="578" d="M44 220Q44 280 64 330T120 417T204 474T308 495Q345 495 385 481T458 436T512 360T534 250Q534 198 516 152T463 70T381 15T273 -6Q231 -6 190 8T117 50T64 120T44 220ZM448 262Q448 317 436 354T404
413T359 444T307 454Q266 454 233 436T177 384T142 305T130 202Q130 160 142 129T174 77T220 46T277 35Q316 35 347 51T401 96T436 168T448 262Z" />
<glyph unicode="1" glyph-name="one" horiz-adv-x="376" d="M25 35L128 46L175 403L74 416L81 468L275 486L217 46L325 35L320 0H20L25 35Z" />
<glyph unicode="2" glyph-name="two" horiz-adv-x="451" d="M76 376L108 462Q137 475 169 481T248 488Q320 488 359 457T399 365Q399 324 368 284T294 207T204 138T129 81H356L376 142H410L375 0H-2L1 25Q89 92 152 140T255 225T314 289T333 342Q333 405 237 405Q223
405 204 404T163 398T119 389T76 376Z" />
<glyph unicode="3" glyph-name="three" horiz-adv-x="435" d="M-30 -191Q57 -176 117 -153T214 -101T269 -40T286 26Q286 80 231 102T79 130L84 166Q134 176 175 195T245 239T291 289T307 339Q307 374 282 391T213 409Q142 409 63 378L84 461Q112 472 144 480T219
488Q297 488 336 456T376 366Q376 329 359 300T316 249T263 211T213 185Q290 173 331 140T373 43Q373 -6 344 -49T261 -126T135 -186T-25 -225L-30 -191Z" />
<glyph unicode="4" glyph-name="four" horiz-adv-x="550" d="M433 498H459L403 75H504L497 19H395L364 -220H274L306 19H12L15 45L305 368Q352 421 384 452T433 498ZM352 365L95 75H313L352 365Z" />
<glyph unicode="5" glyph-name="five" horiz-adv-x="427" d="M368 480L382 532H414L387 400H137L113 239Q238 211 294 162T350 47Q350 -6 323 -49T247 -126T135 -184T-2 -225L-7 -191Q67 -172 118 -149T201 -99T247 -41T262 27Q262 79 213 110T63 162L107 480H368Z" />
<glyph unicode="6" glyph-name="six" horiz-adv-x="551" d="M505 261Q505 210 489 162T443 78T368 19T266 -4Q165 -4 109 66T52 261Q52 379 93 471T201 628T354 729T531 769L534 729Q474 725 419 705T317 648T234 560T175 441Q207 462 243 474T318 487Q361 487
395 471T454 424T492 353T505 261ZM291 439Q253 439 222 430T163 401Q142 321 142 225Q142 134 171 85T269 36Q306 36 334 54T380 103T408 176T417 269Q417 307 410 338T388 392T349 427T291 439Z" />
<glyph unicode="7" glyph-name="seven" horiz-adv-x="495" d="M493 480L490 455Q482 444 459 404T396 280L152 -220H86L412 396H85L74 325H39L58 480H493Z" />
<glyph unicode="8" glyph-name="eight" horiz-adv-x="511" d="M42 166Q42 217 57 254T97 318T154 365T222 401Q200 416 180 432T145 470T121 517T112 576Q112 614 126 649T167 710T231 752T313 768Q350 768 382 758T439 726T476 674T490 603Q490 535 451 489T350
412Q369 400 390 382T429 338T457 280T469 206Q469 160 452 122T405 55T333 10T244 -6Q199 -6 162 9T98 48T57 104T42 166ZM394 179Q394 221 382 252T350 306T305 347T253 382Q220 368 193 349T145 304T114 245T103 170Q103 142 114 118T144 75T190 46T247 35Q287
35 315 48T360 83T386 129T394 179ZM182 599Q182 570 190 548T216 506T258 468T318 431Q371 455 402 497T434 603Q434 663 400 697T313 731Q284 731 260 720T219 691T192 649T182 599Z" />
<glyph unicode="9" glyph-name="nine" horiz-adv-x="551" d="M44 245Q44 293 62 337T112 415T189 469T287 489Q388 489 441 424T495 241Q495 175 478 119T432 15T366 -72T287 -141T204 -195T125 -234L108 -206Q146 -182 183 -155T255 -96T318 -25T367 65Q342 55
316 50T262 44Q206 44 165 59T97 101T57 165T44 245ZM277 85Q308 85 332 89T380 101Q391 138 397 180T404 271Q404 359 376 407T285 455Q250 455 222 438T173 390T142 320T130 232Q130 156 166 121T277 85Z" />
<glyph unicode=":" glyph-name="colon" horiz-adv-x="265" d="M149 461Q175 461 193 443T211 399Q211 373 193 355T149 336Q123 336 105 354T86 399Q86 425 104 443T149 461ZM355 120Q381 120 399 102T417 58Q417 32 399 14T355 -5Q329 -5 311 13T292 58Q292 84
310 102T355 120Z" />
<glyph unicode=";" glyph-name="semicolon" horiz-adv-x="289" d="M278 34L312 121Q335 119 359 113T404 97T437 74T450 42Q450 26 439 2T408 -49T366 -105T318 -157Q306 -169 301 -172T290 -175Q283 -175 278 -171T272 -159Q272 -155 273 -150T281 -139Q293 -127
306 -110T332 -76T352 -41T360 -11Q360 10 340 19T278 34ZM160 461Q186 461 204 443T222 399Q222 373 204 355T160 336Q134 336 116 354T97 399Q97 425 115 443T160 461Z" />
<glyph unicode="&lt;" glyph-name="less" horiz-adv-x="520" d="M56 308L458 468V420L114 283L458 146V98L56 258V308Z" />
<glyph unicode="=" glyph-name="equal" horiz-adv-x="520" d="M59 238H461V190H59V238ZM59 378H461V330H59V378Z" />
<glyph unicode="&gt;" glyph-name="greater" horiz-adv-x="520" d="M464 258L62 98V146L406 283L62 420V468L464 308V258Z" />
<glyph unicode="?" glyph-name="question" horiz-adv-x="460" d="M185 58Q185 32 167 14T123 -5Q97 -5 79 13T60 58Q60 84 78 102T123 120Q149 120 167 102T185 58ZM111 690Q137 700 166 704T230 708Q312 708 360 671T409 567Q409 520 386 484T328 419T253 370T180
333L163 202H125L135 353Q170 370 205 391T270 435T317 485T336 540Q336 556 330 572T309 601T273 622T218 630Q204 630 187 628T154 623T122 616T94 608L111 690Z" />
<glyph unicode="@" glyph-name="at" horiz-adv-x="999" d="M733 490L674 272Q661 224 655 199T648 156Q647 134 658 122T698 110Q738 110 774 135T838 204T882 302T899 416Q899 482 880 537T820 631T720 692T579 714Q531 714 481 699T382 656T291 587T216 495T164
382T145 250Q145 169 175 105T257 -5T379 -74T530 -98Q600 -98 658 -82T763 -43T841 8T890 57Q895 65 903 67T920 64Q928 59 929 51T926 35Q907 10 872 -20T786 -77T671 -122T530 -140Q440 -140 356 -111T207 -28T102 103T63 276Q63 386 106 475T222 626T387 722T579
756Q667 756 736 732T854 664T927 557T952 416Q952 349 931 286T875 175T794 97T698 68Q642 68 613 97T582 168Q572 151 558 135T525 106T486 84T439 76Q415 76 391 84T346 112T313 163T300 240Q300 287 319 334T372 418T448 479T539 503Q584 503 609 480T643 428L666
490H733ZM541 463Q515 463 489 445T439 386Q414 342 397 290T379 193Q379 170 384 155T397 131T417 119T443 115Q485 115 518 145T576 218Q593 247 604 284T615 373Q615 463 541 463Z" />
<glyph unicode="A" glyph-name="A" horiz-adv-x="745" d="M419 41L526 54L460 283H232L117 52L207 41L202 0H-5L0 41L57 52L302 536Q333 599 354 651T384 740H428L628 48L689 41L684 0H414L419 41ZM256 331H447L377 576L256 331Z" />
<glyph unicode="B" glyph-name="B" horiz-adv-x="671" d="M105 730H246Q279 730 318 734T385 738Q498 738 554 690T610 566Q610 538 599 512T569 462T525 421T471 389Q537 369 574 331T611 222Q611 171 590 129T528 57T428 11T292 -6Q272 -6 257 -5T228 -3T197
-1T159 0H19L24 41L108 51L190 678L100 689L105 730ZM247 354L216 114Q213 90 215 76T228 55T260 45T317 43Q412 43 466 89T520 214Q520 247 507 273T469 317T410 344T334 354H247ZM373 694Q329 694 292 691L253 400H350Q432 400 477 439T522 546Q522 577 513 604T485
651T438 682T373 694Z" />
<glyph unicode="C" glyph-name="C" horiz-adv-x="803" d="M470 744Q522 744 560 734T625 710T672 687T706 676Q715 676 721 681T731 693H769L745 496H707Q697 550 675 588T623 652T554 690T472 702Q415 702 360 676T262 601T192 484T165 334Q165 275 180 221T228
126T310 59T426 34Q466 34 507 47T584 89T649 158T697 255H735L692 87Q668 73 638 57T574 26T501 2T423 -8Q348 -8 282 14T166 81T87 190T58 339Q58 427 92 501T184 629T315 713T470 744Z" />
<glyph unicode="D" glyph-name="D" horiz-adv-x="840" d="M105 730H230Q247 730 264 731T304 733T354 736T421 738Q509 738 578 715T696 650T770 549T796 418Q796 341 772 266T692 131T546 34T322 -3Q302 -3 288 -3T259 -2T229 -1T192 0H19L24 41L108 51L190 678L100
689L105 730ZM367 698Q346 698 328 696T292 692L218 133Q214 103 217 85T234 58T274 46T343 43Q446 43 513 77T620 163T675 280T691 406Q691 488 664 544T592 634T489 683T367 698Z" />
<glyph unicode="E" glyph-name="E" horiz-adv-x="686" d="M105 730H651L629 559H585L588 593Q591 622 590 639T581 666T553 679T500 682H290L254 402H280Q329 402 356 403T398 408T416 416T422 431L438 502H480L446 243H404L407 313Q408 326 406 334T391 347T354
352T283 354H247L207 48H445Q474 48 491 51T519 63T538 88T558 131L586 198H626L590 0H19L24 41L108 51L190 678L100 689L105 730Z" />
<glyph unicode="F" glyph-name="F" horiz-adv-x="663" d="M105 730H651L627 545H583L588 593Q591 622 591 639T581 666T553 679T500 682H290L254 402H295Q344 402 371 403T413 409T433 423T441 448L453 502H495L459 235H417L422 313Q423 326 421 334T406 347T369
352T298 354H247L207 51L320 41L315 0H19L24 41L107 51L190 678L100 689L105 730Z" />
<glyph unicode="G" glyph-name="G" horiz-adv-x="864" d="M646 222L543 233L553 274H834L824 233L748 223Q740 191 737 154T733 86Q709 80 679 65T611 33T527 4T425 -9Q345 -9 278 16T162 87T86 199T58 345Q58 429 92 501T183 628T314 713T467 744Q524 744 565
734T635 710T684 687T719 676Q728 676 735 681T744 693H782L759 483H721Q707 595 641 648T471 702Q415 702 360 680T262 613T193 501T166 345Q166 276 183 219T233 120T316 56T432 33Q475 33 512 41T576 64Q594 74 605 84T622 105T632 130T638 161L646 222Z" />
<glyph unicode="H" glyph-name="H" horiz-adv-x="838" d="M761 41L756 0H475L480 41L570 50L610 354H247L207 51L305 41L300 0H19L24 41L107 51L190 678L100 689L105 730H386L381 689L290 679L254 402H616L653 679L556 689L561 730H842L837 689L753 678L670 52L761 41Z" />
<glyph unicode="I" glyph-name="I" horiz-adv-x="375" d="M21 41L107 52L190 678L92 689L97 730H381L376 689L290 679L207 51L305 41L300 0H16L21 41Z" />
<glyph unicode="J" glyph-name="J" horiz-adv-x="387" d="M102 689L107 730H391L386 689L300 679L232 160Q223 88 204 33T158 -62T99 -128T30 -165Q13 -170 6 -165T-1 -153Q-1 -146 3 -142T17 -131Q35 -118 52 -99T83 -47T110 37T133 164L200 677L102 689Z" />
<glyph unicode="K" glyph-name="K" horiz-adv-x="768" d="M756 689L681 678L339 403L662 47L726 41V0H577H576L248 362L207 51L305 41L300 0H19L24 41L107 51L190 678L100 689L105 730H386L381 689L290 679L252 390L607 678L514 689V730H756V689Z" />
<glyph unicode="L" glyph-name="L" horiz-adv-x="675" d="M24 41L107 51L190 678L100 689L105 730H386L381 689L290 679L207 48H372Q417 48 445 51T491 64T520 88T545 126L601 221H643L571 0H19L24 41Z" />
<glyph unicode="M" glyph-name="M" horiz-adv-x="1008" d="M1005 689L923 680L840 52L931 41L926 0H649L654 41L740 50L815 616L463 9H431L232 616L157 53L251 41L246 0H19L24 41L103 53L186 678L91 689L96 730H297L486 153L820 730H1010L1005 689Z" />
<glyph unicode="N" glyph-name="N" horiz-adv-x="840" d="M24 41L111 53L188 637L158 679L74 689L79 730H242L657 145L717 677L617 689L622 730H843L838 689L774 677L685 0H641L228 581L168 53L265 41L260 0H19L24 41Z" />
<glyph unicode="O" glyph-name="O" horiz-adv-x="841" d="M451 744Q509 744 571 724T683 660T766 552T799 397Q799 308 768 235T682 108T556 25T401 -5Q338 -5 277 20T167 91T88 204T58 353Q58 443 93 515T184 639T310 717T451 744ZM165 336Q165 266 183 211T234
117T310 58T402 37Q462 37 515 64T607 140T668 259T691 415Q691 484 673 537T623 627T547 683T451 702Q395 702 344 677T253 604T189 489T165 336Z" />
<glyph unicode="P" glyph-name="P" horiz-adv-x="620" d="M105 730H240Q280 731 312 734T379 738Q492 738 551 689T611 558Q611 505 590 464T529 395T435 352T313 337H245L207 51L320 41L315 0H19L24 41L107 51L190 678L100 689L105 730ZM356 695Q342 695 326
695T292 692L251 381H316Q516 381 516 557Q516 625 477 660T356 695Z" />
<glyph unicode="Q" glyph-name="Q" horiz-adv-x="841" d="M282 -94Q332 -104 385 -115T489 -135T587 -150T673 -156Q688 -156 704 -153T737 -144T766 -132T788 -120Q796 -115 802 -122T799 -139Q786 -153 767 -169T724 -200T676 -224T627 -234Q585 -234 527 -224T403
-201T272 -174T150 -153L73 -187Q65 -177 62 -161T58 -118Q58 -91 67 -81T91 -70Q117 -70 149 -73T216 -83L393 -4Q331 -3 271 22T164 94T87 205T58 353Q58 443 93 515T184 639T310 717T451 744Q509 744 571 724T683 660T766 552T799 397Q799 259 729 166T530 15L282
-94ZM165 336Q165 266 183 211T234 117T310 58T402 37Q462 37 515 64T607 140T668 259T691 415Q691 484 673 537T623 627T547 683T451 702Q395 702 344 677T253 604T189 489T165 336Z" />
<glyph unicode="R" glyph-name="R" horiz-adv-x="780" d="M689 0Q659 0 637 8T596 35T556 86T506 166L397 349H247L207 51L320 41L315 0H19L24 41L107 51L190 678L100 689L105 730H241Q278 730 312 734T384 738Q490 738 549 693T609 566Q609 502 574 456T485 384L603
198Q631 153 651 125T687 79T719 54T756 41L751 0H689ZM379 395Q405 395 429 405T471 435T500 485T511 557Q511 622 477 658T376 695Q356 695 335 694T292 691L253 395H379Z" />
<glyph unicode="S" glyph-name="S" horiz-adv-x="579" d="M54 203H92Q94 157 108 125T144 72T197 43T263 33Q342 33 380 67T418 163Q418 209 394 240T335 296T257 342T180 390T120 452T96 538Q96 584 113 621T160 684T231 725T319 739Q350 739 375 733T420 721T454
708T479 702Q488 702 494 706T505 717H543L517 526H479Q476 575 461 608T424 660T373 688T314 697Q288 697 263 690T217 669T185 632T173 578Q174 538 198 510T260 460T340 415T419 365T480 298T505 203Q505 159 490 120T443 53T366 8T259 -9Q224 -9 198 -4T152
7T118 19T92 24Q74 24 64 5H28L54 203Z" />
<glyph unicode="T" glyph-name="T" horiz-adv-x="745" d="M66 544L106 730H747L723 544H675L677 593Q678 625 677 643T667 669T643 680T598 682H468L389 51L488 41L482 0H188L194 41L289 52L368 682H226Q204 682 190 679T166 665T147 638T130 593L114 544H66Z" />
<glyph unicode="U" glyph-name="U" horiz-adv-x="800" d="M809 689L741 678L677 262Q668 205 648 156T593 72T509 16T393 -5Q327 -5 273 13T182 69T129 167T124 311L172 678L88 689L93 730H368L363 689L272 679L223 305Q213 233 221 183T253 101T315 55T406 40Q503
40 557 99T625 273L675 677L582 689L587 730H814L809 689Z" />
<glyph unicode="V" glyph-name="V" horiz-adv-x="785" d="M342 689L238 676L434 122L701 678L616 689L619 730H815L812 689L770 680L419 -15H385L127 682L75 689L78 730H345L342 689Z" />
<glyph unicode="W" glyph-name="W" horiz-adv-x="1127" d="M323 689L234 677L430 120L576 404L473 682L421 689L424 730H871L868 689L803 680L666 431L779 121L1047 678L972 689L975 730H1161L1158 689L1116 680L765 -15H731L601 335L415 -15H381L123 682L71 689L74
730H326L323 689ZM641 500L739 687H572L641 500Z" />
<glyph unicode="X" glyph-name="X" horiz-adv-x="765" d="M353 689L265 677L403 432L592 677L505 689L511 730H734L728 689L656 678L426 390L619 48L691 41L685 0H399L405 41L505 53L354 322L137 52L219 41L213 0H10L16 41L73 52L331 363L151 683L99 689L105 730H359L353
689Z" />
<glyph unicode="Y" glyph-name="Y" horiz-adv-x="711" d="M195 41L298 52L340 368L146 681L86 689L91 730H361L356 689L259 678L418 416L602 678L520 689L525 730H727L722 689L666 678L440 372L398 51L515 41L510 0H190L195 41Z" />
<glyph unicode="Z" glyph-name="Z" horiz-adv-x="720" d="M40 29L576 688H295Q263 688 242 683T206 667T184 637T169 594L155 539H115L141 730H699V702L166 42H447Q486 42 509 45T547 57T570 84T589 131L616 212H656L617 0H40V29Z" />
<glyph unicode="[" glyph-name="bracketleft" horiz-adv-x="342" d="M153 730H348L342 682H211L98 -172H229L223 -220H28L153 730Z" />
<glyph unicode="\" glyph-name="backslash" horiz-adv-x="429" d="M326 -220L96 780H158L388 -220H326Z" />
<glyph unicode="]" glyph-name="bracketright" horiz-adv-x="342" d="M-29 -220L-23 -172H108L221 682H90L96 730H291L166 -220H-29Z" />
<glyph unicode="^" glyph-name="asciicircum" horiz-adv-x="463" d="M272 730L427 408H375L243 682L111 408H60L215 730H272Z" />
<glyph unicode="`" glyph-name="grave" horiz-adv-x="400" d="M152 744Q169 744 178 735T201 711L294 608L279 586L148 651Q131 659 119 670T106 699Q106 713 119 728T152 744Z" />
<glyph unicode="a" glyph-name="a" horiz-adv-x="548" d="M181 385Q232 423 287 444T400 471L434 505H490L387 63Q397 65 406 68T427 78T455 95T496 121L517 91Q463 46 426 21T350 -4Q323 -4 312 15T300 60Q282 47 263 35T224 14T186 0T153 -6Q102 -6 69 28T36
123Q36 168 49 207T84 280T130 339T181 385ZM199 55Q225 55 252 67T305 97L386 432Q343 426 300 408T219 354Q201 337 185 314T156 264T135 206T127 144Q127 100 147 78T199 55Z" />
<glyph unicode="b" glyph-name="b" horiz-adv-x="585" d="M254 -4Q220 -4 189 5T131 30L63 -9H38L203 685L112 694L122 737L309 763L221 399Q240 416 262 432T308 460T356 479T406 487Q434 487 458 475T501 441T529 384T540 307Q540 236 516 179T452 81T361 18T254
-4ZM254 39Q293 39 329 57T392 111T435 198T452 314Q452 376 428 403T363 431Q326 431 289 412T212 361L142 69Q168 52 196 46T254 39Z" />
<glyph unicode="c" glyph-name="c" horiz-adv-x="507" d="M478 386Q478 364 472 350T457 326T438 314T419 310Q397 310 385 323T381 370L395 430Q390 445 378 451T349 458Q308 458 269 440T200 388T152 306T133 200Q133 163 142 137T167 93T203 67T248 59Q297
59 336 84T405 157Q410 165 413 169T425 173Q437 173 440 164T439 146Q428 117 407 90T357 41T293 7T221 -6Q177 -6 144 10T89 53T56 115T44 188Q44 245 65 300T126 399T221 468T345 495Q373 495 397 488T440 466T468 432T478 386Z" />
<glyph unicode="d" glyph-name="d" horiz-adv-x="591" d="M360 495Q383 495 401 491T431 481L476 685L377 694L387 737L582 763L428 63Q438 65 448 68T472 78T504 95T546 121L567 91Q513 46 472 21T393 -4Q366 -4 354 12T340 53Q331 45 317 35T286 15T249 0T205
-6Q169 -6 140 7T89 46T57 105T45 181Q45 241 71 297T141 398T242 468T360 495ZM250 54Q283 54 303 63T345 90L422 441Q406 452 389 455T355 458Q316 458 277 438T205 381T152 296T132 190Q132 155 142 130T168 88T206 63T250 54Z" />
<glyph unicode="e" glyph-name="e" horiz-adv-x="486" d="M329 495Q386 495 421 472T457 402Q457 387 453 374T438 346T410 316T366 280Q334 256 299 234T231 195T172 165T132 146Q138 119 150 101T177 73T210 58T242 54Q273 54 298 65T343 92T377 128T400 164Q404
172 408 176T420 180Q432 180 435 171T434 153Q423 124 403 96T355 45T294 8T224 -6Q179 -6 145 9T87 49T53 109T41 181Q41 241 67 297T134 398T226 468T329 495ZM128 176Q143 183 167 196T218 227T273 264T323 306Q349 332 361 354T373 405Q373 434 359 446T321
458Q288 458 254 438T191 382T146 298T128 193V176Z" />
<glyph unicode="f" glyph-name="f" horiz-adv-x="379" d="M232 480H361L351 428H224L154 -29Q146 -49 131 -70T99 -110T64 -140T34 -152Q23 -152 23 -143Q23 -138 29 -127Q43 -101 52 -67T70 14L140 420L33 407L40 445L150 478L159 532Q181 661 233 719T355 778Q375
778 383 769T391 740Q391 710 386 698T369 685Q361 685 344 692L290 715Q285 712 280 704T270 678T258 630T244 554L232 480Z" />
<glyph unicode="g" glyph-name="g" horiz-adv-x="499" d="M70 310Q70 354 90 387T142 444T210 479T281 491Q318 491 347 485T395 468L410 494Q422 516 446 516H476Q476 501 472 485T463 453T451 426T440 406Q447 354 439 315T414 248T371 202T319 172Q295 161
272 157T227 150T183 145T139 137Q112 130 98 119T84 93Q84 76 103 72T149 65L318 57Q360 55 388 46T432 22T454 -12T461 -54Q461 -93 441 -125T384 -180T295 -216T179 -229Q94 -229 45 -204T-4 -126Q-4 -88 22 -57T82 -3Q55 4 40 19T25 58Q25 97 57 129T155 174Q118
194 94 230T70 310ZM43 -123Q43 -149 69 -165T149 -181Q201 -181 244 -172T319 -148T367 -112T384 -67Q384 -47 367 -35T308 -20L172 -11Q149 -17 126 -28T85 -53T55 -85T43 -123ZM301 452Q271 452 246 445T201 419T170 372T159 300Q159 252 177 222T245 191Q296
191 329 240T362 400Q362 431 349 441T301 452Z" />
<glyph unicode="h" glyph-name="h" horiz-adv-x="589" d="M40 0L200 685L109 694L119 737L306 763L220 389Q244 408 272 426T329 457T385 479T436 487Q471 487 491 466T511 414Q511 400 508 381T500 343T490 304T482 272L429 63Q439 65 449 68T473 78T505 95T547
121L568 91Q514 46 473 21T394 -4Q372 -4 356 10T340 51Q340 73 349 103L403 298Q411 329 416 352T423 387Q424 426 395 426Q379 426 356 420T308 402T256 375T209 342L131 0H40Z" />
<glyph unicode="i" glyph-name="i" horiz-adv-x="307" d="M223 726Q245 726 260 712T276 674Q276 650 256 637T213 623Q195 623 183 633T170 664Q170 686 185 706T223 726ZM146 410Q129 408 103 396T44 365L25 402Q73 438 115 459T187 481Q214 481 225 466T236
428Q236 414 230 389T219 346L139 63Q149 65 159 68T184 79T217 96T262 124L283 94Q226 46 184 21T104 -4Q82 -4 66 10T50 51Q50 73 59 103L146 410Z" />
<glyph unicode="j" glyph-name="j" horiz-adv-x="288" d="M133 -19Q123 -61 113 -91T89 -143T56 -180T10 -208Q-4 -214 -12 -211T-21 -201Q-21 -195 -19 -191T-9 -178Q2 -166 15 -146T40 -90Q49 -59 54 -17T71 79L146 410Q129 408 103 396T44 365L25 402Q73 438
115 459T187 481Q214 481 225 466T236 428Q236 414 230 389T219 346L133 -19ZM223 726Q245 726 260 712T276 674Q276 650 256 637T213 623Q195 623 183 633T170 664Q170 686 185 706T223 726Z" />
<glyph unicode="k" glyph-name="k" horiz-adv-x="567" d="M223 217Q322 265 374 306T428 387Q429 404 419 415T395 426Q379 426 356 420T308 402T256 375T209 342L131 0H40L200 685L109 694L119 737L306 763L220 389Q244 408 272 426T329 457T385 479T436 487Q471
487 491 466T511 414Q511 382 495 357T451 310T386 267T305 224Q326 194 351 161T403 100T454 50T500 19Q506 17 511 13T517 3Q517 -8 493 -19T425 -33Q402 -21 377 5T324 63T270 130T218 197L223 217Z" />
<glyph unicode="l" glyph-name="l" horiz-adv-x="313" d="M145 63Q165 67 199 83T281 130L302 100Q245 52 197 24T110 -4Q78 -4 66 18T59 74Q72 147 86 218T117 364T153 517T197 685L98 694L108 737L307 763Q282 674 260 589T217 417T179 244T145 63Z" />
<glyph unicode="m" glyph-name="m" horiz-adv-x="870" d="M323 -1L403 297Q411 328 414 351T419 386Q420 425 394 425Q378 425 356 419T308 402T258 376T212 344L129 0H38L135 363Q137 369 138 375T139 386Q139 407 123 407Q113 407 94 402T43 381L26 412Q79 453
111 467T165 481Q193 481 206 455T220 389Q245 408 273 426T329 457T384 478T435 486Q467 486 485 463T506 399Q562 434 618 460T717 486Q752 486 772 465T792 413Q792 399 789 380T782 342T772 303T763 271L725 127Q723 119 720 107T716 85Q716 79 719 75T730
70Q735 70 741 71T758 78T783 93T823 120L844 90Q789 43 751 19T675 -5Q653 -5 637 9T621 50Q621 72 630 102L684 297Q692 328 697 351T704 386Q705 425 676 425Q662 425 642 420T598 406T549 385T499 358V357L418 -1H323Z" />
<glyph unicode="n" glyph-name="n" horiz-adv-x="589" d="M349 103L403 298Q411 329 416 352T423 387Q424 426 395 426Q379 426 357 420T309 402T259 377T212 345L129 0H38L149 410Q110 408 45 376L28 414Q122 481 171 481Q205 481 217 457T223 391Q247 410 275
427T331 458T386 479T436 487Q471 487 491 466T511 414Q511 400 508 381T500 343T490 304T482 272L429 63Q439 65 449 68T473 78T505 95T547 121L568 91Q514 46 473 21T394 -4Q372 -4 356 10T340 51Q340 73 349 103Z" />
<glyph unicode="o" glyph-name="o" horiz-adv-x="546" d="M309 495Q345 495 379 482T441 443T486 377T503 287Q503 213 480 158T420 67T338 12T249 -6Q208 -6 171 8T106 49T60 115T43 205Q43 274 66 328T128 419T213 475T309 495ZM417 309Q417 381 388 419T310
458Q277 458 246 439T190 384T150 297T135 182Q135 115 163 75T251 35Q291 35 322 56T374 113T406 200T417 309Z" />
<glyph unicode="p" glyph-name="p" horiz-adv-x="584" d="M22 -210L140 323Q112 302 85 281T29 237L12 275Q47 305 82 331T153 383L194 566L280 640Q284 643 288 646T298 649Q303 649 306 646T310 635Q310 629 305 618T292 585T272 525T247 427Q297 462 334 478T404
495Q434 495 459 484T502 451T531 401T542 336Q542 270 521 211T460 106T363 33T232 6Q206 6 189 9T159 16L110 -210H22ZM237 48Q282 48 321 68T390 122T436 204T453 306Q453 376 429 404T364 432Q335 432 302 418T237 378L168 59Q194 48 237 48Z" />
<glyph unicode="q" glyph-name="q" horiz-adv-x="576" d="M558 526Q552 514 546 497T533 456T518 398T499 317L384 -210H295L359 64Q325 39 288 17T205 -6Q169 -6 140 7T89 46T57 105T45 181Q45 241 71 297T141 398T242 468T360 495Q387 495 411 492T458 476L491
526H558ZM250 54Q266 54 279 57T306 66T334 81T368 103L444 430Q420 447 401 451T355 456Q317 456 278 435T206 377T153 292T132 190Q132 155 142 130T168 88T206 63T250 54Z" />
<glyph unicode="r" glyph-name="r" horiz-adv-x="397" d="M345 491Q368 491 374 476T380 437Q380 411 373 396L278 393Q243 391 231 378T212 340L129 0H38L149 410Q110 408 45 376L28 414Q122 481 171 481Q202 481 210 457T218 401Q234 420 251 436T284 465T316
484T345 491Z" />
<glyph unicode="s" glyph-name="s" horiz-adv-x="397" d="M167 38Q215 38 237 58T259 113Q259 138 246 156T212 190T169 220T126 253T93 294T79 350Q79 382 92 409T129 455T181 484T242 495Q302 495 336 468T370 392Q370 357 357 343T325 328Q318 328 311 330T298
340T293 358T299 387L316 428Q311 437 292 445T243 453Q198 453 175 431T151 373Q151 352 165 337T199 306T244 276T288 240T323 194T337 133Q337 97 324 71T287 28T233 3T169 -6Q140 -6 113 1T66 21T33 55T20 104Q20 138 36 156T73 175Q92 175 102 162T99 113L79
65Q89 56 112 47T167 38Z" />
<glyph unicode="t" glyph-name="t" horiz-adv-x="377" d="M232 480H357L347 428H220L157 150Q152 131 149 115T146 85Q146 63 169 63Q181 63 195 66T224 75T252 87T275 100Q283 105 286 106T294 107Q310 107 310 90Q310 84 307 78T298 66Q286 55 267 43T226 19T180
1T138 -7Q93 -7 75 13T57 63Q57 85 62 108T72 153L135 428H40L49 480H147L184 641L273 658L232 480Z" />
<glyph unicode="u" glyph-name="u" horiz-adv-x="593" d="M536 480L434 63Q444 65 454 69T478 79T509 97T551 123L572 93Q518 48 475 22T395 -4Q366 -4 354 15T345 64Q302 35 254 15T166 -5Q116 -5 92 23T67 97Q67 115 70 138T79 179L139 410Q122 409 94 400T35
376L18 414Q121 481 174 481Q212 481 220 453T214 372L166 184Q161 162 157 143T153 109Q153 55 210 55Q242 55 280 69T355 110L446 480H536Z" />
<glyph unicode="v" glyph-name="v" horiz-adv-x="530" d="M215 -6H174Q182 35 182 87T176 192T162 288T144 359Q137 380 130 392T116 411T101 420T87 422Q76 422 58 414T21 389L-1 422Q28 448 64 468T133 488Q162 488 185 469T222 399Q229 372 235 344T248 283T258
208T264 111Q314 170 345 216T393 296T417 353T424 391Q424 408 414 423T374 443Q364 444 364 454Q364 469 381 481T425 494Q458 494 478 476T498 429Q498 399 484 360T436 268T349 148T215 -6Z" />
<glyph unicode="w" glyph-name="w" horiz-adv-x="739" d="M436 444Q442 408 447 365T457 277T465 188T471 105Q548 202 591 275T634 391Q634 408 624 423T584 443Q574 444 574 454Q574 469 591 481T635 494Q668 494 687 478T706 426Q706 396 688 356T636 262T551
142T436 -6H395Q398 44 394 111T382 250Q347 199 299 134T187 -6H147Q149 35 147 88T140 195T131 297T123 376Q120 402 114 411T95 420Q87 420 72 413T37 389L15 422Q44 448 81 468T152 488Q173 488 185 472T203 414Q207 381 211 348T218 278T224 197T229 101Q277
163 314 217T374 314Q370 346 366 377T356 438Q351 464 379 464H412Q426 464 430 459T436 444Z" />
<glyph unicode="x" glyph-name="x" horiz-adv-x="527" d="M243 432Q255 403 266 374T288 316Q306 348 327 380T368 437Q393 467 416 478T458 490Q480 490 485 480T490 446Q490 432 485 424T462 417L412 424Q385 398 359 363T304 272Q319 229 333 190T361 117Q371
94 382 79T406 64Q414 64 429 73T460 99L486 69Q457 39 423 17T362 -6Q336 -6 319 16T287 75Q276 104 266 133T245 191Q218 140 193 101T141 30Q128 16 112 6T68 -5Q42 -5 35 6T28 36Q28 56 38 66T76 74L122 71Q142 93 170 135T229 237Q216 275 203 311T175 384Q161
420 135 420Q127 420 112 413T77 389L55 422Q84 448 118 468T186 488Q206 488 218 474T243 432Z" />
<glyph unicode="y" glyph-name="y" horiz-adv-x="520" d="M418 386Q418 407 408 422T368 443Q358 444 358 454Q358 469 375 481T419 494Q452 494 471 476T490 426Q490 401 475 366T434 286T374 191T301 85Q245 5 189 -71T79 -221Q55 -216 39 -200T24 -156Q88 -107
131 -66T209 16Q212 62 207 114T193 214T173 301T153 363Q137 398 127 409T104 421Q93 421 77 413T42 389L20 422Q49 448 81 468T145 488Q174 488 192 468T221 419Q244 358 261 287T287 123Q309 156 332 193T375 265T406 332T418 386Z" />
<glyph unicode="z" glyph-name="z" horiz-adv-x="468" d="M128 475H355Q389 475 403 481T431 499Q437 503 443 503T454 499T459 489T455 477L171 153Q201 151 226 137T273 107T314 78T349 65Q366 65 381 80T411 118L439 104Q407 51 381 23T323 -6Q298 -6 274 8T227
39T181 70T138 84Q97 84 93 66Q92 38 90 20T84 -8T73 -23T55 -27Q33 -27 26 -17T18 5Q18 24 27 42T53 80T92 123T138 173L339 401H186Q164 401 149 398T123 386T103 366T83 338H47L128 475Z" />
<glyph unicode="{" glyph-name="braceleft" horiz-adv-x="393" d="M232 425Q232 463 224 502T215 579Q215 624 230 654T270 703T328 730T397 738Q411 738 416 734T422 719Q422 708 417 705T403 699Q335 686 309 654T282 571Q282 541 286 508T291 441Q291 292 117
280Q181 258 216 225T251 140Q251 112 242 85T221 31T201 -22T191 -73Q191 -107 211 -133T281 -185Q289 -189 292 -191T295 -202Q295 -222 274 -222Q266 -222 256 -219Q228 -210 204 -198T161 -168T133 -126T123 -71Q123 -39 134 -10T158 47T183 99T194 148Q194
186 160 214T72 256Q61 259 55 265T48 283Q48 298 58 306T80 314Q232 319 232 425Z" />
<glyph unicode="|" glyph-name="bar" horiz-adv-x="264" d="M106 730H170V-220H106V730Z" />
<glyph unicode="}" glyph-name="braceright" horiz-adv-x="396" d="M153 103Q153 84 155 63T161 20T167 -23T170 -63Q170 -108 155 -138T115 -187T57 -214T-12 -222Q-26 -222 -31 -218T-37 -203Q-37 -192 -32 -189T-18 -183Q50 -170 76 -138T103 -55Q103 -25 99
14T94 87Q94 236 268 248Q204 270 169 303T134 388Q134 416 143 441T164 491T184 540T194 589Q194 623 174 649T104 701Q96 705 93 707T90 718Q90 738 111 738Q118 738 129 735Q157 726 181 714T224 684T252 642T262 587Q262 555 251 528T227 475T202 427T191 380Q191
342 225 314T313 272Q324 269 330 263T337 245Q337 230 327 222T305 214Q153 209 153 103Z" />
<glyph unicode="~" glyph-name="asciitilde" horiz-adv-x="354" d="M260 297Q270 297 279 309T297 340L325 331Q319 314 311 296T293 264T272 240T247 230Q232 230 211 233T170 241T132 248T108 252Q90 252 71 211L43 221Q49 238 56 255T74 287T96 311T124 320Q136
320 156 317T197 309T236 301T260 297Z" />
<glyph unicode="&#xa1;" glyph-name="exclamdown" horiz-adv-x="285" d="M164 370Q138 370 120 388T102 432Q102 458 120 476T164 495Q190 495 208 477T227 432Q227 406 209 388T164 370ZM4 -229Q19 -190 36 -133T71 -9T105 129T133 268H171Q169 238 166 198T158
113T149 22T139 -69T129 -151T117 -217L4 -229Z" />
<glyph unicode="&#xa2;" glyph-name="cent" horiz-adv-x="507" d="M478 390Q478 369 472 355T458 333T439 322T421 318Q400 318 389 330T384 375L398 431Q393 445 379 451T349 458Q343 458 337 458T326 456L261 59Q306 63 341 88T405 157Q410 165 413 169T425
173Q437 173 440 164T439 146Q429 120 411 95T368 50T313 15T250 -4L230 -127H188L208 -5Q167 -3 137 14T86 57T55 117T44 188Q44 239 61 289T111 380T188 450T289 490L304 577H346L332 494Q335 494 338 494T345 495Q373 495 397 488T440 467T468 434T478 390ZM133
200Q133 137 157 104T219 62L282 445Q251 433 224 411T177 357T145 286T133 200Z" />
<glyph unicode="&#xa3;" glyph-name="sterling" horiz-adv-x="530" d="M136 393Q134 418 133 445T132 507Q132 562 149 606T196 680T264 727T347 744Q386 744 417 735T469 711T502 681T514 651Q514 640 509 632T496 618T481 609T469 606Q453 606 446 622Q431 657
405 679T346 702Q317 702 297 692T263 664T242 622T232 569Q227 515 225 472T221 393H383L378 347H218Q216 307 212 273Q206 228 191 183T154 99Q174 95 197 88T243 75T286 64T323 59Q355 59 373 72T406 122Q414 144 429 144Q435 144 443 142T458 134T471 122T477
105Q477 88 467 69T438 34T395 6T342 -5Q310 -5 283 5T231 27T183 52T136 68Q115 36 94 17T55 -3Q31 -3 20 10T8 42Q8 65 36 83T111 104Q124 137 132 184T140 298Q140 311 140 323T139 347H52L57 393H136Z" />
<glyph unicode="&#xa5;" glyph-name="yen" horiz-adv-x="612" d="M118 41L234 53L255 217H80L86 263H261L271 337H95L101 383H272L147 681L90 689L95 730H336L331 689L249 678L348 430L508 679L445 689L450 730H633L628 689L572 678L372 383H542L536 337H360L350
263H527L521 217H344L322 52L435 41L430 0H113L118 41Z" />
<glyph unicode="&#xa7;" glyph-name="section" horiz-adv-x="411" d="M197 -151Q207 -132 210 -120T214 -88Q214 -33 190 38T137 191T83 362T59 543Q59 587 71 622T105 682T155 720T214 734Q243 734 266 724T304 697T328 657T337 609Q337 580 325 559T293 537Q281
537 270 546T259 578Q259 595 267 614T275 646Q275 672 257 683T215 695Q191 695 171 685T136 655T113 610T104 553Q104 477 127 398T178 240T229 85T252 -63Q252 -96 244 -120T228 -156Q220 -167 215 -170T205 -174Q197 -174 195 -168T197 -151ZM200 572Q200 519
224 451T279 302T333 133T358 -52Q358 -103 344 -143T306 -210T250 -252T180 -266Q119 -266 85 -235T51 -151Q51 -108 69 -90T108 -71Q120 -71 131 -80T142 -112Q142 -120 138 -128T130 -145T121 -163T117 -184Q117 -207 133 -217T178 -227Q238 -227 275 -186T313
-62Q313 -14 302 38T275 143T240 250T204 355T177 455T166 546Q166 568 167 581T171 602T177 611T184 613Q192 613 196 604T200 572Z" />
<glyph unicode="&#xa8;" glyph-name="dieresis" horiz-adv-x="400" d="M293 726Q315 726 330 711T346 674Q346 653 331 638T293 623Q271 623 256 638T240 674Q240 696 255 711T293 726ZM107 726Q129 726 144 711T160 674Q160 653 145 638T107 623Q85 623 70 638T54
674Q54 696 69 711T107 726Z" />
<glyph unicode="&#xaa;" glyph-name="ordfeminine" horiz-adv-x="438" d="M44 459Q44 522 73 571T146 653T242 706T342 728L372 754H424L344 423Q360 425 380 435T430 466L448 436Q407 402 372 383T306 363Q283 363 273 379T263 416Q234 395 199 378T139 361Q99
361 72 386T44 459ZM179 417Q202 417 225 428T270 455L329 691Q300 687 265 675T199 637T148 570T127 469Q127 440 144 429T179 417Z" />
<glyph unicode="&#xab;" glyph-name="guillemotleft" horiz-adv-x="444" d="M199 115L154 90L62 204Q48 221 45 230T42 248Q42 262 51 273T77 297L211 397L229 371L120 256L199 115ZM379 115L334 90L242 204Q228 221 225 230T222 248Q222 262 231 273T257 297L391
397L409 371L300 256L379 115Z" />
<glyph unicode="&#xaf;" glyph-name="macron" horiz-adv-x="400" d="M79 674H329L321 613H71L79 674Z" />
<glyph unicode="&#xb0;" glyph-name="degree" horiz-adv-x="344" d="M221 745Q186 745 159 721T132 655Q132 612 156 588T218 564Q250 564 276 587T302 655Q302 698 279 721T221 745ZM221 785Q246 785 269 776T311 751T340 710T351 655Q351 623 339 599T308 558T266
533T218 524Q192 524 168 533T125 559T95 600T83 655Q83 684 95 708T127 749T171 775T221 785Z" />
<glyph unicode="&#xb4;" glyph-name="acute" horiz-adv-x="400" d="M268 743Q287 743 299 729T311 700Q311 683 298 672T268 652L121 586L106 608L214 712Q228 726 239 734T268 743Z" />
<glyph unicode="&#xb6;" glyph-name="paragraph" horiz-adv-x="637" d="M495 730H650L643 682H547L435 -172H531L524 -220H369L495 730ZM266 -183Q227 -169 189 -136T122 -53T74 58T55 193Q55 275 71 342T114 464T175 559T245 629T317 676T382 703L266 -183Z" />
<glyph unicode="&#xb7;" glyph-name="periodcentered" horiz-adv-x="275" d="M139 391Q165 391 183 373T201 329Q201 303 183 285T139 266Q113 266 95 284T76 329Q76 355 94 373T139 391Z" />
<glyph unicode="&#xb8;" glyph-name="cedilla" horiz-adv-x="400" d="M164 0H206L181 -46Q225 -56 245 -77T266 -122Q266 -155 226 -184T105 -229L95 -199Q153 -183 173 -169T193 -141Q193 -130 174 -119T116 -101L164 0Z" />
<glyph unicode="&#xba;" glyph-name="ordmasculine" horiz-adv-x="437" d="M276 745Q306 745 334 734T385 702T422 650T436 578Q436 524 417 484T368 416T301 375T228 361Q194 361 163 372T109 405T72 458T58 531Q58 581 77 621T128 688T198 730T276 745ZM358
595Q358 656 335 682T277 709Q252 709 228 696T185 658T154 596T142 513Q142 456 163 430T230 402Q260 402 283 416T323 456T349 517T358 595Z" />
<glyph unicode="&#xbb;" glyph-name="guillemotright" horiz-adv-x="444" d="M69 377L114 402L204 288Q218 271 221 262T224 244Q224 230 215 219T189 195L51 95L33 121L146 238L69 377ZM249 377L294 402L384 288Q398 271 401 262T404 244Q404 230 395 219T369
195L231 95L213 121L326 238L249 377Z" />
<glyph unicode="&#xbf;" glyph-name="questiondown" horiz-adv-x="460" d="M265 425Q265 451 283 469T327 488Q353 488 371 470T390 425Q390 399 372 381T327 363Q301 363 283 381T265 425ZM339 -207Q313 -217 284 -221T220 -225Q138 -225 90 -188T41 -84Q41 -37
64 -1T122 64T197 113T270 150L287 281H325L315 130Q280 113 245 92T180 48T133 -2T114 -57Q114 -73 120 -89T141 -118T177 -139T232 -147Q246 -147 263 -145T296 -140T328 -133T356 -125L339 -207Z" />
<glyph unicode="&#xc0;" glyph-name="Agrave" horiz-adv-x="745" d="M419 41L526 54L460 283H232L117 52L207 41L202 0H-5L0 41L57 52L302 536Q333 599 354 651T384 740H428L628 48L689 41L684 0H414L419 41ZM256 331H447L377 576L256 331ZM359 948Q373 948 384
940T408 920L507 829L495 805L363 854Q343 862 329 874T315 900Q315 923 329 935T359 948Z" />
<glyph unicode="&#xc1;" glyph-name="Aacute" horiz-adv-x="745" d="M419 41L526 54L460 283H232L117 52L207 41L202 0H-5L0 41L57 52L302 536Q333 599 354 651T384 740H428L628 48L689 41L684 0H414L419 41ZM256 331H447L377 576L256 331ZM534 901Q534 884 520
873T486 855L343 805L331 829L441 921Q454 932 465 940T491 948Q506 948 520 936T534 901Z" />
<glyph unicode="&#xc2;" glyph-name="Acircumflex" horiz-adv-x="745" d="M419 41L526 54L460 283H232L117 52L207 41L202 0H-5L0 41L57 52L302 536Q333 599 354 651T384 740H428L628 48L689 41L684 0H414L419 41ZM256 331H447L377 576L256 331ZM427 866L292 810L282
829L413 945H453L548 827L536 810L427 866Z" />
<glyph unicode="&#xc3;" glyph-name="Atilde" horiz-adv-x="745" d="M419 41L526 54L460 283H232L117 52L207 41L202 0H-5L0 41L57 52L302 536Q333 599 354 651T384 740H428L628 48L689 41L684 0H414L419 41ZM256 331H447L377 576L256 331ZM518 901Q529 901 538
918T558 956L588 945Q581 926 573 906T554 869T531 841T504 830Q488 830 464 836T415 849T370 863T342 869Q331 869 322 854T302 816L272 827Q279 846 287 866T305 903T329 929T359 940Q371 940 395 934T444 921T490 907T518 901Z" />
<glyph unicode="&#xc4;" glyph-name="Adieresis" horiz-adv-x="745" d="M419 41L526 54L460 283H232L117 52L207 41L202 0H-5L0 41L57 52L302 536Q333 599 354 651T384 740H428L628 48L689 41L684 0H414L419 41ZM256 331H447L377 576L256 331ZM524 928Q546 928
561 913T577 876Q577 855 562 840T524 825Q502 825 487 840T471 876Q471 898 486 913T524 928ZM314 928Q336 928 351 913T367 876Q367 855 352 840T314 825Q292 825 277 840T261 876Q261 898 276 913T314 928Z" />
<glyph unicode="&#xc5;" glyph-name="Aring" horiz-adv-x="745" d="M419 41L526 54L460 283H232L117 52L207 41L202 0H-5L0 41L57 52L302 536Q333 599 354 651T384 740H428L628 48L689 41L684 0H414L419 41ZM256 331H447L377 576L256 331ZM429 951Q409 951 395
937T380 890Q380 860 394 846T429 831Q449 831 463 845T477 890Q477 922 463 936T429 951ZM429 984Q447 984 465 979T497 962T521 933T531 893Q531 870 522 852T498 822T465 804T429 798Q411 798 394 803T362 820T338 848T329 888Q329 911 338 929T361 959T393
977T429 984Z" />
<glyph unicode="&#xc6;" glyph-name="AE" horiz-adv-x="1016" d="M376 730H981L959 559H915L918 593Q921 622 920 639T911 666T883 679T830 682H637L601 402H627Q669 402 693 403T730 408T746 416T752 431L768 502H810L776 243H734L737 313Q738 326 736 334T723
347T691 352T630 354H594L554 48H775Q804 48 821 51T849 63T868 88T888 131L916 198H956L920 0H366L371 41L455 51L485 283H274L122 51L201 41L196 0H0L5 41L62 53L475 678L370 689L376 730ZM492 331L538 684L305 331H492Z" />
<glyph unicode="&#xc7;" glyph-name="Ccedilla" horiz-adv-x="803" d="M351 -3Q288 7 235 34T142 104T81 206T58 339Q58 427 92 501T184 629T315 713T470 744Q522 744 560 734T625 710T672 687T706 676Q715 676 721 681T731 693H769L745 496H707Q697 550 675 588T623
652T554 690T472 702Q415 702 360 676T262 601T192 484T165 334Q165 275 180 221T228 126T310 59T426 34Q466 34 507 47T584 89T649 158T697 255H735L692 87Q668 73 638 57T574 26T501 2T423 -8Q415 -8 407 -8T391 -7L370 -46Q414 -56 434 -77T455 -122Q455 -155
415 -184T294 -229L284 -199Q342 -183 362 -169T382 -141Q382 -130 363 -119T305 -101L351 -3Z" />
<glyph unicode="&#xc8;" glyph-name="Egrave" horiz-adv-x="686" d="M105 730H651L629 559H585L588 593Q591 622 590 639T581 666T553 679T500 682H290L254 402H280Q329 402 356 403T398 408T416 416T422 431L438 502H480L446 243H404L407 313Q408 326 406 334T391
347T354 352T283 354H247L207 48H445Q474 48 491 51T519 63T538 88T558 131L586 198H626L590 0H19L24 41L108 51L190 678L100 689L105 730ZM347 948Q361 948 372 940T396 920L495 829L483 805L351 854Q331 862 317 874T303 900Q303 923 317 935T347 948Z" />
<glyph unicode="&#xc9;" glyph-name="Eacute" horiz-adv-x="686" d="M105 730H651L629 559H585L588 593Q591 622 590 639T581 666T553 679T500 682H290L254 402H280Q329 402 356 403T398 408T416 416T422 431L438 502H480L446 243H404L407 313Q408 326 406 334T391
347T354 352T283 354H247L207 48H445Q474 48 491 51T519 63T538 88T558 131L586 198H626L590 0H19L24 41L108 51L190 678L100 689L105 730ZM532 901Q532 884 518 873T484 855L341 805L329 829L439 921Q452 932 463 940T489 948Q504 948 518 936T532 901Z" />
<glyph unicode="&#xca;" glyph-name="Ecircumflex" horiz-adv-x="686" d="M105 730H651L629 559H585L588 593Q591 622 590 639T581 666T553 679T500 682H290L254 402H280Q329 402 356 403T398 408T416 416T422 431L438 502H480L446 243H404L407 313Q408 326 406
334T391 347T354 352T283 354H247L207 48H445Q474 48 491 51T519 63T538 88T558 131L586 198H626L590 0H19L24 41L108 51L190 678L100 689L105 730ZM416 866L281 810L271 829L402 945H442L537 827L525 810L416 866Z" />
<glyph unicode="&#xcb;" glyph-name="Edieresis" horiz-adv-x="686" d="M105 730H651L629 559H585L588 593Q591 622 590 639T581 666T553 679T500 682H290L254 402H280Q329 402 356 403T398 408T416 416T422 431L438 502H480L446 243H404L407 313Q408 326 406
334T391 347T354 352T283 354H247L207 48H445Q474 48 491 51T519 63T538 88T558 131L586 198H626L590 0H19L24 41L108 51L190 678L100 689L105 730ZM512 928Q534 928 549 913T565 876Q565 855 550 840T512 825Q490 825 475 840T459 876Q459 898 474 913T512 928ZM302
928Q324 928 339 913T355 876Q355 855 340 840T302 825Q280 825 265 840T249 876Q249 898 264 913T302 928Z" />
<glyph unicode="&#xcc;" glyph-name="Igrave" horiz-adv-x="375" d="M21 41L107 52L190 678L92 689L97 730H381L376 689L290 679L207 51L305 41L300 0H16L21 41ZM190 948Q204 948 215 940T239 920L338 829L326 805L194 854Q174 862 160 874T146 900Q146 923 160
935T190 948Z" />
<glyph unicode="&#xcd;" glyph-name="Iacute" horiz-adv-x="375" d="M21 41L107 52L190 678L92 689L97 730H381L376 689L290 679L207 51L305 41L300 0H16L21 41ZM365 901Q365 884 351 873T317 855L174 805L162 829L272 921Q285 932 296 940T322 948Q337 948 351
936T365 901Z" />
<glyph unicode="&#xce;" glyph-name="Icircumflex" horiz-adv-x="375" d="M21 41L107 52L190 678L92 689L97 730H381L376 689L290 679L207 51L305 41L300 0H16L21 41ZM515 866L380 810L370 829L501 945H541L636 827L624 810L515 866Z" />
<glyph unicode="&#xcf;" glyph-name="Idieresis" horiz-adv-x="375" d="M21 41L107 52L190 678L92 689L97 730H381L376 689L290 679L207 51L305 41L300 0H16L21 41ZM355 928Q377 928 392 913T408 876Q408 855 393 840T355 825Q333 825 318 840T302 876Q302 898
317 913T355 928ZM145 928Q167 928 182 913T198 876Q198 855 183 840T145 825Q123 825 108 840T92 876Q92 898 107 913T145 928Z" />
<glyph unicode="&#xd0;" glyph-name="Eth" horiz-adv-x="840" d="M108 51L148 358H53L59 406H154L190 678L100 689L105 730H230Q247 730 264 731T304 733T354 736T421 738Q509 738 578 715T696 650T770 549T796 418Q796 341 772 266T692 131T546 34T322 -3Q302
-3 288 -3T259 -2T229 -1T192 0H19L24 41L108 51ZM248 358L218 133Q214 103 217 85T234 58T274 46T343 43Q446 43 513 77T620 163T675 280T691 406Q691 488 664 544T592 634T489 683T367 698Q346 698 328 696T292 692L254 406H446L440 358H248Z" />
<glyph unicode="&#xd1;" glyph-name="Ntilde" horiz-adv-x="840" d="M24 41L111 53L188 637L158 679L74 689L79 730H242L657 145L717 677L617 689L622 730H843L838 689L774 677L685 0H641L228 581L168 53L265 41L260 0H19L24 41ZM594 901Q605 901 614 918T634
956L664 945Q657 926 649 906T630 869T607 841T580 830Q564 830 540 836T491 849T446 863T418 869Q407 869 398 854T378 816L348 827Q355 846 363 866T381 903T405 929T435 940Q447 940 471 934T520 921T566 907T594 901Z" />
<glyph unicode="&#xd2;" glyph-name="Ograve" horiz-adv-x="841" d="M451 744Q509 744 571 724T683 660T766 552T799 397Q799 308 768 235T682 108T556 25T401 -5Q338 -5 277 20T167 91T88 204T58 353Q58 443 93 515T184 639T310 717T451 744ZM165 336Q165 266
183 211T234 117T310 58T402 37Q462 37 515 64T607 140T668 259T691 415Q691 484 673 537T623 627T547 683T451 702Q395 702 344 677T253 604T189 489T165 336ZM399 948Q413 948 424 940T448 920L547 829L535 805L403 854Q383 862 369 874T355 900Q355 923 369
935T399 948Z" />
<glyph unicode="&#xd3;" glyph-name="Oacute" horiz-adv-x="841" d="M451 744Q509 744 571 724T683 660T766 552T799 397Q799 308 768 235T682 108T556 25T401 -5Q338 -5 277 20T167 91T88 204T58 353Q58 443 93 515T184 639T310 717T451 744ZM165 336Q165 266
183 211T234 117T310 58T402 37Q462 37 515 64T607 140T668 259T691 415Q691 484 673 537T623 627T547 683T451 702Q395 702 344 677T253 604T189 489T165 336ZM574 901Q574 884 560 873T526 855L383 805L371 829L481 921Q494 932 505 940T531 948Q546 948 560
936T574 901Z" />
<glyph unicode="&#xd4;" glyph-name="Ocircumflex" horiz-adv-x="841" d="M451 744Q509 744 571 724T683 660T766 552T799 397Q799 308 768 235T682 108T556 25T401 -5Q338 -5 277 20T167 91T88 204T58 353Q58 443 93 515T184 639T310 717T451 744ZM165 336Q165
266 183 211T234 117T310 58T402 37Q462 37 515 64T607 140T668 259T691 415Q691 484 673 537T623 627T547 683T451 702Q395 702 344 677T253 604T189 489T165 336ZM467 866L332 810L322 829L453 945H493L588 827L576 810L467 866Z" />
<glyph unicode="&#xd5;" glyph-name="Otilde" horiz-adv-x="841" d="M451 744Q509 744 571 724T683 660T766 552T799 397Q799 308 768 235T682 108T556 25T401 -5Q338 -5 277 20T167 91T88 204T58 353Q58 443 93 515T184 639T310 717T451 744ZM165 336Q165 266
183 211T234 117T310 58T402 37Q462 37 515 64T607 140T668 259T691 415Q691 484 673 537T623 627T547 683T451 702Q395 702 344 677T253 604T189 489T165 336ZM558 901Q569 901 578 918T598 956L628 945Q621 926 613 906T594 869T571 841T544 830Q528 830 504
836T455 849T410 863T382 869Q371 869 362 854T342 816L312 827Q319 846 327 866T345 903T369 929T399 940Q411 940 435 934T484 921T530 907T558 901Z" />
<glyph unicode="&#xd6;" glyph-name="Odieresis" horiz-adv-x="841" d="M451 744Q509 744 571 724T683 660T766 552T799 397Q799 308 768 235T682 108T556 25T401 -5Q338 -5 277 20T167 91T88 204T58 353Q58 443 93 515T184 639T310 717T451 744ZM165 336Q165
266 183 211T234 117T310 58T402 37Q462 37 515 64T607 140T668 259T691 415Q691 484 673 537T623 627T547 683T451 702Q395 702 344 677T253 604T189 489T165 336ZM564 928Q586 928 601 913T617 876Q617 855 602 840T564 825Q542 825 527 840T511 876Q511 898
526 913T564 928ZM354 928Q376 928 391 913T407 876Q407 855 392 840T354 825Q332 825 317 840T301 876Q301 898 316 913T354 928Z" />
<glyph unicode="&#xd7;" glyph-name="multiply" horiz-adv-x="500" d="M64 130L215 286L66 440L101 475L250 321L399 475L434 440L284 286L436 130L401 95L250 250L99 95L64 130Z" />
<glyph unicode="&#xd8;" glyph-name="Oslash" horiz-adv-x="841" d="M451 744Q501 744 553 729T651 684L709 751L748 723L689 655Q738 612 768 549T799 397Q799 308 768 235T682 108T556 25T401 -5Q345 -5 291 14T189 71L110 -21L71 7L154 104Q110 150 84 212T58
353Q58 443 93 515T184 639T310 717T451 744ZM691 415Q691 472 679 518T643 600L231 120Q263 79 307 58T402 37Q462 37 515 64T607 140T668 259T691 415ZM165 336Q165 284 175 241T204 162L612 638Q581 670 540 686T451 702Q395 702 344 677T253 604T189 489T165
336Z" />
<glyph unicode="&#xd9;" glyph-name="Ugrave" horiz-adv-x="800" d="M809 689L741 678L677 262Q668 205 648 156T593 72T509 16T393 -5Q327 -5 273 13T182 69T129 167T124 311L172 678L88 689L93 730H368L363 689L272 679L223 305Q213 233 221 183T253 101T315
55T406 40Q503 40 557 99T625 273L675 677L582 689L587 730H814L809 689ZM416 948Q430 948 441 940T465 920L564 829L552 805L420 854Q400 862 386 874T372 900Q372 923 386 935T416 948Z" />
<glyph unicode="&#xda;" glyph-name="Uacute" horiz-adv-x="800" d="M809 689L741 678L677 262Q668 205 648 156T593 72T509 16T393 -5Q327 -5 273 13T182 69T129 167T124 311L172 678L88 689L93 730H368L363 689L272 679L223 305Q213 233 221 183T253 101T315
55T406 40Q503 40 557 99T625 273L675 677L582 689L587 730H814L809 689ZM591 901Q591 884 577 873T543 855L400 805L388 829L498 921Q511 932 522 940T548 948Q563 948 577 936T591 901Z" />
<glyph unicode="&#xdb;" glyph-name="Ucircumflex" horiz-adv-x="800" d="M809 689L741 678L677 262Q668 205 648 156T593 72T509 16T393 -5Q327 -5 273 13T182 69T129 167T124 311L172 678L88 689L93 730H368L363 689L272 679L223 305Q213 233 221 183T253 101T315
55T406 40Q503 40 557 99T625 273L675 677L582 689L587 730H814L809 689ZM484 866L349 810L339 829L470 945H510L605 827L593 810L484 866Z" />
<glyph unicode="&#xdc;" glyph-name="Udieresis" horiz-adv-x="800" d="M809 689L741 678L677 262Q668 205 648 156T593 72T509 16T393 -5Q327 -5 273 13T182 69T129 167T124 311L172 678L88 689L93 730H368L363 689L272 679L223 305Q213 233 221 183T253 101T315
55T406 40Q503 40 557 99T625 273L675 677L582 689L587 730H814L809 689ZM581 928Q603 928 618 913T634 876Q634 855 619 840T581 825Q559 825 544 840T528 876Q528 898 543 913T581 928ZM371 928Q393 928 408 913T424 876Q424 855 409 840T371 825Q349 825 334
840T318 876Q318 898 333 913T371 928Z" />
<glyph unicode="&#xdd;" glyph-name="Yacute" horiz-adv-x="711" d="M195 41L298 52L340 368L146 681L86 689L91 730H361L356 689L259 678L418 416L602 678L520 689L525 730H727L722 689L666 678L440 372L398 51L515 41L510 0H190L195 41ZM572 901Q572 884 558
873T524 855L381 805L369 829L479 921Q492 932 503 940T529 948Q544 948 558 936T572 901Z" />
<glyph unicode="&#xde;" glyph-name="Thorn" horiz-adv-x="620" d="M105 730H386L381 689L290 679L275 565Q297 567 315 569T358 571Q411 571 455 563T530 535T579 485T597 410Q597 364 582 326T534 259T447 216T317 200H227L207 51L320 41L315 0H19L24 41L107
51L190 678L100 689L105 730ZM315 244Q366 244 402 255T460 287T492 336T502 398Q502 434 491 459T458 499T407 521T340 528Q323 528 305 527T270 524L233 244H315Z" />
<glyph unicode="&#xdf;" glyph-name="germandbls" horiz-adv-x="532" d="M112 -29Q105 -46 94 -63T70 -95T42 -124T14 -145Q1 -152 -8 -152Q-19 -152 -19 -143Q-19 -138 -13 -127Q1 -101 10 -67T28 14L114 516Q137 647 197 712T346 778Q379 778 405 768T448 740T474
699T483 648Q483 613 467 584T426 533T375 494T325 469Q347 463 375 447T428 402T470 333T487 241Q487 174 466 127T415 49T349 4T283 -10Q253 -10 232 -2T196 18T174 46T167 76Q167 105 183 116T215 127Q235 127 246 118T254 82L249 38Q256 33 265 30T288 27Q309
27 328 41T361 84T385 156T394 259Q394 299 383 331T354 386T311 423T260 443L266 480Q286 484 310 498T354 535T389 589T403 658Q403 700 391 720T344 741Q313 741 290 727T249 687T220 628T202 554L112 -29Z" />
<glyph unicode="&#xe0;" glyph-name="agrave" horiz-adv-x="548" d="M181 385Q232 423 287 444T400 471L434 505H490L387 63Q397 65 406 68T427 78T455 95T496 121L517 91Q463 46 426 21T350 -4Q323 -4 312 15T300 60Q282 47 263 35T224 14T186 0T153 -6Q102 -6
69 28T36 123Q36 168 49 207T84 280T130 339T181 385ZM199 55Q225 55 252 67T305 97L386 432Q343 426 300 408T219 354Q201 337 185 314T156 264T135 206T127 144Q127 100 147 78T199 55ZM282 744Q299 744 308 735T331 711L424 608L409 586L278 651Q261 659 249
670T236 699Q236 713 249 728T282 744Z" />
<glyph unicode="&#xe1;" glyph-name="aacute" horiz-adv-x="548" d="M181 385Q232 423 287 444T400 471L434 505H490L387 63Q397 65 406 68T427 78T455 95T496 121L517 91Q463 46 426 21T350 -4Q323 -4 312 15T300 60Q282 47 263 35T224 14T186 0T153 -6Q102 -6
69 28T36 123Q36 168 49 207T84 280T130 339T181 385ZM199 55Q225 55 252 67T305 97L386 432Q343 426 300 408T219 354Q201 337 185 314T156 264T135 206T127 144Q127 100 147 78T199 55ZM443 743Q462 743 474 729T486 700Q486 683 473 672T443 652L296 586L281
608L389 712Q403 726 414 734T443 743Z" />
<glyph unicode="&#xe2;" glyph-name="acircumflex" horiz-adv-x="548" d="M181 385Q232 423 287 444T400 471L434 505H490L387 63Q397 65 406 68T427 78T455 95T496 121L517 91Q463 46 426 21T350 -4Q323 -4 312 15T300 60Q282 47 263 35T224 14T186 0T153 -6Q102
-6 69 28T36 123Q36 168 49 207T84 280T130 339T181 385ZM199 55Q225 55 252 67T305 97L386 432Q343 426 300 408T219 354Q201 337 185 314T156 264T135 206T127 144Q127 100 147 78T199 55ZM361 649L232 578L219 597L347 730H387L473 596L456 578L361 649Z" />
<glyph unicode="&#xe3;" glyph-name="atilde" horiz-adv-x="548" d="M181 385Q232 423 287 444T400 471L434 505H490L387 63Q397 65 406 68T427 78T455 95T496 121L517 91Q463 46 426 21T350 -4Q323 -4 312 15T300 60Q282 47 263 35T224 14T186 0T153 -6Q102 -6
69 28T36 123Q36 168 49 207T84 280T130 339T181 385ZM199 55Q225 55 252 67T305 97L386 432Q343 426 300 408T219 354Q201 337 185 314T156 264T135 206T127 144Q127 100 147 78T199 55ZM424 670Q435 670 444 686T464 724L494 713Q487 694 479 674T460 637T437
610T410 599Q394 599 374 605T334 617T298 630T274 636Q263 636 254 621T234 584L204 595Q211 614 219 634T237 669T261 695T291 705Q303 705 323 700T363 688T400 676T424 670Z" />
<glyph unicode="&#xe4;" glyph-name="adieresis" horiz-adv-x="548" d="M181 385Q232 423 287 444T400 471L434 505H490L387 63Q397 65 406 68T427 78T455 95T496 121L517 91Q463 46 426 21T350 -4Q323 -4 312 15T300 60Q282 47 263 35T224 14T186 0T153 -6Q102
-6 69 28T36 123Q36 168 49 207T84 280T130 339T181 385ZM199 55Q225 55 252 67T305 97L386 432Q343 426 300 408T219 354Q201 337 185 314T156 264T135 206T127 144Q127 100 147 78T199 55ZM445 726Q467 726 482 711T498 674Q498 653 483 638T445 623Q423 623
408 638T392 674Q392 696 407 711T445 726ZM259 726Q281 726 296 711T312 674Q312 653 297 638T259 623Q237 623 222 638T206 674Q206 696 221 711T259 726Z" />
<glyph unicode="&#xe5;" glyph-name="aring" horiz-adv-x="548" d="M181 385Q232 423 287 444T400 471L434 505H490L387 63Q397 65 406 68T427 78T455 95T496 121L517 91Q463 46 426 21T350 -4Q323 -4 312 15T300 60Q282 47 263 35T224 14T186 0T153 -6Q102 -6
69 28T36 123Q36 168 49 207T84 280T130 339T181 385ZM199 55Q225 55 252 67T305 97L386 432Q343 426 300 408T219 354Q201 337 185 314T156 264T135 206T127 144Q127 100 147 78T199 55ZM354 719Q334 719 320 705T305 658Q305 628 319 614T354 599Q374 599 388
613T402 658Q402 690 388 704T354 719ZM354 752Q372 752 390 747T422 730T446 701T456 661Q456 638 447 620T423 590T390 572T354 566Q336 566 319 571T287 588T263 616T254 656Q254 679 263 697T286 727T318 745T354 752Z" />
<glyph unicode="&#xe6;" glyph-name="ae" horiz-adv-x="779" d="M36 133Q36 208 69 268T154 371T272 439T400 471L434 505H468L446 413Q484 451 529 473T622 495Q679 495 714 472T750 402Q750 387 746 374T731 346T703 316T659 280Q627 256 592 234T524 195T465
165T425 146Q431 119 443 101T470 73T503 58T535 54Q566 54 591 65T636 92T670 128T693 164Q697 172 701 176T713 180Q725 180 728 171T727 153Q716 124 696 96T648 45T587 8T517 -6Q452 -6 411 23T351 99Q296 51 248 23T153 -6Q102 -6 69 29T36 133ZM335 182Q335
196 338 221T351 284L386 432Q342 426 296 408T213 356T151 271T127 146Q127 101 150 80T205 59Q237 59 267 76T341 128Q335 153 335 182ZM421 177Q433 183 456 195T507 224T563 262T616 306Q642 332 654 354T666 405Q666 434 652 446T614 458Q581 458 547 438T484
382T439 298T421 193V177Z" />
<glyph unicode="&#xe7;" glyph-name="ccedilla" horiz-adv-x="507" d="M174 0Q142 8 118 26T77 69T52 124T44 188Q44 245 65 300T126 399T221 468T345 495Q373 495 397 488T440 466T468 432T478 386Q478 364 472 350T457 326T438 314T419 310Q397 310 385 323T381
370L395 430Q390 445 378 451T349 458Q308 458 269 440T200 388T152 306T133 200Q133 163 142 137T167 93T203 67T248 59Q297 59 336 84T405 157Q410 165 413 169T425 173Q437 173 440 164T439 146Q428 117 407 90T357 41T293 7T221 -6H212L191 -46Q235 -56 255
-77T276 -122Q276 -155 236 -184T115 -229L105 -199Q163 -183 183 -169T203 -141Q203 -130 184 -119T126 -101L174 0Z" />
<glyph unicode="&#xe8;" glyph-name="egrave" horiz-adv-x="486" d="M329 495Q386 495 421 472T457 402Q457 387 453 374T438 346T410 316T366 280Q334 256 299 234T231 195T172 165T132 146Q138 119 150 101T177 73T210 58T242 54Q273 54 298 65T343 92T377 128T400
164Q404 172 408 176T420 180Q432 180 435 171T434 153Q423 124 403 96T355 45T294 8T224 -6Q179 -6 145 9T87 49T53 109T41 181Q41 241 67 297T134 398T226 468T329 495ZM128 176Q143 183 167 196T218 227T273 264T323 306Q349 332 361 354T373 405Q373 434 359
446T321 458Q288 458 254 438T191 382T146 298T128 193V176ZM252 744Q269 744 278 735T301 711L394 608L379 586L248 651Q231 659 219 670T206 699Q206 713 219 728T252 744Z" />
<glyph unicode="&#xe9;" glyph-name="eacute" horiz-adv-x="486" d="M329 495Q386 495 421 472T457 402Q457 387 453 374T438 346T410 316T366 280Q334 256 299 234T231 195T172 165T132 146Q138 119 150 101T177 73T210 58T242 54Q273 54 298 65T343 92T377 128T400
164Q404 172 408 176T420 180Q432 180 435 171T434 153Q423 124 403 96T355 45T294 8T224 -6Q179 -6 145 9T87 49T53 109T41 181Q41 241 67 297T134 398T226 468T329 495ZM128 176Q143 183 167 196T218 227T273 264T323 306Q349 332 361 354T373 405Q373 434 359
446T321 458Q288 458 254 438T191 382T146 298T128 193V176ZM413 743Q432 743 444 729T456 700Q456 683 443 672T413 652L266 586L251 608L359 712Q373 726 384 734T413 743Z" />
<glyph unicode="&#xea;" glyph-name="ecircumflex" horiz-adv-x="486" d="M329 495Q386 495 421 472T457 402Q457 387 453 374T438 346T410 316T366 280Q334 256 299 234T231 195T172 165T132 146Q138 119 150 101T177 73T210 58T242 54Q273 54 298 65T343 92T377
128T400 164Q404 172 408 176T420 180Q432 180 435 171T434 153Q423 124 403 96T355 45T294 8T224 -6Q179 -6 145 9T87 49T53 109T41 181Q41 241 67 297T134 398T226 468T329 495ZM128 176Q143 183 167 196T218 227T273 264T323 306Q349 332 361 354T373 405Q373
434 359 446T321 458Q288 458 254 438T191 382T146 298T128 193V176ZM330 649L201 578L188 597L316 730H356L442 596L425 578L330 649Z" />
<glyph unicode="&#xeb;" glyph-name="edieresis" horiz-adv-x="486" d="M329 495Q386 495 421 472T457 402Q457 387 453 374T438 346T410 316T366 280Q334 256 299 234T231 195T172 165T132 146Q138 119 150 101T177 73T210 58T242 54Q273 54 298 65T343 92T377
128T400 164Q404 172 408 176T420 180Q432 180 435 171T434 153Q423 124 403 96T355 45T294 8T224 -6Q179 -6 145 9T87 49T53 109T41 181Q41 241 67 297T134 398T226 468T329 495ZM128 176Q143 183 167 196T218 227T273 264T323 306Q349 332 361 354T373 405Q373
434 359 446T321 458Q288 458 254 438T191 382T146 298T128 193V176ZM414 726Q436 726 451 711T467 674Q467 653 452 638T414 623Q392 623 377 638T361 674Q361 696 376 711T414 726ZM228 726Q250 726 265 711T281 674Q281 653 266 638T228 623Q206 623 191 638T175
674Q175 696 190 711T228 726Z" />
<glyph unicode="&#xec;" glyph-name="igrave" horiz-adv-x="307" d="M146 410Q129 408 103 396T44 365L25 402Q73 438 115 459T187 481Q214 481 225 466T236 428Q236 414 230 389T219 346L139 63Q149 65 159 68T184 79T217 96T262 124L283 94Q226 46 184 21T104
-4Q82 -4 66 10T50 51Q50 73 59 103L146 410ZM384 744Q401 744 410 735T433 711L526 608L511 586L380 651Q363 659 351 670T338 699Q338 713 351 728T384 744Z" />
<glyph unicode="&#xed;" glyph-name="iacute" horiz-adv-x="307" d="M146 410Q129 408 103 396T44 365L25 402Q73 438 115 459T187 481Q214 481 225 466T236 428Q236 414 230 389T219 346L139 63Q149 65 159 68T184 79T217 96T262 124L283 94Q226 46 184 21T104
-4Q82 -4 66 10T50 51Q50 73 59 103L146 410ZM289 743Q308 743 320 729T332 700Q332 683 319 672T289 652L142 586L127 608L235 712Q249 726 260 734T289 743Z" />
<glyph unicode="&#xee;" glyph-name="icircumflex" horiz-adv-x="307" d="M146 410Q129 408 103 396T44 365L25 402Q73 438 115 459T187 481Q214 481 225 466T236 428Q236 414 230 389T219 346L139 63Q149 65 159 68T184 79T217 96T262 124L283 94Q226 46 184
21T104 -4Q82 -4 66 10T50 51Q50 73 59 103L146 410ZM462 649L333 578L320 597L448 730H488L574 596L557 578L462 649Z" />
<glyph unicode="&#xef;" glyph-name="idieresis" horiz-adv-x="307" d="M146 410Q129 408 103 396T44 365L25 402Q73 438 115 459T187 481Q214 481 225 466T236 428Q236 414 230 389T219 346L139 63Q149 65 159 68T184 79T217 96T262 124L283 94Q226 46 184 21T104
-4Q82 -4 66 10T50 51Q50 73 59 103L146 410ZM546 726Q568 726 583 711T599 674Q599 653 584 638T546 623Q524 623 509 638T493 674Q493 696 508 711T546 726ZM360 726Q382 726 397 711T413 674Q413 653 398 638T360 623Q338 623 323 638T307 674Q307 696 322 711T360
726Z" />
<glyph unicode="&#xf0;" glyph-name="eth" horiz-adv-x="550" d="M153 580L271 663Q238 692 206 712T147 749Q133 757 133 769Q133 777 137 782T150 787Q160 787 173 782Q208 768 247 749T325 701L417 766L442 727L362 670Q391 644 417 612T462 539T492 452T503
347Q503 256 480 190T420 80T335 15T241 -6Q204 -6 169 7T105 48T60 114T43 205Q43 270 67 322T130 411T219 467T320 487Q337 487 356 486T397 479Q382 527 358 564T305 631L179 542L153 580ZM417 344Q417 369 415 392T408 436Q379 446 359 448T328 450Q291 450
256 431T194 377T151 292T135 182Q135 113 162 74T243 35Q286 35 319 58T373 123T406 221T417 344Z" />
<glyph unicode="&#xf1;" glyph-name="ntilde" horiz-adv-x="589" d="M349 103L403 298Q411 329 416 352T423 387Q424 426 395 426Q379 426 357 420T309 402T259 377T212 345L129 0H38L149 410Q110 408 45 376L28 414Q122 481 171 481Q205 481 217 457T223 391Q247
410 275 427T331 458T386 479T436 487Q471 487 491 466T511 414Q511 400 508 381T500 343T490 304T482 272L429 63Q439 65 449 68T473 78T505 95T547 121L568 91Q514 46 473 21T394 -4Q372 -4 356 10T340 51Q340 73 349 103ZM426 670Q437 670 446 686T466 724L496
713Q489 694 481 674T462 637T439 610T412 599Q396 599 376 605T336 617T300 630T276 636Q265 636 256 621T236 584L206 595Q213 614 221 634T239 669T263 695T293 705Q305 705 325 700T365 688T402 676T426 670Z" />
<glyph unicode="&#xf2;" glyph-name="ograve" horiz-adv-x="546" d="M309 495Q345 495 379 482T441 443T486 377T503 287Q503 213 480 158T420 67T338 12T249 -6Q208 -6 171 8T106 49T60 115T43 205Q43 274 66 328T128 419T213 475T309 495ZM417 309Q417 381 388
419T310 458Q277 458 246 439T190 384T150 297T135 182Q135 115 163 75T251 35Q291 35 322 56T374 113T406 200T417 309ZM254 744Q271 744 280 735T303 711L396 608L381 586L250 651Q233 659 221 670T208 699Q208 713 221 728T254 744Z" />
<glyph unicode="&#xf3;" glyph-name="oacute" horiz-adv-x="546" d="M309 495Q345 495 379 482T441 443T486 377T503 287Q503 213 480 158T420 67T338 12T249 -6Q208 -6 171 8T106 49T60 115T43 205Q43 274 66 328T128 419T213 475T309 495ZM417 309Q417 381 388
419T310 458Q277 458 246 439T190 384T150 297T135 182Q135 115 163 75T251 35Q291 35 322 56T374 113T406 200T417 309ZM415 743Q434 743 446 729T458 700Q458 683 445 672T415 652L268 586L253 608L361 712Q375 726 386 734T415 743Z" />
<glyph unicode="&#xf4;" glyph-name="ocircumflex" horiz-adv-x="546" d="M309 495Q345 495 379 482T441 443T486 377T503 287Q503 213 480 158T420 67T338 12T249 -6Q208 -6 171 8T106 49T60 115T43 205Q43 274 66 328T128 419T213 475T309 495ZM417 309Q417
381 388 419T310 458Q277 458 246 439T190 384T150 297T135 182Q135 115 163 75T251 35Q291 35 322 56T374 113T406 200T417 309ZM332 649L203 578L190 597L318 730H358L444 596L427 578L332 649Z" />
<glyph unicode="&#xf5;" glyph-name="otilde" horiz-adv-x="546" d="M309 495Q345 495 379 482T441 443T486 377T503 287Q503 213 480 158T420 67T338 12T249 -6Q208 -6 171 8T106 49T60 115T43 205Q43 274 66 328T128 419T213 475T309 495ZM417 309Q417 381 388
419T310 458Q277 458 246 439T190 384T150 297T135 182Q135 115 163 75T251 35Q291 35 322 56T374 113T406 200T417 309ZM395 670Q406 670 415 686T435 724L465 713Q458 694 450 674T431 637T408 610T381 599Q365 599 345 605T305 617T269 630T245 636Q234 636
225 621T205 584L175 595Q182 614 190 634T208 669T232 695T262 705Q274 705 294 700T334 688T371 676T395 670Z" />
<glyph unicode="&#xf6;" glyph-name="odieresis" horiz-adv-x="546" d="M309 495Q345 495 379 482T441 443T486 377T503 287Q503 213 480 158T420 67T338 12T249 -6Q208 -6 171 8T106 49T60 115T43 205Q43 274 66 328T128 419T213 475T309 495ZM417 309Q417 381
388 419T310 458Q277 458 246 439T190 384T150 297T135 182Q135 115 163 75T251 35Q291 35 322 56T374 113T406 200T417 309ZM416 726Q438 726 453 711T469 674Q469 653 454 638T416 623Q394 623 379 638T363 674Q363 696 378 711T416 726ZM230 726Q252 726 267
711T283 674Q283 653 268 638T230 623Q208 623 193 638T177 674Q177 696 192 711T230 726Z" />
<glyph unicode="&#xf7;" glyph-name="divide" horiz-adv-x="500" d="M49 318H451V270H49V318ZM251 521Q274 521 290 505T307 465Q307 441 291 425T251 408Q227 408 211 424T194 465Q194 488 210 504T251 521ZM251 180Q274 180 290 164T307 124Q307 100 291 84T251
67Q227 67 211 83T194 124Q194 147 210 163T251 180Z" />
<glyph unicode="&#xf8;" glyph-name="oslash" horiz-adv-x="546" d="M309 495Q340 495 370 485T427 454L477 509L512 481L458 422Q478 395 490 359T503 277Q503 207 480 154T420 66T338 12T249 -6Q211 -6 176 6T113 42L56 -20L21 8L83 76Q64 102 54 137T43 215Q43
280 66 332T128 420T213 475T309 495ZM417 299Q417 340 411 370L152 85Q164 59 188 47T251 35Q291 35 322 55T374 112T406 196T417 299ZM135 192Q135 161 138 136L394 417Q368 458 310 458Q277 458 246 439T190 386T150 302T135 192Z" />
<glyph unicode="&#xf9;" glyph-name="ugrave" horiz-adv-x="593" d="M536 480L434 63Q444 65 454 69T478 79T509 97T551 123L572 93Q518 48 475 22T395 -4Q366 -4 354 15T345 64Q302 35 254 15T166 -5Q116 -5 92 23T67 97Q67 115 70 138T79 179L139 410Q122 409
94 400T35 376L18 414Q121 481 174 481Q212 481 220 453T214 372L166 184Q161 162 157 143T153 109Q153 55 210 55Q242 55 280 69T355 110L446 480H536ZM280 744Q297 744 306 735T329 711L422 608L407 586L276 651Q259 659 247 670T234 699Q234 713 247 728T280
744Z" />
<glyph unicode="&#xfa;" glyph-name="uacute" horiz-adv-x="593" d="M536 480L434 63Q444 65 454 69T478 79T509 97T551 123L572 93Q518 48 475 22T395 -4Q366 -4 354 15T345 64Q302 35 254 15T166 -5Q116 -5 92 23T67 97Q67 115 70 138T79 179L139 410Q122 409
94 400T35 376L18 414Q121 481 174 481Q212 481 220 453T214 372L166 184Q161 162 157 143T153 109Q153 55 210 55Q242 55 280 69T355 110L446 480H536ZM441 743Q460 743 472 729T484 700Q484 683 471 672T441 652L294 586L279 608L387 712Q401 726 412 734T441
743Z" />
<glyph unicode="&#xfb;" glyph-name="ucircumflex" horiz-adv-x="593" d="M536 480L434 63Q444 65 454 69T478 79T509 97T551 123L572 93Q518 48 475 22T395 -4Q366 -4 354 15T345 64Q302 35 254 15T166 -5Q116 -5 92 23T67 97Q67 115 70 138T79 179L139 410Q122
409 94 400T35 376L18 414Q121 481 174 481Q212 481 220 453T214 372L166 184Q161 162 157 143T153 109Q153 55 210 55Q242 55 280 69T355 110L446 480H536ZM358 649L229 578L216 597L344 730H384L470 596L453 578L358 649Z" />
<glyph unicode="&#xfc;" glyph-name="udieresis" horiz-adv-x="593" d="M536 480L434 63Q444 65 454 69T478 79T509 97T551 123L572 93Q518 48 475 22T395 -4Q366 -4 354 15T345 64Q302 35 254 15T166 -5Q116 -5 92 23T67 97Q67 115 70 138T79 179L139 410Q122
409 94 400T35 376L18 414Q121 481 174 481Q212 481 220 453T214 372L166 184Q161 162 157 143T153 109Q153 55 210 55Q242 55 280 69T355 110L446 480H536ZM442 726Q464 726 479 711T495 674Q495 653 480 638T442 623Q420 623 405 638T389 674Q389 696 404 711T442
726ZM256 726Q278 726 293 711T309 674Q309 653 294 638T256 623Q234 623 219 638T203 674Q203 696 218 711T256 726Z" />
<glyph unicode="&#xfd;" glyph-name="yacute" horiz-adv-x="520" d="M418 386Q418 407 408 422T368 443Q358 444 358 454Q358 469 375 481T419 494Q452 494 471 476T490 426Q490 401 475 366T434 286T374 191T301 85Q245 5 189 -71T79 -221Q55 -216 39 -200T24
-156Q88 -107 131 -66T209 16Q212 62 207 114T193 214T173 301T153 363Q137 398 127 409T104 421Q93 421 77 413T42 389L20 422Q49 448 81 468T145 488Q174 488 192 468T221 419Q244 358 261 287T287 123Q309 156 332 193T375 265T406 332T418 386ZM408 743Q427
743 439 729T451 700Q451 683 438 672T408 652L261 586L246 608L354 712Q368 726 379 734T408 743Z" />
<glyph unicode="&#xfe;" glyph-name="thorn" horiz-adv-x="585" d="M254 -4Q224 -4 196 3T142 24L90 -210H2L203 685L112 694L122 737L309 763L228 405Q266 437 312 462T406 487Q434 487 458 475T501 441T529 384T540 307Q540 236 516 179T452 81T361 18T254 -4ZM254
39Q293 39 329 57T392 111T435 198T452 314Q452 376 428 403T363 431Q328 431 293 414T219 367L151 64Q176 50 202 45T254 39Z" />
<glyph unicode="&#xff;" glyph-name="ydieresis" horiz-adv-x="520" d="M418 386Q418 407 408 422T368 443Q358 444 358 454Q358 469 375 481T419 494Q452 494 471 476T490 426Q490 401 475 366T434 286T374 191T301 85Q245 5 189 -71T79 -221Q55 -216 39 -200T24
-156Q88 -107 131 -66T209 16Q212 62 207 114T193 214T173 301T153 363Q137 398 127 409T104 421Q93 421 77 413T42 389L20 422Q49 448 81 468T145 488Q174 488 192 468T221 419Q244 358 261 287T287 123Q309 156 332 193T375 265T406 332T418 386ZM409 726Q431
726 446 711T462 674Q462 653 447 638T409 623Q387 623 372 638T356 674Q356 696 371 711T409 726ZM223 726Q245 726 260 711T276 674Q276 653 261 638T223 623Q201 623 186 638T170 674Q170 696 185 711T223 726Z" />
<glyph unicode="&#x100;" glyph-name="Amacron" horiz-adv-x="745" d="M419 41L526 54L460 283H232L117 52L207 41L202 0H-5L0 41L57 52L302 536Q333 599 354 651T384 740H428L628 48L689 41L684 0H414L419 41ZM256 331H447L377 576L256 331ZM291 898H561L553
837H283L291 898Z" />
<glyph unicode="&#x101;" glyph-name="amacron" horiz-adv-x="548" d="M181 385Q232 423 287 444T400 471L434 505H490L387 63Q397 65 406 68T427 78T455 95T496 121L517 91Q463 46 426 21T350 -4Q323 -4 312 15T300 60Q282 47 263 35T224 14T186 0T153 -6Q102
-6 69 28T36 123Q36 168 49 207T84 280T130 339T181 385ZM199 55Q225 55 252 67T305 97L386 432Q343 426 300 408T219 354Q201 337 185 314T156 264T135 206T127 144Q127 100 147 78T199 55ZM232 674H482L474 613H224L232 674Z" />
<glyph unicode="&#x102;" glyph-name="Abreve" horiz-adv-x="745" d="M419 41L526 54L460 283H232L117 52L207 41L202 0H-5L0 41L57 52L302 536Q333 599 354 651T384 740H428L628 48L689 41L684 0H414L419 41ZM256 331H447L377 576L256 331ZM425 817Q371 817 338
851T296 940L334 950Q340 921 365 905T427 889Q466 889 491 905T530 950L564 940Q546 886 511 852T425 817Z" />
<glyph unicode="&#x103;" glyph-name="abreve" horiz-adv-x="548" d="M181 385Q232 423 287 444T400 471L434 505H490L387 63Q397 65 406 68T427 78T455 95T496 121L517 91Q463 46 426 21T350 -4Q323 -4 312 15T300 60Q282 47 263 35T224 14T186 0T153 -6Q102
-6 69 28T36 123Q36 168 49 207T84 280T130 339T181 385ZM199 55Q225 55 252 67T305 97L386 432Q343 426 300 408T219 354Q201 337 185 314T156 264T135 206T127 144Q127 100 147 78T199 55ZM350 578Q296 578 267 614T231 711L268 721Q273 685 296 667T356 648Q393
648 417 667T456 721L491 711Q471 648 435 613T350 578Z" />
<glyph unicode="&#x104;" glyph-name="Aogonek" horiz-adv-x="745" d="M389 -124Q389 -110 395 -94T419 -61T464 -24T537 15L461 283H232L117 52L207 41L202 0H-5L0 41L57 52L302 536Q333 599 354 651T384 740H428L628 48L689 41L684 0H566Q540 -19 523 -34T496
-62T481 -90T477 -120Q477 -143 491 -162T549 -185L546 -220Q513 -220 484 -214T434 -196T401 -166T389 -124ZM256 331H447L377 576L256 331Z" />
<glyph unicode="&#x105;" glyph-name="aogonek" horiz-adv-x="548" d="M363 -220Q330 -220 301 -214T251 -196T218 -166T206 -124Q206 -109 213 -93T236 -60T276 -28T336 -2Q317 3 309 20T300 60Q282 47 263 35T224 14T186 0T153 -6Q102 -6 69 28T36 123Q36 168
49 207T84 280T130 339T181 385Q232 423 287 444T400 471L434 505H490L387 63Q397 65 406 68T427 78T455 95T496 121L517 91Q469 51 428 25T357 -22T311 -66T294 -120Q294 -143 308 -162T366 -185L363 -220ZM199 55Q225 55 252 67T305 97L386 432Q343 426 300 408T219
354Q201 337 185 314T156 264T135 206T127 144Q127 100 147 78T199 55Z" />
<glyph unicode="&#x106;" glyph-name="Cacute" horiz-adv-x="803" d="M470 744Q522 744 560 734T625 710T672 687T706 676Q715 676 721 681T731 693H769L745 496H707Q697 550 675 588T623 652T554 690T472 702Q415 702 360 676T262 601T192 484T165 334Q165 275
180 221T228 126T310 59T426 34Q466 34 507 47T584 89T649 158T697 255H735L692 87Q668 73 638 57T574 26T501 2T423 -8Q348 -8 282 14T166 81T87 190T58 339Q58 427 92 501T184 629T315 713T470 744ZM592 901Q592 884 578 873T544 855L401 805L389 829L499 921Q512
932 523 940T549 948Q564 948 578 936T592 901Z" />
<glyph unicode="&#x107;" glyph-name="cacute" horiz-adv-x="507" d="M478 386Q478 364 472 350T457 326T438 314T419 310Q397 310 385 323T381 370L395 430Q390 445 378 451T349 458Q308 458 269 440T200 388T152 306T133 200Q133 163 142 137T167 93T203 67T248
59Q297 59 336 84T405 157Q410 165 413 169T425 173Q437 173 440 164T439 146Q428 117 407 90T357 41T293 7T221 -6Q177 -6 144 10T89 53T56 115T44 188Q44 245 65 300T126 399T221 468T345 495Q373 495 397 488T440 466T468 432T478 386ZM431 743Q450 743 462
729T474 700Q474 683 461 672T431 652L284 586L269 608L377 712Q391 726 402 734T431 743Z" />
<glyph unicode="&#x108;" glyph-name="Ccircumflex" horiz-adv-x="803" d="M470 744Q522 744 560 734T625 710T672 687T706 676Q715 676 721 681T731 693H769L745 496H707Q697 550 675 588T623 652T554 690T472 702Q415 702 360 676T262 601T192 484T165 334Q165
275 180 221T228 126T310 59T426 34Q466 34 507 47T584 89T649 158T697 255H735L692 87Q668 73 638 57T574 26T501 2T423 -8Q348 -8 282 14T166 81T87 190T58 339Q58 427 92 501T184 629T315 713T470 744ZM485 866L350 810L340 829L471 945H511L606 827L594 810L485
866Z" />
<glyph unicode="&#x109;" glyph-name="ccircumflex" horiz-adv-x="507" d="M478 386Q478 364 472 350T457 326T438 314T419 310Q397 310 385 323T381 370L395 430Q390 445 378 451T349 458Q308 458 269 440T200 388T152 306T133 200Q133 163 142 137T167 93T203
67T248 59Q297 59 336 84T405 157Q410 165 413 169T425 173Q437 173 440 164T439 146Q428 117 407 90T357 41T293 7T221 -6Q177 -6 144 10T89 53T56 115T44 188Q44 245 65 300T126 399T221 468T345 495Q373 495 397 488T440 466T468 432T478 386ZM348 649L219 578L206
597L334 730H374L460 596L443 578L348 649Z" />
<glyph unicode="&#x10a;" glyph-name="Cdotaccent" horiz-adv-x="803" d="M470 744Q522 744 560 734T625 710T672 687T706 676Q715 676 721 681T731 693H769L745 496H707Q697 550 675 588T623 652T554 690T472 702Q415 702 360 676T262 601T192 484T165 334Q165
275 180 221T228 126T310 59T426 34Q466 34 507 47T584 89T649 158T697 255H735L692 87Q668 73 638 57T574 26T501 2T423 -8Q348 -8 282 14T166 81T87 190T58 339Q58 427 92 501T184 629T315 713T470 744ZM476 928Q498 928 513 913T529 876Q529 855 514 840T476
825Q454 825 439 840T423 876Q423 898 438 913T476 928Z" />
<glyph unicode="&#x10b;" glyph-name="cdotaccent" horiz-adv-x="507" d="M478 386Q478 364 472 350T457 326T438 314T419 310Q397 310 385 323T381 370L395 430Q390 445 378 451T349 458Q308 458 269 440T200 388T152 306T133 200Q133 163 142 137T167 93T203
67T248 59Q297 59 336 84T405 157Q410 165 413 169T425 173Q437 173 440 164T439 146Q428 117 407 90T357 41T293 7T221 -6Q177 -6 144 10T89 53T56 115T44 188Q44 245 65 300T126 399T221 468T345 495Q373 495 397 488T440 466T468 432T478 386ZM345 726Q367 726
382 711T398 674Q398 653 383 638T345 623Q323 623 308 638T292 674Q292 696 307 711T345 726Z" />
<glyph unicode="&#x10c;" glyph-name="Ccaron" horiz-adv-x="803" d="M470 744Q522 744 560 734T625 710T672 687T706 676Q715 676 721 681T731 693H769L745 496H707Q697 550 675 588T623 652T554 690T472 702Q415 702 360 676T262 601T192 484T165 334Q165 275
180 221T228 126T310 59T426 34Q466 34 507 47T584 89T649 158T697 255H735L692 87Q668 73 638 57T574 26T501 2T423 -8Q348 -8 282 14T166 81T87 190T58 339Q58 427 92 501T184 629T315 713T470 744ZM484 886L618 942L628 923L497 807H457L362 925L374 942L484
886Z" />
<glyph unicode="&#x10d;" glyph-name="ccaron" horiz-adv-x="507" d="M478 386Q478 364 472 350T457 326T438 314T419 310Q397 310 385 323T381 370L395 430Q390 445 378 451T349 458Q308 458 269 440T200 388T152 306T133 200Q133 163 142 137T167 93T203 67T248
59Q297 59 336 84T405 157Q410 165 413 169T425 173Q437 173 440 164T439 146Q428 117 407 90T357 41T293 7T221 -6Q177 -6 144 10T89 53T56 115T44 188Q44 245 65 300T126 399T221 468T345 495Q373 495 397 488T440 466T468 432T478 386ZM337 659L466 730L479
711L351 578H311L225 712L242 730L337 659Z" />
<glyph unicode="&#x10e;" glyph-name="Dcaron" horiz-adv-x="840" d="M105 730H230Q247 730 264 731T304 733T354 736T421 738Q509 738 578 715T696 650T770 549T796 418Q796 341 772 266T692 131T546 34T322 -3Q302 -3 288 -3T259 -2T229 -1T192 0H19L24 41L108
51L190 678L100 689L105 730ZM367 698Q346 698 328 696T292 692L218 133Q214 103 217 85T234 58T274 46T343 43Q446 43 513 77T620 163T675 280T691 406Q691 488 664 544T592 634T489 683T367 698ZM445 886L579 942L589 923L458 807H418L323 925L335 942L445 886Z"
/>
<glyph unicode="&#x10f;" glyph-name="dcaron" horiz-adv-x="591" d="M360 495Q383 495 401 491T431 481L476 685L377 694L387 737L582 763L428 63Q438 65 448 68T472 78T504 95T546 121L567 91Q513 46 472 21T393 -4Q366 -4 354 12T340 53Q331 45 317 35T286
15T249 0T205 -6Q169 -6 140 7T89 46T57 105T45 181Q45 241 71 297T141 398T242 468T360 495ZM250 54Q283 54 303 63T345 90L422 441Q406 452 389 455T355 458Q316 458 277 438T205 381T152 296T132 190Q132 155 142 130T168 88T206 63T250 54ZM613 692L648 765Q671
757 689 744T708 711Q708 688 686 654T630 581Q621 570 616 567T605 564Q600 564 596 567T593 577Q595 584 599 590Q615 613 628 633T641 669Q641 684 613 692Z" />
<glyph unicode="&#x110;" glyph-name="Dcroat" horiz-adv-x="842" d="M108 51L148 358H53L59 406H154L190 678L100 689L105 730H230Q247 730 264 731T304 733T354 736T421 738Q509 738 578 715T696 650T770 549T796 418Q796 341 772 266T692 131T546 34T322 -3Q302
-3 288 -3T259 -2T229 -1T192 0H19L24 41L108 51ZM248 358L218 133Q214 103 217 85T234 58T274 46T343 43Q446 43 513 77T620 163T675 280T691 406Q691 488 664 544T592 634T489 683T367 698Q346 698 328 696T292 692L254 406H446L440 358H248Z" />
<glyph unicode="&#x111;" glyph-name="dcroat" horiz-adv-x="591" d="M265 626H626L617 579H256L265 626ZM360 495Q383 495 401 491T431 481L476 685L377 694L387 737L582 763L428 63Q438 65 448 68T472 78T504 95T546 121L567 91Q513 46 472 21T393 -4Q366 -4
354 12T340 53Q331 45 317 35T286 15T249 0T205 -6Q169 -6 140 7T89 46T57 105T45 181Q45 241 71 297T141 398T242 468T360 495ZM250 54Q283 54 303 63T345 90L422 441Q406 452 389 455T355 458Q316 458 277 438T205 381T152 296T132 190Q132 155 142 130T168 88T206
63T250 54Z" />
<glyph unicode="&#x112;" glyph-name="Emacron" horiz-adv-x="686" d="M105 730H651L629 559H585L588 593Q591 622 590 639T581 666T553 679T500 682H290L254 402H280Q329 402 356 403T398 408T416 416T422 431L438 502H480L446 243H404L407 313Q408 326 406 334T391
347T354 352T283 354H247L207 48H445Q474 48 491 51T519 63T538 88T558 131L586 198H626L590 0H19L24 41L108 51L190 678L100 689L105 730ZM280 898H550L542 837H272L280 898Z" />
<glyph unicode="&#x113;" glyph-name="emacron" horiz-adv-x="486" d="M329 495Q386 495 421 472T457 402Q457 387 453 374T438 346T410 316T366 280Q334 256 299 234T231 195T172 165T132 146Q138 119 150 101T177 73T210 58T242 54Q273 54 298 65T343 92T377
128T400 164Q404 172 408 176T420 180Q432 180 435 171T434 153Q423 124 403 96T355 45T294 8T224 -6Q179 -6 145 9T87 49T53 109T41 181Q41 241 67 297T134 398T226 468T329 495ZM128 176Q143 183 167 196T218 227T273 264T323 306Q349 332 361 354T373 405Q373
434 359 446T321 458Q288 458 254 438T191 382T146 298T128 193V176ZM202 674H452L444 613H194L202 674Z" />
<glyph unicode="&#x114;" glyph-name="Ebreve" horiz-adv-x="686" d="M105 730H651L629 559H585L588 593Q591 622 590 639T581 666T553 679T500 682H290L254 402H280Q329 402 356 403T398 408T416 416T422 431L438 502H480L446 243H404L407 313Q408 326 406 334T391
347T354 352T283 354H247L207 48H445Q474 48 491 51T519 63T538 88T558 131L586 198H626L590 0H19L24 41L108 51L190 678L100 689L105 730ZM413 817Q359 817 326 851T284 940L322 950Q328 921 353 905T415 889Q454 889 479 905T518 950L552 940Q534 886 499 852T413
817Z" />
<glyph unicode="&#x115;" glyph-name="ebreve" horiz-adv-x="486" d="M329 495Q386 495 421 472T457 402Q457 387 453 374T438 346T410 316T366 280Q334 256 299 234T231 195T172 165T132 146Q138 119 150 101T177 73T210 58T242 54Q273 54 298 65T343 92T377
128T400 164Q404 172 408 176T420 180Q432 180 435 171T434 153Q423 124 403 96T355 45T294 8T224 -6Q179 -6 145 9T87 49T53 109T41 181Q41 241 67 297T134 398T226 468T329 495ZM128 176Q143 183 167 196T218 227T273 264T323 306Q349 332 361 354T373 405Q373
434 359 446T321 458Q288 458 254 438T191 382T146 298T128 193V176ZM312 578Q258 578 229 614T193 711L230 721Q235 685 258 667T318 648Q355 648 379 667T418 721L453 711Q433 648 397 613T312 578Z" />
<glyph unicode="&#x116;" glyph-name="Edotaccent" horiz-adv-x="686" d="M105 730H651L629 559H585L588 593Q591 622 590 639T581 666T553 679T500 682H290L254 402H280Q329 402 356 403T398 408T416 416T422 431L438 502H480L446 243H404L407 313Q408 326 406
334T391 347T354 352T283 354H247L207 48H445Q474 48 491 51T519 63T538 88T558 131L586 198H626L590 0H19L24 41L108 51L190 678L100 689L105 730ZM406 928Q428 928 443 913T459 876Q459 855 444 840T406 825Q384 825 369 840T353 876Q353 898 368 913T406 928Z"
/>
<glyph unicode="&#x117;" glyph-name="edotaccent" horiz-adv-x="486" d="M329 495Q386 495 421 472T457 402Q457 387 453 374T438 346T410 316T366 280Q334 256 299 234T231 195T172 165T132 146Q138 119 150 101T177 73T210 58T242 54Q273 54 298 65T343 92T377
128T400 164Q404 172 408 176T420 180Q432 180 435 171T434 153Q423 124 403 96T355 45T294 8T224 -6Q179 -6 145 9T87 49T53 109T41 181Q41 241 67 297T134 398T226 468T329 495ZM128 176Q143 183 167 196T218 227T273 264T323 306Q349 332 361 354T373 405Q373
434 359 446T321 458Q288 458 254 438T191 382T146 298T128 193V176ZM321 726Q343 726 358 711T374 674Q374 653 359 638T321 623Q299 623 284 638T268 674Q268 696 283 711T321 726Z" />
<glyph unicode="&#x118;" glyph-name="Eogonek" horiz-adv-x="686" d="M24 41L108 51L190 678L100 689L105 730H651L629 559H585L588 593Q591 622 590 639T581 666T553 679T500 682H290L254 402H280Q329 402 356 403T398 408T416 416T422 431L438 502H480L446
243H404L407 313Q408 326 406 334T391 347T354 352T283 354H247L207 48H445Q474 48 491 51T519 63T538 88T558 131L586 198H626L590 0H515Q491 -16 473 -29T444 -56T428 -85T422 -120Q422 -143 436 -162T494 -185L491 -220Q458 -220 429 -214T379 -196T346 -166T334
-124Q334 -109 341 -93T365 -59T408 -27T471 0H19L24 41Z" />
<glyph unicode="&#x119;" glyph-name="eogonek" horiz-adv-x="486" d="M279 -220Q246 -220 217 -214T167 -196T134 -166T122 -124Q122 -96 149 -64T242 -5Q237 -6 233 -6T224 -6Q179 -6 145 9T87 49T53 109T41 181Q41 241 67 297T134 398T226 468T329 495Q386
495 421 472T457 402Q457 387 453 374T438 346T410 316T366 280Q334 256 299 234T231 195T172 165T132 146Q138 119 150 101T177 73T210 58T242 54Q273 54 298 65T343 92T377 128T400 164Q404 172 408 176T420 180Q432 180 435 171T434 153Q423 126 405 100T361
50Q342 32 316 15T267 -23T227 -66T210 -120Q210 -143 224 -162T282 -185L279 -220ZM128 176Q143 183 167 196T218 227T273 264T323 306Q349 332 361 354T373 405Q373 434 359 446T321 458Q288 458 254 438T191 382T146 298T128 193V176Z" />
<glyph unicode="&#x11a;" glyph-name="Ecaron" horiz-adv-x="686" d="M105 730H651L629 559H585L588 593Q591 622 590 639T581 666T553 679T500 682H290L254 402H280Q329 402 356 403T398 408T416 416T422 431L438 502H480L446 243H404L407 313Q408 326 406 334T391
347T354 352T283 354H247L207 48H445Q474 48 491 51T519 63T538 88T558 131L586 198H626L590 0H19L24 41L108 51L190 678L100 689L105 730ZM424 886L558 942L568 923L437 807H397L302 925L314 942L424 886Z" />
<glyph unicode="&#x11b;" glyph-name="ecaron" horiz-adv-x="486" d="M329 495Q386 495 421 472T457 402Q457 387 453 374T438 346T410 316T366 280Q334 256 299 234T231 195T172 165T132 146Q138 119 150 101T177 73T210 58T242 54Q273 54 298 65T343 92T377
128T400 164Q404 172 408 176T420 180Q432 180 435 171T434 153Q423 124 403 96T355 45T294 8T224 -6Q179 -6 145 9T87 49T53 109T41 181Q41 241 67 297T134 398T226 468T329 495ZM128 176Q143 183 167 196T218 227T273 264T323 306Q349 332 361 354T373 405Q373
434 359 446T321 458Q288 458 254 438T191 382T146 298T128 193V176ZM313 659L442 730L455 711L327 578H287L201 712L218 730L313 659Z" />
<glyph unicode="&#x11c;" glyph-name="Gcircumflex" horiz-adv-x="864" d="M646 222L543 233L553 274H834L824 233L748 223Q740 191 737 154T733 86Q709 80 679 65T611 33T527 4T425 -9Q345 -9 278 16T162 87T86 199T58 345Q58 429 92 501T183 628T314 713T467
744Q524 744 565 734T635 710T684 687T719 676Q728 676 735 681T744 693H782L759 483H721Q707 595 641 648T471 702Q415 702 360 680T262 613T193 501T166 345Q166 276 183 219T233 120T316 56T432 33Q475 33 512 41T576 64Q594 74 605 84T622 105T632 130T638
161L646 222ZM490 866L355 810L345 829L476 945H516L611 827L599 810L490 866Z" />
<glyph unicode="&#x11d;" glyph-name="gcircumflex" horiz-adv-x="499" d="M70 310Q70 354 90 387T142 444T210 479T281 491Q318 491 347 485T395 468L410 494Q422 516 446 516H476Q476 501 472 485T463 453T451 426T440 406Q447 354 439 315T414 248T371 202T319
172Q295 161 272 157T227 150T183 145T139 137Q112 130 98 119T84 93Q84 76 103 72T149 65L318 57Q360 55 388 46T432 22T454 -12T461 -54Q461 -93 441 -125T384 -180T295 -216T179 -229Q94 -229 45 -204T-4 -126Q-4 -88 22 -57T82 -3Q55 4 40 19T25 58Q25 97 57
129T155 174Q118 194 94 230T70 310ZM43 -123Q43 -149 69 -165T149 -181Q201 -181 244 -172T319 -148T367 -112T384 -67Q384 -47 367 -35T308 -20L172 -11Q149 -17 126 -28T85 -53T55 -85T43 -123ZM301 452Q271 452 246 445T201 419T170 372T159 300Q159 252 177
222T245 191Q296 191 329 240T362 400Q362 431 349 441T301 452ZM308 649L179 578L166 597L294 730H334L420 596L403 578L308 649Z" />
<glyph unicode="&#x11e;" glyph-name="Gbreve" horiz-adv-x="864" d="M646 222L543 233L553 274H834L824 233L748 223Q740 191 737 154T733 86Q709 80 679 65T611 33T527 4T425 -9Q345 -9 278 16T162 87T86 199T58 345Q58 429 92 501T183 628T314 713T467 744Q524
744 565 734T635 710T684 687T719 676Q728 676 735 681T744 693H782L759 483H721Q707 595 641 648T471 702Q415 702 360 680T262 613T193 501T166 345Q166 276 183 219T233 120T316 56T432 33Q475 33 512 41T576 64Q594 74 605 84T622 105T632 130T638 161L646
222ZM488 817Q434 817 401 851T359 940L397 950Q403 921 428 905T490 889Q529 889 554 905T593 950L627 940Q609 886 574 852T488 817Z" />
<glyph unicode="&#x11f;" glyph-name="gbreve" horiz-adv-x="499" d="M70 310Q70 354 90 387T142 444T210 479T281 491Q318 491 347 485T395 468L410 494Q422 516 446 516H476Q476 501 472 485T463 453T451 426T440 406Q447 354 439 315T414 248T371 202T319 172Q295
161 272 157T227 150T183 145T139 137Q112 130 98 119T84 93Q84 76 103 72T149 65L318 57Q360 55 388 46T432 22T454 -12T461 -54Q461 -93 441 -125T384 -180T295 -216T179 -229Q94 -229 45 -204T-4 -126Q-4 -88 22 -57T82 -3Q55 4 40 19T25 58Q25 97 57 129T155
174Q118 194 94 230T70 310ZM43 -123Q43 -149 69 -165T149 -181Q201 -181 244 -172T319 -148T367 -112T384 -67Q384 -47 367 -35T308 -20L172 -11Q149 -17 126 -28T85 -53T55 -85T43 -123ZM301 452Q271 452 246 445T201 419T170 372T159 300Q159 252 177 222T245
191Q296 191 329 240T362 400Q362 431 349 441T301 452ZM298 578Q244 578 215 614T179 711L216 721Q221 685 244 667T304 648Q341 648 365 667T404 721L439 711Q419 648 383 613T298 578Z" />
<glyph unicode="&#x120;" glyph-name="Gdotaccent" horiz-adv-x="864" d="M646 222L543 233L553 274H834L824 233L748 223Q740 191 737 154T733 86Q709 80 679 65T611 33T527 4T425 -9Q345 -9 278 16T162 87T86 199T58 345Q58 429 92 501T183 628T314 713T467
744Q524 744 565 734T635 710T684 687T719 676Q728 676 735 681T744 693H782L759 483H721Q707 595 641 648T471 702Q415 702 360 680T262 613T193 501T166 345Q166 276 183 219T233 120T316 56T432 33Q475 33 512 41T576 64Q594 74 605 84T622 105T632 130T638
161L646 222ZM481 928Q503 928 518 913T534 876Q534 855 519 840T481 825Q459 825 444 840T428 876Q428 898 443 913T481 928Z" />
<glyph unicode="&#x121;" glyph-name="gdotaccent" horiz-adv-x="499" d="M70 310Q70 354 90 387T142 444T210 479T281 491Q318 491 347 485T395 468L410 494Q422 516 446 516H476Q476 501 472 485T463 453T451 426T440 406Q447 354 439 315T414 248T371 202T319
172Q295 161 272 157T227 150T183 145T139 137Q112 130 98 119T84 93Q84 76 103 72T149 65L318 57Q360 55 388 46T432 22T454 -12T461 -54Q461 -93 441 -125T384 -180T295 -216T179 -229Q94 -229 45 -204T-4 -126Q-4 -88 22 -57T82 -3Q55 4 40 19T25 58Q25 97 57
129T155 174Q118 194 94 230T70 310ZM43 -123Q43 -149 69 -165T149 -181Q201 -181 244 -172T319 -148T367 -112T384 -67Q384 -47 367 -35T308 -20L172 -11Q149 -17 126 -28T85 -53T55 -85T43 -123ZM301 452Q271 452 246 445T201 419T170 372T159 300Q159 252 177
222T245 191Q296 191 329 240T362 400Q362 431 349 441T301 452ZM305 726Q327 726 342 711T358 674Q358 653 343 638T305 623Q283 623 268 638T252 674Q252 696 267 711T305 726Z" />
<glyph unicode="&#x122;" glyph-name="uni0122" horiz-adv-x="864" d="M646 222L543 233L553 274H834L824 233L748 223Q740 191 737 154T733 86Q709 80 679 65T611 33T527 4T425 -9Q345 -9 278 16T162 87T86 199T58 345Q58 429 92 501T183 628T314 713T467 744Q524
744 565 734T635 710T684 687T719 676Q728 676 735 681T744 693H782L759 483H721Q707 595 641 648T471 702Q415 702 360 680T262 613T193 501T166 345Q166 276 183 219T233 120T316 56T432 33Q475 33 512 41T576 64Q594 74 605 84T622 105T632 130T638 161L646
222ZM312 -113L341 -48Q392 -55 414 -75T437 -117Q437 -164 344 -223Q332 -231 327 -233T317 -234Q311 -233 307 -229T303 -219Q303 -211 313 -203Q336 -186 351 -171T367 -143Q367 -135 354 -126T312 -113Z" />
<glyph unicode="&#x123;" glyph-name="uni0123" horiz-adv-x="499" d="M70 310Q70 354 90 387T142 444T210 479T281 491Q318 491 347 485T395 468L410 494Q422 516 446 516H476Q476 501 472 485T463 453T451 426T440 406Q447 354 439 315T414 248T371 202T319
172Q295 161 272 157T227 150T183 145T139 137Q112 130 98 119T84 93Q84 76 103 72T149 65L318 57Q360 55 388 46T432 22T454 -12T461 -54Q461 -93 441 -125T384 -180T295 -216T179 -229Q94 -229 45 -204T-4 -126Q-4 -88 22 -57T82 -3Q55 4 40 19T25 58Q25 97 57
129T155 174Q118 194 94 230T70 310ZM43 -123Q43 -149 69 -165T149 -181Q201 -181 244 -172T319 -148T367 -112T384 -67Q384 -47 367 -35T308 -20L172 -11Q149 -17 126 -28T85 -53T55 -85T43 -123ZM301 452Q271 452 246 445T201 419T170 372T159 300Q159 252 177
222T245 191Q296 191 329 240T362 400Q362 431 349 441T301 452ZM349 625L320 560Q269 567 247 587T224 629Q224 676 317 735Q329 743 334 745T344 746Q350 745 354 741T358 731Q358 728 356 724T348 715Q325 698 310 683T294 655Q294 647 307 638T349 625Z" />
<glyph unicode="&#x124;" glyph-name="Hcircumflex" horiz-adv-x="838" d="M761 41L756 0H475L480 41L570 50L610 354H247L207 51L305 41L300 0H19L24 41L107 51L190 678L100 689L105 730H386L381 689L290 679L254 402H616L653 679L556 689L561 730H842L837 689L753
678L670 52L761 41ZM492 866L357 810L347 829L478 945H518L613 827L601 810L492 866Z" />
<glyph unicode="&#x125;" glyph-name="hcircumflex" horiz-adv-x="589" d="M40 0L200 685L109 694L119 737L306 763L220 389Q244 408 272 426T329 457T385 479T436 487Q471 487 491 466T511 414Q511 400 508 381T500 343T490 304T482 272L429 63Q439 65 449 68T473
78T505 95T547 121L568 91Q514 46 473 21T394 -4Q372 -4 356 10T340 51Q340 73 349 103L403 298Q411 329 416 352T423 387Q424 426 395 426Q379 426 356 420T308 402T256 375T209 342L131 0H40ZM400 866L265 810L255 829L386 945H426L521 827L509 810L400 866Z"
/>
<glyph unicode="&#x126;" glyph-name="Hbar" horiz-adv-x="831" d="M81 574H832L826 526H75L81 574ZM761 41L756 0H475L480 41L570 50L610 354H247L207 51L305 41L300 0H19L24 41L107 51L190 678L100 689L105 730H386L381 689L290 679L254 402H616L653 679L556
689L561 730H842L837 689L753 678L670 52L761 41Z" />
<glyph unicode="&#x127;" glyph-name="hbar" horiz-adv-x="589" d="M78 579L87 626H448L439 579H78ZM40 0L200 685L109 694L119 737L306 763L220 389Q244 408 272 426T329 457T385 479T436 487Q471 487 491 466T511 414Q511 400 508 381T500 343T490 304T482 272L429
63Q439 65 449 68T473 78T505 95T547 121L568 91Q514 46 473 21T394 -4Q372 -4 356 10T340 51Q340 73 349 103L403 298Q411 329 416 352T423 387Q424 426 395 426Q379 426 356 420T308 402T256 375T209 342L131 0H40Z" />
<glyph unicode="&#x128;" glyph-name="Itilde" horiz-adv-x="375" d="M21 41L107 52L190 678L92 689L97 730H381L376 689L290 679L207 51L305 41L300 0H16L21 41ZM350 901Q361 901 370 918T390 956L420 945Q413 926 405 906T386 869T363 841T336 830Q320 830 296
836T247 849T202 863T174 869Q163 869 154 854T134 816L104 827Q111 846 119 866T137 903T161 929T191 940Q203 940 227 934T276 921T322 907T350 901Z" />
<glyph unicode="&#x129;" glyph-name="itilde" horiz-adv-x="307" d="M146 410Q129 408 103 396T44 365L25 402Q73 438 115 459T187 481Q214 481 225 466T236 428Q236 414 230 389T219 346L139 63Q149 65 159 68T184 79T217 96T262 124L283 94Q226 46 184 21T104
-4Q82 -4 66 10T50 51Q50 73 59 103L146 410ZM525 670Q536 670 545 686T565 724L595 713Q588 694 580 674T561 637T538 610T511 599Q495 599 475 605T435 617T399 630T375 636Q364 636 355 621T335 584L305 595Q312 614 320 634T338 669T362 695T392 705Q404 705
424 700T464 688T501 676T525 670Z" />
<glyph unicode="&#x12a;" glyph-name="Imacron" horiz-adv-x="375" d="M21 41L107 52L190 678L92 689L97 730H381L376 689L290 679L207 51L305 41L300 0H16L21 41ZM123 898H393L385 837H115L123 898Z" />
<glyph unicode="&#x12b;" glyph-name="imacron" horiz-adv-x="307" d="M146 410Q129 408 103 396T44 365L25 402Q73 438 115 459T187 481Q214 481 225 466T236 428Q236 414 230 389T219 346L139 63Q149 65 159 68T184 79T217 96T262 124L283 94Q226 46 184 21T104
-4Q82 -4 66 10T50 51Q50 73 59 103L146 410ZM334 674H584L576 613H326L334 674Z" />
<glyph unicode="&#x12c;" glyph-name="Ibreve" horiz-adv-x="375" d="M21 41L107 52L190 678L92 689L97 730H381L376 689L290 679L207 51L305 41L300 0H16L21 41ZM256 817Q202 817 169 851T127 940L165 950Q171 921 196 905T258 889Q297 889 322 905T361 950L395
940Q377 886 342 852T256 817Z" />
<glyph unicode="&#x12d;" glyph-name="ibreve" horiz-adv-x="307" d="M146 410Q129 408 103 396T44 365L25 402Q73 438 115 459T187 481Q214 481 225 466T236 428Q236 414 230 389T219 346L139 63Q149 65 159 68T184 79T217 96T262 124L283 94Q226 46 184 21T104
-4Q82 -4 66 10T50 51Q50 73 59 103L146 410ZM451 578Q397 578 368 614T332 711L369 721Q374 685 397 667T457 648Q494 648 518 667T557 721L592 711Q572 648 536 613T451 578Z" />
<glyph unicode="&#x12e;" glyph-name="Iogonek" horiz-adv-x="375" d="M212 -220Q179 -220 150 -214T100 -196T67 -166T55 -124Q55 -95 81 -60T161 0H16L21 41L107 52L190 678L92 689L97 730H381L376 689L290 679L207 51L305 41L300 0H206Q189 -16 177 -29T158
-56T147 -85T143 -120Q143 -143 157 -162T215 -185L212 -220Z" />
<glyph unicode="&#x12f;" glyph-name="iogonek" horiz-adv-x="307" d="M170 664Q170 686 185 706T223 726Q245 726 260 712T276 674Q276 650 256 637T213 623Q195 623 183 633T170 664ZM122 -220Q89 -220 60 -214T10 -196T-23 -166T-35 -124Q-35 -110 -28 -94T-6
-61T34 -30T93 -3Q75 1 63 14T50 51Q50 73 59 103L146 410Q129 408 103 396T44 365L25 402Q73 438 115 459T187 481Q214 481 225 466T236 428Q236 414 230 389T219 346L139 63Q149 65 159 68T184 79T217 96T262 124L283 94Q231 51 189 25T116 -22T70 -64T53 -120Q53
-143 67 -162T125 -185L122 -220Z" />
<glyph unicode="&#x130;" glyph-name="Idotaccent" horiz-adv-x="375" d="M21 41L107 52L190 678L92 689L97 730H381L376 689L290 679L207 51L305 41L300 0H16L21 41ZM249 928Q271 928 286 913T302 876Q302 855 287 840T249 825Q227 825 212 840T196 876Q196 898
211 913T249 928Z" />
<glyph unicode="&#x131;" glyph-name="dotlessi" horiz-adv-x="307" d="M146 410Q129 408 103 396T44 365L25 402Q73 438 115 459T187 481Q214 481 225 466T236 428Q236 414 230 389T219 346L139 63Q149 65 159 68T184 79T217 96T262 124L283 94Q226 46 184 21T104
-4Q82 -4 66 10T50 51Q50 73 59 103L146 410Z" />
<glyph unicode="&#x132;" glyph-name="IJ" horiz-adv-x="768" d="M21 41L107 52L190 678L92 689L97 730H381L376 689L290 679L207 51L305 41L300 0H16L21 41ZM486 689L491 730H775L770 689L684 679L616 160Q607 88 588 33T542 -62T483 -128T414 -165Q397 -170
390 -165T383 -153Q383 -146 387 -142T401 -131Q419 -118 436 -99T467 -47T494 37T517 164L584 677L486 689Z" />
<glyph unicode="&#x133;" glyph-name="ij" horiz-adv-x="570" d="M223 726Q245 726 260 712T276 674Q276 650 256 637T213 623Q195 623 183 633T170 664Q170 686 185 706T223 726ZM146 410Q129 408 103 396T44 365L25 402Q73 438 115 459T187 481Q214 481 225
466T236 428Q236 414 230 389T219 346L139 63Q149 65 159 68T184 79T217 96T262 124L283 94Q226 46 184 21T104 -4Q82 -4 66 10T50 51Q50 73 59 103L146 410ZM415 -19Q405 -61 395 -91T371 -143T338 -180T292 -208Q278 -214 270 -211T261 -201Q261 -195 263 -191T273
-178Q284 -166 297 -146T322 -90Q331 -59 336 -17T353 79L428 410Q411 408 385 396T326 365L307 402Q355 438 397 459T469 481Q496 481 507 466T518 428Q518 414 512 389T501 346L415 -19ZM505 726Q527 726 542 712T558 674Q558 650 538 637T495 623Q477 623 465
633T452 664Q452 686 467 706T505 726Z" />
<glyph unicode="&#x134;" glyph-name="Jcircumflex" horiz-adv-x="387" d="M102 689L107 730H391L386 689L300 679L232 160Q223 88 204 33T158 -62T99 -128T30 -165Q13 -170 6 -165T-1 -153Q-1 -146 3 -142T17 -131Q35 -118 52 -99T83 -47T110 37T133 164L200
677L102 689ZM522 866L387 810L377 829L508 945H548L643 827L631 810L522 866Z" />
<glyph unicode="&#x135;" glyph-name="jcircumflex" horiz-adv-x="288" d="M133 -19Q123 -61 113 -91T89 -143T56 -180T10 -208Q2 -212 -6 -212Q-21 -212 -21 -201Q-21 -194 -15 -187T1 -167T20 -136T40 -90Q49 -59 54 -17T71 79L146 410Q129 408 103 396T44 365L25
402Q73 438 115 459T187 481Q214 481 225 466T236 428Q235 414 229 389T219 346L133 -19ZM214 649L85 578L72 597L200 730H240L326 596L309 578L214 649Z" />
<glyph unicode="&#x136;" glyph-name="uni0136" horiz-adv-x="768" d="M756 689L681 678L339 403L662 47L726 41V0H577H576L248 362L207 51L305 41L300 0H19L24 41L107 51L190 678L100 689L105 730H386L381 689L290 679L252 390L607 678L514 689V730H756V689ZM310
-113L339 -48Q390 -55 412 -75T435 -117Q435 -164 342 -223Q330 -231 325 -233T315 -234Q309 -233 305 -229T301 -219Q301 -211 311 -203Q334 -186 349 -171T365 -143Q365 -135 352 -126T310 -113Z" />
<glyph unicode="&#x137;" glyph-name="uni0137" horiz-adv-x="567" d="M223 217Q322 265 374 306T428 387Q429 404 419 415T395 426Q379 426 356 420T308 402T256 375T209 342L131 0H40L200 685L109 694L119 737L306 763L220 389Q244 408 272 426T329 457T385
479T436 487Q471 487 491 466T511 414Q511 382 495 357T451 310T386 267T305 224Q326 194 351 161T403 100T454 50T500 19Q506 17 511 13T517 3Q517 -8 493 -19T425 -33Q402 -21 377 5T324 63T270 130T218 197L223 217ZM429 -113L458 -48Q509 -55 531 -75T554 -117Q554
-164 461 -223Q449 -231 444 -233T434 -234Q428 -233 424 -229T420 -219Q420 -211 430 -203Q453 -186 468 -171T484 -143Q484 -135 471 -126T429 -113Z" />
<glyph unicode="&#x139;" glyph-name="Lacute" horiz-adv-x="675" d="M24 41L107 51L190 678L100 689L105 730H386L381 689L290 679L207 48H372Q417 48 445 51T491 64T520 88T545 126L601 221H643L571 0H19L24 41ZM374 901Q374 884 360 873T326 855L183 805L171
829L281 921Q294 932 305 940T331 948Q346 948 360 936T374 901Z" />
<glyph unicode="&#x13a;" glyph-name="lacute" horiz-adv-x="313" d="M145 63Q165 67 199 83T281 130L302 100Q245 52 197 24T110 -4Q78 -4 66 18T59 74Q72 147 86 218T117 364T153 517T197 685L98 694L108 737L307 763Q282 674 260 589T217 417T179 244T145 63ZM373
901Q373 884 359 873T325 855L182 805L170 829L280 921Q293 932 304 940T330 948Q345 948 359 936T373 901Z" />
<glyph unicode="&#x13b;" glyph-name="uni013B" horiz-adv-x="675" d="M24 41L107 51L190 678L100 689L105 730H386L381 689L290 679L207 48H372Q417 48 445 51T491 64T520 88T545 126L601 221H643L571 0H19L24 41ZM248 -113L277 -48Q328 -55 350 -75T373 -117Q373
-164 280 -223Q268 -231 263 -233T253 -234Q247 -233 243 -229T239 -219Q239 -211 249 -203Q272 -186 287 -171T303 -143Q303 -135 290 -126T248 -113Z" />
<glyph unicode="&#x13c;" glyph-name="uni013C" horiz-adv-x="313" d="M145 63Q165 67 199 83T281 130L302 100Q245 52 197 24T110 -4Q78 -4 66 18T59 74Q72 147 86 218T117 364T153 517T197 685L98 694L108 737L307 763Q282 674 260 589T217 417T179 244T145
63ZM304 -113L333 -48Q384 -55 406 -75T429 -117Q429 -164 336 -223Q324 -231 319 -233T309 -234Q303 -233 299 -229T295 -219Q295 -211 305 -203Q328 -186 343 -171T359 -143Q359 -135 346 -126T304 -113Z" />
<glyph unicode="&#x13d;" glyph-name="Lcaron" horiz-adv-x="675" d="M24 41L107 51L190 678L100 689L105 730H386L381 689L290 679L207 48H372Q417 48 445 51T491 64T520 88T545 126L601 221H643L571 0H19L24 41ZM428 684L463 757Q486 749 504 736T523 703Q523
680 501 646T445 573Q436 562 431 559T420 556Q415 556 411 559T408 569Q410 576 414 582Q430 605 443 625T456 661Q456 676 428 684Z" />
<glyph unicode="&#x13e;" glyph-name="lcaron" horiz-adv-x="313" d="M145 63Q165 67 199 83T281 130L302 100Q245 52 197 24T110 -4Q78 -4 66 18T59 74Q72 147 86 218T117 364T153 517T197 685L98 694L108 737L307 763Q282 674 260 589T217 417T179 244T145 63ZM333
692L368 765Q391 757 409 744T428 711Q428 688 406 654T350 581Q341 570 336 567T325 564Q320 564 316 567T313 577Q315 584 319 590Q335 613 348 633T361 669Q361 684 333 692Z" />
<glyph unicode="&#x13f;" glyph-name="Ldot" horiz-adv-x="690" d="M24 41L107 51L190 678L100 689L105 730H386L381 689L290 679L207 48H372Q417 48 445 51T491 64T520 88T545 126L601 221H643L571 0H19L24 41Z" />
<glyph unicode="&#x140;" glyph-name="ldot" horiz-adv-x="370" d="M145 63Q165 67 199 83T281 130L302 100Q245 52 197 24T110 -4Q78 -4 66 18T59 74Q72 147 86 218T117 364T153 517T197 685L98 694L108 737L307 763Q282 674 260 589T217 417T179 244T145 63Z" />
<glyph unicode="&#x141;" glyph-name="Lslash" horiz-adv-x="675" d="M24 41L107 51L132 244L37 198L15 242L140 303L190 678L100 689L105 730H386L381 689L290 679L247 355L529 493L551 448L239 296L207 48H372Q417 48 445 51T491 64T520 88T545 126L601 221H643L571
0H19L24 41Z" />
<glyph unicode="&#x142;" glyph-name="lslash" horiz-adv-x="339" d="M9 299L128 370Q145 443 164 520T207 685L108 694L118 737L317 763Q293 677 271 596T229 431L317 483L342 443L215 367Q198 292 184 217T155 63Q175 67 209 83T291 130L312 100Q255 52 207
24T120 -4Q88 -4 76 18T69 74Q79 133 90 190T114 307L34 259L9 299Z" />
<glyph unicode="&#x143;" glyph-name="Nacute" horiz-adv-x="840" d="M24 41L111 53L188 637L158 679L74 689L79 730H242L657 145L717 677L617 689L622 730H843L838 689L774 677L685 0H641L228 581L168 53L265 41L260 0H19L24 41ZM609 901Q609 884 595 873T561
855L418 805L406 829L516 921Q529 932 540 940T566 948Q581 948 595 936T609 901Z" />
<glyph unicode="&#x144;" glyph-name="nacute" horiz-adv-x="589" d="M349 103L403 298Q411 329 416 352T423 387Q424 426 395 426Q379 426 357 420T309 402T259 377T212 345L129 0H38L149 410Q110 408 45 376L28 414Q122 481 171 481Q205 481 217 457T223 391Q247
410 275 427T331 458T386 479T436 487Q471 487 491 466T511 414Q511 400 508 381T500 343T490 304T482 272L429 63Q439 65 449 68T473 78T505 95T547 121L568 91Q514 46 473 21T394 -4Q372 -4 356 10T340 51Q340 73 349 103ZM445 743Q464 743 476 729T488 700Q488
683 475 672T445 652L298 586L283 608L391 712Q405 726 416 734T445 743Z" />
<glyph unicode="&#x145;" glyph-name="uni0145" horiz-adv-x="840" d="M24 41L111 53L188 637L158 679L74 689L79 730H242L657 145L717 677L617 689L622 730H843L838 689L774 677L685 0H641L228 581L168 53L265 41L260 0H19L24 41ZM324 -113L353 -48Q404 -55 426
-75T449 -117Q449 -164 356 -223Q344 -231 339 -233T329 -234Q323 -233 319 -229T315 -219Q315 -211 325 -203Q348 -186 363 -171T379 -143Q379 -135 366 -126T324 -113Z" />
<glyph unicode="&#x146;" glyph-name="uni0146" horiz-adv-x="589" d="M349 103L403 298Q411 329 416 352T423 387Q424 426 395 426Q379 426 357 420T309 402T259 377T212 345L129 0H38L149 410Q110 408 45 376L28 414Q122 481 171 481Q205 481 217 457T223 391Q247
410 275 427T331 458T386 479T436 487Q471 487 491 466T511 414Q511 400 508 381T500 343T490 304T482 272L429 63Q439 65 449 68T473 78T505 95T547 121L568 91Q514 46 473 21T394 -4Q372 -4 356 10T340 51Q340 73 349 103ZM196 -113L225 -48Q276 -55 298 -75T321
-117Q321 -164 228 -223Q216 -231 211 -233T201 -234Q195 -233 191 -229T187 -219Q187 -211 197 -203Q220 -186 235 -171T251 -143Q251 -135 238 -126T196 -113Z" />
<glyph unicode="&#x147;" glyph-name="Ncaron" horiz-adv-x="840" d="M24 41L111 53L188 637L158 679L74 689L79 730H242L657 145L717 677L617 689L622 730H843L838 689L774 677L685 0H641L228 581L168 53L265 41L260 0H19L24 41ZM501 886L635 942L645 923L514
807H474L379 925L391 942L501 886Z" />
<glyph unicode="&#x148;" glyph-name="ncaron" horiz-adv-x="589" d="M349 103L403 298Q411 329 416 352T423 387Q424 426 395 426Q379 426 357 420T309 402T259 377T212 345L129 0H38L149 410Q110 408 45 376L28 414Q122 481 171 481Q205 481 217 457T223 391Q247
410 275 427T331 458T386 479T436 487Q471 487 491 466T511 414Q511 400 508 381T500 343T490 304T482 272L429 63Q439 65 449 68T473 78T505 95T547 121L568 91Q514 46 473 21T394 -4Q372 -4 356 10T340 51Q340 73 349 103ZM352 659L481 730L494 711L366 578H326L240
712L257 730L352 659Z" />
<glyph unicode="&#x14a;" glyph-name="Eng" horiz-adv-x="840" d="M24 41L111 53L188 637L158 679L74 689L79 730H242L656 148H658L717 677L617 689L622 730H843L838 689L774 677L706 157Q696 81 672 27T616 -65T544 -126T464 -165Q447 -171 439 -166T431 -154Q431
-140 450 -132Q497 -112 542 -72T615 35L228 581L168 53L265 41L260 0H19L24 41Z" />
<glyph unicode="&#x14b;" glyph-name="eng" horiz-adv-x="559" d="M337 58L403 298Q411 329 416 352T423 387Q424 426 395 426Q379 426 357 420T309 402T259 377T212 345L129 0H38L149 410Q110 408 45 376L28 414Q122 481 171 481Q205 481 217 457T223 391Q247
410 275 427T331 458T386 479T436 487Q471 487 491 466T511 414Q511 400 508 381T501 343T491 304T482 272L422 65Q405 7 385 -36T339 -111T283 -167T215 -208Q199 -216 191 -212T182 -201Q182 -195 184 -190T196 -178Q214 -165 233 -147T270 -101T305 -35T337
58Z" />
<glyph unicode="&#x14c;" glyph-name="Omacron" horiz-adv-x="841" d="M451 744Q509 744 571 724T683 660T766 552T799 397Q799 308 768 235T682 108T556 25T401 -5Q338 -5 277 20T167 91T88 204T58 353Q58 443 93 515T184 639T310 717T451 744ZM165 336Q165 266
183 211T234 117T310 58T402 37Q462 37 515 64T607 140T668 259T691 415Q691 484 673 537T623 627T547 683T451 702Q395 702 344 677T253 604T189 489T165 336ZM331 898H601L593 837H323L331 898Z" />
<glyph unicode="&#x14d;" glyph-name="omacron" horiz-adv-x="546" d="M309 495Q345 495 379 482T441 443T486 377T503 287Q503 213 480 158T420 67T338 12T249 -6Q208 -6 171 8T106 49T60 115T43 205Q43 274 66 328T128 419T213 475T309 495ZM417 309Q417 381
388 419T310 458Q277 458 246 439T190 384T150 297T135 182Q135 115 163 75T251 35Q291 35 322 56T374 113T406 200T417 309ZM204 674H454L446 613H196L204 674Z" />
<glyph unicode="&#x14e;" glyph-name="Obreve" horiz-adv-x="841" d="M451 744Q509 744 571 724T683 660T766 552T799 397Q799 308 768 235T682 108T556 25T401 -5Q338 -5 277 20T167 91T88 204T58 353Q58 443 93 515T184 639T310 717T451 744ZM165 336Q165 266
183 211T234 117T310 58T402 37Q462 37 515 64T607 140T668 259T691 415Q691 484 673 537T623 627T547 683T451 702Q395 702 344 677T253 604T189 489T165 336ZM465 817Q411 817 378 851T336 940L374 950Q380 921 405 905T467 889Q506 889 531 905T570 950L604
940Q586 886 551 852T465 817Z" />
<glyph unicode="&#x14f;" glyph-name="obreve" horiz-adv-x="546" d="M309 495Q345 495 379 482T441 443T486 377T503 287Q503 213 480 158T420 67T338 12T249 -6Q208 -6 171 8T106 49T60 115T43 205Q43 274 66 328T128 419T213 475T309 495ZM417 309Q417 381
388 419T310 458Q277 458 246 439T190 384T150 297T135 182Q135 115 163 75T251 35Q291 35 322 56T374 113T406 200T417 309ZM322 578Q268 578 239 614T203 711L240 721Q245 685 268 667T328 648Q365 648 389 667T428 721L463 711Q443 648 407 613T322 578Z" />
<glyph unicode="&#x150;" glyph-name="Ohungarumlaut" horiz-adv-x="841" d="M451 744Q509 744 571 724T683 660T766 552T799 397Q799 308 768 235T682 108T556 25T401 -5Q338 -5 277 20T167 91T88 204T58 353Q58 443 93 515T184 639T310 717T451 744ZM165 336Q165
266 183 211T234 117T310 58T402 37Q462 37 515 64T607 140T668 259T691 415Q691 484 673 537T623 627T547 683T451 702Q395 702 344 677T253 604T189 489T165 336ZM618 974Q636 974 651 962T666 932Q666 924 661 913T644 892L556 812L534 825L571 924Q579 946
589 960T618 974ZM460 974Q478 974 493 962T508 932Q508 924 503 913T486 892L398 812L376 825L413 924Q421 946 431 960T460 974Z" />
<glyph unicode="&#x151;" glyph-name="ohungarumlaut" horiz-adv-x="546" d="M309 495Q345 495 379 482T441 443T486 377T503 287Q503 213 480 158T420 67T338 12T249 -6Q208 -6 171 8T106 49T60 115T43 205Q43 274 66 328T128 419T213 475T309 495ZM417 309Q417
381 388 419T310 458Q277 458 246 439T190 384T150 297T135 182Q135 115 163 75T251 35Q291 35 322 56T374 113T406 200T417 309ZM449 759Q466 759 479 748T493 722Q493 706 475 683L391 580L369 593L407 713Q414 733 423 746T449 759ZM305 759Q322 759 335 748T349
722Q349 706 331 683L247 580L225 593L263 713Q270 733 279 746T305 759Z" />
<glyph unicode="&#x152;" glyph-name="OE" horiz-adv-x="1117" d="M1060 559H1016L1019 593Q1022 622 1021 639T1012 666T984 679T931 682H726L690 402H722Q767 402 792 403T830 408T847 416T853 431L869 502H911L877 243H835L838 313Q839 326 837 334T823 347T789
352T725 354H683L643 48H876Q905 48 922 51T950 63T969 88T989 131L1017 198H1057L1021 0H604Q587 0 571 -1T533 -4T485 -7T419 -8Q336 -8 270 15T156 80T84 181T58 312Q58 389 81 464T157 599T297 696T512 733Q531 733 546 733T575 732T605 731T642 730H1082L1060
559ZM473 32Q492 32 509 33T542 37L616 597Q620 627 617 645T600 672T560 684T491 687Q393 687 330 653T229 567T178 450T163 324Q163 242 190 186T260 96T359 47T473 32Z" />
<glyph unicode="&#x153;" glyph-name="oe" horiz-adv-x="853" d="M696 495Q753 495 788 472T824 402Q824 387 820 374T805 346T777 316T733 280Q701 256 666 234T598 195T539 165T499 146Q505 119 517 101T544 73T577 58T609 54Q640 54 665 65T710 92T744 128T767
164Q771 172 775 176T787 180Q799 180 802 171T801 153Q790 124 770 96T722 45T661 8T591 -6Q530 -6 492 19T434 87Q398 40 349 17T249 -6Q208 -6 171 8T106 50T60 119T43 215Q43 280 66 332T128 420T213 475T309 495Q363 495 411 464T481 368Q522 425 579 460T696
495ZM417 299Q417 378 388 418T310 458Q277 458 246 439T190 386T150 302T135 192Q135 117 163 76T251 35Q291 35 322 55T374 112T406 196T417 299ZM495 176Q509 183 532 196T583 226T639 263T690 306Q716 332 728 354T740 405Q740 434 726 446T688 458Q655 458
621 438T558 382T513 298T495 193V176Z" />
<glyph unicode="&#x154;" glyph-name="Racute" horiz-adv-x="780" d="M689 0Q659 0 637 8T596 35T556 86T506 166L397 349H247L207 51L320 41L315 0H19L24 41L107 51L190 678L100 689L105 730H241Q278 730 312 734T384 738Q490 738 549 693T609 566Q609 502 574
456T485 384L603 198Q631 153 651 125T687 79T719 54T756 41L751 0H689ZM379 395Q405 395 429 405T471 435T500 485T511 557Q511 622 477 658T376 695Q356 695 335 694T292 691L253 395H379ZM503 901Q503 884 489 873T455 855L312 805L300 829L410 921Q423 932
434 940T460 948Q475 948 489 936T503 901Z" />
<glyph unicode="&#x155;" glyph-name="racute" horiz-adv-x="390" d="M345 491Q368 491 374 476T380 437Q380 411 373 396L278 393Q243 391 231 378T212 340L129 0H38L149 410Q110 408 45 376L28 414Q122 481 171 481Q202 481 210 457T218 401Q234 420 251 436T284
465T316 484T345 491ZM361 743Q380 743 392 729T404 700Q404 683 391 672T361 652L214 586L199 608L307 712Q321 726 332 734T361 743Z" />
<glyph unicode="&#x156;" glyph-name="uni0156" horiz-adv-x="780" d="M689 0Q659 0 637 8T596 35T556 86T506 166L397 349H247L207 51L320 41L315 0H19L24 41L107 51L190 678L100 689L105 730H241Q278 730 312 734T384 738Q490 738 549 693T609 566Q609 502 574
456T485 384L603 198Q631 153 651 125T687 79T719 54T756 41L751 0H689ZM379 395Q405 395 429 405T471 435T500 485T511 557Q511 622 477 658T376 695Q356 695 335 694T292 691L253 395H379ZM329 -113L358 -48Q409 -55 431 -75T454 -117Q454 -164 361 -223Q349
-231 344 -233T334 -234Q328 -233 324 -229T320 -219Q320 -211 330 -203Q353 -186 368 -171T384 -143Q384 -135 371 -126T329 -113Z" />
<glyph unicode="&#x157;" glyph-name="uni0157" horiz-adv-x="390" d="M345 491Q368 491 374 476T380 437Q380 411 373 396L278 393Q243 391 231 378T212 340L129 0H38L149 410Q110 408 45 376L28 414Q122 481 171 481Q202 481 210 457T218 401Q234 420 251 436T284
465T316 484T345 491ZM-3 -113L26 -48Q77 -55 99 -75T122 -117Q122 -164 29 -223Q17 -231 12 -233T2 -234Q-4 -233 -8 -229T-12 -219Q-12 -211 -2 -203Q21 -186 36 -171T52 -143Q52 -135 39 -126T-3 -113Z" />
<glyph unicode="&#x158;" glyph-name="Rcaron" horiz-adv-x="780" d="M689 0Q659 0 637 8T596 35T556 86T506 166L397 349H247L207 51L320 41L315 0H19L24 41L107 51L190 678L100 689L105 730H241Q278 730 312 734T384 738Q490 738 549 693T609 566Q609 502 574
456T485 384L603 198Q631 153 651 125T687 79T719 54T756 41L751 0H689ZM379 395Q405 395 429 405T471 435T500 485T511 557Q511 622 477 658T376 695Q356 695 335 694T292 691L253 395H379ZM394 886L528 942L538 923L407 807H367L272 925L284 942L394 886Z" />
<glyph unicode="&#x159;" glyph-name="rcaron" horiz-adv-x="390" d="M345 491Q368 491 374 476T380 437Q380 411 373 396L278 393Q243 391 231 378T212 340L129 0H38L149 410Q110 408 45 376L28 414Q122 481 171 481Q202 481 210 457T218 401Q234 420 251 436T284
465T316 484T345 491ZM267 659L396 730L409 711L281 578H241L155 712L172 730L267 659Z" />
<glyph unicode="&#x15a;" glyph-name="Sacute" horiz-adv-x="579" d="M54 203H92Q94 157 108 125T144 72T197 43T263 33Q342 33 380 67T418 163Q418 209 394 240T335 296T257 342T180 390T120 452T96 538Q96 584 113 621T160 684T231 725T319 739Q350 739 375
733T420 721T454 708T479 702Q488 702 494 706T505 717H543L517 526H479Q476 575 461 608T424 660T373 688T314 697Q288 697 263 690T217 669T185 632T173 578Q174 538 198 510T260 460T340 415T419 365T480 298T505 203Q505 159 490 120T443 53T366 8T259 -9Q224
-9 198 -4T152 7T118 19T92 24Q74 24 64 5H28L54 203ZM471 901Q471 884 457 873T423 855L280 805L268 829L378 921Q391 932 402 940T428 948Q443 948 457 936T471 901Z" />
<glyph unicode="&#x15b;" glyph-name="sacute" horiz-adv-x="397" d="M167 38Q215 38 237 58T259 113Q259 138 246 156T212 190T169 220T126 253T93 294T79 350Q79 382 92 409T129 455T181 484T242 495Q302 495 336 468T370 392Q370 357 357 343T325 328Q318 328
311 330T298 340T293 358T299 387L316 428Q311 437 292 445T243 453Q198 453 175 431T151 373Q151 352 165 337T199 306T244 276T288 240T323 194T337 133Q337 97 324 71T287 28T233 3T169 -6Q140 -6 113 1T66 21T33 55T20 104Q20 138 36 156T73 175Q92 175 102
162T99 113L79 65Q89 56 112 47T167 38ZM375 743Q394 743 406 729T418 700Q418 683 405 672T375 652L228 586L213 608L321 712Q335 726 346 734T375 743Z" />
<glyph unicode="&#x15c;" glyph-name="Scircumflex" horiz-adv-x="579" d="M54 203H92Q94 157 108 125T144 72T197 43T263 33Q342 33 380 67T418 163Q418 209 394 240T335 296T257 342T180 390T120 452T96 538Q96 584 113 621T160 684T231 725T319 739Q350 739
375 733T420 721T454 708T479 702Q488 702 494 706T505 717H543L517 526H479Q476 575 461 608T424 660T373 688T314 697Q288 697 263 690T217 669T185 632T173 578Q174 538 198 510T260 460T340 415T419 365T480 298T505 203Q505 159 490 120T443 53T366 8T259
-9Q224 -9 198 -4T152 7T118 19T92 24Q74 24 64 5H28L54 203ZM353 866L218 810L208 829L339 945H379L474 827L462 810L353 866Z" />
<glyph unicode="&#x15d;" glyph-name="scircumflex" horiz-adv-x="397" d="M167 38Q215 38 237 58T259 113Q259 138 246 156T212 190T169 220T126 253T93 294T79 350Q79 382 92 409T129 455T181 484T242 495Q302 495 336 468T370 392Q370 357 357 343T325 328Q318
328 311 330T298 340T293 358T299 387L316 428Q311 437 292 445T243 453Q198 453 175 431T151 373Q151 352 165 337T199 306T244 276T288 240T323 194T337 133Q337 97 324 71T287 28T233 3T169 -6Q140 -6 113 1T66 21T33 55T20 104Q20 138 36 156T73 175Q92 175
102 162T99 113L79 65Q89 56 112 47T167 38ZM271 649L142 578L129 597L257 730H297L383 596L366 578L271 649Z" />
<glyph unicode="&#x15e;" glyph-name="uni015E" horiz-adv-x="579" d="M201 -4Q159 2 134 13T92 24Q74 24 64 5H28L54 203H92Q94 157 108 125T144 72T197 43T263 33Q342 33 380 67T418 163Q418 211 394 243T335 301T257 347T180 395T120 454T96 538Q96 584 113
621T160 684T231 725T319 739Q350 739 375 733T420 721T454 708T479 702Q488 702 494 706T505 717H543L517 526H479Q476 575 461 608T424 660T373 688T314 697Q288 697 263 690T217 669T185 632T173 578Q174 538 198 510T260 460T340 415T419 365T480 298T505 203Q505
159 490 120T443 53T366 8T259 -9Q254 -9 250 -9T240 -8L220 -46Q264 -56 284 -77T305 -122Q305 -155 265 -184T144 -229L134 -199Q192 -183 212 -169T232 -141Q232 -130 213 -119T155 -101L201 -4Z" />
<glyph unicode="&#x15f;" glyph-name="uni015F" horiz-adv-x="397" d="M126 -2Q81 6 51 32T20 104Q20 138 36 156T73 175Q92 175 102 162T99 113L79 60Q89 51 112 42T167 33Q215 33 237 55T259 113Q259 138 246 156T212 190T169 220T126 253T93 294T79 350Q79
382 92 409T129 455T181 484T242 495Q302 495 336 468T370 392Q370 357 357 343T325 328Q318 328 311 331T298 343T293 363T299 393L316 434Q311 443 292 451T243 459Q198 459 175 434T151 373Q151 352 165 337T199 306T244 276T288 240T323 194T337 133Q337 97
324 71T287 28T233 3T169 -6H165L144 -46Q188 -56 208 -77T229 -122Q229 -155 189 -184T68 -229L58 -199Q116 -183 136 -169T156 -141Q156 -130 137 -119T79 -101L126 -2Z" />
<glyph unicode="&#x160;" glyph-name="Scaron" horiz-adv-x="579" d="M54 203H92Q94 157 108 125T144 72T197 43T263 33Q342 33 380 67T418 163Q418 209 394 240T335 296T257 342T180 390T120 452T96 538Q96 584 113 621T160 684T231 725T319 739Q350 739 375
733T420 721T454 708T479 702Q488 702 494 706T505 717H543L517 526H479Q476 575 461 608T424 660T373 688T314 697Q288 697 263 690T217 669T185 632T173 578Q174 538 198 510T260 460T340 415T419 365T480 298T505 203Q505 159 490 120T443 53T366 8T259 -9Q224
-9 198 -4T152 7T118 19T92 24Q74 24 64 5H28L54 203ZM351 886L485 942L495 923L364 807H324L229 925L241 942L351 886Z" />
<glyph unicode="&#x161;" glyph-name="scaron" horiz-adv-x="397" d="M167 38Q215 38 237 58T259 113Q259 138 246 156T212 190T169 220T126 253T93 294T79 350Q79 382 92 409T129 455T181 484T242 495Q302 495 336 468T370 392Q370 357 357 343T325 328Q318 328
311 330T298 340T293 358T299 387L316 428Q311 437 292 445T243 453Q198 453 175 431T151 373Q151 352 165 337T199 306T244 276T288 240T323 194T337 133Q337 97 324 71T287 28T233 3T169 -6Q140 -6 113 1T66 21T33 55T20 104Q20 138 36 156T73 175Q92 175 102
162T99 113L79 65Q89 56 112 47T167 38ZM257 659L386 730L399 711L271 578H231L145 712L162 730L257 659Z" />
<glyph unicode="&#x164;" glyph-name="Tcaron" horiz-adv-x="745" d="M66 544L106 730H747L723 544H675L677 593Q678 625 677 643T667 669T643 680T598 682H468L389 51L488 41L482 0H188L194 41L289 52L368 682H226Q204 682 190 679T166 665T147 638T130 593L114
544H66ZM432 886L566 942L576 923L445 807H405L310 925L322 942L432 886Z" />
<glyph unicode="&#x165;" glyph-name="tcaron" horiz-adv-x="377" d="M232 480H357L347 428H220L157 150Q152 131 149 115T146 85Q146 63 169 63Q181 63 195 66T224 75T252 87T275 100Q283 105 286 106T294 107Q310 107 310 90Q310 84 307 78T298 66Q286 55 267
43T226 19T180 1T138 -7Q93 -7 75 13T57 63Q57 85 62 108T72 153L135 428H40L49 480H147L184 641L273 658L232 480ZM347 692L382 765Q405 757 423 744T442 711Q442 688 420 654T364 581Q355 570 350 567T339 564Q334 564 330 567T327 577Q329 584 333 590Q349 613
362 633T375 669Q375 684 347 692Z" />
<glyph unicode="&#x166;" glyph-name="Tbar" horiz-adv-x="775" d="M600 442L594 394H172L178 442H600ZM66 544L106 730H747L723 544H675L677 593Q678 625 677 643T667 669T643 680T598 682H468L389 51L488 41L482 0H188L194 41L289 52L368 682H226Q204 682 190
679T166 665T147 638T130 593L114 544H66Z" />
<glyph unicode="&#x167;" glyph-name="tbar" horiz-adv-x="377" d="M22 321H330L321 274H14L22 321ZM232 480H357L347 428H220L157 150Q152 131 149 115T146 85Q146 63 169 63Q181 63 195 66T224 75T252 87T275 100Q283 105 286 106T294 107Q310 107 310 90Q310
84 307 78T298 66Q286 55 267 43T226 19T180 1T138 -7Q93 -7 75 13T57 63Q57 85 62 108T72 153L135 428H40L49 480H147L184 641L273 658L232 480Z" />
<glyph unicode="&#x168;" glyph-name="Utilde" horiz-adv-x="800" d="M809 689L741 678L677 262Q668 205 648 156T593 72T509 16T393 -5Q327 -5 273 13T182 69T129 167T124 311L172 678L88 689L93 730H368L363 689L272 679L223 305Q213 233 221 183T253 101T315
55T406 40Q503 40 557 99T625 273L675 677L582 689L587 730H814L809 689ZM575 901Q586 901 595 918T615 956L645 945Q638 926 630 906T611 869T588 841T561 830Q545 830 521 836T472 849T427 863T399 869Q388 869 379 854T359 816L329 827Q336 846 344 866T362
903T386 929T416 940Q428 940 452 934T501 921T547 907T575 901Z" />
<glyph unicode="&#x169;" glyph-name="utilde" horiz-adv-x="593" d="M536 480L434 63Q444 65 454 69T478 79T509 97T551 123L572 93Q518 48 475 22T395 -4Q366 -4 354 15T345 64Q302 35 254 15T166 -5Q116 -5 92 23T67 97Q67 115 70 138T79 179L139 410Q122 409
94 400T35 376L18 414Q121 481 174 481Q212 481 220 453T214 372L166 184Q161 162 157 143T153 109Q153 55 210 55Q242 55 280 69T355 110L446 480H536ZM421 670Q432 670 441 686T461 724L491 713Q484 694 476 674T457 637T434 610T407 599Q391 599 371 605T331
617T295 630T271 636Q260 636 251 621T231 584L201 595Q208 614 216 634T234 669T258 695T288 705Q300 705 320 700T360 688T397 676T421 670Z" />
<glyph unicode="&#x16a;" glyph-name="Umacron" horiz-adv-x="800" d="M809 689L741 678L677 262Q668 205 648 156T593 72T509 16T393 -5Q327 -5 273 13T182 69T129 167T124 311L172 678L88 689L93 730H368L363 689L272 679L223 305Q213 233 221 183T253 101T315
55T406 40Q503 40 557 99T625 273L675 677L582 689L587 730H814L809 689ZM348 898H618L610 837H340L348 898Z" />
<glyph unicode="&#x16b;" glyph-name="umacron" horiz-adv-x="593" d="M536 480L434 63Q444 65 454 69T478 79T509 97T551 123L572 93Q518 48 475 22T395 -4Q366 -4 354 15T345 64Q302 35 254 15T166 -5Q116 -5 92 23T67 97Q67 115 70 138T79 179L139 410Q122
409 94 400T35 376L18 414Q121 481 174 481Q212 481 220 453T214 372L166 184Q161 162 157 143T153 109Q153 55 210 55Q242 55 280 69T355 110L446 480H536ZM230 674H480L472 613H222L230 674Z" />
<glyph unicode="&#x16c;" glyph-name="Ubreve" horiz-adv-x="800" d="M809 689L741 678L677 262Q668 205 648 156T593 72T509 16T393 -5Q327 -5 273 13T182 69T129 167T124 311L172 678L88 689L93 730H368L363 689L272 679L223 305Q213 233 221 183T253 101T315
55T406 40Q503 40 557 99T625 273L675 677L582 689L587 730H814L809 689ZM482 817Q428 817 395 851T353 940L391 950Q397 921 422 905T484 889Q523 889 548 905T587 950L621 940Q603 886 568 852T482 817Z" />
<glyph unicode="&#x16d;" glyph-name="ubreve" horiz-adv-x="593" d="M536 480L434 63Q444 65 454 69T478 79T509 97T551 123L572 93Q518 48 475 22T395 -4Q366 -4 354 15T345 64Q302 35 254 15T166 -5Q116 -5 92 23T67 97Q67 115 70 138T79 179L139 410Q122 409
94 400T35 376L18 414Q121 481 174 481Q212 481 220 453T214 372L166 184Q161 162 157 143T153 109Q153 55 210 55Q242 55 280 69T355 110L446 480H536ZM347 578Q293 578 264 614T228 711L265 721Q270 685 293 667T353 648Q390 648 414 667T453 721L488 711Q468
648 432 613T347 578Z" />
<glyph unicode="&#x16e;" glyph-name="Uring" horiz-adv-x="800" d="M809 689L741 678L677 262Q668 205 648 156T593 72T509 16T393 -5Q327 -5 273 13T182 69T129 167T124 311L172 678L88 689L93 730H368L363 689L272 679L223 305Q213 233 221 183T253 101T315
55T406 40Q503 40 557 99T625 273L675 677L582 689L587 730H814L809 689ZM486 901Q466 901 452 887T437 840Q437 810 451 796T486 781Q506 781 520 795T534 840Q534 872 520 886T486 901ZM486 934Q504 934 522 929T554 912T578 883T588 843Q588 820 579 802T555
772T522 754T486 748Q468 748 451 753T419 770T395 798T386 838Q386 861 395 879T418 909T450 927T486 934Z" />
<glyph unicode="&#x16f;" glyph-name="uring" horiz-adv-x="593" d="M536 480L434 63Q444 65 454 69T478 79T509 97T551 123L572 93Q518 48 475 22T395 -4Q366 -4 354 15T345 64Q302 35 254 15T166 -5Q116 -5 92 23T67 97Q67 115 70 138T79 179L139 410Q122 409
94 400T35 376L18 414Q121 481 174 481Q212 481 220 453T214 372L166 184Q161 162 157 143T153 109Q153 55 210 55Q242 55 280 69T355 110L446 480H536ZM352 719Q332 719 318 705T303 658Q303 628 317 614T352 599Q372 599 386 613T400 658Q400 690 386 704T352
719ZM352 752Q370 752 388 747T420 730T444 701T454 661Q454 638 445 620T421 590T388 572T352 566Q334 566 317 571T285 588T261 616T252 656Q252 679 261 697T284 727T316 745T352 752Z" />
<glyph unicode="&#x170;" glyph-name="Uhungarumlaut" horiz-adv-x="800" d="M809 689L741 678L677 262Q668 205 648 156T593 72T509 16T393 -5Q327 -5 273 13T182 69T129 167T124 311L172 678L88 689L93 730H368L363 689L272 679L223 305Q213 233 221 183T253
101T315 55T406 40Q503 40 557 99T625 273L675 677L582 689L587 730H814L809 689ZM635 974Q653 974 668 962T683 932Q683 924 678 913T661 892L573 812L551 825L588 924Q596 946 606 960T635 974ZM477 974Q495 974 510 962T525 932Q525 924 520 913T503 892L415
812L393 825L430 924Q438 946 448 960T477 974Z" />
<glyph unicode="&#x171;" glyph-name="uhungarumlaut" horiz-adv-x="593" d="M536 480L434 63Q444 65 454 69T478 79T509 97T551 123L572 93Q518 48 475 22T395 -4Q366 -4 354 15T345 64Q302 35 254 15T166 -5Q116 -5 92 23T67 97Q67 115 70 138T79 179L139 410Q122
409 94 400T35 376L18 414Q121 481 174 481Q212 481 220 453T214 372L166 184Q161 162 157 143T153 109Q153 55 210 55Q242 55 280 69T355 110L446 480H536ZM474 759Q491 759 504 748T518 722Q518 706 500 683L416 580L394 593L432 713Q439 733 448 746T474 759ZM330
759Q347 759 360 748T374 722Q374 706 356 683L272 580L250 593L288 713Q295 733 304 746T330 759Z" />
<glyph unicode="&#x172;" glyph-name="Uogonek" horiz-adv-x="800" d="M93 730H368L363 689L272 679L223 305Q213 233 221 183T253 101T315 55T406 40Q503 40 557 99T625 273L675 677L582 689L587 730H814L809 689L741 678L677 262Q665 185 631 123T535 28Q512
15 485 2T434 -29T396 -68T380 -120Q380 -143 394 -162T452 -185L449 -220Q416 -220 387 -214T337 -196T304 -166T292 -124Q292 -96 320 -62T416 -4Q408 -5 404 -5T393 -5Q327 -5 273 13T182 69T129 167T124 311L172 678L88 689L93 730Z" />
<glyph unicode="&#x173;" glyph-name="uogonek" horiz-adv-x="593" d="M410 -220Q377 -220 348 -214T298 -196T265 -166T253 -124Q253 -110 260 -94T282 -61T322 -30T382 -3Q360 2 352 20T345 64Q302 35 254 15T166 -5Q116 -5 92 23T67 97Q67 115 70 138T79 179L139
410Q122 409 94 400T35 376L18 414Q121 481 174 481Q212 481 220 453T214 372L166 184Q161 162 157 143T153 109Q153 55 210 55Q242 55 280 69T355 110L446 480H536L434 63Q444 65 454 69T478 79T509 97T551 123L572 93Q520 49 478 23T405 -25T358 -67T341 -120Q341
-143 355 -162T413 -185L410 -220Z" />
<glyph unicode="&#x174;" glyph-name="Wcircumflex" horiz-adv-x="1127" d="M323 689L234 677L430 120L576 404L473 682L421 689L424 730H871L868 689L803 680L666 431L779 121L1047 678L972 689L975 730H1161L1158 689L1116 680L765 -15H731L601 335L415 -15H381L123
682L71 689L74 730H326L323 689ZM641 500L739 687H572L641 500ZM651 866L516 810L506 829L637 945H677L772 827L760 810L651 866Z" />
<glyph unicode="&#x175;" glyph-name="wcircumflex" horiz-adv-x="739" d="M436 444Q442 408 447 365T457 277T465 188T471 105Q548 202 591 275T634 391Q634 408 624 423T584 443Q574 444 574 454Q574 469 591 481T635 494Q668 494 687 478T706 426Q706 396 688
356T636 262T551 142T436 -6H395Q398 44 394 111T382 250Q347 199 299 134T187 -6H147Q149 35 147 88T140 195T131 297T123 376Q120 402 114 411T95 420Q87 420 72 413T37 389L15 422Q44 448 81 468T152 488Q173 488 185 472T203 414Q207 381 211 348T218 278T224
197T229 101Q277 163 314 217T374 314Q370 346 366 377T356 438Q351 464 379 464H412Q426 464 430 459T436 444ZM426 649L297 578L284 597L412 730H452L538 596L521 578L426 649Z" />
<glyph unicode="&#x176;" glyph-name="Ycircumflex" horiz-adv-x="711" d="M195 41L298 52L340 368L146 681L86 689L91 730H361L356 689L259 678L418 416L602 678L520 689L525 730H727L722 689L666 678L440 372L398 51L515 41L510 0H190L195 41ZM457 866L322 810L312
829L443 945H483L578 827L566 810L457 866Z" />
<glyph unicode="&#x177;" glyph-name="ycircumflex" horiz-adv-x="520" d="M418 386Q418 407 408 422T368 443Q358 444 358 454Q358 469 375 481T419 494Q452 494 471 476T490 426Q490 401 475 366T434 286T374 191T301 85Q245 5 189 -71T79 -221Q55 -216 39 -200T24
-156Q88 -107 131 -66T209 16Q212 62 207 114T193 214T173 301T153 363Q137 398 127 409T104 421Q93 421 77 413T42 389L20 422Q49 448 81 468T145 488Q174 488 192 468T221 419Q244 358 261 287T287 123Q309 156 332 193T375 265T406 332T418 386ZM325 649L196
578L183 597L311 730H351L437 596L420 578L325 649Z" />
<glyph unicode="&#x178;" glyph-name="Ydieresis" horiz-adv-x="711" d="M195 41L298 52L340 368L146 681L86 689L91 730H361L356 689L259 678L418 416L602 678L520 689L525 730H727L722 689L666 678L440 372L398 51L515 41L510 0H190L195 41ZM555 928Q577 928
592 913T608 876Q608 855 593 840T555 825Q533 825 518 840T502 876Q502 898 517 913T555 928ZM345 928Q367 928 382 913T398 876Q398 855 383 840T345 825Q323 825 308 840T292 876Q292 898 307 913T345 928Z" />
<glyph unicode="&#x179;" glyph-name="Zacute" horiz-adv-x="720" d="M40 29L576 688H295Q263 688 242 683T206 667T184 637T169 594L155 539H115L141 730H699V702L166 42H447Q486 42 509 45T547 57T570 84T589 131L616 212H656L617 0H40V29ZM545 901Q545 884
531 873T497 855L354 805L342 829L452 921Q465 932 476 940T502 948Q517 948 531 936T545 901Z" />
<glyph unicode="&#x17a;" glyph-name="zacute" horiz-adv-x="468" d="M128 475H355Q389 475 403 481T431 499Q437 503 443 503T454 499T459 489T455 477L171 153Q201 151 226 137T273 107T314 78T349 65Q366 65 381 80T411 118L439 104Q407 51 381 23T323 -6Q298
-6 274 8T227 39T181 70T138 84Q97 84 93 66Q92 38 90 20T84 -8T73 -23T55 -27Q33 -27 26 -17T18 5Q18 24 27 42T53 80T92 123T138 173L339 401H186Q164 401 149 398T123 386T103 366T83 338H47L128 475ZM393 743Q412 743 424 729T436 700Q436 683 423 672T393
652L246 586L231 608L339 712Q353 726 364 734T393 743Z" />
<glyph unicode="&#x17b;" glyph-name="Zdotaccent" horiz-adv-x="720" d="M40 29L576 688H295Q263 688 242 683T206 667T184 637T169 594L155 539H115L141 730H699V702L166 42H447Q486 42 509 45T547 57T570 84T589 131L616 212H656L617 0H40V29ZM429 928Q451
928 466 913T482 876Q482 855 467 840T429 825Q407 825 392 840T376 876Q376 898 391 913T429 928Z" />
<glyph unicode="&#x17c;" glyph-name="zdotaccent" horiz-adv-x="468" d="M128 475H355Q389 475 403 481T431 499Q437 503 443 503T454 499T459 489T455 477L171 153Q201 151 226 137T273 107T314 78T349 65Q366 65 381 80T411 118L439 104Q407 51 381 23T323
-6Q298 -6 274 8T227 39T181 70T138 84Q97 84 93 66Q92 38 90 20T84 -8T73 -23T55 -27Q33 -27 26 -17T18 5Q18 24 27 42T53 80T92 123T138 173L339 401H186Q164 401 149 398T123 386T103 366T83 338H47L128 475ZM298 726Q320 726 335 711T351 674Q351 653 336 638T298
623Q276 623 261 638T245 674Q245 696 260 711T298 726Z" />
<glyph unicode="&#x17d;" glyph-name="Zcaron" horiz-adv-x="720" d="M40 29L576 688H295Q263 688 242 683T206 667T184 637T169 594L155 539H115L141 730H699V702L166 42H447Q486 42 509 45T547 57T570 84T589 131L616 212H656L617 0H40V29ZM437 886L571 942L581
923L450 807H410L315 925L327 942L437 886Z" />
<glyph unicode="&#x17e;" glyph-name="zcaron" horiz-adv-x="468" d="M128 475H355Q389 475 403 481T431 499Q437 503 443 503T454 499T459 489T455 477L171 153Q201 151 226 137T273 107T314 78T349 65Q366 65 381 80T411 118L439 104Q407 51 381 23T323 -6Q298
-6 274 8T227 39T181 70T138 84Q97 84 93 66Q92 38 90 20T84 -8T73 -23T55 -27Q33 -27 26 -17T18 5Q18 24 27 42T53 80T92 123T138 173L339 401H186Q164 401 149 398T123 386T103 366T83 338H47L128 475ZM299 659L428 730L441 711L313 578H273L187 712L204 730L299
659Z" />
<glyph unicode="&#x1fa;" glyph-name="Aringacute" horiz-adv-x="745" d="M419 41L526 54L460 283H232L117 52L207 41L202 0H-5L0 41L57 52L302 536Q333 599 354 651T384 740H428L628 48L689 41L684 0H414L419 41ZM256 331H447L377 576L256 331ZM411 863Q391 863
377 849T362 802Q362 772 376 758T411 743Q431 743 445 757T459 802Q459 834 445 848T411 863ZM411 896Q429 896 447 891T479 874T503 845T513 805Q513 782 504 764T480 734T447 716T411 710Q393 710 376 715T344 732T320 760T311 800Q311 823 320 841T343 871T375
889T411 896ZM544 1016Q544 999 530 988T496 970L353 920L341 944L451 1036Q464 1047 475 1055T501 1063Q516 1063 530 1051T544 1016Z" />
<glyph unicode="&#x1fb;" glyph-name="aringacute" horiz-adv-x="548" d="M181 385Q232 423 287 444T400 471L434 505H490L387 63Q397 65 406 68T427 78T455 95T496 121L517 91Q463 46 426 21T350 -4Q323 -4 312 15T300 60Q282 47 263 35T224 14T186 0T153 -6Q102
-6 69 28T36 123Q36 168 49 207T84 280T130 339T181 385ZM199 55Q225 55 252 67T305 97L386 432Q343 426 300 408T219 354Q201 337 185 314T156 264T135 206T127 144Q127 100 147 78T199 55ZM348 688Q328 688 314 674T299 627Q299 597 313 583T348 568Q368 568
382 582T396 627Q396 659 382 673T348 688ZM348 721Q366 721 384 716T416 699T440 670T450 630Q450 607 441 589T417 559T384 541T348 535Q330 535 313 540T281 557T257 585T248 625Q248 648 257 666T280 696T312 714T348 721ZM482 851Q482 834 468 823T434 805L291
755L279 779L389 871Q402 882 413 890T439 898Q454 898 468 886T482 851Z" />
<glyph unicode="&#x1fc;" glyph-name="AEacute" horiz-adv-x="1016" d="M376 730H981L959 559H915L918 593Q921 622 920 639T911 666T883 679T830 682H637L601 402H627Q669 402 693 403T730 408T746 416T752 431L768 502H810L776 243H734L737 313Q738 326 736
334T723 347T691 352T630 354H594L554 48H775Q804 48 821 51T849 63T868 88T888 131L916 198H956L920 0H366L371 41L455 51L485 283H274L122 51L201 41L196 0H0L5 41L62 53L475 678L370 689L376 730ZM492 331L538 684L305 331H492ZM842 901Q842 884 828 873T794
855L651 805L639 829L749 921Q762 932 773 940T799 948Q814 948 828 936T842 901Z" />
<glyph unicode="&#x1fd;" glyph-name="aeacute" horiz-adv-x="779" d="M36 133Q36 208 69 268T154 371T272 439T400 471L434 505H468L446 413Q484 451 529 473T622 495Q679 495 714 472T750 402Q750 387 746 374T731 346T703 316T659 280Q627 256 592 234T524
195T465 165T425 146Q431 119 443 101T470 73T503 58T535 54Q566 54 591 65T636 92T670 128T693 164Q697 172 701 176T713 180Q725 180 728 171T727 153Q716 124 696 96T648 45T587 8T517 -6Q452 -6 411 23T351 99Q296 51 248 23T153 -6Q102 -6 69 29T36 133ZM335
182Q335 196 338 221T351 284L386 432Q342 426 296 408T213 356T151 271T127 146Q127 101 150 80T205 59Q237 59 267 76T341 128Q335 153 335 182ZM421 177Q433 183 456 195T507 224T563 262T616 306Q642 332 654 354T666 405Q666 434 652 446T614 458Q581 458
547 438T484 382T439 298T421 193V177ZM568 743Q587 743 599 729T611 700Q611 683 598 672T568 652L421 586L406 608L514 712Q528 726 539 734T568 743Z" />
<glyph unicode="&#x1fe;" glyph-name="Oslashacute" horiz-adv-x="841" d="M451 744Q501 744 553 729T651 684L709 751L748 723L689 655Q738 612 768 549T799 397Q799 308 768 235T682 108T556 25T401 -5Q345 -5 291 14T189 71L110 -21L71 7L154 104Q110 150 84
212T58 353Q58 443 93 515T184 639T310 717T451 744ZM691 415Q691 472 679 518T643 600L231 120Q263 79 307 58T402 37Q462 37 515 64T607 140T668 259T691 415ZM165 336Q165 284 175 241T204 162L612 638Q581 670 540 686T451 702Q395 702 344 677T253 604T189
489T165 336ZM574 901Q574 884 560 873T526 855L383 805L371 829L481 921Q494 932 505 940T531 948Q546 948 560 936T574 901Z" />
<glyph unicode="&#x1ff;" glyph-name="oslashacute" horiz-adv-x="546" d="M309 495Q340 495 370 485T427 454L477 509L512 481L458 422Q478 395 490 359T503 277Q503 207 480 154T420 66T338 12T249 -6Q211 -6 176 6T113 42L56 -20L21 8L83 76Q64 102 54 137T43
215Q43 280 66 332T128 420T213 475T309 495ZM417 299Q417 340 411 370L152 85Q164 59 188 47T251 35Q291 35 322 55T374 112T406 196T417 299ZM135 192Q135 161 138 136L394 417Q368 458 310 458Q277 458 246 439T190 386T150 302T135 192ZM415 743Q434 743 446
729T458 700Q458 683 445 672T415 652L268 586L253 608L361 712Q375 726 386 734T415 743Z" />
<glyph unicode="&#x218;" glyph-name="uni0218" horiz-adv-x="579" d="M54 203H92Q94 157 108 125T144 72T197 43T263 33Q342 33 380 67T418 163Q418 209 394 240T335 296T257 342T180 390T120 452T96 538Q96 584 113 621T160 684T231 725T319 739Q350 739 375
733T420 721T454 708T479 702Q488 702 494 706T505 717H543L517 526H479Q476 575 461 608T424 660T373 688T314 697Q288 697 263 690T217 669T185 632T173 578Q174 538 198 510T260 460T340 415T419 365T480 298T505 203Q505 159 490 120T443 53T366 8T259 -9Q224
-9 198 -4T152 7T118 19T92 24Q74 24 64 5H28L54 203ZM410 -113L439 -48Q490 -55 512 -75T535 -117Q535 -164 442 -223Q430 -231 425 -233T415 -234Q409 -233 405 -229T401 -219Q401 -211 411 -203Q434 -186 449 -171T465 -143Q465 -135 452 -126T410 -113Z" />
<glyph unicode="&#x219;" glyph-name="uni0219" horiz-adv-x="397" d="M167 38Q215 38 237 58T259 113Q259 138 246 156T212 190T169 220T126 253T93 294T79 350Q79 382 92 409T129 455T181 484T242 495Q302 495 336 468T370 392Q370 357 357 343T325 328Q318
328 311 330T298 340T293 358T299 387L316 428Q311 437 292 445T243 453Q198 453 175 431T151 373Q151 352 165 337T199 306T244 276T288 240T323 194T337 133Q337 97 324 71T287 28T233 3T169 -6Q140 -6 113 1T66 21T33 55T20 104Q20 138 36 156T73 175Q92 175
102 162T99 113L79 65Q89 56 112 47T167 38ZM330 -113L359 -48Q410 -55 432 -75T455 -117Q455 -164 362 -223Q350 -231 345 -233T335 -234Q329 -233 325 -229T321 -219Q321 -211 331 -203Q354 -186 369 -171T385 -143Q385 -135 372 -126T330 -113Z" />
<glyph unicode="&#x21a;" glyph-name="uni021A" horiz-adv-x="745" d="M66 544L106 730H747L723 544H675L677 593Q678 625 677 643T667 669T643 680T598 682H468L389 51L488 41L482 0H188L194 41L289 52L368 682H226Q204 682 190 679T166 665T147 638T130 593L114
544H66ZM255 -113L284 -48Q335 -55 357 -75T380 -117Q380 -164 287 -223Q275 -231 270 -233T260 -234Q254 -233 250 -229T246 -219Q246 -211 256 -203Q279 -186 294 -171T310 -143Q310 -135 297 -126T255 -113Z" />
<glyph unicode="&#x21b;" glyph-name="uni021B" horiz-adv-x="377" d="M232 480H357L347 428H220L157 150Q152 131 149 115T146 85Q146 63 169 63Q181 63 195 66T224 75T252 87T275 100Q283 105 286 106T294 107Q310 107 310 90Q310 84 307 78T298 66Q286 55 267
43T226 19T180 1T138 -7Q93 -7 75 13T57 63Q57 85 62 108T72 153L135 428H40L49 480H147L184 641L273 658L232 480ZM313 -113L342 -48Q393 -55 415 -75T438 -117Q438 -164 345 -223Q333 -231 328 -233T318 -234Q312 -233 308 -229T304 -219Q304 -211 314 -203Q337
-186 352 -171T368 -143Q368 -135 355 -126T313 -113Z" />
<glyph unicode="&#x237;" glyph-name="uni0237" horiz-adv-x="288" d="M133 -19Q123 -61 113 -91T89 -143T56 -180T10 -208Q2 -212 -6 -212Q-21 -212 -21 -201Q-21 -194 -15 -187T1 -167T20 -136T40 -90Q49 -59 54 -17T71 79L146 410Q129 408 103 396T44 365L25
402Q73 438 115 459T187 481Q214 481 225 466T236 428Q235 414 229 389T219 346L133 -19Z" />
<glyph unicode="&#x2c6;" glyph-name="circumflex" horiz-adv-x="400" d="M207 649L78 578L65 597L193 730H233L319 596L302 578L207 649Z" />
<glyph unicode="&#x2c7;" glyph-name="caron" horiz-adv-x="400" d="M187 659L316 730L329 711L201 578H161L75 712L92 730L187 659Z" />
<glyph unicode="&#x2d8;" glyph-name="breve" horiz-adv-x="400" d="M283 578Q229 578 200 614T164 711L201 721Q206 685 229 667T289 648Q326 648 350 667T389 721L424 711Q404 648 368 613T283 578Z" />
<glyph unicode="&#x2d9;" glyph-name="dotaccent" horiz-adv-x="400" d="M200 726Q222 726 237 711T253 674Q253 653 238 638T200 623Q178 623 163 638T147 674Q147 696 162 711T200 726Z" />
<glyph unicode="&#x2da;" glyph-name="ring" horiz-adv-x="400" d="M199 719Q179 719 165 705T150 658Q150 628 164 614T199 599Q219 599 233 613T247 658Q247 690 233 704T199 719ZM199 752Q217 752 235 747T267 730T291 701T301 661Q301 638 292 620T268 590T235
572T199 566Q181 566 164 571T132 588T108 616T99 656Q99 679 108 697T131 727T163 745T199 752Z" />
<glyph unicode="&#x2db;" glyph-name="ogonek" horiz-adv-x="400" d="M267 -220Q234 -220 205 -214T155 -196T122 -166T110 -124Q110 -109 117 -93T141 -59T184 -27T247 0H291Q267 -16 249 -29T220 -56T204 -85T198 -120Q198 -143 212 -162T270 -185L267 -220V-220Z" />
<glyph unicode="&#x2dc;" glyph-name="tilde" horiz-adv-x="400" d="M275 670Q286 670 295 686T315 724L345 713Q338 694 330 674T311 637T288 610T261 599Q245 599 225 605T185 617T149 630T125 636Q114 636 105 621T85 584L55 595Q62 614 70 634T88 669T112
695T142 705Q154 705 174 700T214 688T251 676T275 670Z" />
<glyph unicode="&#x2dd;" glyph-name="hungarumlaut" horiz-adv-x="400" d="M290 759Q307 759 320 748T334 722Q334 706 316 683L232 580L210 593L248 713Q255 733 264 746T290 759ZM146 759Q163 759 176 748T190 722Q190 706 172 683L88 580L66 593L104 713Q111
733 120 746T146 759Z" />
</font>
</defs>
</svg>
