<?xml version="1.0" encoding="UTF-8"?>
<svg width="30px" height="30px" viewBox="0 0 30 30" version="1.1" xmlns="http://www.w3.org/2000/svg" xmlns:xlink="http://www.w3.org/1999/xlink">
    <!-- Generator: sketchtool 52.1 (67048) - http://www.bohemiancoding.com/sketch -->
    <title>FEBD6649-8D57-420B-B6E8-62EA9862FBC2</title>
    <desc>Created with sketchtool.</desc>
    <defs>
        <path d="M14.8489365,0.000113924046 C23.0488098,0.000113924046 29.6958983,6.64720245 29.6958983,14.8485947 C29.6958983,23.0488478 23.0488098,29.6959363 14.8489365,29.6959363 C6.64868346,29.6959363 7.59493681e-05,23.0488478 7.59493681e-05,14.8485947 C7.59493681e-05,6.64720245 6.64868346,0.000113924046 14.8489365,0.000113924046 Z M24.9653924,19.8046704 C25.3303291,18.2158097 25.3318481,16.4834047 25.3318481,14.8485946 C25.3318481,13.2141643 25.3348861,11.4798606 24.9699494,9.89137961 C24.7132405,8.77682269 23.8010886,7.95353158 22.7017215,7.83239235 C20.1027342,7.54150628 17.4714684,7.53998729 14.8515949,7.54150628 C12.2321013,7.53998729 9.60045569,7.54150628 7.00032911,7.83239235 C5.90248101,7.95353158 4.99032911,8.77682269 4.73513923,9.89137961 C4.36868354,11.4798606 4.36412658,13.2126453 4.36412658,14.8485946 C4.36412658,16.4834047 4.36412658,18.2158097 4.73058227,19.8046704 C4.98729113,20.9188476 5.89792405,21.7421387 6.99577215,21.8636577 C9.59627848,22.154164 12.2275443,22.155683 14.8474177,22.154164 C17.4684304,22.155683 20.098557,22.154164 22.6986835,21.8636577 C23.7965316,21.7421387 24.7067848,20.9188476 24.9653924,19.8046704 Z M12.1432023,18.1017727 L12.1432023,11.1683546 C14.365101,12.3284813 16.5725694,13.479494 18.8077593,14.6468358 C16.5797846,15.8024055 14.371177,16.947722 12.1432023,18.1017727 Z" id="path-1"></path>
    </defs>
    <g id="Templates" stroke="none" stroke-width="1" fill="none" fill-rule="evenodd">
        <g id="Poem-a-day" transform="translate(-1173.000000, -3266.000000)">
            <g id="modules/engagment" transform="translate(0.000000, 3139.000000)">
                <g id="Engagment">
                    <g id="Follow" transform="translate(934.000000, 54.000000)">
                        <g id="icons/social/facebook-2-copy-4" transform="translate(239.000000, 73.000000)">
                            <mask id="mask-2" fill="white">
                                <use xlink:href="#path-1"></use>
                            </mask>
                            <use id="Combined-Shape" fill="#212B36" xlink:href="#path-1"></use>
                            <g id="Color" mask="url(#mask-2)" fill="#007AB3">
                                <rect id="color/main" x="0" y="0" width="30" height="30" rx="4"></rect>
                            </g>
                        </g>
                    </g>
                </g>
            </g>
        </g>
    </g>
</svg>