<?xml version="1.0" encoding="UTF-8"?>
<svg width="30px" height="30px" viewBox="0 0 30 30" version="1.1" xmlns="http://www.w3.org/2000/svg" xmlns:xlink="http://www.w3.org/1999/xlink">
    <!-- Generator: sketchtool 52.1 (67048) - http://www.bohemiancoding.com/sketch -->
    <title>DF0D44B0-4391-4572-9026-DD95B8A53264</title>
    <desc>Created with sketchtool.</desc>
    <defs>
        <path d="M22.2144779,19.8248053 L22.2144779,19.8347799 L8.00994878,19.8347799 L8.00994878,19.8328617 C6.75545707,19.8132962 5.7434237,18.6290101 5.7434237,17.1688891 C5.7434237,15.6961082 6.77272072,14.5026147 8.04179062,14.5026147 C8.31033625,14.5026147 8.56698914,14.5586257 8.80676202,14.6572203 C9.23873684,13.1153848 10.4855558,12.0001532 11.9587204,12.0001532 C12.5744572,12.0001532 13.1491448,12.1984933 13.6428851,12.537628 C14.3556819,11.1941327 15.6312736,10.2956557 17.0910109,10.2956557 C19.2999905,10.2956557 21.093108,12.3492625 21.136459,14.9004459 C21.413061,14.7573494 21.7188194,14.6760185 22.0414577,14.6760185 C23.2694785,14.6760185 24.2650155,15.8307647 24.2650155,17.255591 C24.2650155,18.61213 23.3611677,19.7219907 22.2144779,19.8248053 M15.0009591,0 C6.71670993,0 0,6.71517539 0,15.0009591 C0,23.2852083 6.71670993,30 15.0009591,30 C23.2848246,30 30,23.2852083 30,15.0009591 C30,6.71517539 23.2848246,0 15.0009591,0" id="path-1"></path>
    </defs>
    <g id="Templates" stroke="none" stroke-width="1" fill="none" fill-rule="evenodd">
        <g id="Poem-a-day" transform="translate(-1118.000000, -3266.000000)">
            <g id="modules/engagment" transform="translate(0.000000, 3139.000000)">
                <g id="Engagment">
                    <g id="Follow" transform="translate(934.000000, 54.000000)">
                        <g id="icons/social/facebook-2-copy-3" transform="translate(184.000000, 73.000000)">
                            <mask id="mask-2" fill="white">
                                <use xlink:href="#path-1"></use>
                            </mask>
                            <use id="Soundcloud" fill="#212B36" xlink:href="#path-1"></use>
                            <g id="Color" mask="url(#mask-2)" fill="#007AB3">
                                <rect id="color/main" x="0" y="0" width="30" height="30" rx="4"></rect>
                            </g>
                        </g>
                    </g>
                </g>
            </g>
        </g>
    </g>
</svg>