<?xml version="1.0" encoding="UTF-8"?>
<svg width="30px" height="30px" viewBox="0 0 30 30" version="1.1" xmlns="http://www.w3.org/2000/svg" xmlns:xlink="http://www.w3.org/1999/xlink">
    <!-- Generator: sketchtool 52.1 (67048) - http://www.bohemiancoding.com/sketch -->
    <title>B6E324CB-CCE4-4C52-B4E9-3C1606B04A5E</title>
    <desc>Created with sketchtool.</desc>
    <defs>
        <path d="M20.069987,22.1506979 C19.3736474,22.4777207 18.7422592,22.7080717 18.1758225,22.8409955 C17.6124067,22.9701431 17.0021655,23.0381155 16.3435884,23.0381155 C15.6004233,23.0381155 15.1578474,22.9437094 14.5853687,22.7579181 C14.0136452,22.5660849 13.5234886,22.2979715 13.1194303,21.9528227 C12.7153721,21.6008767 12.4351747,21.2330704 12.2788382,20.8403409 C12.1225017,20.4483667 12.0424453,19.878909 12.0424453,19.1319677 L12.0424453,13.4117119 L9.82729991,13.4117119 L9.82729991,11.1021604 C10.4669958,10.8952222 11.2109161,10.5976541 11.6678417,10.2079456 C12.1255226,9.81823715 12.4910632,9.35224852 12.7652186,8.80695875 C13.0454159,8.26393472 13.2342282,7.57061615 13.3407183,6.73002402 L15.6593328,6.73002402 L15.6593328,10.500227 L19.4295358,10.500227 L19.4295358,13.4117119 L15.6593328,13.4117119 L15.6593328,17.595036 C15.6593328,18.5390973 15.648004,19.0881633 15.7476969,19.3532557 C15.845124,19.6221243 16.0958667,19.8993007 16.3677563,20.057903 C16.7302759,20.2739042 17.1403761,20.3834153 17.6033437,20.3834153 C18.4295861,20.3834153 19.2528076,20.1145467 20.069987,19.5775646 L20.069987,22.1506979 Z M14.9984895,0 C6.72926842,0 0,6.73002396 0,14.9992454 C0,23.2707326 6.72926842,30.0007566 14.9984895,30.0007566 C23.2699763,30.0007566 30,23.2707326 30,14.9992454 C30,6.73002396 23.2699763,0 14.9984895,0 Z" id="path-1"></path>
    </defs>
    <g id="Templates" stroke="none" stroke-width="1" fill="none" fill-rule="evenodd">
        <g id="Poem-a-day" transform="translate(-1063.000000, -3266.000000)">
            <g id="modules/engagment" transform="translate(0.000000, 3139.000000)">
                <g id="Engagment">
                    <g id="Follow" transform="translate(934.000000, 54.000000)">
                        <g id="icons/social/facebook-2-copy-2" transform="translate(129.000000, 73.000000)">
                            <mask id="mask-2" fill="white">
                                <use xlink:href="#path-1"></use>
                            </mask>
                            <use id="Fill-1" fill="#212B36" xlink:href="#path-1"></use>
                            <g id="Color" mask="url(#mask-2)" fill="#007AB3">
                                <rect id="color/main" x="0" y="0" width="30" height="30" rx="4"></rect>
                            </g>
                        </g>
                    </g>
                </g>
            </g>
        </g>
    </g>
</svg>