<?xml version="1.0" encoding="UTF-8"?>
<svg width="30px" height="30px" viewBox="0 0 30 30" version="1.1" xmlns="http://www.w3.org/2000/svg" xmlns:xlink="http://www.w3.org/1999/xlink">
    <!-- Generator: sketchtool 52.1 (67048) - http://www.bohemiancoding.com/sketch -->
    <title>B0CCD6B0-105B-47E2-AE32-96353A966326</title>
    <desc>Created with sketchtool.</desc>
    <defs>
        <path d="M15.0009591,0 C23.2848246,0 30,6.71517539 30,15.0009591 C30,23.2852083 23.2848246,30 15.0009591,30 C6.71670993,30 0,23.2852083 0,15.0009591 C0,6.71517539 6.71670993,0 15.0009591,0 Z M14.032006,6.15528526 L14.032006,6.15258733 C12.0207008,6.15483561 11.6348972,6.16832525 10.6393618,6.21329071 C9.58716997,6.26162859 9.01588376,6.4369939 8.63547594,6.58537994 C8.13186276,6.78142936 7.77213905,7.01524978 7.39442916,7.39295969 C7.01671927,7.77066959 6.78244921,8.13039332 6.58684944,8.63400652 C6.4391379,9.01441436 6.26332294,9.58547576 6.21520989,10.6376676 C6.16349961,11.7752939 6.15315755,12.1152328 6.15315755,14.9970695 C6.15315755,17.8789061 6.16349961,18.2206437 6.21520989,19.3582699 C6.26309811,20.4104618 6.4391379,20.9815232 6.58684944,21.3614814 C6.78289886,21.8653194 7.01671927,22.2241439 7.39442916,22.6018538 C7.77213905,22.9795637 8.13186276,23.2133841 8.63547594,23.4089839 C9.01610859,23.5566954 9.58716997,23.7325104 10.6393618,23.7810731 C11.776988,23.8327834 12.1185007,23.8440247 15.0001124,23.8440247 C17.8814993,23.8440247 18.2232368,23.8327834 19.360863,23.7810731 C20.4130549,23.73296 20.9845659,23.5575947 21.3645241,23.4092087 C21.8683621,23.2136089 22.2269616,22.9797885 22.6046715,22.6020786 C22.9823814,22.2245935 23.2166515,21.8659939 23.4122512,21.3623807 C23.5599628,20.9824225 23.7357778,20.4113611 23.7838908,19.3591693 C23.8356011,18.221543 23.8468424,17.8798055 23.8468424,14.9997674 C23.8468424,12.1197294 23.8356011,11.7779918 23.7838908,10.6403656 C23.7360026,9.58817369 23.5599628,9.01711229 23.4122512,8.63715411 C23.2162018,8.1335409 22.9823814,7.77381718 22.6046715,7.39610727 C22.2271865,7.01839736 21.8681372,6.78457695 21.3645241,6.58897717 C20.9841162,6.44126562 20.4130549,6.26545065 19.360863,6.2173376 C18.223012,6.16562732 17.8814993,6.15528526 15.0001124,6.15528526 C14.6399391,6.15528526 14.3193353,6.15483561 14.032006,6.15528526 Z M20.7606378,7.94715945 L20.7606378,7.94670979 C21.4755887,7.94670979 22.0556432,8.52676429 22.0556432,9.24171517 C22.0556432,9.95666606 21.4755887,10.5367206 20.7606378,10.5367206 C20.0456869,10.5367206 19.4656324,9.95666606 19.4656324,9.24171517 C19.4656324,8.52653946 20.0456869,7.94715945 20.7606378,7.94715945 Z M15.0001123,9.46024656 L14.9998875,9.46024656 C18.0604617,9.46024656 20.5412062,11.9416656 20.5412062,15.0022397 C20.5412062,18.0628139 18.0606865,20.5431088 15.0001123,20.5431088 C11.9395381,20.5431088 9.45811907,18.0628139 9.45811907,15.0022397 C9.45811907,11.9416656 11.9395381,9.46024656 15.0001123,9.46024656 Z M15.0001125,11.4050031 C13.0133136,11.4050031 11.4028756,13.0154411 11.4028756,15.0022399 C11.4028756,16.988814 13.0133136,18.5994768 15.0001125,18.5994768 C16.9866865,18.5994768 18.5973493,16.988814 18.5973493,15.0022399 C18.5973493,13.0154411 16.9866865,11.4050031 15.0001125,11.4050031 Z" id="path-1"></path>
    </defs>
    <g id="Templates" stroke="none" stroke-width="1" fill="none" fill-rule="evenodd">
        <g id="Poem-a-day" transform="translate(-1228.000000, -3266.000000)">
            <g id="modules/engagment" transform="translate(0.000000, 3139.000000)">
                <g id="Engagment">
                    <g id="Follow" transform="translate(934.000000, 54.000000)">
                        <g id="icons/social/facebook-2-copy-5" transform="translate(294.000000, 73.000000)">
                            <mask id="mask-2" fill="white">
                                <use xlink:href="#path-1"></use>
                            </mask>
                            <use id="Mask" fill="#212B36" xlink:href="#path-1"></use>
                            <g id="Color" mask="url(#mask-2)" fill="#007AB3">
                                <rect id="color/main" x="0" y="0" width="30" height="30" rx="4"></rect>
                            </g>
                        </g>
                    </g>
                </g>
            </g>
        </g>
    </g>
</svg>