<svg width="30px" height="30px" viewBox="0 0 18 18" xmlns="http://www.w3.org/2000/svg" xmlns:xlink="http://www.w3.org/1999/xlink"><defs><path d="M9 0a9 9 0 0 1 9 9 9 9 0 0 1-9 9A9 9 0 1 1 9 0zm-.58 3.693v-.001c-1.208 0-1.44.009-2.036.036-.632.029-.974.134-1.203.223a2.01 2.01 0 0 0-.744.485 2.006 2.006 0 0 0-.485.744c-.089.229-.194.571-.223 1.203-.03.682-.037.886-.037 2.615 0 1.73.006 1.934.037 2.617.029.631.134.974.223 1.202.118.302.258.517.485.744.226.227.442.367.744.484.229.089.571.195 1.203.224.682.03.887.037 2.616.037s1.934-.006 2.617-.037c.63-.03.974-.134 1.202-.223.302-.118.517-.258.744-.485.226-.226.367-.441.484-.744.089-.228.194-.57.223-1.201.031-.683.038-.888.038-2.616 0-1.728-.007-1.933-.038-2.616-.028-.631-.134-.974-.223-1.202a2.01 2.01 0 0 0-.484-.744 2.002 2.002 0 0 0-.744-.485c-.229-.088-.571-.194-1.202-.223-.683-.03-.888-.037-2.617-.037h-.58zm4.036 1.075a.777.777 0 1 1 0 1.554.777.777 0 0 1 0-1.554zM9 5.676a3.325 3.325 0 1 1 0 6.65 3.325 3.325 0 0 1 0-6.65zm0 1.167a2.158 2.158 0 1 0 0 4.317 2.158 2.158 0 0 0 0-4.317z" id="a"/></defs><g fill="none" fill-rule="evenodd"><mask id="b" fill="#fff"><use xlink:href="#a"/></mask><use fill="#212B36" xlink:href="#a"/><g mask="url(#b)" fill="#1E1E1E"><rect width="18" height="18" rx="4"/></g></g></svg>