<svg width="28" height="28" xmlns="http://www.w3.org/2000/svg" xmlns:xlink="http://www.w3.org/1999/xlink">
  <defs>
    <path d="M1.667 15c0 5.648 3.514 10.473 8.473 12.416-.117-1.054-.22-2.672.047-3.826.241-1.04 1.564-6.626 1.564-6.626s-.4-.8-.4-1.98c0-1.855 1.074-3.238 2.414-3.238 1.136 0 1.686.854 1.686 1.878 0 1.144-.728 2.854-1.105 4.44-.314 1.328.667 2.409 1.975 2.409 2.37 0 4.191-2.5 4.191-6.106 0-3.193-2.293-5.425-5.569-5.425-3.793 0-6.02 2.846-6.02 5.787 0 1.146.44 2.375.992 3.043a.402.402 0 0 1 .093.383c-.101.42-.327 1.327-.37 1.511-.059.244-.194.296-.448.18-1.664-.776-2.704-3.212-2.704-5.166 0-4.206 3.055-8.07 8.809-8.07 4.625 0 8.22 3.297 8.22 7.701 0 4.596-2.899 8.294-6.919 8.294-1.352 0-2.622-.703-3.057-1.532 0 0-.668 2.545-.83 3.17-.301 1.158-1.114 2.609-1.657 3.495 1.247.387 2.572.595 3.948.595 7.364 0 13.333-5.969 13.333-13.333 0-7.366-5.969-13.333-13.333-13.333S1.667 7.634 1.667 15z" id="a"/>
  </defs>
  <g transform="translate(-1 -1)" fill="none" fill-rule="evenodd">
    <mask id="b" fill="#fff">
      <use xlink:href="#a"/>
    </mask>
    <use fill="#212B36" xlink:href="#a"/>
    <g mask="url(#b)" fill="#007AB3">
      <rect width="30" height="30" rx="4"/>
    </g>
  </g>
</svg>
