<svg width="30" height="30" viewBox="0 0 30 30" xmlns="http://www.w3.org/2000/svg" xmlns:xlink="http://www.w3.org/1999/xlink">
  <defs>
    <path d="M15.001 0C6.717 0 0 6.715 0 15.001 0 23.285 6.717 30 15.001 30 23.285 30 30 23.285 30 15.001 30 6.715 23.285 0 15.001 0m5.953 13.775a1.025 1.025 0 1 1-.002-2.05 1.025 1.025 0 0 1 .002 2.05zM10.699 21.98h8.204v-7.178h-8.204v7.178zm11.28-11.28H7.623c-.566 0-1.026.46-1.026 1.026v5.127c0 .567.46 1.025 1.026 1.025h2.05v4.102c0 .567.46 1.026 1.026 1.026h8.204c.567 0 1.025-.46 1.025-1.026v-4.102h2.051c.567 0 1.026-.458 1.026-1.025v-5.127c0-.566-.459-1.026-1.026-1.026zM10.7 7.623h8.204v2.05h1.025v-2.05c0-.566-.459-1.026-1.025-1.026h-8.204c-.566 0-1.025.46-1.025 1.026v2.05h1.025v-2.05zm1.026 9.229h4.101v-1.026h-4.101v1.026zm0 2.05h6.152v-1.025h-6.152v1.026zm0 2.052h6.152v-1.026h-6.152v1.026z" id="a"/>
  </defs>
  <g fill="none" fill-rule="evenodd">
    <mask id="b" fill="#fff">
      <use xlink:href="#a"/>
    </mask>
    <use fill="#212B36" xlink:href="#a"/>
    <g mask="url(#b)" fill="#007ab3">
      <rect width="30" height="30" rx="4"/>
    </g>
  </g>
</svg>
