<svg width="30" height="30" viewBox="0 0 18 18" xmlns="http://www.w3.org/2000/svg" xmlns:xlink="http://www.w3.org/1999/xlink"><defs><path d="M13.329 11.895v.006H4.806V11.9c-.753-.012-1.36-.723-1.36-1.599 0-.883.618-1.6 1.38-1.6.16 0 .314.034.458.093C5.544 7.87 6.291 7.2 7.175 7.2c.37 0 .714.12 1.01.323.428-.807 1.194-1.346 2.07-1.346 1.325 0 2.4 1.233 2.427 2.763.166-.086.35-.134.543-.134.737 0 1.334.692 1.334 1.547 0 .814-.542 1.48-1.23 1.542M9 0a9 9 0 1 0 0 18A9 9 0 0 0 9 0" id="a"/></defs><g fill="none" fill-rule="evenodd"><mask id="b" fill="#fff"><use xlink:href="#a"/></mask><use fill="#212B36" xlink:href="#a"/><g mask="url(#b)" fill="#1E1E1E"><rect width="18" height="18" rx="4"/></g></g></svg>