<svg width="30" height="30" viewBox="0 0 30 30" xmlns="http://www.w3.org/2000/svg" xmlns:xlink="http://www.w3.org/1999/xlink">
  <defs>
    <path d="M20.07 22.15c-.696.328-1.328.558-1.894.691a8.185 8.185 0 0 1-1.832.197 5.046 5.046 0 0 1-1.759-.28 4.37 4.37 0 0 1-1.466-.805c-.404-.352-.684-.72-.84-1.113-.156-.392-.237-.961-.237-1.708v-5.72H9.827v-2.31c.64-.207 1.384-.504 1.84-.894.459-.39.824-.856 1.098-1.401.28-.543.47-1.236.576-2.077h2.318v3.77h3.77v2.912h-3.77v4.183c0 .944-.011 1.493.089 1.758.097.27.348.546.62.705.362.216.772.325 1.235.325.827 0 1.65-.268 2.467-.805v2.573zM14.998 0C6.73 0 0 6.73 0 15s6.73 15 14.998 15C23.27 30 30 23.27 30 15S23.27 0 14.998 0z" id="a"/>
  </defs>
  <g fill="none" fill-rule="evenodd">
    <mask id="b" fill="#fff">
      <use xlink:href="#a"/>
    </mask>
    <use fill="#212B36" xlink:href="#a"/>
    <g mask="url(#b)" fill="#007ab3">
      <rect width="30" height="30" rx="4"/>
    </g>
  </g>
</svg>
