<?xml version="1.0" encoding="UTF-8"?>
<svg width="33px" height="33px" viewBox="0 0 16 14" version="1.1" xmlns="http://www.w3.org/2000/svg" xmlns:xlink="http://www.w3.org/1999/xlink">
    <!-- Generator: Sketch 52.2 (67145) - http://www.bohemiancoding.com/sketch -->
    <title>icons/dark/social/twitter</title>
    <desc>Created with Sketch.</desc>
    <defs>
        <path d="M8.76891299,5.51733138 L8.80359563,6.08923193 L8.22555151,6.01920329 C6.12147091,5.75076017 4.28329061,4.84038787 2.72257148,3.31142925 L1.95955324,2.55278566 L1.76301824,3.11301478 C1.34682647,4.36185884 1.61272677,5.68073153 2.47979295,6.56776096 C2.94222825,7.05796143 2.83818031,7.12799007 2.04047942,6.83620407 C1.76301824,6.74283256 1.52023971,6.67280392 1.49711794,6.70781824 C1.41619177,6.78951832 1.69365295,7.85161934 1.91330971,8.27179117 C2.21389265,8.85536316 2.82661942,9.42726371 3.4971506,9.76573547 L4.06363384,10.0341786 L3.39310266,10.04585 C2.74569325,10.04585 2.72257148,10.0575215 2.79193678,10.3026217 C3.02315442,11.0612653 3.93646414,11.8665946 4.95382179,12.2167378 L5.6705965,12.4618381 L5.04630885,12.8353241 C4.12143825,13.3722104 3.03471531,13.6756678 1.94799236,13.6990107 C1.42775265,13.7106821 1,13.7573679 1,13.7923822 C1,13.9090966 2.41042766,14.5626972 3.23125031,14.8194689 C5.69371826,15.5781125 8.61862152,15.2513122 10.8151892,13.9557824 C12.3759083,13.0337386 13.9366274,11.2013226 14.664963,9.42726371 C15.058033,8.48187709 15.451103,6.754504 15.451103,5.92583177 C15.451103,5.38894554 15.4857857,5.3189169 16.1331951,4.67698771 C16.5147042,4.30350164 16.8730916,3.89500124 16.9424569,3.77828684 C17.0580657,3.55652949 17.0465048,3.55652949 16.4568998,3.75494396 C15.4742248,4.10508716 15.3354942,4.0584014 15.8210513,3.53318661 C16.1794386,3.15970053 16.6071913,2.48275703 16.6071913,2.28434255 C16.6071913,2.24932823 16.433778,2.30768543 16.237243,2.41272839 C16.0291471,2.52944278 15.5667119,2.70451438 15.2198854,2.80955734 L14.5955977,3.00797182 L14.0291145,2.6228143 C13.7169707,2.41272839 13.2776571,2.17929959 13.0464395,2.10927095 C12.4568345,1.94587079 11.5550857,1.96921367 11.0232851,2.15595671 C9.57817476,2.6811715 8.66486505,4.03505852 8.76891299,5.51733138 Z" id="path-1"></path>
    </defs>
    <g id="Molecules" stroke="none" stroke-width="1" fill="none" fill-rule="evenodd">
        <g id="Icons" transform="translate(-193.000000, -784.000000)">
            <g id="social" transform="translate(120.000000, 719.000000)">
                <g id="icons/social/twitter" transform="translate(72.000000, 63.000000)">
                    <mask id="mask-2" fill="white">
                        <use xlink:href="#path-1"></use>
                    </mask>
                    <use id="Mask" fill="#212B36" fill-rule="evenodd" xlink:href="#path-1"></use>
                    <g id="color/primary" mask="url(#mask-2)" fill="#00B4F0" fill-rule="evenodd">
                        <rect id="color/main" x="0" y="0" width="18" height="18" rx="4"></rect>
                    </g>
                </g>
            </g>
        </g>
    </g>
</svg>
