<svg width="30" height="30" viewBox="0 0 30 30" xmlns="http://www.w3.org/2000/svg" xmlns:xlink="http://www.w3.org/1999/xlink">
  <defs>
    <path d="M21.692 11.568c.007.147.01.297.01.448 0 4.561-3.473 9.82-9.824 9.82a9.749 9.749 0 0 1-5.293-1.55 6.925 6.925 0 0 0 5.112-1.428 3.457 3.457 0 0 1-3.224-2.4 3.417 3.417 0 0 0 1.558-.059 3.453 3.453 0 0 1-2.771-3.383c0-.015 0-.03.004-.044.462.26.997.413 1.563.43a3.457 3.457 0 0 1-1.07-4.608 9.802 9.802 0 0 0 7.114 3.608 3.469 3.469 0 0 1-.087-.787 3.452 3.452 0 0 1 5.97-2.363 6.82 6.82 0 0 0 2.195-.838 3.464 3.464 0 0 1-1.52 1.912 6.842 6.842 0 0 0 1.983-.543 7.011 7.011 0 0 1-1.72 1.785M14.998 0C6.73 0 0 6.73 0 14.999 0 23.27 6.73 30 14.998 30 23.27 30 30 23.27 30 14.999 30 6.729 23.27 0 14.998 0" id="a"/>
  </defs>
  <g fill="none" fill-rule="evenodd">
    <mask id="b" fill="#fff">
      <use xlink:href="#a"/>
    </mask>
    <use fill="#212B36" xlink:href="#a"/>
    <g mask="url(#b)" fill="#007ab3">
      <rect width="30" height="30" rx="4"/>
    </g>
  </g>
</svg>
