<svg width="30" height="30" viewBox="0 0 18 18" xmlns="http://www.w3.org/2000/svg" xmlns:xlink="http://www.w3.org/1999/xlink"><defs><path d="M8.91 0a8.908 8.908 0 0 1 8.908 8.91A8.909 8.909 0 1 1 8.91 0zm6.07 11.883c.218-.954.22-1.993.22-2.974 0-.98 0-2.021-.218-2.974a1.588 1.588 0 0 0-1.361-1.236c-1.56-.174-3.138-.175-4.71-.174-1.572-.001-3.15 0-4.71.174a1.586 1.586 0 0 0-1.36 1.236c-.22.953-.223 1.993-.223 2.974 0 .981 0 2.02.22 2.974.154.668.7 1.162 1.36 1.235 1.56.174 3.139.175 4.71.174 1.573.001 3.151 0 4.711-.174a1.59 1.59 0 0 0 1.36-1.235zM7.285 10.86v-4.16l3.999 2.087-4 2.073z" id="a"/></defs><g fill="none" fill-rule="evenodd"><mask id="b" fill="#fff"><use xlink:href="#a"/></mask><use fill="#212B36" xlink:href="#a"/><g mask="url(#b)" fill="#1E1E1E"><rect width="30" height="30" rx="4"/></g></g></svg>